<svg xmlns="http://www.w3.org/2000/svg" viewBox="0 0 79 76" role="img" aria-label="Bloco 7 de Aleatoriedades">
  <title>Bloco 7 de Aleatoriedades</title>
  <g fill="#00d4e8" fill-rule="nonzero" shape-rendering="geometricPrecision">
    <path opacity="0.0039" d="M53 0h1v1H53zM35 3h1v1H35zM47 3h1v1H47zM56 3h1v1H56zM53 6h1v1H53zM22 7h1v1H22zM35 7h1v1H35zM55 7h1v1H55zM19 8h1v1H19zM13 10h1v1H13zM25 10h1v1H25zM47 10h1v1H47zM52 10h1v1H52zM22 11h1v1H22zM65 11h1v1H65zM19 12h1v1H19zM15 13h2v1H15zM62 13h1v1H62zM51 14h1v1H51zM27 15h1v1H27zM31 15h1v1H31zM51 15h1v1H51zM64 15h1v1H64zM23 16h2v1H23zM33 16h1v1H33zM65 16h1v1H65zM22 17h1v1H22zM66 17h1v1H66zM28 18h2v1H28zM20 19h1v1H20zM31 19h1v1H31zM34 19h1v1H34zM50 19h1v1H50zM10 20h1v1H10zM19 20h1v1H19zM29 20h1v1H29zM45 20h1v1H45zM6 21h1v1H6zM22 22h1v1H22zM25 23h1v1H25zM27 23h1v1H27zM32 23h1v1H32zM77 23h1v1H77zM9 25h1v1H9zM31 25h1v1H31zM29 26h1v1H29zM17 27h1v1H17zM22 27h1v1H22zM33 27h1v1H33zM44 27h1v1H44zM49 27h1v1H49zM74 27h1v1H74zM8 29h1v1H8zM26 29h1v1H26zM77 29h1v1H77zM77 30h1v1H77zM29 31h1v1H29zM48 31h1v1H48zM73 31h1v1H73zM77 31h1v1H77zM21 32h1v1H21zM73 32h1v1H73zM3 36h1v1H3zM42 36h1v1H42zM26 38h1v1H26zM19 39h1v1H19zM26 39h1v1H26zM6 40h1v1H6zM22 40h3v1H22zM26 40h1v1H26zM2 41h1v1H2zM22 41h1v1H22zM26 41h1v1H26zM41 41h1v1H41zM18 42h1v1H18zM41 42h1v1H41zM41 43h1v1H41zM20 45h1v1H20zM43 47h1v1H43zM71 47h1v1H71zM1 48h1v1H1zM32 48h1v1H32zM42 48h1v1H42zM74 48h1v1H74zM27 49h1v1H27zM49 50h1v1H49zM16 51h1v1H16zM38 51h3v1H38zM42 51h1v1H42zM43 52h1v1H43zM29 53h1v1H29zM45 53h1v1H45zM53 53h1v1H53zM6 54h1v1H6zM25 54h1v1H25zM46 54h1v1H46zM5 55h2v1H5zM18 55h2v1H18zM48 55h1v1H48zM70 55h1v1H70zM13 56h1v1H13zM73 56h1v1H73zM73 57h1v1H73zM1 58h1v1H1zM9 59h1v1H9zM61 59h1v1H61zM56 61h1v1H56zM7 62h1v1H7zM13 62h1v1H13zM57 62h1v1H57zM15 63h1v1H15zM72 63h1v1H72zM18 65h1v1H18zM61 65h1v1H61zM68 65h1v1H68zM19 66h1v1H19zM61 66h1v1H61zM63 66h1v1H63zM67 66h2v1H67zM61 67h2v1H61zM71 67h1v1H71zM58 68h1v1H58zM18 69h1v1H18zM24 69h1v1H24zM46 70h3v1H46zM67 70h1v1H67zM40 71h1v1H40zM23 72h1v1H23zM53 72h1v1H53zM44 74h1v1H44zM36 75h1v1H36z"/>
    <path opacity="0.0392" d="M45 0h1v1H45zM40 2h1v1H40zM36 3h1v1H36zM32 4h1v1H32zM30 5h1v1H30zM40 5h1v1H40zM58 5h1v1H58zM54 6h1v1H54zM23 7h1v1H23zM34 7h1v1H34zM30 8h1v1H30zM14 10h1v1H14zM11 11h1v1H11zM60 11h1v1H60zM18 12h1v1H18zM61 12h1v1H61zM51 13h1v1H51zM46 14h1v1H46zM63 14h1v1H63zM68 14h1v1H68zM28 15h3v1H28zM69 15h1v1H69zM71 17h1v1H71zM7 18h1v1H7zM27 18h1v1H27zM30 18h1v1H30zM72 18h1v1H72zM10 19h1v1H10zM25 19h1v1H25zM32 19h1v1H32zM73 19h1v1H73zM24 20h2v1H24zM22 21h1v1H22zM45 21h1v1H45zM6 22h1v1H6zM18 22h1v1H18zM21 22h1v1H21zM45 22h1v1H45zM34 23h1v1H34zM45 23h1v1H45zM73 23h1v1H73zM77 24h1v1H77zM49 26h1v1H49zM21 27h1v1H21zM28 27h1v1H28zM77 27h1v1H77zM27 28h1v1H27zM77 28h1v1H77zM25 30h1v1H25zM30 30h1v1H30zM24 31h1v1H24zM73 33h1v1H73zM20 35h1v1H20zM26 35h1v1H26zM47 35h1v1H47zM76 36h1v1H76zM25 37h1v1H25zM42 37h1v1H42zM23 39h1v1H23zM21 41h1v1H21zM23 41h1v1H23zM75 41h1v1H75zM2 42h1v1H2zM2 43h1v1H2zM5 43h1v1H5zM25 43h1v1H25zM45 43h1v1H45zM24 44h1v1H24zM41 44h1v1H41zM22 45h1v1H22zM41 45h1v1H41zM4 47h1v1H4zM36 47h1v1H36zM71 48h1v1H71zM43 49h1v1H43zM17 51h1v1H17zM37 51h1v1H37zM0 53h1v1H0zM9 53h1v1H9zM73 53h1v1H73zM3 54h1v1H3zM24 54h1v1H24zM50 54h1v1H50zM73 54h1v1H73zM4 55h1v1H4zM7 55h1v1H7zM73 55h1v1H73zM0 56h1v1H0zM52 58h1v1H52zM3 59h1v1H3zM10 60h1v1H10zM62 60h1v1H62zM69 60h1v1H69zM6 61h1v1H6zM66 63h1v1H66zM64 64h1v1H64zM67 64h1v1H67zM12 65h1v1H12zM65 65h2v1H65zM21 67h1v1H21zM63 67h1v1H63zM54 69h1v1H54zM49 70h1v1H49zM66 70h1v1H66zM41 71h1v1H41zM30 73h1v1H30zM32 73h1v1H32zM48 73h1v1H48z"/>
    <path opacity="0.0784" d="M42 1h1v1H42zM37 3h1v1H37zM46 3h1v1H46zM42 4h1v1H42zM57 4h1v1H57zM53 5h1v1H53zM27 6h1v1H27zM37 6h1v1H37zM59 6h1v1H59zM24 7h1v1H24zM50 8h1v1H50zM57 8h1v1H57zM61 8h1v1H61zM17 9h1v1H17zM27 9h1v1H27zM52 9h1v1H52zM24 10h1v1H24zM59 10h1v1H59zM8 14h1v1H8zM12 14h1v1H12zM11 15h1v1H11zM46 15h1v1H46zM25 16h1v1H25zM70 16h1v1H70zM10 18h1v1H10zM28 20h1v1H28zM48 20h1v1H48zM70 20h1v1H70zM74 20h1v1H74zM23 21h1v1H23zM71 21h1v1H71zM75 21h1v1H75zM72 22h1v1H72zM76 22h1v1H76zM6 23h1v1H6zM20 23h1v1H20zM49 23h1v1H49zM6 24h1v1H6zM9 24h1v1H9zM27 24h1v1H27zM49 24h1v1H49zM17 25h1v1H17zM19 25h1v1H19zM23 25h1v1H23zM49 25h1v1H49zM77 25h1v1H77zM77 26h1v1H77zM20 27h1v1H20zM25 27h1v1H25zM44 28h1v1H44zM74 28h1v1H74zM22 30h1v1H22zM46 30h1v1H46zM48 30h1v1H48zM7 32h1v1H7zM4 33h1v1H4zM25 33h1v1H25zM43 33h1v1H43zM73 34h1v1H73zM73 35h1v1H73zM20 36h1v1H20zM3 37h1v1H3zM45 37h1v1H45zM6 38h1v1H6zM42 38h1v1H42zM45 38h2v1H45zM6 39h1v1H6zM23 42h1v1H23zM2 44h1v1H2zM19 44h1v1H19zM45 44h1v1H45zM21 45h1v1H21zM45 45h1v1H45zM45 46h1v1H45zM37 47h1v1H37zM74 47h1v1H74zM24 50h1v1H24zM50 51h1v1H50zM33 52h1v1H33zM3 53h1v1H3zM0 54h1v1H0zM14 54h1v1H14zM17 55h1v1H17zM55 55h1v1H55zM12 56h1v1H12zM53 56h1v1H53zM70 56h1v1H70zM8 57h1v1H8zM55 60h1v1H55zM69 61h1v1H69zM72 61h1v1H72zM58 62h1v1H58zM61 62h1v1H61zM69 62h1v1H69zM72 62h1v1H72zM63 63h1v1H63zM65 63h1v1H65zM62 65h1v1H62zM67 65h1v1H67zM14 66h1v1H14zM64 66h1v1H64zM66 66h1v1H66zM64 67h1v1H64zM17 68h1v1H17zM20 70h1v1H20zM25 70h1v1H25zM65 70h1v1H65zM22 71h1v1H22zM27 71h1v1H27zM42 71h1v1H42zM37 72h1v1H37zM26 74h1v1H26zM43 74h1v1H43z"/>
    <path opacity="0.1176" d="M46 0h1v1H46zM51 4h1v1H51zM33 7h1v1H33zM56 7h1v1H56zM60 7h1v1H60zM20 8h1v1H20zM50 9h1v1H50zM58 9h1v1H58zM21 11h1v1H21zM47 11h1v1H47zM14 13h1v1H14zM32 16h1v1H32zM46 16h1v1H46zM26 18h1v1H26zM50 18h1v1H50zM68 18h1v1H68zM7 19h1v1H7zM21 19h1v1H21zM69 19h1v1H69zM23 20h1v1H23zM29 21h1v1H29zM22 23h1v1H22zM74 24h1v1H74zM6 25h1v1H6zM20 25h1v1H20zM29 25h1v1H29zM47 25h1v1H47zM26 26h1v1H26zM19 27h1v1H19zM30 27h1v1H30zM8 28h1v1H8zM29 28h1v1H29zM5 30h1v1H5zM26 31h1v1H26zM76 35h1v1H76zM25 36h1v1H25zM45 36h1v1H45zM73 36h1v1H73zM6 37h1v1H6zM24 39h1v1H24zM33 48h1v1H33zM46 48h1v1H46zM1 49h1v1H1zM28 49h1v1H28zM71 49h1v1H71zM18 51h1v1H18zM44 52h1v1H44zM28 53h1v1H28zM49 53h1v1H49zM23 54h1v1H23zM47 54h1v1H47zM53 54h1v1H53zM0 55h1v1H0zM8 55h1v1H8zM50 56h1v1H50zM56 56h1v1H56zM51 57h1v1H51zM54 59h1v1H54zM63 61h1v1H63zM64 62h1v1H64zM62 63h1v1H62zM69 63h1v1H69zM16 64h1v1H16zM66 64h1v1H66zM69 64h1v1H69zM22 68h1v1H22zM59 68h1v1H59zM69 69h1v1H69zM64 70h1v1H64zM57 71h1v1H57zM42 74h1v1H42zM35 75h1v1H35z"/>
    <path opacity="0.1569" d="M45 3h1v1H45zM33 4h1v1H33zM48 7h1v1H48zM50 7h1v1H50zM52 8h1v1H52zM62 9h1v1H62zM12 11h1v1H12zM64 11h1v1H64zM10 17h1v1H10zM23 17h1v1H23zM33 17h1v1H33zM31 18h1v1H31zM24 19h1v1H24zM19 21h1v1H19zM48 21h1v1H48zM34 22h1v1H34zM9 23h1v1H9zM47 24h1v1H47zM18 27h1v1H18zM24 28h1v1H24zM23 29h1v1H23zM28 29h1v1H28zM46 29h1v1H46zM74 29h1v1H74zM27 30h1v1H27zM46 31h1v1H46zM46 32h1v1H46zM27 33h1v1H27zM76 34h1v1H76zM22 37h1v1H22zM73 37h1v1H73zM3 38h1v1H3zM73 38h1v1H73zM42 39h1v1H42zM19 40h1v1H19zM75 40h1v1H75zM24 41h1v1H24zM45 42h1v1H45zM72 43h1v1H72zM38 47h1v1H38zM45 47h1v1H45zM47 49h1v1H47zM19 51h1v1H19zM14 52h1v1H14zM51 52h1v1H51zM52 53h1v1H52zM7 54h1v1H7zM13 54h1v1H13zM15 54h1v1H15zM22 54h1v1H22zM9 55h1v1H9zM51 55h2v1H51zM70 57h1v1H70zM2 58h1v1H2zM56 58h1v1H56zM8 59h1v1H8zM57 59h1v1H57zM60 59h1v1H60zM72 60h1v1H72zM8 62h1v1H8zM11 64h1v1H11zM61 64h1v1H61zM65 64h1v1H65zM70 68h1v1H70zM50 70h1v1H50zM63 70h1v1H63zM43 71h1v1H43zM28 72h1v1H28zM52 72h1v1H52zM25 73h1v1H25zM33 73h1v1H33zM47 73h1v1H47zM41 74h1v1H41z"/>
    <path opacity="0.1961" d="M52 0h1v1H52zM23 10h1v1H23zM50 10h1v1H50zM63 10h1v1H63zM50 11h1v1H50zM17 12h1v1H17zM50 12h2v1H50zM49 13h1v1H49zM65 15h1v1H65zM46 17h1v1H46zM67 17h1v1H67zM22 18h1v1H22zM48 19h1v1H48zM26 20h1v1H26zM34 20h1v1H34zM24 21h1v1H24zM29 24h1v1H29zM45 24h1v1H45zM33 26h1v1H33zM48 29h1v1H48zM23 32h1v1H23zM21 33h1v1H21zM76 33h1v1H76zM43 34h1v1H43zM47 34h1v1H47zM45 35h1v1H45zM24 36h1v1H24zM21 40h1v1H21zM5 42h1v1H5zM25 42h1v1H25zM44 42h1v1H44zM21 43h2v1H21zM44 43h1v1H44zM2 45h1v1H2zM41 50h1v1H41zM71 50h1v1H71zM20 51h1v1H20zM36 51h1v1H36zM3 52h1v1H3zM73 52h1v1H73zM12 54h1v1H12zM3 55h1v1H3zM10 55h1v1H10zM7 57h1v1H7zM72 59h1v1H72zM60 61h1v1H60zM14 63h1v1H14zM60 63h1v1H60zM16 67h1v1H16zM65 67h1v1H65zM19 69h1v1H19zM44 71h1v1H44z"/>
    <path opacity="0.2353" d="M47 0h1v1H47zM38 3h1v1H38zM49 3h1v1H49zM51 3h1v1H51zM31 5h1v1H31zM39 5h1v1H39zM51 5h1v1H51zM36 6h1v1H36zM52 7h1v1H52zM21 8h1v1H21zM15 10h1v1H15zM20 11h1v1H20zM10 12h1v1H10zM65 12h1v1H65zM9 13h1v1H9zM66 13h1v1H66zM26 16h1v1H26zM66 16h1v1H66zM46 18h1v1H46zM7 20h1v1H7zM27 20h1v1H27zM9 22h1v1H9zM26 22h2v1H26zM49 22h1v1H49zM32 24h1v1H32zM21 25h1v1H21zM27 25h1v1H27zM17 26h1v1H17zM31 26h1v1H31zM47 26h1v1H47zM48 28h1v1H48zM44 29h1v1H44zM74 30h1v1H74zM46 33h1v1H46zM24 37h1v1H24zM3 39h1v1H3zM22 39h1v1H22zM45 39h1v1H45zM42 40h1v1H42zM19 43h1v1H19zM4 46h1v1H4zM43 46h1v1H43zM74 46h1v1H74zM39 47h1v1H39zM42 49h1v1H42zM44 49h1v1H44zM45 50h1v1H45zM48 50h1v1H48zM43 51h1v1H43zM46 51h1v1H46zM47 52h1v1H47zM10 53h1v1H10zM46 53h1v1H46zM11 54h1v1H11zM21 54h1v1H21zM49 55h1v1H49zM4 56h2v1H4zM11 56h1v1H11zM1 57h1v1H1zM54 57h1v1H54zM53 58h1v1H53zM72 58h1v1H72zM5 60h1v1H5zM57 61h1v1H57zM62 62h1v1H62zM63 64h1v1H63zM17 65h1v1H17zM63 65h1v1H63zM69 65h1v1H69zM71 66h1v1H71zM20 67h1v1H20zM60 68h1v1H60zM62 70h1v1H62zM26 71h1v1H26zM45 71h1v1H45zM38 72h1v1H38z"/>
    <path opacity="0.2745" d="M43 1h1v1H43zM55 3h1v1H55zM34 4h1v1H34zM54 5h1v1H54zM28 6h1v1H28zM52 6h1v1H52zM55 6h1v1H55zM25 7h1v1H25zM26 9h1v1H26zM47 12h1v1H47zM49 12h1v1H49zM49 16h1v1H49zM50 17h1v1H50zM46 19h1v1H46zM20 20h1v1H20zM9 21h1v1H9zM34 21h1v1H34zM24 23h1v1H24zM47 23h1v1H47zM48 27h1v1H48zM47 29h1v1H47zM47 30h1v1H47zM28 31h1v1H28zM4 34h1v1H4zM25 34h1v1H25zM46 34h1v1H46zM6 36h1v1H6zM46 37h1v1H46zM73 39h1v1H73zM75 39h1v1H75zM3 40h1v1H3zM19 41h1v1H19zM25 41h1v1H25zM44 41h1v1H44zM34 48h1v1H34zM29 49h1v1H29zM15 52h1v1H15zM48 52h1v1H48zM15 53h1v1H15zM17 53h1v1H17zM27 53h1v1H27zM16 55h1v1H16zM6 56h1v1H6zM57 57h1v1H57zM70 58h1v1H70zM61 60h1v1H61zM11 61h1v1H11zM13 65h1v1H13zM64 65h1v1H64zM65 66h1v1H65zM23 69h1v1H23zM55 69h1v1H55zM24 72h1v1H24zM51 72h1v1H51zM46 73h1v1H46zM40 74h1v1H40zM29 75h1v1H29z"/>
    <path opacity="0.3137" d="M53 1h1v1H53zM41 2h1v1H41zM48 2h1v1H48zM54 2h1v1H54zM50 6h2v1H50zM32 7h1v1H32zM22 8h1v1H22zM29 8h1v1H29zM51 8h1v1H51zM18 9h1v1H18zM13 13h1v1H13zM63 13h1v1H63zM49 14h1v1H49zM64 14h1v1H64zM8 15h1v1H8zM49 15h1v1H49zM27 16h1v1H27zM7 21h1v1H7zM21 21h1v1H21zM23 22h1v1H23zM29 22h1v1H29zM18 23h1v1H18zM22 24h1v1H22zM6 26h1v1H6zM8 27h1v1H8zM32 27h1v1H32zM47 27h1v1H47zM31 28h1v1H31zM29 30h1v1H29zM7 31h1v1H7zM47 31h1v1H47zM76 32h1v1H76zM45 34h1v1H45zM43 35h1v1H43zM23 37h1v1H23zM25 38h1v1H25zM25 40h1v1H25zM5 41h1v1H5zM45 41h1v1H45zM19 42h2v1H19zM23 44h1v1H23zM41 46h1v1H41zM1 50h1v1H1zM44 50h1v1H44zM3 51h1v1H3zM71 51h1v1H71zM16 52h1v1H16zM14 53h1v1H14zM16 53h1v1H16zM48 53h1v1H48zM7 56h1v1H7zM6 57h1v1H6zM72 57h1v1H72zM70 59h1v1H70zM58 60h1v1H58zM59 61h1v1H59zM60 62h1v1H60zM10 63h1v1H10zM64 63h1v1H64zM21 70h1v1H21zM56 71h1v1H56zM27 74h1v1H27zM34 75h1v1H34z"/>
    <path opacity="0.3529" d="M49 4h1v1H49zM52 5h1v1H52zM51 7h1v1H51zM48 8h1v1H48zM62 12h1v1H62zM50 13h1v1H50zM67 14h1v1H67zM31 16h1v1H31zM25 18h1v1H25zM48 18h1v1H48zM72 19h1v1H72zM49 21h1v1H49zM48 22h1v1H48zM29 23h1v1H29zM28 26h1v1H28zM48 26h1v1H48zM47 28h1v1H47zM30 29h1v1H30zM44 30h1v1H44zM74 31h1v1H74zM47 32h1v1H47zM47 33h1v1H47zM22 34h1v1H22zM46 35h1v1H46zM23 36h1v1H23zM75 38h1v1H75zM44 40h2v1H44zM42 41h1v1H42zM44 44h1v1H44zM72 44h1v1H72zM74 45h1v1H74zM35 48h1v1H35zM40 50h1v1H40zM18 53h1v1H18zM25 53h2v1H25zM11 55h1v1H11zM54 55h1v1H54zM55 57h1v1H55zM9 60h1v1H9zM7 61h1v1H7zM12 62h1v1H12zM59 62h1v1H59zM66 67h1v1H66zM61 68h1v1H61zM68 69h1v1H68zM51 70h1v1H51zM39 72h1v1H39zM45 73h1v1H45z"/>
    <path opacity="0.3922" d="M48 0h1v1H48zM47 2h1v1H47zM35 4h1v1H35zM52 4h1v1H52zM56 4h1v1H56zM35 6h1v1H35zM51 9h1v1H51zM22 10h1v1H22zM51 11h1v1H51zM47 13h1v1H47zM24 17h1v1H24zM49 17h1v1H49zM9 20h1v1H9zM22 20h1v1H22zM19 24h1v1H19zM23 24h1v1H23zM48 25h1v1H48zM46 28h1v1H46zM5 31h1v1H5zM22 31h1v1H22zM26 34h1v1H26zM21 36h1v1H21zM46 36h1v1H46zM21 38h1v1H21zM44 39h1v1H44zM3 41h1v1H3zM20 43h1v1H20zM4 45h1v1H4zM44 45h1v1H44zM44 46h1v1H44zM25 50h1v1H25zM49 51h1v1H49zM17 52h1v1H17zM24 52h1v1H24zM32 52h1v1H32zM71 52h1v1H71zM13 53h1v1H13zM10 54h1v1H10zM51 54h1v1H51zM8 56h1v1H8zM52 56h1v1H52zM52 57h1v1H52zM55 58h1v1H55zM59 60h1v1H59zM61 61h1v1H61zM61 63h1v1H61zM15 64h1v1H15zM62 64h1v1H62zM71 65h1v1H71zM15 66h1v1H15zM67 67h1v1H67zM67 69h1v1H67zM34 73h1v1H34zM44 73h1v1H44z"/>
    <path opacity="0.4314" d="M44 1h1v1H44zM49 2h1v1H49zM41 4h1v1H41zM38 5h1v1H38zM51 10h1v1H51zM8 16h1v1H8zM10 16h1v1H10zM50 16h1v1H50zM28 17h2v1H28zM71 18h1v1H71zM46 20h1v1H46zM20 22h1v1H20zM25 22h1v1H25zM73 22h1v1H73zM48 23h1v1H48zM74 23h1v1H74zM48 24h1v1H48zM22 26h1v1H22zM76 31h1v1H76zM26 32h1v1H26zM4 35h1v1H4zM43 36h1v1H43zM75 37h1v1H75zM25 39h1v1H25zM5 40h1v1H5zM20 41h1v1H20zM42 42h1v1H42zM24 43h1v1H24zM20 44h1v1H20zM2 46h1v1H2zM40 47h1v1H40zM44 47h1v1H44zM30 49h1v1H30zM21 51h1v1H21zM45 51h1v1H45zM23 52h1v1H23zM25 52h1v1H25zM45 52h1v1H45zM11 53h1v1H11zM71 53h1v1H71zM8 54h1v1H8zM16 54h1v1H16zM50 55h1v1H50zM10 56h1v1H10zM58 58h1v1H58zM4 59h1v1H4zM56 59h1v1H56zM56 60h1v1H56zM62 61h1v1H62zM63 62h1v1H63zM71 64h1v1H71zM21 68h1v1H21zM62 68h1v1H62zM61 70h1v1H61zM46 71h1v1H46zM40 72h1v1H40zM50 72h1v1H50zM29 73h1v1H29zM39 74h1v1H39z"/>
    <path opacity="0.4706" d="M51 0h1v1H51zM53 4h1v1H53zM25 9h1v1H25zM13 11h1v1H13zM16 12h1v1H16zM28 16h1v1H28zM8 17h1v1H8zM27 17h1v1H27zM30 17h1v1H30zM48 17h1v1H48zM70 17h1v1H70zM33 21h1v1H33zM33 22h1v1H33zM47 22h1v1H47zM32 25h2v1H32zM45 25h1v1H45zM8 26h1v1H8zM75 26h1v1H75zM26 28h1v1H26zM30 28h1v1H30zM25 29h1v1H25zM27 32h1v1H27zM74 32h1v1H74zM45 33h1v1H45zM74 33h1v1H74zM22 36h1v1H22zM20 39h1v1H20zM24 42h1v1H24zM23 43h1v1H23zM4 44h1v1H4zM74 44h1v1H74zM43 45h1v1H43zM36 48h1v1H36zM41 49h1v1H41zM3 50h1v1H3zM35 51h1v1H35zM12 53h1v1H12zM24 53h1v1H24zM47 53h1v1H47zM50 53h1v1H50zM20 54h1v1H20zM48 54h2v1H48zM71 54h1v1H71zM15 55h1v1H15zM9 56h1v1H9zM54 56h2v1H54zM53 57h1v1H53zM56 57h1v1H56zM60 60h1v1H60zM70 60h1v1H70zM71 63h1v1H71zM18 68h1v1H18zM56 69h1v1H56zM66 69h1v1H66zM24 70h1v1H24z"/>
    <path opacity="0.5098" d="M44 3h1v1H44zM52 3h1v1H52zM32 5h1v1H32zM50 5h1v1H50zM29 6h1v1H29zM58 6h1v1H58zM19 9h1v1H19zM61 11h1v1H61zM11 14h1v1H11zM47 14h1v1H47zM68 15h1v1H68zM30 16h1v1H30zM69 16h1v1H69zM49 18h1v1H49zM49 20h1v1H49zM71 20h1v1H71zM73 20h1v1H73zM25 21h1v1H25zM74 21h1v1H74zM7 22h1v1H7zM8 25h1v1H8zM75 25h1v1H75zM31 27h1v1H31zM75 27h1v1H75zM24 30h1v1H24zM4 36h1v1H4zM43 37h1v1H43zM44 38h1v1H44zM73 40h1v1H73zM31 49h1v1H31zM47 51h1v1H47zM73 51h1v1H73zM31 52h1v1H31zM46 52h1v1H46zM50 52h1v1H50zM9 54h1v1H9zM12 55h1v1H12zM71 55h1v1H71zM51 56h1v1H51zM72 56h1v1H72zM58 59h1v1H58zM58 61h1v1H58zM18 66h1v1H18zM63 68h1v1H63zM41 72h1v1H41zM49 72h1v1H49z"/>
    <path opacity="0.5490" d="M45 1h1v1H45zM49 5h1v1H49zM57 5h1v1H57zM61 9h1v1H61zM16 10h1v1H16zM60 10h1v1H60zM19 11h1v1H19zM49 11h1v1H49zM12 13h1v1H12zM50 14h1v1H50zM50 15h1v1H50zM29 16h1v1H29zM8 18h1v1H8zM32 18h1v1H32zM49 19h1v1H49zM33 20h1v1H33zM47 21h1v1H47zM72 21h1v1H72zM19 22h1v1H19zM75 22h1v1H75zM28 23h1v1H28zM76 23h1v1H76zM28 25h1v1H28zM6 27h1v1H6zM27 27h1v1H27zM7 30h1v1H7zM44 31h1v1H44zM21 34h1v1H21zM6 35h1v1H6zM75 36h1v1H75zM3 42h1v1H3zM42 43h2v1H42zM74 43h1v1H74zM22 44h1v1H22zM43 44h1v1H43zM42 47h1v1H42zM44 48h1v1H44zM32 49h1v1H32zM42 50h1v1H42zM1 51h1v1H1zM29 52h2v1H29zM19 53h3v1H19zM53 55h1v1H53zM57 58h1v1H57zM55 59h1v1H55zM59 59h1v1H59zM57 60h1v1H57zM12 64h1v1H12zM52 70h1v1H52zM23 71h1v1H23zM55 71h1v1H55zM27 72h1v1H27zM35 73h1v1H35z"/>
    <path opacity="0.5882" d="M49 0h1v1H49zM31 7h1v1H31zM23 8h1v1H23zM28 8h1v1H28zM60 8h1v1H60zM48 9h1v1H48zM59 9h1v1H59zM47 15h1v1H47zM26 17h1v1H26zM33 18h1v1H33zM23 19h1v1H23zM28 21h1v1H28zM23 23h1v1H23zM28 24h1v1H28zM22 25h1v1H22zM29 29h1v1H29zM23 30h1v1H23zM28 30h1v1H28zM23 31h1v1H23zM5 32h1v1H5zM45 32h1v1H45zM74 34h1v1H74zM74 42h1v1H74zM4 43h1v1H4zM21 44h1v1H21zM72 45h1v1H72zM41 48h1v1H41zM45 48h1v1H45zM3 49h1v1H3zM39 50h1v1H39zM46 50h1v1H46zM18 52h1v1H18zM20 52h3v1H20zM49 52h1v1H49zM23 53h1v1H23zM71 56h1v1H71zM71 62h1v1H71zM70 67h1v1H70zM20 69h1v1H20zM57 69h1v1H57zM42 72h1v1H42zM48 72h1v1H48zM43 73h1v1H43zM33 75h1v1H33z"/>
    <path opacity="0.6275" d="M39 3h1v1H39zM36 4h1v1H36zM34 6h1v1H34zM59 7h1v1H59zM24 9h1v1H24zM11 12h1v1H11zM48 16h1v1H48zM25 17h1v1H25zM32 17h1v1H32zM9 19h1v1H9zM47 20h1v1H47zM20 21h1v1H20zM46 21h1v1H46zM24 22h1v1H24zM19 23h1v1H19zM33 23h1v1H33zM8 24h1v1H8zM46 27h1v1H46zM25 28h1v1H25zM75 28h1v1H75zM24 29h1v1H24zM76 30h1v1H76zM27 31h1v1H27zM44 32h1v1H44zM22 33h1v1H22zM26 33h1v1H26zM4 37h1v1H4zM44 37h1v1H44zM43 38h1v1H43zM20 40h1v1H20zM46 49h1v1H46zM19 52h1v1H19zM22 53h1v1H22zM51 53h1v1H51zM17 54h1v1H17zM52 54h1v1H52zM13 55h2v1H13zM5 57h1v1H5zM6 58h1v1H6zM6 60h1v1H6zM10 61h1v1H10zM70 61h1v1H70zM22 69h1v1H22zM58 69h1v1H58zM65 69h1v1H65zM60 70h1v1H60zM26 73h1v1H26zM36 73h1v1H36zM38 74h1v1H38zM30 75h1v1H30z"/>
    <path opacity="0.6667" d="M50 0h1v1H50zM50 4h1v1H50zM37 5h1v1H37zM20 9h1v1H20zM48 10h1v1H48zM62 10h1v1H62zM15 12h1v1H15zM31 17h1v1H31zM33 19h1v1H33zM21 20h1v1H21zM28 22h1v1H28zM75 24h1v1H75zM19 26h3v1H19zM27 26h1v1H27zM32 26h1v1H32zM45 26h1v1H45zM7 29h1v1H7zM22 32h1v1H22zM5 39h1v1H5zM74 41h1v1H74zM2 47h1v1H2zM3 48h1v1H3zM33 49h1v1H33zM43 50h1v1H43zM34 51h1v1H34zM44 51h1v1H44zM1 52h1v1H1zM72 55h1v1H72zM1 56h1v1H1zM3 56h1v1H3zM54 58h1v1H54zM7 59h1v1H7zM71 61h1v1H71zM9 62h1v1H9zM14 65h1v1H14zM16 65h1v1H16zM64 68h1v1H64zM69 68h1v1H69zM47 71h1v1H47zM31 75h1v1H31z"/>
    <path opacity="0.7059" d="M46 1h1v1H46zM46 2h1v1H46zM40 4h1v1H40zM30 6h1v1H30zM26 7h1v1H26zM63 11h1v1H63zM9 14h1v1H9zM47 16h1v1H47zM68 17h1v1H68zM24 18h1v1H24zM8 19h1v1H8zM26 21h2v1H26zM18 24h1v1H18zM33 24h1v1H33zM18 25h1v1H18zM26 27h1v1H26zM44 33h1v1H44zM25 35h1v1H25zM75 35h1v1H75zM24 38h1v1H24zM73 41h1v1H73zM43 42h1v1H43zM72 46h1v1H72zM37 48h1v1H37zM26 50h1v1H26zM73 50h1v1H73zM29 51h1v1H29zM26 52h1v1H26zM28 52h1v1H28zM1 53h1v1H1zM18 54h2v1H18zM3 58h1v1H3zM13 63h1v1H13zM69 66h1v1H69zM17 67h1v1H17zM19 67h1v1H19zM59 69h1v1H59zM54 71h1v1H54zM37 73h1v1H37zM32 75h1v1H32z"/>
    <path opacity="0.7451" d="M42 2h1v1H42zM33 5h1v1H33zM49 6h1v1H49zM27 8h1v1H27zM58 8h1v1H58zM17 10h1v1H17zM48 11h1v1H48zM14 12h1v1H14zM64 12h1v1H64zM23 18h1v1H23zM69 18h1v1H69zM70 19h1v1H70zM7 23h1v1H7zM46 26h1v1H46zM6 28h1v1H6zM75 29h1v1H75zM5 33h1v1H5zM21 35h1v1H21zM23 35h2v1H23zM74 40h1v1H74zM3 47h1v1H3zM72 47h1v1H72zM40 49h1v1H40zM45 49h1v1H45zM38 50h1v1H38zM47 50h1v1H47zM22 51h3v1H22zM28 51h1v1H28zM1 54h1v1H1zM1 55h1v1H1zM71 57h1v1H71zM8 60h1v1H8zM8 61h1v1H8zM25 72h1v1H25zM47 72h1v1H47zM28 73h1v1H28zM28 74h1v1H28z"/>
    <path opacity="0.7843" d="M51 2h1v1H51zM56 6h1v1H56zM57 7h1v1H57zM67 16h1v1H67zM22 19h1v1H22zM47 19h1v1H47zM8 23h1v1H8zM46 25h1v1H46zM7 28h1v1H7zM76 29h1v1H76zM45 31h1v1H45zM44 34h1v1H44zM22 35h1v1H22zM74 35h1v1H74zM44 36h1v1H44zM4 38h1v1H4zM22 38h2v1H22zM21 39h1v1H21zM72 48h1v1H72zM27 50h1v1H27zM48 51h1v1H48zM71 60h1v1H71zM70 62h1v1H70zM19 68h2v1H19zM53 70h1v1H53zM53 71h1v1H53zM42 73h1v1H42zM31 74h1v1H31z"/>
    <path opacity="0.8235" d="M52 1h1v1H52zM43 3h1v1H43zM50 3h1v1H50zM54 3h1v1H54zM54 4h1v1H54zM55 5h1v1H55zM49 7h1v1H49zM21 10h1v1H21zM49 10h1v1H49zM14 11h1v1H14zM63 12h1v1H63zM65 13h1v1H65zM66 14h1v1H66zM10 15h1v1H10zM46 24h1v1H46zM18 26h1v1H18zM45 27h1v1H45zM6 34h1v1H6zM75 34h1v1H75zM43 39h1v1H43zM4 42h1v1H4zM3 43h1v1H3zM42 44h1v1H42zM2 48h1v1H2zM72 49h2v1H72zM28 50h1v1H28zM37 50h1v1H37zM25 51h1v1H25zM33 51h1v1H33zM72 54h1v1H72zM2 57h1v1H2zM4 57h1v1H4zM5 59h1v1H5zM11 63h1v1H11zM68 67h1v1H68zM60 69h1v1H60zM22 70h2v1H22zM54 70h1v1H54zM25 71h1v1H25zM52 71h1v1H52zM43 72h1v1H43zM38 73h1v1H38zM30 74h1v1H30zM32 74h1v1H32z"/>
    <path opacity="0.8627" d="M43 2h1v1H43zM53 2h1v1H53zM40 3h1v1H40zM39 4h1v1H39zM55 4h1v1H55zM36 5h1v1H36zM31 6h1v1H31zM30 7h1v1H30zM26 8h1v1H26zM49 8h1v1H49zM21 9h1v1H21zM23 9h1v1H23zM18 11h1v1H18zM48 12h1v1H48zM10 13h2v1H10zM64 13h1v1H64zM9 15h1v1H9zM48 15h1v1H48zM66 15h1v1H66zM47 17h1v1H47zM9 18h1v1H9zM47 18h1v1H47zM71 19h1v1H71zM8 20h1v1H8zM46 22h1v1H46zM74 22h1v1H74zM46 23h1v1H46zM45 28h1v1H45zM6 29h1v1H6zM45 29h1v1H45zM45 30h1v1H45zM75 30h1v1H75zM5 34h1v1H5zM44 35h1v1H44zM74 36h1v1H74zM74 39h1v1H74zM73 42h1v1H73zM3 46h1v1H3zM42 46h1v1H42zM41 47h1v1H41zM73 47h1v1H73zM40 48h1v1H40zM73 48h1v1H73zM2 49h1v1H2zM34 49h1v1H34zM38 49h2v1H38zM29 50h1v1H29zM72 50h1v1H72zM27 52h1v1H27zM72 53h1v1H72zM71 58h1v1H71zM71 59h1v1H71zM11 62h1v1H11zM13 64h2v1H13zM16 66h2v1H16zM70 66h1v1H70zM65 68h1v1H65zM21 69h1v1H21zM64 69h1v1H64zM59 70h1v1H59zM24 71h1v1H24zM48 71h1v1H48zM46 72h1v1H46zM33 74h1v1H33zM37 74h1v1H37z"/>
    <path opacity="0.9020" d="M47 1h1v1H47zM41 3h2v1H41zM37 4h1v1H37zM27 7h1v1H27zM29 7h1v1H29zM24 8h1v1H24zM49 9h1v1H49zM60 9h1v1H60zM18 10h1v1H18zM17 11h1v1H17zM13 12h1v1H13zM65 14h1v1H65zM70 18h1v1H70zM72 20h1v1H72zM7 24h1v1H7zM76 24h1v1H76zM7 27h1v1H7zM76 28h1v1H76zM6 30h1v1H6zM6 31h1v1H6zM6 32h1v1H6zM6 33h1v1H6zM5 38h1v1H5zM4 39h1v1H4zM43 41h1v1H43zM73 45h1v1H73zM73 46h1v1H73zM38 48h1v1H38zM2 50h1v1H2zM32 50h1v1H32zM30 51h1v1H30zM72 51h1v1H72zM72 52h1v1H72zM7 60h1v1H7zM9 61h1v1H9zM55 70h1v1H55zM51 71h1v1H51zM26 72h1v1H26zM29 74h1v1H29z"/>
    <path opacity="0.9412" d="M48 1h1v1H48zM50 2h1v1H50zM52 2h1v1H52zM53 3h1v1H53zM34 5h1v1H34zM56 5h1v1H56zM33 6h1v1H33zM57 6h1v1H57zM28 7h1v1H28zM58 7h1v1H58zM59 8h1v1H59zM61 10h1v1H61zM15 11h2v1H15zM62 11h1v1H62zM12 12h1v1H12zM10 14h1v1H10zM67 15h1v1H67zM9 16h1v1H9zM9 17h1v1H9zM69 17h1v1H69zM8 21h1v1H8zM73 21h1v1H73zM8 22h1v1H8zM75 23h1v1H75zM76 25h1v1H76zM76 26h1v1H76zM76 27h1v1H76zM75 33h1v1H75zM5 35h1v1H5zM74 37h1v1H74zM74 38h1v1H74zM43 40h1v1H43zM4 41h1v1H4zM73 43h1v1H73zM3 44h1v1H3zM73 44h1v1H73zM3 45h1v1H3zM42 45h1v1H42zM37 49h1v1H37zM30 50h1v1H30zM33 50h1v1H33zM36 50h1v1H36zM2 51h1v1H2zM26 51h2v1H26zM32 51h1v1H32zM2 52h1v1H2zM2 53h1v1H2zM2 54h1v1H2zM2 55h1v1H2zM3 57h1v1H3zM5 58h1v1H5zM12 63h1v1H12zM70 63h1v1H70zM70 64h1v1H70zM15 65h1v1H15zM70 65h1v1H70zM18 67h1v1H18zM68 68h1v1H68zM61 69h1v1H61zM63 69h1v1H63zM56 70h1v1H56zM58 70h1v1H58zM49 71h2v1H49zM44 72h2v1H44zM27 73h1v1H27zM39 73h1v1H39zM41 73h1v1H41zM34 74h3v1H34z"/>
    <path opacity="0.9804" d="M44 2h2v1H44zM38 4h1v1H38zM32 6h1v1H32zM25 8h1v1H25zM22 9h1v1H22zM48 13h1v1H48zM7 25h1v1H7zM7 26h1v1H7zM75 31h1v1H75zM4 40h1v1H4zM39 48h1v1H39zM35 49h1v1H35zM31 50h1v1H31zM31 51h1v1H31zM2 56h1v1H2zM6 59h1v1H6zM10 62h1v1H10zM69 67h1v1H69zM57 70h1v1H57z"/>
    <path opacity="1.0000" d="M49 1h3v1H49zM35 5h1v1H35zM19 10h2v1H19zM48 14h1v1H48zM68 16h1v1H68zM75 32h1v1H75zM5 36h1v1H5zM5 37h1v1H5zM36 49h1v1H36zM34 50h2v1H34zM4 58h1v1H4zM66 68h2v1H66zM62 69h1v1H62zM40 73h1v1H40z"/>
  </g>
</svg>
