<svg xmlns="http://www.w3.org/2000/svg" viewBox="0 0 67 64" role="img" aria-label="Bloco 3 de Aleatoriedades">
  <title>Bloco 3 de Aleatoriedades</title>
  <g fill="#00d4e8" fill-rule="nonzero" shape-rendering="geometricPrecision">
    <path opacity="0.0039" d="M32 3h1v1H32zM40 3h1v1H40zM20 4h1v1H20zM31 4h1v1H31zM34 4h1v1H34zM17 5h1v1H17zM24 5h1v1H24zM37 5h1v1H37zM14 7h1v1H14zM17 9h1v1H17zM27 9h1v1H27zM46 9h1v1H46zM54 9h1v1H54zM48 10h1v1H48zM52 12h1v1H52zM63 13h1v1H63zM6 16h1v1H6zM61 16h1v1H61zM9 17h1v1H9zM25 17h1v1H25zM63 17h1v1H63zM29 18h1v1H29zM37 18h1v1H37zM44 18h2v1H44zM47 18h1v1H47zM63 18h1v1H63zM63 19h1v1H63zM40 20h1v1H40zM48 20h1v1H48zM63 20h1v1H63zM63 21h1v1H63zM24 22h1v1H24zM27 23h1v1H27zM8 24h1v1H8zM46 24h1v1H46zM48 25h1v1H48zM65 25h1v1H65zM42 26h1v1H42zM62 26h1v1H62zM52 27h1v1H52zM7 28h1v1H7zM44 28h1v1H44zM47 28h1v1H47zM40 29h1v1H40zM44 29h1v1H44zM61 29h1v1H61zM47 31h1v1H47zM6 32h1v1H6zM25 32h1v1H25zM46 32h1v1H46zM2 35h1v1H2zM60 35h1v1H60zM5 36h1v1H5zM42 36h1v1H42zM5 37h1v1H5zM5 38h1v1H5zM20 38h1v1H20zM63 38h1v1H63zM18 39h1v1H18zM26 39h1v1H26zM29 40h1v1H29zM40 40h1v1H40zM44 40h1v1H44zM13 41h1v1H13zM32 41h1v1H32zM23 42h1v1H23zM62 42h1v1H62zM4 43h1v1H4zM9 43h1v1H9zM36 43h1v1H36zM6 44h1v1H6zM17 44h1v1H17zM28 44h1v1H28zM39 44h1v1H39zM59 44h1v1H59zM41 45h1v1H41zM12 46h1v1H12zM43 46h1v1H43zM45 47h1v1H45zM8 48h2v1H8zM49 48h1v1H49zM1 49h1v1H1zM41 49h1v1H41zM51 49h1v1H51zM53 50h1v1H53zM7 52h1v1H7zM16 52h1v1H16zM23 55h1v1H23zM47 55h1v1H47zM17 56h1v1H17zM46 56h1v1H46zM20 57h1v1H20zM43 57h1v1H43zM32 58h3v1H32zM39 58h1v1H39zM41 58h1v1H41zM49 59h1v1H49zM27 60h1v1H27zM46 60h1v1H46zM30 61h1v1H30z"/>
    <path opacity="0.0392" d="M28 0h1v1H28zM25 1h1v1H25zM22 3h1v1H22zM27 4h1v1H27zM16 6h1v1H16zM40 6h1v1H40zM47 6h1v1H47zM19 8h1v1H19zM44 8h1v1H44zM9 10h1v1H9zM12 12h1v1H12zM29 12h1v1H29zM26 13h1v1H26zM10 14h1v1H10zM29 15h1v1H29zM40 15h1v1H40zM47 15h1v1H47zM59 15h1v1H59zM29 16h1v1H29zM49 16h1v1H49zM29 17h1v1H29zM38 17h1v1H38zM41 17h1v1H41zM46 17h1v1H46zM40 18h1v1H40zM51 18h1v1H51zM28 19h1v1H28zM47 19h2v1H47zM52 20h1v1H52zM5 21h1v1H5zM37 21h1v1H37zM43 21h1v1H43zM48 21h2v1H48zM49 22h1v1H49zM63 22h1v1H63zM8 23h1v1H8zM24 23h1v1H24zM41 23h2v1H41zM49 23h1v1H49zM24 24h1v1H24zM49 24h1v1H49zM49 25h1v1H49zM47 26h1v1H47zM49 26h1v1H49zM26 27h1v1H26zM49 27h1v1H49zM4 28h1v1H4zM61 30h1v1H61zM64 30h1v1H64zM3 31h1v1H3zM40 32h1v1H40zM40 33h1v1H40zM44 34h1v1H44zM21 37h1v1H21zM24 37h1v1H24zM63 37h1v1H63zM16 40h1v1H16zM1 41h1v1H1zM11 42h1v1H11zM19 43h1v1H19zM7 44h1v1H7zM38 44h1v1H38zM4 45h1v1H4zM36 47h1v1H36zM58 47h1v1H58zM61 47h1v1H61zM7 48h1v1H7zM38 48h1v1H38zM48 48h1v1H48zM10 49h1v1H10zM11 50h1v1H11zM5 51h1v1H5zM46 51h1v1H46zM55 51h1v1H55zM15 52h1v1H15zM13 54h1v1H13zM48 55h2v1H48zM26 56h1v1H26zM58 56h1v1H58zM44 57h1v1H44zM54 57h1v1H54zM22 58h1v1H22zM31 58h1v1H31zM35 58h4v1H35zM25 59h1v1H25zM39 62h1v1H39z"/>
    <path opacity="0.0784" d="M36 1h1v1H36zM38 2h1v1H38zM31 3h1v1H31zM33 3h1v1H33zM35 4h1v1H35zM18 5h1v1H18zM44 5h1v1H44zM30 6h1v1H30zM42 7h1v1H42zM13 8h1v1H13zM11 9h1v1H11zM53 9h1v1H53zM15 10h1v1H15zM29 11h1v1H29zM57 11h1v1H57zM7 13h1v1H7zM10 13h1v1H10zM29 13h1v1H29zM56 13h1v1H56zM62 13h1v1H62zM29 14h1v1H29zM50 17h1v1H50zM25 18h1v1H25zM28 18h1v1H28zM41 20h1v1H41zM49 20h1v1H49zM66 20h1v1H66zM5 22h1v1H5zM27 22h1v1H27zM39 22h1v1H39zM50 22h1v1H50zM50 23h1v1H50zM48 24h1v1H48zM50 24h1v1H50zM24 25h1v1H24zM44 25h1v1H44zM50 25h1v1H50zM52 26h1v1H52zM48 28h1v1H48zM23 29h1v1H23zM45 29h1v1H45zM50 29h1v1H50zM64 29h1v1H64zM40 30h1v1H40zM44 30h1v1H44zM40 31h1v1H40zM42 31h1v1H42zM61 31h1v1H61zM22 33h1v1H22zM41 33h1v1H41zM5 35h1v1H5zM39 35h1v1H39zM2 36h1v1H2zM24 36h1v1H24zM60 36h1v1H60zM63 36h1v1H63zM42 38h1v1H42zM28 40h1v1H28zM41 40h1v1H41zM31 41h1v1H31zM62 41h1v1H62zM4 42h1v1H4zM21 42h1v1H21zM26 43h1v1H26zM16 44h1v1H16zM29 44h1v1H29zM34 46h1v1H34zM9 47h1v1H9zM39 48h1v1H39zM3 50h1v1H3zM8 52h1v1H8zM48 52h1v1H48zM60 52h1v1H60zM11 53h1v1H11zM18 53h1v1H18zM20 54h1v1H20zM15 55h1v1H15zM59 55h1v1H59zM18 56h1v1H18zM25 56h1v1H25zM47 56h1v1H47zM57 56h1v1H57zM28 57h1v1H28zM51 58h1v1H51zM28 60h1v1H28zM45 60h1v1H45zM33 62h1v1H33z"/>
    <path opacity="0.1176" d="M26 1h1v1H26zM26 4h1v1H26zM28 4h1v1H28zM38 5h1v1H38zM22 6h1v1H22zM29 10h1v1H29zM55 10h1v1H55zM13 11h1v1H13zM51 11h1v1H51zM53 12h1v1H53zM59 12h1v1H59zM64 14h1v1H64zM62 16h1v1H62zM6 17h1v1H6zM37 19h1v1H37zM42 19h1v1H42zM8 22h1v1H8zM7 27h1v1H7zM45 27h1v1H45zM62 27h1v1H62zM51 28h1v1H51zM25 31h1v1H25zM24 35h1v1H24zM60 37h1v1H60zM24 38h1v1H24zM39 39h1v1H39zM42 40h2v1H42zM4 41h1v1H4zM14 41h1v1H14zM1 42h1v1H1zM37 44h1v1H37zM13 45h1v1H13zM32 45h1v1H32zM11 46h1v1H11zM6 48h1v1H6zM40 48h1v1H40zM47 48h1v1H47zM58 48h1v1H58zM50 49h1v1H50zM44 50h1v1H44zM57 52h1v1H57zM54 54h1v1H54zM42 58h1v1H42zM34 59h1v1H34zM48 59h1v1H48zM44 60h1v1H44zM41 61h1v1H41z"/>
    <path opacity="0.1569" d="M24 2h1v1H24zM46 6h1v1H46zM48 7h1v1H48zM47 9h1v1H47zM26 14h1v1H26zM58 14h1v1H58zM9 16h1v1H9zM66 16h1v1H66zM28 17h1v1H28zM25 19h1v1H25zM8 21h1v1H8zM27 21h1v1H27zM46 21h1v1H46zM50 21h1v1H50zM48 22h1v1H48zM5 23h1v1H5zM65 24h1v1H65zM45 25h1v1H45zM41 28h1v1H41zM42 30h1v1H42zM48 30h1v1H48zM3 32h1v1H3zM45 33h1v1H45zM63 35h1v1H63zM60 38h1v1H60zM19 39h1v1H19zM44 39h1v1H44zM22 40h2v1H22zM33 42h1v1H33zM1 43h1v1H1zM35 43h1v1H35zM1 44h1v1H1zM40 45h1v1H40zM61 46h1v1H61zM1 48h1v1H1zM9 49h1v1H9zM49 52h1v1H49zM19 56h1v1H19zM56 56h1v1H56zM45 57h1v1H45zM33 59h1v1H33zM37 59h2v1H37z"/>
    <path opacity="0.1961" d="M28 3h1v1H28zM41 4h1v1H41zM28 5h1v1H28zM20 7h1v1H20zM50 8h1v1H50zM52 9h1v1H52zM27 10h1v1H27zM49 10h1v1H49zM60 15h1v1H60zM28 16h1v1H28zM43 16h2v1H43zM39 19h1v1H39zM51 19h1v1H51zM25 20h1v1H25zM48 23h1v1H48zM63 23h1v1H63zM5 24h1v1H5zM26 26h1v1H26zM6 31h1v1H6zM44 31h1v1H44zM46 31h1v1H46zM61 32h1v1H61zM42 33h1v1H42zM22 34h1v1H22zM63 34h1v1H63zM41 38h1v1H41zM60 39h1v1H60zM4 40h1v1H4zM17 40h1v1H17zM62 40h1v1H62zM30 41h1v1H30zM24 42h1v1H24zM18 43h1v1H18zM8 44h1v1H8zM42 46h1v1H42zM58 49h1v1H58zM6 51h1v1H6zM17 53h1v1H17zM52 53h1v1H52zM22 55h1v1H22zM52 55h1v1H52zM48 56h1v1H48zM26 59h1v1H26zM35 59h2v1H35zM39 59h1v1H39zM31 61h1v1H31zM38 62h1v1H38z"/>
    <path opacity="0.2353" d="M32 0h1v1H32zM35 1h1v1H35zM21 4h1v1H21zM36 4h1v1H36zM23 5h1v1H23zM30 5h1v1H30zM15 7h1v1H15zM18 8h1v1H18zM11 12h1v1H11zM41 15h1v1H41zM46 15h1v1H46zM48 16h1v1H48zM6 18h1v1H6zM46 19h1v1H46zM49 19h1v1H49zM66 19h1v1H66zM8 20h1v1H8zM37 20h1v1H37zM52 21h1v1H52zM7 26h1v1H7zM43 26h1v1H43zM50 26h1v1H50zM43 28h1v1H43zM46 29h1v1H46zM24 34h1v1H24zM2 37h1v1H2zM40 37h1v1H40zM21 40h1v1H21zM10 43h1v1H10zM27 43h1v1H27zM5 45h1v1H5zM59 45h1v1H59zM37 47h1v1H37zM2 49h1v1H2zM42 49h1v1H42zM52 50h1v1H52zM12 51h1v1H12zM47 51h1v1H47zM14 52h1v1H14zM16 55h1v1H16zM49 56h1v1H49zM27 57h1v1H27zM23 58h1v1H23zM30 58h1v1H30zM47 59h1v1H47z"/>
    <path opacity="0.2745" d="M37 2h1v1H37zM19 5h1v1H19zM45 8h1v1H45zM29 9h1v1H29zM10 10h1v1H10zM54 12h1v1H54zM61 13h1v1H61zM65 15h1v1H65zM27 20h1v1H27zM44 20h1v1H44zM47 20h1v1H47zM25 21h1v1H25zM42 22h1v1H42zM42 27h1v1H42zM41 29h1v1H41zM41 35h1v1H41zM39 36h1v1H39zM43 36h1v1H43zM25 39h1v1H25zM60 40h1v1H60zM15 41h1v1H15zM20 41h1v1H20zM25 41h1v1H25zM12 42h1v1H12zM15 44h1v1H15zM1 45h1v1H1zM61 45h1v1H61zM8 47h1v1H8zM38 47h1v1H38zM44 47h1v1H44zM54 51h1v1H54zM60 51h1v1H60zM21 57h1v1H21zM53 57h1v1H53z"/>
    <path opacity="0.3137" d="M39 3h1v1H39zM25 4h1v1H25zM43 5h1v1H43zM17 6h1v1H17zM43 7h1v1H43zM12 9h1v1H12zM7 14h1v1H7zM26 15h1v1H26zM28 15h1v1H28zM66 17h1v1H66zM48 18h1v1H48zM66 18h1v1H66zM6 19h1v1H6zM38 21h1v1H38zM65 23h1v1H65zM7 25h1v1H7zM26 25h1v1H26zM24 26h1v1H24zM46 26h1v1H46zM62 28h1v1H62zM64 28h1v1H64zM42 29h1v1H42zM61 33h1v1H61zM5 34h1v1H5zM22 35h1v1H22zM2 38h1v1H2zM21 38h1v1H21zM4 39h1v1H4zM40 39h1v1H40zM62 39h1v1H62zM24 40h1v1H24zM24 41h1v1H24zM20 42h1v1H20zM30 44h1v1H30zM3 45h1v1H3zM35 46h1v1H35zM1 47h1v1H1zM5 48h1v1H5zM8 49h1v1H8zM49 49h1v1H49zM4 50h1v1H4zM10 50h1v1H10zM45 50h1v1H45zM50 52h1v1H50zM56 52h1v1H56zM14 54h1v1H14zM46 57h1v1H46zM29 60h1v1H29zM34 62h1v1H34z"/>
    <path opacity="0.3529" d="M27 1h1v1H27zM31 2h1v1H31zM34 3h1v1H34zM45 6h1v1H45zM8 12h1v1H8zM42 16h1v1H42zM63 16h1v1H63zM6 20h1v1H6zM39 20h1v1H39zM52 25h1v1H52zM44 27h1v1H44zM4 29h1v1H4zM23 30h1v1H23zM25 30h1v1H25zM3 33h1v1H3zM43 34h1v1H43zM42 35h1v1H42zM40 36h1v1H40zM2 39h1v1H2zM2 40h1v1H2zM21 41h1v1H21zM29 41h1v1H29zM17 43h1v1H17zM28 43h1v1H28zM1 46h1v1H1zM36 46h1v1H36zM7 47h1v1H7zM9 52h1v1H9zM19 54h1v1H19z"/>
    <path opacity="0.3922" d="M23 3h1v1H23zM28 6h1v1H28zM16 9h1v1H16zM14 10h1v1H14zM54 10h1v1H54zM52 11h1v1H52zM56 11h1v1H56zM63 14h1v1H63zM44 15h2v1H44zM26 16h1v1H26zM38 18h1v1H38zM25 22h1v1H25zM40 22h1v1H40zM7 24h1v1H7zM5 25h1v1H5zM49 28h1v1H49zM6 30h1v1H6zM63 33h1v1H63zM61 34h1v1H61zM22 36h1v1H22zM43 37h1v1H43zM39 38h1v1H39zM62 38h1v1H62zM27 40h1v1H27zM25 42h1v1H25zM32 42h1v1H32zM3 44h1v1H3zM12 44h1v1H12zM10 45h1v1H10zM33 45h1v1H33zM10 46h1v1H10zM7 49h1v1H7zM46 50h1v1H46zM58 50h1v1H58zM7 51h1v1H7zM59 54h1v1H59zM17 55h1v1H17zM43 58h1v1H43zM50 58h1v1H50zM27 59h1v1H27zM40 59h1v1H40zM46 59h1v1H46zM40 61h1v1H40zM37 62h1v1H37z"/>
    <path opacity="0.4314" d="M25 2h1v1H25zM27 3h1v1H27zM41 6h1v1H41zM12 11h1v1H12zM9 15h1v1H9zM42 15h2v1H42zM61 15h1v1H61zM45 16h1v1H45zM47 17h1v1H47zM27 19h1v1H27zM43 19h1v1H43zM45 20h1v1H45zM47 25h1v1H47zM51 27h1v1H51zM49 29h1v1H49zM40 34h1v1H40zM44 35h1v1H44zM39 37h1v1H39zM3 43h1v1H3zM61 44h1v1H61zM12 45h1v1H12zM39 45h1v1H39zM39 47h2v1H39zM44 49h1v1H44zM52 52h1v1H52zM58 55h1v1H58zM24 56h1v1H24zM24 58h1v1H24zM29 58h1v1H29z"/>
    <path opacity="0.4706" d="M29 0h1v1H29zM30 4h1v1H30zM21 6h1v1H21zM14 8h1v1H14zM50 10h1v1H50zM9 11h1v1H9zM27 11h1v1H27zM58 12h1v1H58zM26 17h1v1H26zM39 18h1v1H39zM50 18h1v1H50zM6 21h1v1H6zM41 21h2v1H41zM65 22h1v1H65zM26 24h1v1H26zM63 24h1v1H63zM46 25h1v1H46zM50 27h1v1H50zM41 30h1v1H41zM45 32h1v1H45zM42 34h1v1H42zM61 35h1v1H61zM40 38h1v1H40zM20 39h1v1H20zM23 41h1v1H23zM13 42h1v1H13zM26 42h1v1H26zM34 43h1v1H34zM6 45h1v1H6zM34 45h1v1H34zM41 46h1v1H41zM46 48h1v1H46zM51 50h1v1H51zM48 51h1v1H48zM12 53h1v1H12zM16 53h1v1H16zM53 53h1v1H53zM32 59h1v1H32zM43 60h1v1H43zM35 62h2v1H35z"/>
    <path opacity="0.5098" d="M32 2h1v1H32zM39 5h1v1H39zM7 15h1v1H7zM49 17h1v1H49zM64 18h1v1H64zM8 19h1v1H8zM45 19h1v1H45zM42 20h2v1H42zM50 20h1v1H50zM52 22h1v1H52zM44 26h2v1H44zM50 28h1v1H50zM6 29h1v1H6zM25 29h1v1H25zM47 30h1v1H47zM23 31h1v1H23zM41 31h1v1H41zM41 32h1v1H41zM43 33h1v1H43zM41 34h1v1H41zM62 37h1v1H62zM41 39h1v1H41zM22 41h1v1H22zM60 41h1v1H60zM19 42h1v1H19zM29 43h1v1H29zM61 43h1v1H61zM11 45h1v1H11zM8 46h1v1H8zM37 46h1v1H37zM6 47h1v1H6zM60 50h1v1H60zM54 53h1v1H54zM21 55h1v1H21zM50 56h1v1H50zM26 57h1v1H26zM44 58h1v1H44zM49 58h1v1H49z"/>
    <path opacity="0.5490" d="M34 1h1v1H34zM19 7h1v1H19zM44 7h1v1H44zM47 7h1v1H47zM29 8h1v1H29zM57 13h1v1H57zM28 14h1v1H28zM59 14h1v1H59zM39 17h2v1H39zM64 17h1v1H64zM44 19h1v1H44zM40 21h1v1H40zM65 21h1v1H65zM41 22h1v1H41zM47 22h1v1H47zM7 23h1v1H7zM26 23h1v1H26zM47 23h1v1H47zM64 27h1v1H64zM42 28h1v1H42zM62 29h1v1H62zM45 30h1v1H45zM24 33h1v1H24zM3 34h1v1H3zM22 37h1v1H22zM4 38h1v1H4zM44 38h1v1H44zM2 41h1v1H2zM32 44h2v1H32zM4 46h1v1H4zM9 46h1v1H9zM59 46h1v1H59zM41 47h1v1H41zM43 48h1v1H43zM43 49h1v1H43zM5 50h1v1H5zM58 51h1v1H58zM18 54h1v1H18zM53 55h1v1H53zM32 61h1v1H32z"/>
    <path opacity="0.5882" d="M36 2h1v1H36zM30 3h1v1H30zM16 7h1v1H16zM27 12h1v1H27zM7 16h1v1H7zM40 16h1v1H40zM38 19h1v1H38zM47 24h1v1H47zM52 24h1v1H52zM6 28h1v1H6zM47 29h1v1H47zM5 33h1v1H5zM44 33h1v1H44zM3 35h1v1H3zM23 37h1v1H23zM43 38h1v1H43zM42 39h1v1H42zM27 42h1v1H27zM61 42h1v1H61zM11 43h1v1H11zM3 46h1v1H3zM7 46h1v1H7zM43 47h1v1H43zM41 48h2v1H41zM45 49h1v1H45zM9 50h1v1H9zM53 51h1v1H53zM15 54h1v1H15zM55 56h1v1H55zM47 57h1v1H47zM25 58h1v1H25z"/>
    <path opacity="0.6275" d="M31 0h1v1H31zM35 3h1v1H35zM38 3h1v1H38zM37 4h1v1H37zM40 4h1v1H40zM18 6h1v1H18zM28 7h1v1H28zM49 8h1v1H49zM51 9h1v1H51zM11 10h1v1H11zM55 12h1v1H55zM41 16h1v1H41zM26 18h1v1H26zM50 19h1v1H50zM64 19h1v1H64zM47 21h1v1H47zM26 22h1v1H26zM24 27h1v1H24zM23 32h1v1H23zM43 32h1v1H43zM63 32h1v1H63zM40 35h1v1H40zM61 36h1v1H61zM3 42h1v1H3zM29 42h1v1H29zM31 42h1v1H31zM11 44h1v1H11zM14 44h1v1H14zM36 44h1v1H36zM9 45h1v1H9zM35 45h1v1H35zM6 46h1v1H6zM38 46h1v1H38zM48 49h1v1H48zM50 50h1v1H50zM11 51h1v1H11zM53 52h1v1H53zM58 52h1v1H58zM55 54h1v1H55zM22 57h1v1H22zM52 57h1v1H52zM28 58h1v1H28zM41 59h1v1H41z"/>
    <path opacity="0.6667" d="M30 0h1v1H30zM29 7h1v1H29zM46 8h1v1H46zM53 10h1v1H53zM55 11h1v1H55zM27 18h1v1H27zM46 20h1v1H46zM65 20h1v1H65zM39 21h1v1H39zM6 22h1v1H6zM25 23h1v1H25zM52 23h1v1H52zM5 26h1v1H5zM43 27h1v1H43zM25 28h1v1H25zM4 30h1v1H4zM62 30h1v1H62zM45 31h1v1H45zM3 36h1v1H3zM24 39h1v1H24zM18 40h1v1H18zM19 41h1v1H19zM26 41h1v1H26zM16 43h1v1H16zM31 44h1v1H31zM39 46h1v1H39zM42 47h1v1H42zM60 49h1v1H60zM50 51h2v1H50zM13 52h1v1H13zM51 52h1v1H51zM54 55h1v1H54zM20 56h1v1H20zM48 58h1v1H48zM39 61h1v1H39z"/>
    <path opacity="0.7059" d="M33 2h1v1H33zM26 3h1v1H26zM22 4h1v1H22zM42 6h1v1H42zM44 6h1v1H44zM13 10h1v1H13zM51 10h1v1H51zM10 12h1v1H10zM27 13h1v1H27zM9 14h1v1H9zM62 14h1v1H62zM64 15h1v1H64zM46 16h2v1H46zM65 16h1v1H65zM7 17h1v1H7zM49 18h1v1H49zM51 20h1v1H51zM64 20h1v1H64zM7 22h1v1H7zM51 22h1v1H51zM51 23h1v1H51zM51 24h1v1H51zM63 25h1v1H63zM64 26h1v1H64zM6 27h1v1H6zM48 29h1v1H48zM62 31h1v1H62zM42 32h1v1H42zM23 33h1v1H23zM43 35h1v1H43zM44 36h1v1H44zM62 36h1v1H62zM4 37h1v1H4zM44 37h1v1H44zM23 38h1v1H23zM26 40h1v1H26zM16 41h1v1H16zM61 41h1v1H61zM18 42h1v1H18zM30 42h1v1H30zM30 43h1v1H30zM9 44h1v1H9zM7 45h1v1H7zM3 49h1v1H3zM6 49h1v1H6zM47 50h1v1H47zM49 50h1v1H49zM49 51h1v1H49zM13 53h1v1H13zM55 53h1v1H55zM20 55h1v1H20zM31 59h1v1H31zM45 59h1v1H45zM35 60h1v1H35z"/>
    <path opacity="0.7451" d="M28 2h1v1H28zM24 3h1v1H24zM22 5h1v1H22zM42 5h1v1H42zM29 6h1v1H29zM17 8h1v1H17zM28 9h1v1H28zM48 9h1v1H48zM53 11h1v1H53zM57 12h1v1H57zM60 13h1v1H60zM62 15h1v1H62zM38 20h1v1H38zM26 21h1v1H26zM25 27h1v1H25zM46 30h1v1H46zM5 32h1v1H5zM44 32h1v1H44zM43 39h1v1H43zM14 42h1v1H14zM60 42h1v1H60zM31 43h1v1H31zM33 43h1v1H33zM13 44h1v1H13zM8 45h1v1H8zM38 45h1v1H38zM40 46h1v1H40zM59 47h1v1H59zM45 48h1v1H45zM60 48h1v1H60zM55 52h1v1H55zM18 55h1v1H18zM45 58h1v1H45zM30 60h1v1H30zM36 60h1v1H36zM33 61h1v1H33z"/>
    <path opacity="0.7843" d="M24 4h1v1H24zM20 5h1v1H20zM40 5h1v1H40zM20 6h1v1H20zM46 7h1v1H46zM28 8h1v1H28zM28 10h1v1H28zM28 13h1v1H28zM27 14h1v1H27zM60 14h1v1H60zM8 18h1v1H8zM26 19h1v1H26zM51 21h1v1H51zM51 25h1v1H51zM64 25h1v1H64zM51 26h1v1H51zM24 28h1v1H24zM4 31h1v1H4zM24 32h1v1H24zM23 34h1v1H23zM23 36h1v1H23zM61 37h1v1H61zM20 40h1v1H20zM25 40h1v1H25zM61 40h1v1H61zM3 41h1v1H3zM2 42h1v1H2zM15 42h1v1H15zM28 42h1v1H28zM13 43h3v1H13zM37 45h1v1H37zM5 46h1v1H5zM4 47h2v1H4zM60 47h1v1H60zM6 50h1v1H6zM48 50h1v1H48zM8 51h1v1H8zM10 52h1v1H10zM15 53h1v1H15zM55 55h1v1H55zM23 56h1v1H23zM51 57h1v1H51zM28 59h1v1H28zM42 59h1v1H42zM42 60h1v1H42z"/>
    <path opacity="0.8235" d="M26 2h1v1H26zM48 8h1v1H48zM15 9h1v1H15zM8 13h2v1H8zM58 13h1v1H58zM48 17h1v1H48zM7 18h1v1H7zM26 20h1v1H26zM64 24h1v1H64zM6 26h1v1H6zM25 26h1v1H25zM63 26h1v1H63zM4 32h1v1H4zM62 32h1v1H62zM3 37h1v1H3zM22 38h1v1H22zM21 39h1v1H21zM28 41h1v1H28zM12 43h1v1H12zM10 44h1v1H10zM36 45h1v1H36zM44 48h1v1H44zM59 48h1v1H59zM52 51h1v1H52zM59 53h1v1H59zM17 54h1v1H17zM57 55h1v1H57zM51 56h1v1H51zM23 57h1v1H23zM26 58h1v1H26zM30 59h1v1H30zM34 60h1v1H34zM38 61h1v1H38z"/>
    <path opacity="0.8627" d="M28 1h1v1H28zM33 1h1v1H33zM30 2h1v1H30zM29 5h1v1H29zM43 6h1v1H43zM45 7h1v1H45zM15 8h1v1H15zM49 9h1v1H49zM10 11h2v1H10zM28 11h1v1H28zM28 12h1v1H28zM56 12h1v1H56zM27 15h1v1H27zM65 19h1v1H65zM7 21h1v1H7zM6 23h1v1H6zM25 24h1v1H25zM5 27h1v1H5zM63 27h1v1H63zM24 29h1v1H24zM5 31h1v1H5zM63 31h1v1H63zM23 35h1v1H23zM62 35h1v1H62zM61 38h1v1H61zM22 39h2v1H22zM61 39h1v1H61zM19 40h1v1H19zM27 41h1v1H27zM16 42h1v1H16zM2 43h1v1H2zM2 44h1v1H2zM35 44h1v1H35zM2 45h1v1H2zM60 46h1v1H60zM2 48h1v1H2zM47 49h1v1H47zM59 49h1v1H59zM10 51h1v1H10zM12 52h1v1H12zM14 53h1v1H14zM16 54h1v1H16zM19 55h1v1H19z"/>
    <path opacity="0.9020" d="M31 1h1v1H31zM37 3h1v1H37zM23 4h1v1H23zM39 4h1v1H39zM41 5h1v1H41zM17 7h2v1H17zM13 9h1v1H13zM50 9h1v1H50zM12 10h1v1H12zM52 10h1v1H52zM54 11h1v1H54zM8 14h1v1H8zM27 17h1v1H27zM64 21h1v1H64zM64 23h1v1H64zM25 25h1v1H25zM63 28h1v1H63zM24 30h1v1H24zM24 31h1v1H24zM4 33h1v1H4zM62 33h1v1H62zM62 34h1v1H62zM4 36h1v1H4zM3 40h1v1H3zM17 42h1v1H17zM60 43h1v1H60zM34 44h1v1H34zM60 45h1v1H60zM4 49h1v1H4zM46 49h1v1H46zM11 52h1v1H11zM54 52h1v1H54zM22 56h1v1H22zM52 56h1v1H52zM54 56h1v1H54zM25 57h1v1H25zM27 58h1v1H27zM47 58h1v1H47zM33 60h1v1H33zM37 60h5v1H37zM34 61h1v1H34z"/>
    <path opacity="0.9412" d="M32 1h1v1H32zM27 2h1v1H27zM34 2h1v1H34zM25 3h1v1H25zM36 3h1v1H36zM38 4h1v1H38zM21 5h1v1H21zM19 6h1v1H19zM47 8h1v1H47zM14 9h1v1H14zM9 12h1v1H9zM59 13h1v1H59zM61 14h1v1H61zM63 15h1v1H63zM27 16h1v1H27zM65 17h1v1H65zM65 18h1v1H65zM7 19h1v1H7zM7 20h1v1H7zM64 22h1v1H64zM6 24h1v1H6zM6 25h1v1H6zM5 28h1v1H5zM5 30h1v1H5zM63 30h1v1H63zM3 38h1v1H3zM3 39h1v1H3zM18 41h1v1H18zM32 43h1v1H32zM60 44h1v1H60zM2 46h1v1H2zM4 48h1v1H4zM8 50h1v1H8zM59 50h1v1H59zM58 54h1v1H58zM21 56h1v1H21zM53 56h1v1H53zM24 57h1v1H24zM50 57h1v1H50zM46 58h1v1H46zM29 59h1v1H29zM43 59h2v1H43zM31 60h2v1H31zM37 61h1v1H37z"/>
    <path opacity="0.9804" d="M35 2h1v1H35zM29 4h1v1H29zM8 15h1v1H8zM8 17h1v1H8zM5 29h1v1H5zM63 29h1v1H63zM4 35h1v1H4zM3 47h1v1H3zM5 49h1v1H5zM7 50h1v1H7zM59 51h1v1H59zM35 61h2v1H35z"/>
    <path opacity="1.0000" d="M29 1h2v1H29zM29 2h1v1H29zM29 3h1v1H29zM16 8h1v1H16zM8 16h1v1H8zM64 16h1v1H64zM4 34h1v1H4zM17 41h1v1H17zM2 47h1v1H2zM3 48h1v1H3zM9 51h1v1H9zM59 52h1v1H59zM56 53h3v1H56zM56 54h2v1H56zM56 55h1v1H56zM48 57h2v1H48z"/>
  </g>
</svg>
