<svg xmlns="http://www.w3.org/2000/svg" viewBox="0 0 40 40" role="img" aria-label="Bloco 1 de Aleatoriedades">
  <title>Bloco 1 de Aleatoriedades</title>
  <g fill="#00d4e8" fill-rule="nonzero" shape-rendering="geometricPrecision">
    <path opacity="0.0039" d="M20 1h1v1H20zM11 2h1v1H11zM6 5h1v1H6zM9 5h1v1H9zM22 5h1v1H22zM33 5h1v1H33zM26 6h1v1H26zM13 7h1v1H13zM8 8h1v1H8zM20 9h1v1H20zM7 10h1v1H7zM12 10h1v1H12zM29 10h1v1H29zM29 11h1v1H29zM6 12h1v1H6zM20 12h1v1H20zM24 12h1v1H24zM2 13h1v1H2zM14 13h1v1H14zM20 13h1v1H20zM13 14h1v1H13zM4 16h1v1H4zM27 16h1v1H27zM0 17h1v1H0zM12 17h1v1H12zM17 17h1v1H17zM3 18h1v1H3zM16 18h1v1H16zM35 18h1v1H35zM16 19h1v1H16zM35 19h1v1H35zM39 19h1v1H39zM2 20h1v1H2zM35 20h1v1H35zM6 21h1v1H6zM15 21h1v1H15zM39 21h1v1H39zM35 22h1v1H35zM11 23h1v1H11zM27 23h1v1H27zM4 25h1v1H4zM7 25h1v1H7zM37 25h1v1H37zM22 26h1v1H22zM33 26h1v1H33zM32 28h1v1H32zM7 29h1v1H7zM20 29h1v1H20zM24 29h1v1H24zM3 30h1v1H3zM7 30h1v1H7zM25 30h1v1H25zM31 30h1v1H31zM23 32h1v1H23zM5 33h1v1H5zM14 33h1v1H14zM33 33h1v1H33zM17 34h1v1H17zM27 34h1v1H27zM24 35h1v1H24zM12 36h1v1H12zM23 36h2v1H23zM15 37h2v1H15z"/>
    <path opacity="0.0392" d="M15 0h1v1H15zM8 1h1v1H8zM14 2h1v1H14zM22 2h1v1H22zM25 3h1v1H25zM23 5h1v1H23zM32 5h1v1H32zM34 6h1v1H34zM5 7h1v1H5zM16 8h1v1H16zM31 8h1v1H31zM35 8h1v1H35zM4 9h1v1H4zM12 9h1v1H12zM20 10h1v1H20zM14 11h1v1H14zM16 11h1v1H16zM21 11h1v1H21zM17 12h1v1H17zM34 13h1v1H34zM17 14h2v1H17zM28 14h1v1H28zM31 14h1v1H31zM37 14h1v1H37zM30 16h1v1H30zM35 16h1v1H35zM35 17h1v1H35zM25 20h1v1H25zM39 20h1v1H39zM5 21h1v1H5zM12 21h1v1H12zM8 22h1v1H8zM24 22h1v1H24zM35 23h1v1H35zM38 23h1v1H38zM0 24h1v1H0zM5 24h1v1H5zM13 24h1v1H13zM26 24h1v1H26zM8 25h1v1H8zM17 25h1v1H17zM1 26h1v1H1zM4 26h1v1H4zM12 26h1v1H12zM14 27h1v1H14zM2 28h1v1H2zM17 28h1v1H17zM6 29h1v1H6zM21 29h1v1H21zM35 29h1v1H35zM31 31h1v1H31zM34 31h1v1H34zM30 33h1v1H30zM24 34h1v1H24zM10 35h1v1H10zM19 35h1v1H19zM22 36h1v1H22zM25 36h1v1H25zM17 37h1v1H17zM31 37h1v1H31zM20 38h1v1H20z"/>
    <path opacity="0.0784" d="M19 1h1v1H19zM17 3h1v1H17zM20 4h1v1H20zM31 5h1v1H31zM20 6h1v1H20zM8 7h1v1H8zM30 7h1v1H30zM19 8h1v1H19zM15 9h1v1H15zM23 9h1v1H23zM21 10h1v1H21zM30 10h1v1H30zM20 11h1v1H20zM33 11h1v1H33zM3 12h1v1H3zM23 13h1v1H23zM4 15h1v1H4zM15 15h2v1H15zM19 16h1v1H19zM0 18h1v1H0zM13 21h2v1H13zM27 22h1v1H27zM3 24h1v1H3zM9 25h1v1H9zM23 25h1v1H23zM4 31h1v1H4zM7 31h1v1H7zM13 33h1v1H13zM16 34h1v1H16zM27 35h1v1H27zM29 35h1v1H29zM13 36h1v1H13zM23 39h1v1H23zM30 39h1v1H30z"/>
    <path opacity="0.1176" d="M9 0h1v1H9zM8 2h1v1H8zM10 3h1v1H10zM24 5h1v1H24zM15 6h1v1H15zM27 6h1v1H27zM35 9h1v1H35zM32 11h1v1H32zM21 12h1v1H21zM36 12h1v1H36zM5 13h1v1H5zM15 13h1v1H15zM19 13h1v1H19zM31 13h1v1H31zM2 14h1v1H2zM19 14h1v1H19zM13 15h1v1H13zM21 15h1v1H21zM1 16h1v1H1zM13 17h1v1H13zM38 17h1v1H38zM13 19h1v1H13zM28 19h1v1H28zM4 21h1v1H4zM16 25h1v1H16zM34 25h1v1H34zM36 26h1v1H36zM24 27h1v1H24zM5 28h1v1H5zM3 29h1v1H3zM12 33h1v1H12zM26 33h1v1H26zM8 34h1v1H8z"/>
    <path opacity="0.1569" d="M18 1h1v1H18zM30 5h1v1H30zM6 6h1v1H6zM13 8h1v1H13zM4 10h1v1H4zM23 10h1v1H23zM23 11h1v1H23zM23 12h1v1H23zM22 14h1v1H22zM18 16h1v1H18zM3 17h1v1H3zM27 17h1v1H27zM36 20h1v1H36zM36 21h1v1H36zM3 23h1v1H3zM10 23h1v1H10zM24 23h1v1H24zM25 25h1v1H25zM19 26h1v1H19zM15 27h1v1H15zM33 27h1v1H33zM18 28h1v1H18zM32 29h1v1H32zM23 31h1v1H23zM24 33h1v1H24zM32 34h1v1H32zM18 37h1v1H18zM25 37h1v1H25zM28 37h1v1H28z"/>
    <path opacity="0.1961" d="M12 1h1v1H12zM21 2h1v1H21zM21 4h1v1H21zM34 7h1v1H34zM5 8h1v1H5zM22 8h1v1H22zM7 9h1v1H7zM19 9h1v1H19zM6 11h1v1H6zM35 15h1v1H35zM37 15h1v1H37zM2 19h1v1H2zM26 19h1v1H26zM27 21h1v1H27zM7 22h1v1H7zM6 24h1v1H6zM37 24h1v1H37zM34 30h1v1H34zM25 31h1v1H25zM8 32h1v1H8zM11 35h1v1H11zM18 35h1v1H18zM14 36h1v1H14zM21 36h1v1H21zM31 36h1v1H31zM26 37h1v1H26z"/>
    <path opacity="0.2353" d="M11 1h1v1H11zM24 3h1v1H24zM16 6h4v1H16zM33 6h1v1H33zM14 7h1v1H14zM21 7h1v1H21zM15 11h1v1H15zM14 14h1v1H14zM16 14h1v1H16zM20 14h1v1H20zM30 15h1v1H30zM13 16h1v1H13zM29 17h1v1H29zM12 18h1v1H12zM15 20h1v1H15zM38 22h1v1H38zM0 23h1v1H0zM1 25h1v1H1zM10 25h1v1H10zM2 27h1v1H2zM19 28h1v1H19zM35 28h1v1H35zM33 32h1v1H33zM15 34h1v1H15zM25 35h1v1H25zM27 36h1v1H27z"/>
    <path opacity="0.2745" d="M15 2h1v1H15zM27 4h1v1H27zM15 8h1v1H15zM13 10h1v1H13zM35 10h1v1H35zM21 13h1v1H21zM29 13h1v1H29zM20 15h1v1H20zM28 15h1v1H28zM38 18h1v1H38zM14 19h1v1H14zM36 19h1v1H36zM26 23h1v1H26zM12 24h1v1H12zM3 25h1v1H3zM6 30h1v1H6zM5 32h1v1H5zM6 33h1v1H6zM11 33h1v1H11zM24 37h1v1H24zM30 38h1v1H30zM24 39h1v1H24z"/>
    <path opacity="0.3137" d="M20 2h1v1H20zM18 3h1v1H18zM9 4h1v1H9zM31 7h1v1H31zM20 8h1v1H20zM21 9h1v1H21zM31 9h1v1H31zM31 12h1v1H31zM14 15h1v1H14zM19 15h1v1H19zM14 17h1v1H14zM0 19h1v1H0zM3 21h1v1H3zM25 21h1v1H25zM35 24h1v1H35zM13 26h1v1H13zM18 26h1v1H18zM24 30h1v1H24zM31 32h1v1H31zM21 38h1v1H21z"/>
    <path opacity="0.3529" d="M14 0h1v1H14zM10 2h1v1H10zM22 4h1v1H22zM28 6h1v1H28zM16 9h1v1H16zM33 10h1v1H33zM30 11h1v1H30zM18 12h1v1H18zM34 12h1v1H34zM18 15h1v1H18zM3 16h1v1H3zM1 17h1v1H1zM6 22h1v1H6zM36 22h1v1H36zM2 23h1v1H2zM7 24h1v1H7zM24 24h1v1H24zM4 27h1v1H4zM16 27h1v1H16zM22 29h1v1H22zM26 34h1v1H26zM15 36h1v1H15zM29 36h1v1H29z"/>
    <path opacity="0.3922" d="M9 1h1v1H9zM17 1h1v1H17zM8 3h1v1H8zM8 6h1v1H8zM17 7h2v1H17zM21 14h1v1H21zM2 15h1v1H2zM17 15h1v1H17zM15 16h1v1H15zM17 16h1v1H17zM15 17h2v1H15zM36 18h1v1H36zM38 21h1v1H38zM4 23h1v1H4zM15 25h1v1H15zM21 27h1v1H21zM32 30h1v1H32zM9 34h1v1H9zM14 34h1v1H14zM30 34h1v1H30zM12 35h1v1H12z"/>
    <path opacity="0.4314" d="M19 3h1v1H19zM23 3h1v1H23zM7 5h1v1H7zM25 5h1v1H25zM16 7h1v1H16zM5 9h1v1H5zM13 9h2v1H13zM18 9h1v1H18zM6 10h1v1H6zM19 10h1v1H19zM19 11h1v1H19zM22 13h1v1H22zM36 13h1v1H36zM37 16h1v1H37zM2 18h1v1H2zM15 18h1v1H15zM38 19h1v1H38zM13 20h1v1H13zM9 23h1v1H9zM25 34h1v1H25zM17 35h1v1H17zM25 39h1v1H25z"/>
    <path opacity="0.4706" d="M34 8h1v1H34zM17 9h1v1H17zM22 9h1v1H22zM16 10h1v1H16zM16 13h1v1H16zM4 14h1v1H4zM30 14h1v1H30zM13 18h1v1H13zM25 22h1v1H25zM20 27h1v1H20zM22 27h1v1H22zM20 28h1v1H20zM33 28h1v1H33zM4 30h1v1H4zM33 31h1v1H33zM24 32h2v1H24zM20 36h1v1H20zM26 36h1v1H26zM26 38h1v1H26zM29 39h1v1H29z"/>
    <path opacity="0.5098" d="M22 3h1v1H22zM29 5h1v1H29zM19 7h1v1H19zM14 8h1v1H14zM5 12h1v1H5zM18 13h1v1H18zM15 14h1v1H15zM29 14h1v1H29zM28 18h1v1H28zM12 19h1v1H12zM15 19h1v1H15zM27 20h1v1H27zM37 23h1v1H37zM25 24h1v1H25zM36 25h1v1H36zM2 26h1v1H2zM23 26h2v1H23zM34 26h1v1H34zM17 27h1v1H17zM25 33h1v1H25zM26 35h1v1H26z"/>
    <path opacity="0.5490" d="M13 1h1v1H13zM16 2h1v1H16zM29 6h1v1H29zM32 6h1v1H32zM6 7h1v1H6zM15 7h1v1H15zM20 7h1v1H20zM7 8h1v1H7zM22 10h1v1H22zM32 10h1v1H32zM4 11h1v1H4zM19 12h1v1H19zM30 12h1v1H30zM3 13h1v1H3zM14 16h1v1H14zM14 18h1v1H14zM12 20h1v1H12zM14 20h1v1H14zM38 20h1v1H38zM5 23h1v1H5zM2 24h1v1H2zM11 25h1v1H11zM17 26h1v1H17zM23 30h1v1H23zM16 36h1v1H16zM19 37h1v1H19zM23 37h1v1H23zM30 37h1v1H30zM22 38h1v1H22z"/>
    <path opacity="0.5882" d="M20 3h1v1H20zM26 4h1v1H26zM30 6h1v1H30zM21 8h1v1H21zM22 11h1v1H22zM22 12h1v1H22zM35 14h1v1H35zM16 16h1v1H16zM29 16h1v1H29zM27 18h1v1H27zM1 20h1v1H1zM26 20h1v1H26zM2 21h1v1H2zM0 22h1v1H0zM8 23h1v1H8zM1 24h1v1H1zM5 29h1v1H5zM34 29h1v1H34zM10 33h1v1H10zM32 33h1v1H32zM10 34h1v1H10zM31 35h1v1H31z"/>
    <path opacity="0.6275" d="M10 0h1v1H10zM13 0h1v1H13zM9 3h1v1H9zM23 4h1v1H23zM14 10h1v1H14zM35 11h1v1H35zM17 13h1v1H17zM30 13h1v1H30zM36 14h1v1H36zM2 16h1v1H2zM28 16h1v1H28zM5 22h1v1H5zM26 22h1v1H26zM11 24h1v1H11zM24 25h1v1H24zM14 26h1v1H14zM35 27h1v1H35zM3 28h1v1H3zM5 31h2v1H5zM13 34h1v1H13zM13 35h1v1H13zM16 35h1v1H16zM27 37h1v1H27zM26 39h1v1H26z"/>
    <path opacity="0.6667" d="M16 1h1v1H16zM17 2h1v1H17zM21 3h1v1H21zM25 4h1v1H25zM31 6h1v1H31zM15 10h1v1H15zM34 11h1v1H34zM36 17h2v1H36zM0 20h1v1H0zM25 23h1v1H25zM14 25h1v1H14zM19 27h1v1H19zM23 28h1v1H23zM23 29h1v1H23zM7 33h1v1H7zM30 35h1v1H30zM28 38h1v1H28z"/>
    <path opacity="0.7059" d="M8 4h1v1H8zM8 5h1v1H8zM33 9h1v1H33zM2 17h1v1H2zM37 20h1v1H37zM36 23h1v1H36zM8 24h1v1H8zM3 26h1v1H3zM21 28h1v1H21zM7 32h1v1H7zM19 36h1v1H19zM23 38h1v1H23zM25 38h1v1H25z"/>
    <path opacity="0.7451" d="M12 0h1v1H12zM10 1h1v1H10zM19 2h1v1H19zM28 5h1v1H28zM31 11h1v1H31zM3 14h1v1H3zM3 15h1v1H3zM29 15h1v1H29zM1 19h1v1H1zM27 19h1v1H27zM2 22h1v1H2zM2 25h1v1H2zM15 26h1v1H15zM18 27h1v1H18zM24 31h1v1H24zM32 31h1v1H32zM11 34h1v1H11z"/>
    <path opacity="0.7843" d="M14 1h2v1H14zM9 2h1v1H9zM24 4h1v1H24zM26 5h2v1H26zM7 6h1v1H7zM33 7h1v1H33zM6 8h1v1H6zM6 9h1v1H6zM31 10h1v1H31zM5 11h1v1H5zM4 13h1v1H4zM36 15h1v1H36zM28 17h1v1H28zM1 18h1v1H1zM37 21h1v1H37zM3 22h1v1H3zM6 23h2v1H6zM10 24h1v1H10zM12 25h1v1H12zM23 27h1v1H23zM34 27h1v1H34zM4 28h1v1H4zM33 29h1v1H33zM5 30h1v1H5zM33 30h1v1H33zM8 33h2v1H8zM31 33h1v1H31zM15 35h1v1H15zM17 36h1v1H17zM29 37h1v1H29z"/>
    <path opacity="0.8235" d="M11 0h1v1H11zM18 2h1v1H18zM32 7h1v1H32zM34 9h1v1H34zM5 10h1v1H5zM4 12h1v1H4zM35 13h1v1H35zM0 21h1v1H0zM37 22h1v1H37zM1 23h1v1H1zM36 24h1v1H36zM13 25h1v1H13zM35 25h1v1H35zM6 32h1v1H6zM18 36h1v1H18zM30 36h1v1H30zM20 37h1v1H20zM24 38h1v1H24z"/>
    <path opacity="0.8627" d="M32 8h1v1H32zM32 9h1v1H32zM34 10h1v1H34zM35 12h1v1H35zM36 16h1v1H36zM26 21h1v1H26zM4 22h1v1H4zM16 26h1v1H16zM35 26h1v1H35zM3 27h1v1H3zM32 32h1v1H32zM12 34h1v1H12zM31 34h1v1H31zM14 35h1v1H14zM22 37h1v1H22zM27 38h1v1H27z"/>
    <path opacity="0.9020" d="M7 7h1v1H7zM37 19h1v1H37zM1 21h1v1H1zM9 24h1v1H9zM34 28h1v1H34zM4 29h1v1H4zM21 37h1v1H21zM29 38h1v1H29zM27 39h2v1H27z"/>
    <path opacity="0.9412" d="M37 18h1v1H37zM1 22h1v1H1zM22 28h1v1H22z"/>
    <path opacity="1.0000" d="M33 8h1v1H33z"/>
  </g>
</svg>
