<svg xmlns="http://www.w3.org/2000/svg" viewBox="0 0 29 22" role="img" aria-label="Bloco 9 de Aleatoriedades">
  <title>Bloco 9 de Aleatoriedades</title>
  <g fill="#00d4e8" fill-rule="nonzero" shape-rendering="geometricPrecision">
    <path opacity="0.0039" d="M16 0h4v1H16zM17 3h1v1H17zM14 4h2v1H14zM18 4h1v1H18zM9 5h1v1H9zM17 5h1v1H17zM19 5h1v1H19zM23 6h1v1H23zM20 7h1v1H20zM24 7h1v1H24zM5 9h1v1H5zM9 9h1v1H9zM4 10h1v1H4zM25 10h1v1H25zM4 11h1v1H4zM6 11h1v1H6zM13 11h1v1H13zM10 12h1v1H10zM13 12h1v1H13zM18 12h1v1H18zM13 13h1v1H13zM21 14h1v1H21zM1 16h1v1H1zM4 16h1v1H4zM9 16h1v1H9zM12 16h1v1H12zM14 16h2v1H14zM20 17h1v1H20zM25 17h1v1H25zM17 18h1v1H17zM9 20h1v1H9zM17 20h1v1H17zM6 21h1v1H6z"/>
    <path opacity="0.0392" d="M13 1h1v1H13zM10 2h1v1H10zM21 2h1v1H21zM22 5h1v1H22zM2 7h1v1H2zM14 8h1v1H14zM24 8h1v1H24zM21 9h1v1H21zM22 11h1v1H22zM7 12h1v1H7zM14 12h1v1H14zM14 13h1v1H14zM26 13h1v1H26zM0 14h1v1H0zM9 15h1v1H9zM16 15h1v1H16zM16 16h1v1H16zM21 17h1v1H21zM5 18h1v1H5zM10 18h1v1H10zM2 19h1v1H2zM18 20h1v1H18zM15 21h1v1H15z"/>
    <path opacity="0.0784" d="M7 3h1v1H7zM16 3h1v1H16zM18 3h1v1H18zM5 4h1v1H5zM13 4h1v1H13zM12 5h1v1H12zM7 6h1v1H7zM11 6h1v1H11zM5 8h1v1H5zM8 8h1v1H8zM6 9h1v1H6zM9 10h1v1H9zM3 11h1v1H3zM25 11h1v1H25zM8 13h1v1H8zM17 15h1v1H17zM19 15h1v1H19zM26 15h1v1H26zM24 18h1v1H24zM14 19h1v1H14zM12 20h1v1H12zM22 20h1v1H22z"/>
    <path opacity="0.1176" d="M20 1h1v1H20zM21 3h1v1H21zM16 5h1v1H16zM3 6h1v1H3zM17 11h1v1H17zM15 14h1v1H15zM22 14h1v1H22zM19 17h1v1H19zM10 19h1v1H10zM23 19h1v1H23z"/>
    <path opacity="0.1569" d="M12 4h1v1H12zM8 5h1v1H8zM13 5h1v1H13zM17 6h1v1H17zM2 8h1v1H2zM11 9h1v1H11zM13 9h2v1H13zM17 10h1v1H17zM23 12h1v1H23zM26 14h1v1H26zM11 15h1v1H11zM17 16h1v1H17zM10 17h1v1H10zM2 18h1v1H2zM16 18h1v1H16zM5 19h1v1H5zM3 20h1v1H3zM16 21h1v1H16zM21 21h1v1H21z"/>
    <path opacity="0.1961" d="M14 1h1v1H14zM11 2h1v1H11zM4 5h1v1H4zM20 6h1v1H20zM21 8h1v1H21zM4 9h1v1H4zM1 10h1v1H1zM7 11h1v1H7zM2 12h1v1H2zM10 13h1v1H10zM3 15h1v1H3zM13 17h1v1H13zM20 19h1v1H20zM19 20h1v1H19zM9 21h1v1H9z"/>
    <path opacity="0.2353" d="M5 7h1v1H5zM14 7h1v1H14zM23 7h1v1H23zM24 9h1v1H24zM14 10h1v1H14zM22 10h1v1H22zM14 11h1v1H14zM0 12h1v1H0zM0 13h1v1H0zM2 13h1v1H2zM18 14h1v1H18zM1 15h1v1H1zM22 16h1v1H22zM4 17h1v1H4z"/>
    <path opacity="0.2745" d="M8 3h1v1H8zM15 3h1v1H15zM15 5h1v1H15zM16 7h1v1H16zM6 8h1v1H6zM16 8h1v1H16zM8 9h1v1H8zM9 11h1v1H9zM15 12h1v1H15zM23 14h1v1H23zM25 16h1v1H25zM12 17h1v1H12zM13 19h1v1H13z"/>
    <path opacity="0.3137" d="M15 1h1v1H15zM11 4h1v1H11zM19 4h1v1H19zM14 5h1v1H14zM14 6h1v1H14zM11 7h1v1H11zM13 7h1v1H13zM12 8h1v1H12zM12 9h1v1H12zM7 10h1v1H7zM15 13h3v1H15zM20 15h1v1H20zM14 17h1v1H14zM17 21h1v1H17z"/>
    <path opacity="0.3529" d="M12 2h1v1H12zM13 6h1v1H13zM15 6h1v1H15zM12 7h1v1H12zM11 8h1v1H11zM10 16h1v1H10zM2 17h1v1H2zM21 18h1v1H21z"/>
    <path opacity="0.3922" d="M14 3h1v1H14zM12 6h1v1H12zM16 6h1v1H16zM7 7h1v1H7zM3 10h1v1H3zM24 10h1v1H24zM25 12h1v1H25zM9 14h1v1H9zM16 14h2v1H16zM24 17h1v1H24zM15 18h1v1H15zM5 20h1v1H5z"/>
    <path opacity="0.4314" d="M21 4h1v1H21zM22 6h1v1H22zM15 7h1v1H15zM15 8h1v1H15zM17 12h1v1H17zM18 13h1v1H18zM11 16h1v1H11zM15 17h1v1H15z"/>
    <path opacity="0.4706" d="M17 2h2v1H17zM9 3h1v1H9zM3 7h1v1H3zM8 10h1v1H8zM21 16h1v1H21zM18 17h1v1H18zM3 19h1v1H3zM10 20h2v1H10z"/>
    <path opacity="0.5098" d="M20 2h1v1H20zM13 8h1v1H13zM7 9h1v1H7zM15 9h3v1H15zM23 11h1v1H23zM8 12h1v1H8zM10 14h1v1H10zM3 16h1v1H3zM18 16h1v1H18zM22 17h1v1H22zM4 18h1v1H4zM11 18h1v1H11zM4 21h1v1H4z"/>
    <path opacity="0.5490" d="M13 2h1v1H13zM7 5h1v1H7zM17 7h1v1H17zM23 8h1v1H23zM23 18h1v1H23zM12 19h1v1H12zM10 21h1v1H10z"/>
    <path opacity="0.5882" d="M16 1h1v1H16zM10 4h1v1H10zM20 5h1v1H20zM4 8h1v1H4zM7 8h1v1H7zM15 10h1v1H15zM10 15h1v1H10zM21 15h1v1H21zM14 18h1v1H14zM18 21h1v1H18z"/>
    <path opacity="0.6275" d="M19 1h1v1H19zM16 2h1v1H16zM10 3h1v1H10zM19 3h1v1H19zM6 4h1v1H6zM21 7h1v1H21zM2 9h1v1H2zM22 9h1v1H22zM1 11h1v1H1zM16 12h1v1H16zM24 13h1v1H24zM2 14h1v1H2zM23 16h1v1H23zM11 17h1v1H11zM16 17h1v1H16z"/>
    <path opacity="0.6667" d="M13 3h1v1H13zM4 6h1v1H4zM16 10h1v1H16zM2 11h1v1H2zM8 11h1v1H8zM9 12h1v1H9zM17 17h1v1H17zM22 19h1v1H22z"/>
    <path opacity="0.7059" d="M5 6h1v1H5zM6 7h1v1H6zM17 8h1v1H17zM24 11h1v1H24zM1 14h1v1H1zM22 15h1v1H22zM19 16h1v1H19zM13 18h1v1H13zM11 19h1v1H11z"/>
    <path opacity="0.7451" d="M3 9h1v1H3zM24 12h1v1H24zM9 13h1v1H9zM24 14h1v1H24zM12 18h1v1H12zM4 20h1v1H4zM20 20h2v1H20z"/>
    <path opacity="0.7843" d="M11 3h1v1H11zM6 6h1v1H6zM15 11h2v1H15zM23 15h1v1H23zM25 15h1v1H25zM2 16h1v1H2zM20 16h1v1H20zM3 18h1v1H3zM5 21h1v1H5zM20 21h1v1H20z"/>
    <path opacity="0.8235" d="M17 1h1v1H17zM7 4h1v1H7zM22 7h1v1H22zM23 10h1v1H23zM25 13h1v1H25zM2 15h1v1H2zM3 17h1v1H3zM21 19h1v1H21z"/>
    <path opacity="0.8627" d="M18 1h1v1H18zM15 2h1v1H15zM19 2h1v1H19zM20 3h1v1H20zM8 4h2v1H8zM20 4h1v1H20zM5 5h1v1H5zM21 5h1v1H21zM21 6h1v1H21zM4 7h1v1H4zM3 8h1v1H3zM23 9h1v1H23zM1 12h1v1H1zM1 13h1v1H1zM4 19h1v1H4zM19 21h1v1H19z"/>
    <path opacity="0.9020" d="M14 2h1v1H14zM12 3h1v1H12zM2 10h1v1H2zM25 14h1v1H25zM24 16h1v1H24zM23 17h1v1H23z"/>
    <path opacity="0.9412" d="M6 5h1v1H6zM24 15h1v1H24zM22 18h1v1H22z"/>
    <path opacity="0.9804" d="M22 8h1v1H22z"/>
  </g>
</svg>
