<?xml version="1.0" encoding="UTF-8"?>
<svg xmlns="http://www.w3.org/2000/svg" 
     viewBox="0 0 1224.000000 816.000000"
     width="1224.0pt" height="816.0pt">
  <title>Astronauts</title>
  <g id="lines" transform="translate(0.000000,816.000000) scale(0.100000,-0.100000)" fill="#000000" stroke="none">
    <path id="p0" d="M2490 7039 c-95 -8 -213 -49 -290 -102 -50 -35 -147 -129 -201 -197
-28 -35 -49 -49 -93 -64 -31 -11 -72 -34 -90 -52 -60 -58 -93 -186 -98 -375
-2 -83 21 -143 65 -172 13 -8 32 -23 41 -32 20 -20 22 -91 2 -102 -19 -11 -33
-42 -41 -90 -9 -56 -37 -77 -144 -109 -202 -59 -265 -90 -347 -167 -55 -50
-139 -165 -187 -252 -22 -41 -82 -200 -95 -255 -6 -25 -20 -110 -31 -190 -11
-80 -28 -199 -37 -265 -25 -171 -28 -240 -13 -325 16 -100 63 -235 94 -276 27
-35 168 -134 191 -134 21 0 61 -28 69 -48 11 -27 25 -128 34 -247 6 -72 17
-132 32 -170 17 -45 22 -77 20 -127 -2 -50 4 -87 23 -142 48 -143 96 -224 186
-316 120 -122 214 -156 416 -148 110 4 123 3 179 -20 87 -37 91 -41 55 -82
-28 -34 -29 -38 -29 -140 0 -100 1 -109 40 -200 22 -52 54 -130 70 -172 16
-43 34 -87 41 -98 21 -33 88 -60 149 -60 103 0 179 60 241 190 22 47 56 103
75 125 88 101 84 98 122 90 20 -4 56 -10 81 -15 25 -4 65 -15 89 -24 56 -21
121 -20 166 1 36 17 38 17 98 -6 34 -13 91 -30 127 -38 36 -8 102 -23 148 -34
60 -13 137 -45 278 -114 204 -100 243 -113 362 -122 147 -11 268 51 328 168
33 66 42 175 21 249 -17 59 -79 142 -133 177 -43 29 -163 71 -237 83 -80 13
-169 42 -174 57 -2 6 6 15 19 18 26 9 115 49 238 108 83 40 164 91 206 128 11
11 25 19 30 19 6 0 37 20 70 44 162 118 246 310 215 493 -23 131 -85 202 -263
302 -79 45 -80 47 -59 117 37 117 130 375 207 574 57 148 75 219 62 243 -10
20 -15 20 -458 13 -378 -6 -450 -5 -462 7 -8 8 -28 61 -46 118 -18 57 -44 127
-59 154 -141 272 -192 347 -275 403 -34 24 -82 57 -105 75 -22 18 -79 53 -125
79 l-84 48 4 72 c3 66 15 111 58 218 31 77 53 169 59 250 4 47 13 107 21 134
30 104 14 194 -45 262 -17 18 -49 62 -72 96 -70 103 -233 259 -309 295 -146
70 -244 87 -430 72z m291 -62 c141 -45 312 -178 368 -285 18 -33 9 -37 -51
-23 -197 44 -347 39 -528 -21 -127 -41 -301 -149 -387 -241 -48 -50 -54 -54
-63 -37 -5 10 -10 28 -10 40 0 50 -68 139 -120 155 -24 8 -24 20 -2 61 9 17
28 51 41 75 42 78 177 195 289 253 64 33 151 46 287 41 75 -2 149 -10 176 -18z
m-851 -352 c0 -16 -38 -96 -61 -130 -25 -35 -30 -58 -45 -185 -21 -180 -20
-178 -41 -157 -36 36 -21 304 22 386 19 38 81 91 105 91 11 0 20 -2 20 -5z
m1185 -5 c3 -5 -1 -10 -9 -10 -8 0 -18 5 -21 10 -3 6 1 10 9 10 8 0 18 -4 21
-10z m-271 -29 c4 -5 -13 -12 -36 -16 -79 -12 -153 -26 -188 -36 -68 -20 -299
-132 -332 -161 -13 -11 -39 -32 -58 -47 -19 -14 -40 -33 -47 -41 -7 -8 -13
-10 -13 -4 0 20 71 94 133 138 117 82 232 128 395 156 131 22 139 22 146 11z
m303 -41 c70 -35 81 -45 89 -88 8 -42 -3 -40 -48 6 -20 21 -62 51 -92 66 -31
16 -56 32 -56 37 0 18 48 8 107 -21z m-1144 -34 c37 -28 15 -51 -32 -33 -35
13 -39 22 -13 36 22 13 23 13 45 -3z m1089 -19 c63 -37 119 -121 126 -188 4
-47 3 -52 -13 -45 -31 12 -43 -9 -34 -61 4 -27 8 -78 8 -114 1 -48 5 -70 17
-80 25 -20 13 -82 -33 -179 -81 -170 -204 -240 -421 -240 -121 0 -194 21 -302
89 -151 94 -260 293 -260 475 0 38 6 62 23 86 31 47 155 134 264 185 185 88
263 106 444 102 126 -3 139 -5 181 -30z m-1149 -65 c20 -22 39 -198 28 -257
-9 -50 -35 -101 -55 -108 -9 -4 -24 4 -36 21 -20 25 -21 37 -18 167 2 114 6
146 21 168 20 31 38 34 60 9z m116 -137 c12 -90 2 -195 -22 -230 -29 -42 -46
-52 -74 -47 -38 7 -36 20 6 47 23 14 43 35 46 48 8 37 18 149 17 206 0 69 17
54 27 -24z m-101 -342 c4 -27 -5 -29 -36 -7 -30 21 -28 36 6 32 19 -2 28 -9
30 -25z m112 -26 c22 -30 40 -59 40 -65 0 -6 15 -30 33 -54 18 -24 40 -54 49
-68 9 -14 31 -42 50 -62 38 -40 36 -65 -3 -53 -24 8 -32 13 -121 73 -25 18
-49 32 -51 32 -12 0 -117 112 -117 124 0 7 11 18 25 24 20 9 25 19 25 50 0 69
16 69 70 -1z m-88 -169 c48 -48 99 -93 112 -100 82 -46 169 -88 221 -107 33
-12 68 -27 77 -32 10 -5 26 -9 35 -9 26 -1 132 -39 109 -40 -35 0 -181 32
-201 45 -11 7 -36 16 -54 20 -51 11 -189 83 -213 111 -12 13 -27 24 -33 24
-33 0 -116 88 -164 173 -27 49 -27 71 1 32 11 -16 61 -69 110 -117z m-192 -63
c6 -3 10 -22 10 -41 0 -20 5 -34 12 -34 16 0 68 -51 68 -66 0 -7 6 -17 14 -21
7 -4 18 -18 25 -30 13 -25 31 -31 31 -11 0 16 -69 118 -95 140 -29 25 0 23 42
-3 45 -28 123 -135 123 -169 0 -36 -13 -52 -35 -44 -17 7 -18 3 -12 -55 8 -73
-2 -73 -39 2 -36 73 -71 114 -84 101 -8 -8 2 -36 34 -98 24 -48 49 -110 55
-137 14 -62 14 -170 1 -218 -5 -20 -11 -47 -14 -61 -3 -14 -12 -34 -19 -45
-13 -17 -14 -4 -10 110 3 77 1 154 -6 189 -26 141 -174 370 -279 432 -69 40
-17 76 101 69 37 -2 72 -7 77 -10z m536 -24 c29 -28 147 -95 214 -121 l35 -14
-28 -3 c-42 -6 -226 55 -241 81 -16 26 -28 86 -18 86 5 0 21 -13 38 -29z
m-782 -52 c43 -16 68 -34 111 -83 30 -35 55 -69 55 -76 0 -6 18 -32 39 -57 22
-24 43 -58 46 -74 4 -16 14 -44 23 -62 24 -48 31 -112 25 -215 -5 -78 -9 -92
-22 -90 -11 2 -19 22 -26 62 -11 66 -29 81 -55 46 l-17 -22 -11 31 c-7 17 -17
43 -23 59 -13 35 -79 112 -79 92 1 -25 36 -119 52 -138 23 -26 38 -58 38 -81
0 -25 15 -27 29 -4 21 39 53 -27 66 -137 5 -41 3 -60 -8 -75 -14 -18 -16 -18
-31 20 -21 53 -30 68 -44 73 -24 8 -24 -30 -2 -70 15 -28 23 -59 24 -96 1 -59
-17 -82 -28 -36 -10 40 -131 161 -175 175 -37 12 -127 51 -171 74 -14 7 -44
16 -67 20 -43 7 -56 21 -29 31 26 10 155 -14 201 -37 31 -16 48 -20 56 -12 17
17 -43 59 -118 82 -57 17 -79 19 -134 12 -75 -10 -139 -30 -139 -45 0 -23 35
-46 69 -46 20 0 42 -4 50 -9 21 -13 4 -31 -30 -31 -59 0 -153 -69 -135 -99 4
-5 2 -12 -4 -16 -17 -11 -11 -25 12 -25 12 0 48 7 80 16 43 12 65 14 81 7 20
-10 16 -12 -35 -27 -47 -14 -67 -28 -113 -77 -30 -33 -62 -74 -70 -90 -9 -16
-20 -29 -25 -29 -12 0 -3 228 11 280 5 19 16 84 24 144 19 140 80 300 160 421
56 84 174 198 225 217 58 21 50 21 114 -3z m1566 -1 c0 -30 -98 -91 -138 -86
-27 3 -26 4 13 26 22 13 55 34 74 47 38 28 51 31 51 13z m-1016 -43 c16 -12
17 -15 4 -15 -8 0 -21 7 -28 15 -16 19 -1 19 24 0z m1155 -15 c16 -8 19 -24
20 -129 0 -124 7 -171 22 -171 11 0 12 23 9 151 -1 53 2 99 7 102 11 7 73 -19
73 -31 0 -5 35 -33 79 -61 95 -63 100 -69 182 -201 74 -119 122 -217 116 -234
-3 -7 1 -23 9 -37 24 -43 18 -56 -35 -74 -64 -21 -129 -68 -133 -96 -3 -25
-46 -42 -69 -29 -10 7 -10 16 0 48 11 33 11 43 -3 70 -20 38 -53 45 -41 10 4
-13 10 -44 12 -69 4 -40 1 -51 -25 -80 -39 -45 -54 -77 -87 -179 -15 -47 -31
-94 -35 -105 -5 -11 -16 -46 -25 -77 -9 -32 -20 -58 -25 -58 -10 0 -40 74 -40
99 0 10 7 35 15 54 10 25 15 71 15 146 0 141 13 202 46 222 41 25 163 179 195
246 33 71 34 76 15 92 -20 17 -71 -49 -63 -81 4 -13 -2 -36 -15 -57 -29 -47
-118 -151 -130 -151 -13 0 0 166 19 255 15 71 29 137 40 188 8 42 -14 33 -26
-10 -6 -21 -11 -43 -11 -48 0 -6 -9 -28 -20 -50 -11 -22 -20 -48 -20 -58 0
-10 -4 -26 -9 -35 -5 -9 -14 -71 -20 -137 -7 -66 -18 -145 -26 -175 -8 -30
-15 -100 -16 -155 -3 -129 -16 -197 -36 -193 -9 2 -36 39 -61 83 l-44 80 11
60 c6 33 16 150 21 260 10 189 10 201 -8 225 -10 14 -29 30 -41 36 -13 7 -117
15 -252 19 -167 5 -229 10 -229 19 0 7 -21 17 -47 23 -127 29 -459 185 -471
221 -5 17 13 15 28 -3 7 -8 19 -15 26 -15 8 0 14 -4 14 -10 0 -5 6 -10 13 -10
7 0 31 -9 52 -21 53 -27 163 -66 255 -91 58 -15 105 -19 208 -19 72 0 132 -1
132 -3 0 -2 -15 -13 -32 -24 -27 -18 -30 -22 -15 -28 25 -9 56 1 111 38 190
127 187 127 201 6 4 -41 11 -58 21 -58 18 0 18 27 -1 119 -15 68 -15 75 1 92
13 14 20 16 31 8 7 -6 13 -19 13 -28 0 -9 14 -58 30 -110 16 -52 33 -115 36
-141 7 -56 19 -79 32 -65 13 14 23 103 13 110 -5 3 -16 24 -24 48 -9 23 -25
67 -37 97 -25 64 -34 144 -19 171 11 21 40 25 68 9z m-1072 -19 c85 -41 134
-61 151 -61 10 0 22 -4 28 -9 5 -6 50 -17 99 -26 50 -9 109 -26 133 -37 37
-17 57 -19 158 -15 116 5 143 -2 102 -24 -15 -9 -68 -13 -158 -12 -153 1 -297
30 -385 77 -27 14 -54 26 -58 26 -18 0 -127 75 -127 88 0 16 11 15 57 -7z
m768 -79 c-34 -30 -206 -59 -250 -42 l-20 7 20 6 c11 3 56 9 100 13 44 4 89
10 100 15 27 11 62 11 50 1z m-844 -47 c24 -19 52 -35 62 -35 10 0 35 -9 55
-20 57 -31 144 -67 179 -75 17 -3 37 -13 44 -21 6 -8 24 -14 40 -14 15 0 31
-4 34 -10 4 -6 -27 -10 -85 -10 -84 0 -93 -2 -114 -25 -23 -24 -24 -35 -31
-230 l-7 -205 -99 -102 c-54 -57 -107 -112 -118 -123 -11 -11 -63 -42 -116
-68 l-96 -49 -51 19 c-28 10 -53 23 -55 30 -3 7 9 46 26 87 17 41 31 82 31 91
0 25 37 92 56 99 13 5 15 2 10 -18 -16 -63 58 -17 99 61 10 21 27 49 36 63 9
14 19 36 22 50 24 107 64 225 77 225 18 0 25 40 12 69 -24 53 -32 79 -32 106
0 17 -8 52 -19 79 -16 42 -17 61 -6 61 1 0 22 -16 46 -35z m-55 -189 c-13
-177 -48 -326 -76 -326 -13 0 -13 12 1 47 7 15 14 82 16 148 3 84 9 125 19
136 9 9 14 38 14 75 l1 59 16 -29 c12 -23 14 -47 9 -110z m624 -52 c13 -5 12
-8 -3 -19 -14 -10 -26 -11 -48 -3 -38 13 -63 4 -54 -20 3 -9 6 -93 5 -186 -1
-182 3 -196 51 -196 29 0 38 -13 18 -25 -6 -4 -8 -13 -5 -21 6 -16 -19 -19
-29 -4 -11 19 -34 10 -80 -30 -37 -32 -54 -40 -85 -40 -104 0 -123 46 -116
276 7 185 15 256 29 251 27 -9 27 -87 0 -358 -7 -76 6 -99 57 -99 42 0 55 16
18 22 -23 3 -23 5 -26 168 -1 104 2 175 9 192 8 20 8 36 0 60 -8 21 -8 34 -1
38 11 7 237 2 260 -6z m389 -10 c49 -24 54 -44 47 -168 -10 -189 -19 -246 -41
-262 -26 -19 -193 -19 -219 1 -10 7 -16 18 -12 23 3 4 10 88 17 186 14 209 15
205 -79 209 -34 1 -62 5 -62 9 0 10 51 15 191 16 97 2 133 -2 158 -14z m-246
-67 c16 -18 17 -32 12 -96 -11 -123 -24 -194 -37 -203 -7 -4 -51 -7 -98 -6
l-85 3 4 160 c2 88 7 162 12 165 4 3 45 4 91 2 70 -3 86 -7 101 -25z m-1314
-270 c60 -30 112 -79 99 -93 -3 -3 -40 11 -82 30 -42 20 -108 42 -147 51 -40
8 -74 17 -77 20 -3 2 1 12 9 21 21 25 119 10 198 -29z m2305 20 c9 -7 20 -31
23 -54 5 -38 3 -43 -18 -48 -13 -3 -60 -5 -104 -3 -74 3 -80 5 -83 25 -3 19 8
28 65 57 77 38 92 41 117 23z m-2544 -7 c-20 -13 -63 -13 -55 0 3 6 21 10 38
10 24 0 28 -3 17 -10z m3512 -155 c-2 -16 -21 -74 -43 -127 -22 -54 -58 -148
-79 -210 -21 -62 -52 -151 -70 -198 -17 -47 -40 -110 -50 -140 -34 -101 -70
-192 -93 -234 -25 -46 -10 -42 -242 -75 -77 -12 -180 -23 -230 -26 -49 -4
-128 -12 -175 -20 -47 -8 -150 -20 -230 -26 -80 -6 -197 -17 -260 -24 -73 -8
-122 -9 -133 -3 -20 10 -19 18 13 103 10 28 37 111 61 185 23 74 46 144 50
155 4 11 18 49 29 85 22 65 28 81 49 133 6 15 11 38 11 50 0 13 4 27 9 33 9
10 52 130 91 254 13 41 29 81 36 89 11 12 89 16 446 21 238 4 519 6 623 6
l190 -1 -3 -30z m-3286 -13 c76 -32 169 -93 184 -122 26 -49 -3 -53 -53 -9
-73 64 -241 105 -307 74 -116 -55 -149 -75 -196 -118 -48 -44 -70 -87 -44 -87
5 0 33 23 62 50 29 28 80 65 113 82 53 28 70 31 140 31 64 0 88 -4 120 -22
l40 -22 -34 6 c-46 7 -101 -4 -101 -21 0 -12 24 -19 90 -26 34 -4 36 -30 3
-51 -16 -9 -43 -26 -60 -38 -24 -15 -41 -19 -63 -14 -16 4 -30 11 -30 16 0 20
-38 7 -67 -23 -33 -34 -95 -160 -108 -215 -8 -38 -25 -44 -25 -9 0 13 -6 29
-14 36 -25 20 -32 -56 -14 -164 5 -33 -22 -29 -56 7 -31 33 -46 73 -47 121 0
10 -6 31 -13 45 -30 59 -46 244 -25 296 7 19 8 19 8 -2 2 -38 20 -35 41 7 11
22 36 54 56 72 20 18 61 57 92 87 l57 53 90 -5 c69 -4 106 -12 161 -35z m183
2 c3 -16 1 -17 -13 -5 -19 16 -21 34 -3 29 6 -3 14 -13 16 -24z m619 14 c-3
-7 -13 -15 -24 -17 -16 -3 -17 -1 -5 13 16 19 34 21 29 4z m462 3 c0 -15 -29
-33 -41 -25 -8 4 -9 3 -5 -4 12 -20 60 -13 96 13 31 23 42 25 142 25 85 0 108
-3 108 -14 0 -17 -44 -26 -125 -26 -60 0 -63 -1 -93 -39 -52 -65 -38 -82 26
-33 51 40 184 62 213 36 10 -9 21 -26 25 -38 3 -11 24 -57 45 -100 22 -44 39
-80 39 -82 0 -1 -13 11 -30 28 -16 16 -30 33 -30 38 0 4 -18 23 -40 43 -22 19
-40 40 -40 46 0 6 -4 11 -10 11 -12 0 -12 -2 0 -35 11 -29 9 -30 -53 -39 -34
-4 -37 -3 -32 14 9 28 -10 33 -47 10 -53 -32 -94 -27 -144 20 l-44 40 -89 0
c-49 0 -92 4 -95 8 -14 23 38 52 93 52 42 0 61 14 42 33 -21 21 -11 27 39 27
28 0 50 -4 50 -9z m-404 -76 c23 -16 51 -25 75 -25 66 0 52 -18 -21 -25 -54
-5 -73 -11 -81 -26 -15 -28 -43 -25 -34 4 4 12 9 36 10 52 2 17 4 33 4 38 1
11 7 9 47 -18z m-176 -93 c0 -7 -10 -17 -22 -23 -13 -6 -45 -23 -73 -39 -72
-42 -116 -61 -126 -54 -20 12 -7 25 37 36 28 8 69 32 107 64 59 50 76 53 77
16z m541 9 c3 -1 22 -17 42 -36 39 -38 75 -45 122 -23 14 6 28 9 31 5 9 -9
-28 -65 -46 -70 -11 -3 -19 -19 -23 -48 -3 -24 -22 -79 -41 -122 -32 -70 -38
-77 -65 -77 -44 0 -55 21 -47 91 3 33 9 65 12 70 3 5 21 7 40 3 36 -7 49 11
17 23 -33 12 -53 36 -53 66 0 29 -34 97 -49 97 -4 0 -7 -60 -6 -132 0 -73 -4
-146 -8 -162 -8 -28 -9 -29 -65 -23 -92 9 -158 27 -182 49 -20 18 -21 23 -8
32 36 26 68 89 68 132 0 38 -4 47 -40 75 -22 18 -37 35 -34 38 11 12 282 21
335 12z m-519 -124 c-3 -42 -9 -70 -17 -73 -14 -6 -111 20 -135 36 -19 12 -10
20 55 55 28 15 61 33 75 41 13 7 25 12 26 11 0 -1 -1 -33 -4 -70z m-551 42
c20 -10 20 -11 3 -30 -9 -10 -22 -19 -28 -19 -10 0 -49 -35 -133 -120 -19 -19
-48 -64 -66 -100 -26 -53 -32 -76 -32 -132 0 -40 5 -72 13 -79 20 -21 14 -41
-10 -37 -17 2 -24 -3 -26 -19 -7 -50 -85 -10 -121 62 -31 62 -33 150 -4 174
10 9 29 37 42 62 13 26 43 66 68 90 l44 44 -20 -48 c-44 -102 -14 -105 52 -4
44 65 102 121 161 153 28 16 34 16 57 3z m1369 2 c0 -5 -11 -16 -25 -25 -30
-20 -40 -53 -26 -89 14 -36 35 -36 28 0 -6 34 0 51 25 64 23 12 58 -13 58 -41
0 -40 -29 -87 -57 -93 -48 -9 -113 39 -113 83 0 40 54 110 85 110 14 0 25 -4
25 -9z m-662 -53 c2 -19 -3 -30 -19 -39 -20 -10 -25 -9 -41 11 -24 30 -8 63
30 58 21 -2 28 -9 30 -30z m-547 -5 c39 -23 37 -38 -11 -69 -38 -25 -53 -54
-28 -54 6 0 25 11 42 24 51 38 93 56 133 56 39 0 104 -27 110 -45 2 -6 -19
-34 -47 -63 -60 -63 -71 -106 -12 -51 83 79 138 108 181 94 30 -9 26 -27 -14
-54 -48 -32 -136 -136 -163 -193 -13 -27 -25 -48 -27 -48 -2 0 3 21 11 47 17
56 12 82 -11 63 -11 -9 -45 -97 -45 -116 0 -2 10 -13 22 -24 16 -15 26 -42 35
-92 6 -40 10 -76 7 -80 -10 -15 -98 -8 -125 10 -15 9 -52 41 -83 70 -53 49
-76 57 -76 29 0 -6 21 -32 46 -58 51 -52 51 -75 1 -65 -41 8 -54 21 -84 80
-23 44 -27 67 -31 173 -5 118 -4 123 23 170 15 26 43 62 62 79 41 36 41 69 -1
58 -19 -5 -25 -1 -30 21 -4 16 -2 33 5 41 16 19 75 18 110 -3z m1410 -25 c11
-21 11 -22 -4 -9 -10 7 -17 17 -17 22 0 15 9 10 21 -13z m-1562 -38 c-5 -23
-13 -48 -18 -58 -5 -9 -19 -51 -31 -92 -33 -108 -29 -192 11 -298 18 -45 29
-85 26 -88 -9 -9 -47 3 -84 25 -41 25 -103 121 -120 186 -16 60 -5 117 36 180
14 22 35 57 46 79 19 36 105 106 131 106 9 0 9 -11 3 -40z m1536 -10 c21 -22
45 -40 52 -40 18 0 35 -37 28 -60 -3 -11 -17 -28 -29 -38 -13 -10 -25 -27 -27
-38 -6 -28 -53 -30 -85 -5 -32 25 -104 29 -104 7 0 -9 16 -17 43 -21 50 -9 77
-30 77 -62 0 -30 -21 -29 -59 3 -27 23 -35 25 -62 15 -31 -11 -53 -5 -88 23
-8 6 -37 18 -65 26 -57 18 -61 30 -34 103 24 61 30 63 88 23 58 -40 86 -44
131 -20 30 15 32 15 85 -20 29 -20 58 -36 64 -36 22 0 7 22 -40 57 -52 39 -61
63 -40 104 15 26 20 25 65 -21z m-875 -90 c8 -5 12 -10 10 -12 -87 -63 -134
-119 -191 -230 -21 -41 -29 -122 -17 -193 5 -30 -38 -32 -69 -3 -24 22 -25 27
-21 108 8 144 76 261 185 320 40 21 79 25 103 10z m210 -74 c199 -33 240 -46
272 -82 17 -19 37 -34 45 -34 49 0 214 -233 186 -261 -21 -21 -53 2 -118 84
-103 127 -265 236 -265 177 0 -10 123 -100 136 -100 18 0 121 -138 130 -174 5
-23 3 -26 -21 -26 -21 0 -48 21 -120 95 -52 52 -100 95 -108 95 -8 0 -35 11
-61 25 -57 30 -56 30 -56 5 0 -19 43 -53 104 -81 17 -8 54 -42 83 -77 45 -53
52 -66 42 -79 -25 -29 -138 15 -237 95 -40 32 -45 33 -75 21 -18 -7 -41 -21
-53 -31 -31 -28 -70 -23 -86 10 -15 30 -58 44 -58 17 0 -8 7 -18 15 -21 8 -4
15 -12 15 -20 0 -10 -13 -14 -46 -14 -61 0 -104 42 -104 102 0 79 112 251 185
285 32 14 46 13 195 -11z m694 -83 c-11 -57 -60 -187 -71 -190 -7 -3 -19 11
-29 29 -9 18 -32 52 -50 75 -19 23 -34 46 -34 52 0 22 34 10 60 -21 25 -29 30
-31 52 -21 16 7 27 23 32 44 6 34 22 59 37 59 5 0 6 -12 3 -27z m-296 -12 c78
-41 177 -158 184 -217 4 -39 -19 -41 -39 -3 -10 17 -32 50 -48 73 -17 22 -34
49 -38 58 -3 9 -25 30 -49 45 -43 28 -58 42 -58 56 0 11 7 9 48 -12z m-1724
-86 c5 -18 2 -25 -9 -25 -22 0 -46 54 -39 89 l6 31 18 -35 c10 -19 21 -46 24
-60z m225 -169 c7 -5 18 -22 23 -36 l10 -25 9 23 c4 12 16 22 26 21 29 -1 146
-53 150 -66 3 -7 -13 -23 -34 -37 -21 -14 -48 -33 -61 -42 -16 -12 -25 -14
-35 -5 -16 12 -27 5 -27 -18 0 -9 -9 -34 -19 -56 -11 -22 -25 -59 -32 -83 -26
-88 -62 -66 -61 37 0 31 -6 105 -14 164 -15 121 -10 149 28 140 13 -3 29 -11
37 -17z m3157 -34 c66 -29 147 -87 186 -130 45 -50 68 -122 68 -216 0 -85 -10
-125 -57 -223 -27 -56 -47 -84 -84 -113 -28 -22 -56 -37 -64 -34 -8 3 -22 -1
-30 -10 -9 -9 -21 -16 -26 -16 -14 0 -11 44 7 79 29 59 -8 172 -80 240 -20 19
-36 32 -36 28 0 -5 16 -37 35 -74 40 -73 43 -105 5 -47 -14 21 -31 39 -37 42
-22 6 -14 -22 12 -47 14 -13 25 -34 25 -46 0 -13 5 -27 10 -30 18 -11 12 -152
-9 -190 -29 -54 -136 -117 -386 -225 -77 -33 -133 -36 -190 -11 -26 11 -55 21
-64 21 -9 0 -34 9 -56 19 -37 16 -42 24 -59 82 -11 35 -21 70 -24 77 -2 7 4
12 17 12 25 0 26 9 6 36 -8 10 -15 26 -15 34 0 8 -19 37 -43 64 -23 27 -57 66
-76 88 -35 40 -65 40 -40 -1 12 -18 11 -22 -4 -33 -17 -13 -17 -15 8 -48 95
-128 150 -241 129 -263 -14 -13 -127 64 -178 121 -16 19 -52 46 -79 62 -55 31
-157 116 -157 130 0 11 46 41 155 99 44 24 90 50 103 59 13 8 38 22 55 31 18
9 32 21 32 26 1 37 82 73 191 84 47 5 88 11 91 15 13 13 -8 18 -80 19 -87 2
-87 10 0 49 68 30 182 59 267 67 50 5 63 10 71 28 14 33 104 46 131 18 19 -19
175 -17 181 2 3 7 -7 15 -21 19 -31 7 -31 11 -6 44 11 14 20 29 20 34 0 14 32
46 45 46 7 0 30 -8 51 -18z m-1466 -33 c0 -30 -27 -89 -44 -95 -16 -6 -154 24
-161 36 -10 17 55 50 96 48 33 -1 46 3 56 19 17 25 53 19 53 -8z m-878 -35
c15 -8 36 -14 48 -14 28 0 90 -27 90 -38 0 -12 -41 -23 -99 -27 -77 -6 -218
-120 -270 -219 -42 -81 -6 -73 56 12 61 84 110 128 178 159 51 23 72 27 138
26 75 -2 82 -4 151 -47 41 -25 76 -55 79 -65 3 -11 21 -26 40 -35 20 -8 42
-27 51 -43 8 -16 22 -35 30 -42 13 -11 17 -11 22 3 9 24 25 20 88 -25 32 -23
93 -58 135 -79 105 -51 138 -105 120 -192 -34 -167 -32 -162 -109 -263 -48
-64 -94 -108 -144 -139 -52 -33 -125 -66 -144 -66 -10 0 -27 -7 -38 -15 -17
-13 -15 -14 36 -14 34 -1 72 7 99 19 107 49 252 203 300 320 15 36 25 85 28
143 3 48 9 87 13 87 4 0 33 -9 65 -20 66 -23 94 -45 121 -96 15 -28 24 -34 50
-34 35 0 88 -32 117 -72 27 -36 39 -163 22 -227 -13 -52 -33 -86 -76 -132 -34
-36 -84 -123 -93 -160 -7 -32 -76 -96 -113 -105 -15 -4 -45 -2 -67 5 -23 7
-67 16 -99 22 -67 10 -149 36 -173 53 -22 16 -10 36 21 36 74 0 120 21 190 84
58 53 68 66 57 78 -11 11 -17 9 -35 -12 -54 -61 -161 -112 -264 -126 -65 -8
-129 12 -218 71 -37 24 -92 54 -123 66 -31 13 -79 35 -107 50 -27 14 -71 29
-98 33 -54 7 -228 89 -287 136 -79 63 -140 188 -143 295 -1 33 1 96 5 140 l8
80 -23 -45 c-19 -38 -22 -61 -22 -155 0 -99 3 -117 29 -180 37 -90 65 -131
110 -161 20 -14 36 -29 36 -34 0 -24 -42 -30 -140 -21 -88 8 -107 14 -158 45
-129 78 -257 258 -289 406 -25 117 18 277 106 393 38 51 117 111 133 101 11
-7 68 15 68 26 0 9 46 30 65 30 27 0 15 -25 -35 -75 -47 -46 -62 -75 -41 -75
6 0 36 23 68 51 68 59 127 89 180 90 21 0 47 4 58 9 27 13 163 1 197 -16z
m440 -74 c68 -12 148 -27 178 -34 63 -16 152 -32 228 -42 28 -4 52 -9 52 -13
0 -3 -15 -25 -34 -48 -35 -45 -62 -100 -53 -109 9 -9 74 68 99 118 22 45 25
47 75 54 81 10 88 -8 27 -73 -47 -50 -85 -113 -91 -148 -3 -19 -3 -35 1 -35 3
0 23 26 44 58 40 62 112 155 125 160 4 2 7 12 7 21 0 22 40 41 85 41 44 0 45
-17 7 -62 -33 -39 -82 -125 -82 -144 0 -26 17 -14 49 34 98 148 134 182 192
182 21 0 39 -4 39 -9 0 -4 -27 -39 -60 -76 -34 -38 -60 -77 -60 -89 1 -16 21
0 89 70 49 51 100 99 114 109 18 11 57 18 124 22 91 6 97 5 84 -10 -7 -10 -20
-17 -27 -17 -27 0 -139 -57 -193 -98 -30 -23 -83 -68 -118 -102 -35 -34 -85
-70 -111 -81 -81 -35 -165 -81 -205 -113 l-38 -30 -54 27 c-29 16 -74 48 -99
73 -26 24 -52 44 -59 44 -21 0 -118 49 -149 75 -16 14 -60 43 -96 64 -37 22
-83 54 -102 71 -19 17 -65 51 -102 75 -38 25 -68 47 -68 50 0 10 59 5 182 -15z
m968 -520 c0 -5 8 -18 18 -28 24 -24 52 -69 52 -83 0 -18 -48 30 -56 55 -4 12
-15 27 -25 34 -23 16 -25 32 -4 32 8 0 15 -4 15 -10z m5 -311 c11 -9 52 -27
90 -40 39 -12 75 -25 80 -29 6 -4 64 -24 130 -45 91 -28 128 -45 151 -69 20
-19 62 -42 110 -59 154 -56 212 -96 256 -177 26 -50 29 -62 26 -136 -3 -77 -5
-83 -41 -128 -52 -63 -137 -106 -211 -106 -70 0 -105 15 -346 142 -97 51 -197
85 -355 118 -79 17 -175 51 -175 62 0 6 24 43 53 82 29 39 61 84 71 100 29 46
67 175 73 246 7 93 8 96 41 75 15 -10 36 -26 47 -36z m-1177 -250 c64 -34 144
-75 177 -91 218 -107 221 -110 154 -183 l-43 -46 -18 23 c-10 13 -18 30 -18
38 -1 29 -68 90 -99 90 -10 0 -7 -9 11 -27 34 -36 78 -136 78 -177 0 -45 -17
-101 -40 -128 -18 -23 -19 -23 -33 -3 -8 10 -17 42 -19 70 -4 48 -16 78 -91
233 -31 65 -126 172 -153 172 -23 0 -16 -15 22 -51 51 -49 117 -153 148 -234
15 -38 31 -80 36 -93 6 -13 10 -36 10 -52 0 -16 5 -32 10 -35 17 -10 11 -61
-9 -79 -11 -10 -28 -16 -38 -15 -10 1 -30 -3 -44 -10 -22 -11 -32 -10 -62 4
-55 26 -74 54 -116 171 -21 60 -48 125 -59 144 -11 20 -25 70 -31 114 -10 67
-9 88 5 128 15 46 63 98 92 98 7 0 65 -28 130 -61z m2006 -75 c31 -31 56 -63
56 -71 0 -8 7 -27 15 -44 14 -27 26 -105 28 -185 1 -37 -27 -78 -68 -98 -16
-8 -31 -13 -32 -12 -2 2 3 16 12 32 8 16 15 39 15 50 0 12 6 37 14 56 12 29
12 45 1 110 -14 82 -29 111 -78 155 -18 15 -38 36 -46 46 -12 15 -11 17 7 17
11 0 45 -25 76 -56z"/>
    <path id="p1" d="M1474 5562 c3 -5 41 -31 86 -57 44 -27 80 -53 80 -57 0 -4 7 -8 15
-8 20 0 19 6 -5 40 -26 36 -118 90 -154 90 -15 0 -25 -4 -22 -8z"/>
    <path id="p2" d="M1702 5238 c65 -101 84 -128 90 -128 15 0 8 22 -23 78 -32 59 -44 72
-68 72 -11 0 -11 -4 1 -22z"/>
    <path id="p3" d="M1250 5241 c-52 -11 -120 -49 -120 -67 0 -12 5 -14 18 -9 62 27 103
36 166 37 75 2 98 -7 253 -98 26 -15 34 -17 45 -6 16 16 -10 38 -100 82 -113
55 -196 75 -262 61z"/>
    <path id="p4" d="M1175 5116 c-17 -7 -36 -21 -44 -30 -14 -16 -12 -17 25 -11 80 14
114 26 114 40 0 19 -53 19 -95 1z"/>
    <path id="p5" d="M3667 4943 c-14 -13 -6 -24 15 -21 27 4 36 28 11 28 -11 0 -23 -3
-26 -7z"/>
    <path id="p6" d="M2100 5372 c0 -18 167 -159 176 -149 12 11 -18 47 -85 101 -67 53
-91 66 -91 48z"/>
    <path id="p7" d="M2057 4842 c-31 -72 -136 -196 -188 -223 -32 -16 -39 -25 -39 -48 0
-43 21 -56 73 -43 61 16 153 58 177 82 43 43 10 56 -38 15 -17 -14 -46 -32
-66 -40 -36 -15 -86 -20 -86 -9 0 4 38 42 85 86 68 64 87 88 95 121 6 23 15
50 20 59 12 22 13 58 1 58 -4 0 -20 -26 -34 -58z"/>
    <path id="p8" d="M1226 4454 c-72 -60 -119 -134 -85 -134 7 0 40 28 74 63 34 34 72 70
84 80 22 18 20 37 -3 37 -8 0 -39 -21 -70 -46z"/>
    <path id="p9" d="M1061 4294 c-13 -17 -21 -41 -21 -65 0 -22 2 -39 4 -39 11 0 56 84
56 105 0 32 -13 32 -39 -1z"/>
    <path id="p10" d="M2543 4413 c-21 -8 -15 -48 13 -78 20 -22 28 -25 37 -15 9 9 7 15
-10 27 -17 12 -21 21 -16 44 5 28 1 33 -24 22z"/>
    <path id="p11" d="M4438 3545 c-3 -3 -41 -9 -84 -13 -44 -4 -78 -11 -78 -17 2 -15 92
-27 149 -20 54 7 91 27 80 44 -6 11 -57 15 -67 6z"/>
    <path id="p12" d="M4015 3530 c-11 -18 5 -30 39 -30 36 0 136 -27 151 -41 11 -11 45
-12 45 -1 0 19 -38 41 -104 61 -74 23 -121 27 -131 11z"/>
    <path id="p13" d="M4130 3414 c0 -3 15 -17 33 -32 138 -113 223 -219 255 -317 21 -65
42 -84 42 -38 0 35 -35 122 -72 179 -56 86 -258 250 -258 208z"/>
    <path id="p14" d="M4320 3370 c0 -5 5 -10 10 -10 6 0 10 5 10 10 0 6 -4 10 -10 10 -5 0
-10 -4 -10 -10z"/>
    <path id="p15" d="M3815 3350 c3 -5 13 -10 20 -10 30 0 152 -73 200 -121 51 -50 65 -58
65 -38 0 36 -97 119 -138 119 -10 0 -28 9 -40 20 -12 11 -28 20 -36 20 -8 0
-18 5 -21 10 -3 6 -17 10 -31 10 -14 0 -22 -4 -19 -10z"/>
    <path id="p16" d="M4130 3281 c0 -13 34 -71 41 -71 4 0 12 6 18 14 9 10 5 19 -15 40
-27 27 -44 33 -44 17z"/>
    <path id="p17" d="M4647 3224 c-10 -11 -8 -44 2 -44 6 0 13 4 16 10 8 12 -9 43 -18 34z"/>
    <path id="p18" d="M4170 3170 c0 -5 13 -33 28 -62 16 -29 34 -70 41 -90 14 -43 41 -51
41 -13 0 46 -75 175 -102 175 -4 0 -8 -4 -8 -10z"/>
    <path id="p19" d="M3390 3150 c0 -5 19 -22 43 -38 23 -16 64 -54 92 -83 38 -41 50 -50
53 -37 4 22 -48 87 -106 133 -43 34 -82 46 -82 25z"/>
    <path id="p20" d="M4140 3058 c0 -24 21 -143 26 -147 9 -9 24 23 24 51 0 15 -9 46 -21
68 -22 42 -29 49 -29 28z"/>
    <path id="p21" d="M1939 3563 c-16 -4 -44 -51 -35 -60 8 -8 46 22 52 40 7 22 4 25 -17
20z"/>
    <path id="p22" d="M1667 3543 c-4 -3 -7 -15 -7 -26 0 -16 3 -17 15 -7 8 7 15 19 15 26
0 15 -12 19 -23 7z"/>
    <path id="p23" d="M1555 3481 c-20 -34 -33 -65 -30 -71 10 -15 23 -3 41 38 9 20 21 47
27 59 23 49 -3 31 -38 -26z"/>
    <path id="p24" d="M1846 3444 c-4 -10 -1 -14 6 -12 15 5 23 28 10 28 -5 0 -13 -7 -16
-16z"/>
    <path id="p25" d="M1712 3405 c-22 -47 -15 -215 14 -333 36 -148 109 -272 161 -272 24
0 24 0 -12 43 -20 23 -52 75 -71 115 -42 89 -68 250 -62 385 4 91 -7 113 -30
62z"/>
    <path id="p26" d="M2621 3210 c-13 -39 -33 -90 -46 -113 -37 -65 -143 -178 -219 -233
-97 -69 -131 -100 -119 -107 9 -6 60 23 152 85 19 13 69 56 112 96 70 67 78
72 81 50 2 -12 9 -23 17 -23 18 0 69 92 85 153 12 42 11 51 -5 82 -11 19 -19
45 -19 57 0 44 -17 23 -39 -47z"/>
    <path id="p27" d="M2220 3218 c-16 -29 -30 -57 -30 -61 0 -17 -81 -120 -102 -131 -25
-13 -36 -36 -16 -36 18 0 102 78 132 123 56 83 83 157 56 157 -5 0 -23 -24
-40 -52z"/>
    <path id="p28" d="M1530 3120 c0 -29 53 -139 84 -175 36 -41 33 -22 -13 76 -21 46 -41
92 -44 102 -9 24 -27 22 -27 -3z"/>
    <path id="p29" d="M2628 2737 c-32 -12 -58 -25 -58 -29 0 -5 21 -8 47 -8 54 0 135 28
130 44 -6 18 -59 15 -119 -7z"/>
    <path id="p30" d="M3297 2598 c-13 -29 -47 -78 -75 -109 -48 -52 -65 -89 -43 -89 5 0
34 28 65 61 80 88 126 189 86 189 -5 0 -19 -24 -33 -52z"/>
    <path id="p31" d="M2966 2621 c-9 -10 -47 -33 -84 -51 -37 -17 -77 -36 -89 -42 -27 -13
-31 -34 -5 -23 9 4 33 11 52 15 51 10 122 48 147 79 31 39 13 59 -21 22z"/>
    <path id="p32" d="M3646 2729 c-3 -17 -6 -51 -6 -74 0 -48 -38 -137 -101 -232 -22 -34
-38 -67 -34 -73 3 -6 10 -8 15 -5 10 6 105 147 123 182 22 44 40 175 28 206
-13 35 -17 34 -25 -4z"/>
    <path id="p33" d="M3747 2448 c-8 -29 -18 -69 -21 -88 l-6 -34 19 21 c38 41 61 153 31
153 -5 0 -15 -24 -23 -52z"/>
    <path id="p34" d="M4128 2432 c-33 -49 -81 -193 -72 -215 8 -22 24 -22 24 0 0 9 18 66
41 125 45 119 47 152 7 90z"/>
    <path id="p35" d="M3926 2426 c-8 -14 -26 -26 -38 -28 -20 -3 -23 -10 -26 -50 -3 -47
12 -66 24 -33 4 8 16 15 29 15 31 0 42 16 50 73 6 38 4 47 -8 47 -8 0 -22 -11
-31 -24z"/>
    <path id="p36" d="M3617 2365 c-26 -39 -32 -55 -22 -55 17 0 75 75 75 97 0 25 -16 13
-53 -42z"/>
    <path id="p37" d="M2300 2475 c0 -8 9 -19 19 -25 11 -5 23 -20 26 -32 4 -13 15 -32 25
-43 56 -62 127 -233 144 -347 8 -53 21 -62 29 -20 5 26 -15 126 -33 167 -26
59 -48 112 -54 132 -6 20 -18 37 -98 141 -33 42 -58 54 -58 27z"/>
    <path id="p38" d="M9340 6877 c-108 -38 -117 -43 -209 -102 -91 -59 -159 -133 -221
-240 -29 -49 -63 -106 -74 -125 -56 -89 -65 -164 -36 -291 44 -194 73 -306 96
-372 13 -38 24 -90 24 -117 0 -28 5 -70 12 -94 15 -58 5 -70 -78 -95 -34 -11
-82 -30 -106 -42 -48 -24 -208 -151 -249 -196 -51 -58 -106 -151 -141 -239
-79 -197 -107 -270 -113 -296 -4 -15 -14 -29 -22 -32 -8 -3 -196 -6 -419 -6
-428 -1 -423 0 -438 -48 -8 -24 31 -168 144 -532 57 -184 73 -248 67 -262 -4
-11 -131 -68 -151 -68 -20 0 -121 -88 -156 -136 -51 -68 -70 -120 -77 -209
-12 -162 37 -263 217 -443 63 -63 133 -126 155 -140 22 -14 59 -40 82 -59 49
-40 48 -52 -8 -101 -55 -48 -89 -122 -89 -196 0 -95 10 -130 49 -182 65 -86
213 -144 336 -131 30 3 97 24 150 47 53 22 111 44 128 47 18 3 37 9 42 13 6 4
37 17 70 30 33 13 64 27 69 32 6 4 28 8 49 8 32 0 51 -9 93 -43 29 -23 74 -55
100 -71 67 -42 84 -75 84 -167 0 -82 12 -120 64 -196 58 -87 194 -122 296 -76
48 21 156 122 197 185 20 29 37 40 81 54 88 27 127 65 180 172 42 85 45 99 44
163 -1 91 -6 104 -48 130 -53 33 -41 49 51 72 85 21 100 19 235 -18 64 -18
217 -20 275 -4 41 12 99 38 170 78 57 32 158 134 211 213 61 91 99 187 124
315 12 59 30 135 40 168 40 129 63 223 70 298 5 43 13 84 19 91 6 7 36 25 67
41 73 37 172 136 205 206 41 84 71 275 70 438 -1 73 -3 136 -6 140 -2 4 -9 74
-15 156 -6 82 -18 181 -27 220 -9 38 -22 97 -29 130 -7 33 -37 107 -66 164
-71 139 -177 254 -281 305 -40 20 -78 36 -84 36 -24 0 -41 46 -46 126 -3 50
-11 91 -21 106 -15 22 -14 27 5 64 20 37 20 49 14 253 -9 271 -25 336 -98 379
-47 27 -125 52 -166 52 -20 0 -41 4 -46 8 -6 4 -31 41 -55 82 -55 92 -116 159
-195 215 -124 86 -216 115 -390 121 -128 5 -132 4 -225 -29z m343 -27 c196
-29 403 -210 482 -421 14 -39 6 -59 -23 -59 -16 0 -29 -14 -69 -75 -22 -34
-27 -55 -33 -147 -8 -115 -15 -141 -24 -87 -17 96 -14 159 11 220 14 34 22 63
19 66 -13 13 -37 -10 -57 -56 -12 -28 -25 -51 -29 -51 -5 0 -21 15 -36 33 -51
61 -159 139 -259 187 -169 81 -208 90 -410 93 -135 2 -156 -1 -210 -21 -101
-38 -98 -38 -90 -12 17 54 132 174 227 236 96 64 154 85 253 94 122 11 174 10
248 0z m-320 -347 c-7 -2 -19 -2 -25 0 -7 3 -2 5 12 5 14 0 19 -2 13 -5z
m-348 -43 c-3 -5 -12 -10 -19 -10 -7 0 -25 -10 -40 -21 -15 -12 -29 -19 -32
-16 -7 7 67 57 84 57 7 0 10 -4 7 -10z m468 -27 c144 -28 369 -154 430 -241
24 -33 28 -45 19 -54 -9 -9 -22 -3 -55 29 -101 96 -267 193 -392 228 -33 9
-71 20 -85 25 -14 5 -46 11 -73 15 -29 4 -45 10 -41 17 8 12 74 6 197 -19z
m877 -28 c27 -14 56 -36 65 -48 19 -30 45 -271 45 -420 0 -126 -9 -147 -67
-147 l-33 0 1 58 c0 31 4 84 8 117 8 56 -2 248 -15 305 -3 14 -33 50 -66 81
-34 32 -57 62 -54 68 12 19 64 12 116 -14z m-1362 -25 c-20 -16 -48 -50 -62
-75 -15 -25 -31 -45 -36 -45 -6 0 -10 -10 -10 -22 0 -19 -2 -20 -10 -8 -25 37
20 117 87 156 55 33 74 29 31 -6z m411 -6 c50 -10 117 -35 197 -74 118 -58
154 -83 242 -168 l45 -42 -7 -84 c-32 -425 -543 -692 -825 -432 -80 74 -128
178 -148 325 -27 184 3 321 89 420 37 43 65 59 121 71 53 12 187 4 286 -16z
m736 -93 c-22 -44 -25 -61 -25 -168 0 -99 3 -124 20 -155 21 -39 12 -60 -16
-37 -26 21 -41 61 -53 138 -17 111 9 219 61 255 36 26 39 19 13 -33z m98 -16
c22 -47 24 -239 3 -290 -18 -41 -48 -47 -70 -12 -34 53 -31 246 4 305 25 41
42 40 63 -3z m92 -315 c-4 -74 -11 -140 -17 -147 -15 -19 -75 -16 -82 3 -13
35 -5 76 23 112 39 50 51 92 51 177 0 39 3 75 8 79 14 15 23 -92 17 -224z
m-273 -13 c27 -70 28 -73 10 -96 -27 -37 -39 -36 -46 6 -8 51 -8 178 1 170 3
-4 19 -40 35 -80z m-127 -36 c-4 -17 -11 -31 -16 -31 -10 0 -12 40 -3 65 11
28 27 0 19 -34z m255 -111 c0 -53 -4 -80 -11 -80 -14 0 -122 -70 -127 -82 -2
-4 -16 -8 -31 -8 -15 0 -31 -4 -36 -9 -12 -10 -103 -41 -122 -41 -21 0 -16 13
37 93 28 42 50 80 50 85 0 5 7 16 17 23 13 11 17 11 20 2 11 -33 104 6 125 52
9 20 42 41 71 44 4 1 7 -35 7 -79z m250 -80 c27 -27 26 -43 -2 -34 -22 7 -47
31 -48 47 0 14 30 7 50 -13z m-66 -50 c45 -48 52 -63 40 -93 -4 -12 -15 -11
-72 6 -37 11 -70 25 -75 31 -7 10 0 82 10 99 13 21 54 3 97 -43z m-224 -5 c0
-8 -9 -19 -19 -25 -30 -15 -33 -12 -15 15 18 28 34 33 34 10z m-320 -31 c0
-16 -156 -155 -193 -172 -172 -80 -362 -103 -459 -56 -54 25 -47 35 14 19 28
-8 92 -15 142 -16 74 -1 105 4 168 25 85 28 190 92 264 160 47 43 64 54 64 40z
m310 -65 c-29 -40 -115 -107 -148 -116 -15 -3 -39 -14 -54 -24 -14 -11 -34
-19 -43 -19 -11 0 -15 -5 -12 -15 9 -22 -12 -30 -27 -10 -11 16 -16 16 -75 1
-67 -17 -177 -21 -200 -7 -20 13 -3 18 84 26 85 8 150 28 141 44 -4 6 13 8 41
6 26 -1 54 1 62 5 9 5 36 18 61 29 72 34 133 70 155 91 30 30 39 24 15 -11z
m330 1 c0 -11 -4 -20 -10 -20 -5 0 -10 9 -10 20 0 11 5 20 10 20 6 0 10 -9 10
-20z m-148 -25 c40 -14 74 -25 76 -25 1 0 2 -4 2 -9 0 -5 -24 -21 -54 -35 -72
-34 -196 -172 -227 -253 -5 -13 -13 -23 -19 -23 -14 0 -13 10 9 51 13 24 16
40 10 50 -8 12 -12 11 -24 -5 -8 -11 -15 -30 -15 -43 0 -13 -4 -23 -8 -23 -5
0 -14 -24 -21 -52 -12 -51 -5 -229 15 -342 5 -29 3 -37 -5 -31 -23 14 -60 144
-61 213 0 17 -4 32 -10 32 -16 0 -12 -142 5 -191 9 -23 32 -76 53 -116 30 -61
41 -73 56 -69 25 7 46 -10 46 -38 0 -11 12 -52 25 -91 14 -38 25 -76 25 -82 0
-29 -86 -6 -132 35 -14 12 -15 18 -6 29 9 11 0 25 -45 71 -103 104 -148 192
-129 246 7 18 12 78 12 135 0 96 -1 103 -26 128 -23 23 -31 25 -77 20 -29 -3
-74 -11 -102 -17 -84 -18 -198 -28 -240 -21 l-40 6 54 18 c29 9 62 17 72 17
29 0 184 56 241 87 28 15 72 47 98 70 55 49 189 143 204 143 8 0 8 -2 0 -8
-20 -13 -131 -167 -149 -205 -15 -33 -16 -42 -5 -63 21 -39 49 -28 65 26 4 14
15 34 25 45 23 26 35 65 20 65 -24 0 23 61 112 143 88 83 107 113 53 89 -31
-14 -32 -6 -3 25 27 29 30 29 120 -2z m-1253 -59 c14 -14 19 -26 13 -26 -7 0
-12 5 -12 10 0 6 -8 10 -18 10 -11 0 -24 11 -30 25 -11 23 -10 25 6 16 9 -5
28 -21 41 -35z m744 27 c-7 -2 -19 -2 -25 0 -7 3 -2 5 12 5 14 0 19 -2 13 -5z
m752 -55 c75 -23 114 -48 183 -112 42 -41 53 -66 28 -66 -7 0 -19 -6 -25 -14
-7 -8 -33 -16 -59 -19 -74 -9 -110 -18 -123 -33 -22 -27 1 -32 56 -13 64 22
105 23 160 4 22 -8 49 -15 61 -15 16 0 29 -17 56 -77 34 -74 48 -114 55 -158
1 -11 5 -37 9 -57 3 -21 4 -38 1 -38 -3 0 -34 14 -71 31 -98 46 -167 43 -288
-12 -51 -22 -112 -55 -137 -72 -72 -49 -186 -168 -206 -215 -12 -27 -24 -42
-34 -40 -25 5 -42 93 -39 203 3 90 5 103 28 128 13 15 35 51 50 79 14 29 37
59 51 68 14 8 52 33 84 55 55 38 57 40 32 43 -19 2 -40 -6 -65 -26 -20 -16
-46 -31 -57 -33 -10 -2 -29 -20 -42 -39 -12 -19 -31 -46 -43 -60 l-21 -25 4
50 c4 57 44 153 100 240 22 35 33 61 27 63 -15 5 -53 -31 -71 -66 -7 -15 -18
-34 -25 -42 -20 -26 -73 -163 -79 -205 -6 -41 -12 -118 -14 -167 -3 -92 -54
57 -54 157 2 218 211 502 373 505 13 0 56 -10 95 -22z m-1507 -26 c82 -57 132
-71 308 -86 119 -11 189 -12 235 -6 35 5 88 10 117 10 29 0 62 5 74 11 11 6
22 8 26 5 14 -15 -8 -21 -183 -52 -69 -12 -129 -15 -255 -11 -156 5 -169 8
-240 37 -75 31 -130 72 -130 97 0 18 17 16 48 -5z m-79 -73 c58 -119 110 -180
184 -220 l62 -33 -38 -9 c-21 -5 -36 -14 -34 -21 5 -15 63 -23 247 -32 136 -7
148 -9 95 -16 -33 -4 -112 -4 -175 -1 -187 9 -267 5 -311 -17 l-38 -20 -18 27
c-14 22 -17 49 -17 167 0 78 2 150 5 160 2 10 -1 21 -8 23 -26 9 -49 -165 -33
-242 6 -27 12 -59 14 -70 1 -11 5 -40 9 -65 3 -25 9 -138 12 -251 4 -173 3
-208 -10 -219 -20 -17 -33 -5 -40 38 -12 75 -28 118 -64 172 -35 52 -67 152
-56 171 4 5 1 35 -4 66 -6 32 -18 101 -27 153 -9 52 -20 108 -25 124 -5 16 -7
44 -3 61 7 37 44 62 159 106 38 15 71 27 72 28 2 1 20 -35 42 -80z m-305 -77
c3 -5 14 -89 26 -188 11 -98 24 -195 30 -214 5 -19 10 -50 10 -69 0 -33 -1
-34 -19 -17 -11 10 -34 51 -52 91 -30 68 -49 87 -49 48 0 -22 77 -182 106
-220 14 -18 39 -36 57 -41 41 -11 53 -36 67 -147 12 -90 3 -154 -19 -141 -13
9 -41 95 -41 127 0 40 -16 76 -46 104 -32 30 -18 29 -239 25 -215 -3 -216 -3
-197 87 6 30 34 104 62 163 27 60 50 114 50 121 0 30 71 131 143 202 74 73 99
88 111 69z m495 -42 c99 -45 320 -45 489 0 78 21 102 24 102 13 0 -12 -87 -49
-185 -79 -117 -35 -256 -43 -336 -20 -57 17 -117 55 -138 89 -15 24 11 23 68
-3z m599 -166 c35 -10 55 -57 47 -114 -6 -42 -4 -49 13 -54 35 -12 38 -58 5
-70 -25 -10 -45 14 -40 48 6 41 -12 101 -36 115 -10 7 -56 15 -103 18 -46 3
-84 9 -84 12 0 9 67 33 115 42 57 9 58 9 83 3z m-49 -105 c28 -10 31 -15 31
-52 0 -22 2 -97 5 -166 5 -125 5 -125 -22 -153 -15 -15 -32 -28 -39 -28 -8 0
-13 53 -16 189 -3 135 -8 194 -17 205 -12 14 -10 16 6 16 11 0 34 -5 52 -11z
m-641 -146 c2 -101 5 -123 18 -123 12 0 14 18 13 111 -2 127 6 146 60 134 l31
-7 0 -173 c0 -96 4 -176 9 -180 16 -9 20 26 19 188 -2 173 0 177 57 177 53 0
56 -7 46 -111 -8 -90 -2 -241 11 -254 10 -10 55 5 73 25 15 16 15 19 0 34 -17
16 -41 195 -31 223 3 8 -1 24 -9 37 -8 12 -12 26 -8 29 3 4 64 7 134 7 l127 0
6 -92 c3 -51 7 -141 9 -200 4 -101 3 -107 -18 -118 -18 -9 -38 -9 -96 3 -47
10 -159 18 -303 22 -192 5 -232 9 -241 22 -17 23 -19 354 -3 365 7 5 31 7 53
6 l40 -3 3 -122z m1839 14 c53 -39 83 -76 83 -102 0 -29 -28 -27 -82 8 -67 43
-141 65 -163 47 -19 -16 -10 -30 18 -30 12 0 50 -13 84 -29 64 -30 93 -64 123
-141 7 -19 20 -44 27 -55 8 -13 13 -52 13 -112 0 -76 -3 -93 -15 -93 -8 0 -15
6 -15 14 0 20 -79 99 -121 121 -108 56 -113 58 -220 63 -146 7 -193 -9 -276
-95 l-61 -63 -22 27 c-32 41 -25 126 16 184 49 71 126 151 180 185 154 99 198
115 300 111 75 -3 85 -6 131 -40z m-1023 -135 c51 -92 55 -106 26 -97 -35 11
-23 -20 28 -67 29 -27 92 -66 164 -101 64 -31 123 -64 132 -73 27 -26 20 -60
-16 -77 -34 -17 -48 -14 -93 18 -16 12 -55 27 -85 34 -66 15 -152 56 -179 85
-11 12 -35 49 -55 84 l-36 63 9 87 c5 48 7 91 4 95 -3 4 3 19 12 34 22 32 29
26 89 -85z m-1437 -112 c67 1 145 -1 173 -5 46 -6 52 -11 69 -43 10 -21 23
-64 30 -97 7 -33 17 -71 21 -85 4 -14 18 -61 29 -105 44 -163 63 -231 78 -275
9 -25 28 -92 43 -150 34 -128 58 -215 71 -256 5 -17 9 -41 9 -53 0 -22 -3 -23
-57 -18 -32 3 -130 11 -218 17 -88 6 -200 15 -250 20 -49 5 -148 14 -220 20
-431 34 -511 43 -535 65 -11 10 -29 50 -41 89 -34 114 -110 355 -134 431 -13
39 -40 129 -59 200 -20 72 -44 152 -53 179 -14 44 -14 50 -1 60 11 8 148 10
469 8 250 -2 509 -3 576 -2z m1315 -65 c0 -19 1 -41 2 -47 1 -9 -13 -12 -48
-10 -36 3 -60 -2 -92 -19 -24 -12 -44 -26 -44 -31 0 -4 -6 -8 -14 -8 -14 0
-76 64 -76 78 0 4 38 8 85 7 65 0 87 4 97 16 18 22 59 49 75 49 8 0 14 -14 15
-35z m-594 -38 c18 -37 9 -46 -37 -40 -21 3 -48 0 -59 -6 -19 -10 -23 -8 -37
19 -19 36 -61 44 -52 9 6 -22 -97 -239 -113 -239 -4 0 -11 7 -14 16 -12 32 -5
71 17 94 12 13 34 58 48 100 l25 75 45 5 c24 3 71 3 104 0 53 -4 61 -8 73 -33z
m1627 -35 c61 -29 175 -129 175 -153 0 -5 9 -18 21 -30 16 -16 20 -28 15 -52
-3 -18 -10 -66 -15 -107 -13 -104 -19 -128 -53 -187 -33 -60 -105 -137 -133
-145 -19 -5 -20 2 -21 156 0 153 -5 188 -35 249 -5 9 -5 17 0 17 17 0 60 -52
85 -105 30 -63 52 -73 43 -20 -11 65 -117 185 -164 185 -8 0 -29 11 -46 24
-18 13 -51 32 -75 42 -31 12 -40 19 -30 25 57 37 231 -40 334 -148 69 -72 99
-72 52 0 -35 52 -121 114 -240 173 -58 29 -186 33 -245 9 -19 -8 -45 -15 -57
-15 -19 0 -17 4 14 32 44 39 102 65 171 77 79 14 130 7 204 -27z m-1314 -4
c65 -71 8 -143 -84 -106 -26 10 -28 14 -25 62 3 42 7 53 28 63 37 19 48 16 81
-19z m-161 7 c6 -8 9 -23 5 -35 -13 -41 -95 -14 -95 32 0 14 8 18 39 18 21 0
44 -6 51 -15z m443 -79 c24 -46 17 -72 -13 -54 -16 10 -24 10 -40 0 -25 -15
-40 -15 -40 0 0 6 -7 19 -15 28 -19 21 -11 44 18 58 41 18 71 8 90 -32z m-578
-13 c25 -27 45 -56 45 -65 0 -22 23 -23 41 -2 20 24 196 10 222 -18 15 -15 22
-17 33 -7 8 6 14 21 14 32 0 17 6 13 30 -19 30 -40 38 -64 20 -64 -19 0 -10
-21 20 -47 17 -13 28 -28 25 -33 -2 -4 -26 -10 -52 -12 -33 -4 -65 -16 -102
-42 -50 -34 -57 -36 -136 -36 -46 0 -91 3 -100 6 -24 10 -57 81 -55 122 5 84
-31 140 -101 157 -27 7 -77 -12 -111 -43 -29 -25 -22 4 13 58 26 41 34 47 48
38 13 -8 25 -6 47 5 43 24 50 21 99 -30z m688 5 c9 -9 62 -31 117 -48 97 -32
132 -52 111 -64 -25 -16 -186 -56 -224 -56 -23 0 -72 -8 -107 -18 -48 -13 -72
-15 -92 -8 -16 5 -28 13 -28 18 0 4 -7 8 -15 8 -8 0 -15 5 -15 10 0 12 13 13
26 1 5 -5 37 -4 76 2 62 9 68 13 78 40 5 17 10 58 10 93 0 63 0 63 23 51 13
-7 31 -20 40 -29z m744 -90 c43 -16 53 -24 53 -43 0 -13 11 -36 24 -52 50 -61
71 -134 45 -160 -8 -8 -8 -22 0 -49 16 -57 14 -166 -4 -201 -12 -25 -30 -36
-87 -57 -79 -29 -107 -24 -72 15 15 17 20 40 23 112 3 96 -5 135 -46 228 -16
37 -34 61 -50 68 -31 14 -42 6 -25 -17 44 -64 82 -181 82 -257 0 -52 -29 -133
-60 -168 -25 -29 -83 -57 -119 -57 -15 0 -14 27 2 37 27 17 77 89 77 110 0 35
-13 28 -53 -30 -54 -78 -132 -133 -174 -122 -28 7 -28 11 -3 66 16 35 20 66
20 152 0 122 -9 153 -70 227 -51 63 -57 74 -34 62 11 -5 36 -12 56 -15 l38 -6
-16 24 c-20 31 -77 43 -99 22 -10 -11 -23 -13 -42 -8 -41 11 -35 34 12 44 101
21 102 21 120 -7 10 -14 26 -26 37 -26 10 0 36 -9 58 -20 22 -11 46 -20 55
-20 9 0 38 -22 64 -50 50 -53 61 -59 61 -36 0 32 -143 146 -185 146 -23 0 -26
16 -5 35 11 10 34 17 57 17 55 -1 151 -39 165 -65 6 -12 28 -38 48 -58 23 -22
41 -53 50 -83 7 -25 17 -49 21 -52 5 -3 9 -20 9 -38 0 -18 7 -41 16 -52 14
-18 15 -15 10 38 -4 36 -2 65 5 76 9 15 4 31 -32 90 -49 81 -100 124 -192 157
-33 12 -62 26 -64 32 -10 29 141 22 224 -9z m-879 -4 c-14 -15 -32 -24 -39
-21 -9 3 -5 8 13 15 14 6 29 16 33 21 3 6 9 11 13 11 4 0 -5 -12 -20 -26z
m-626 5 c27 -14 51 -74 43 -109 -9 -39 -49 -80 -79 -80 -14 0 -38 11 -53 25
-29 26 -18 34 18 13 18 -11 23 -10 40 11 10 13 19 32 19 43 0 25 -26 75 -42
80 -15 5 -1 28 18 28 9 0 24 -5 36 -11z m548 -4 c7 -9 10 -18 7 -22 -8 -7 -37
15 -37 28 0 14 16 11 30 -6z m-733 -62 c-2 -10 -8 -26 -12 -35 -5 -13 -2 -18
9 -18 8 0 22 -13 31 -29 37 -73 125 -103 179 -60 30 24 51 20 59 -10 4 -17 -3
-26 -36 -43 -56 -28 -133 -94 -158 -135 -11 -18 -24 -33 -29 -33 -4 0 -13 21
-19 48 -7 26 -21 77 -32 113 -12 38 -18 76 -14 91 4 17 1 31 -11 42 -16 16
-15 19 2 52 19 36 40 47 31 17z m1098 -73 c3 -5 15 -10 26 -10 29 0 119 -88
142 -140 15 -33 21 -67 21 -130 1 -88 -9 -124 -51 -192 l-23 -38 -131 0 c-119
0 -130 1 -125 18 3 9 8 35 12 57 4 22 15 45 24 52 25 17 30 68 15 145 -16 85
-66 171 -87 150 -4 -4 4 -30 17 -58 30 -63 45 -125 44 -184 l-1 -45 -8 50 c-7
44 -16 71 -53 151 -11 26 -83 103 -114 124 -32 21 -29 28 20 41 60 16 128 5
197 -32 33 -18 63 -30 66 -27 3 3 -14 22 -37 42 l-43 36 42 0 c22 0 44 -4 47
-10z m-335 -76 c28 -14 60 -40 72 -58 12 -17 31 -42 43 -56 28 -32 60 -166 50
-212 -12 -53 -34 -87 -61 -94 -34 -9 -36 -4 -24 49 12 54 0 128 -29 185 -25
50 -94 122 -150 157 -42 26 -44 28 -26 41 28 21 70 17 125 -12z m-122 -58 c46
-24 127 -118 144 -166 38 -110 37 -106 14 -139 -21 -30 -70 -56 -87 -45 -5 3
-9 16 -9 30 0 29 -7 30 -40 4 -29 -23 -50 -26 -50 -6 0 7 -7 19 -15 26 -13 11
-23 5 -63 -32 -26 -24 -69 -54 -95 -67 -46 -22 -49 -22 -67 -6 -19 17 -19 18
1 57 11 22 36 48 55 60 18 11 34 25 34 32 0 24 41 56 70 56 43 0 46 17 8 55
-38 40 -58 44 -58 14 0 -12 -30 -53 -71 -97 -39 -43 -78 -89 -86 -104 -32 -52
-102 -65 -88 -16 14 49 111 172 157 200 35 22 39 53 6 43 -37 -11 -97 -56
-129 -96 -16 -20 -29 -40 -29 -43 0 -4 -19 -32 -42 -62 -30 -40 -47 -54 -62
-52 -50 7 -18 88 74 191 61 68 124 107 172 107 31 0 38 4 38 20 0 14 10 22 38
30 78 21 146 24 180 6z m-358 -31 c0 -8 -5 -15 -12 -15 -16 0 -131 -120 -162
-169 -31 -49 -41 -52 -32 -10 8 42 99 153 150 184 48 29 56 30 56 10z m-1598
-292 c11 -25 21 -60 22 -77 1 -30 0 -31 -46 -34 -55 -4 -66 -22 -14 -22 19 0
47 -5 63 -11 15 -6 64 -21 108 -34 151 -44 202 -44 101 0 -61 27 -60 45 3 45
90 0 273 -103 231 -130 -8 -5 -34 -10 -58 -10 -23 0 -60 -9 -82 -20 -22 -11
-47 -20 -56 -20 -26 0 -131 -84 -110 -88 9 -2 23 2 31 8 28 23 140 71 185 80
66 12 154 -9 158 -38 2 -13 11 -22 21 -22 9 0 21 -4 27 -9 5 -5 51 -31 101
-56 92 -47 143 -84 143 -105 0 -6 -23 -10 -53 -10 -41 0 -56 -5 -71 -21 -15
-18 -25 -20 -67 -15 -131 18 -347 -90 -398 -198 -34 -74 -24 -92 18 -30 35 51
108 112 166 138 66 31 196 66 241 66 20 0 49 8 64 17 25 14 34 15 68 4 42 -14
62 -9 62 15 0 8 2 14 5 14 10 0 59 -33 86 -58 15 -13 51 -29 80 -36 50 -11 54
-13 54 -41 0 -28 -3 -30 -46 -36 -142 -21 -286 -144 -361 -311 -28 -62 -36
-91 -32 -115 9 -46 -1 -56 -39 -37 -18 9 -46 27 -64 40 -17 13 -41 24 -52 24
-52 0 -305 134 -436 231 -22 17 -52 38 -67 48 -15 10 -67 55 -115 100 -49 45
-98 92 -111 104 -13 12 -46 56 -74 97 -43 64 -52 87 -65 158 -17 100 -9 149
38 236 62 115 186 200 297 205 18 1 27 -9 44 -46z m3055 -75 c-4 -28 -11 -56
-16 -61 -13 -13 -41 44 -41 83 0 27 3 30 31 30 l32 0 -6 -52z m-95 15 c23 -26
48 -188 38 -241 -8 -44 -20 -65 -27 -47 -11 31 -29 58 -38 57 -5 -1 -12 -23
-15 -49 l-5 -47 -17 26 c-10 15 -18 32 -18 39 0 6 -16 37 -35 69 -21 34 -33
65 -29 74 4 10 -5 27 -26 46 -29 27 -30 31 -13 37 10 4 43 17 73 29 68 28 93
29 112 7z m-1434 -33 l23 -29 -34 -6 c-77 -15 -117 18 -60 49 38 21 44 19 71
-14z m1001 -56 c144 -81 207 -142 255 -249 21 -46 22 -58 15 -155 -4 -58 -11
-122 -15 -144 -6 -31 -4 -38 7 -34 16 5 37 76 38 132 1 48 10 43 16 -10 2 -21
9 -58 15 -82 5 -23 7 -55 4 -70 -27 -109 -166 -267 -290 -328 -89 -45 -224
-65 -224 -34 0 4 42 28 93 53 100 48 217 139 242 188 23 43 2 36 -58 -20 -64
-61 -160 -131 -179 -131 -8 0 -18 -4 -24 -9 -5 -5 -26 -13 -46 -16 -48 -9 -50
6 -5 37 56 39 169 131 208 170 107 106 117 336 23 517 -37 71 -61 101 -81 101
-22 0 -15 -30 20 -79 55 -76 77 -129 89 -213 13 -90 1 -173 -32 -237 -28 -54
-241 -231 -277 -231 -10 0 -31 -7 -48 -16 -16 -8 -39 -13 -50 -10 -25 7 -112
91 -120 117 -8 23 -21 25 -29 3 -7 -19 17 -68 56 -113 40 -45 30 -53 -107 -80
-60 -12 -126 -27 -146 -32 -20 -5 -60 -9 -89 -9 -53 0 -74 5 -175 41 -27 9
-72 25 -98 34 -59 21 -198 124 -290 215 -61 61 -68 72 -73 116 -6 48 -5 50 39
91 25 23 58 45 74 49 15 4 45 22 65 42 34 32 38 34 44 16 17 -52 27 -74 35
-74 12 0 11 4 -3 34 -22 49 3 95 75 144 35 23 71 42 79 42 16 0 38 -64 38
-112 0 -13 16 -67 34 -122 19 -54 32 -105 29 -113 -11 -27 50 -117 132 -198
75 -73 255 -154 255 -115 0 10 -71 50 -90 50 -6 0 -32 14 -57 31 -42 29 -44
33 -38 65 4 25 2 34 -8 34 -41 0 -167 194 -211 324 -44 132 -31 215 30 187 37
-17 52 -14 56 12 3 20 9 22 66 25 57 3 66 0 107 -29 53 -38 56 -49 15 -49 -16
0 -30 -4 -30 -10 0 -13 131 -72 147 -66 45 18 -22 101 -115 144 -74 33 -63 48
33 45 58 -2 92 -9 133 -28 30 -14 59 -25 65 -25 17 0 98 -71 118 -104 11 -17
26 -57 35 -89 22 -75 34 -81 34 -17 0 65 -17 103 -73 165 -81 90 -254 153
-394 142 -76 -6 -85 -1 -55 26 45 41 169 76 278 79 67 2 78 -1 158 -41 52 -26
93 -41 103 -37 14 6 10 12 -20 37 -64 53 -46 71 62 64 49 -4 77 -12 130 -41z
m137 19 c71 -40 123 -98 172 -194 24 -46 58 -96 74 -111 31 -27 31 -28 24
-100 -7 -73 -24 -138 -37 -138 -4 0 -10 35 -14 78 -7 79 -35 165 -83 261 -28
55 -115 144 -184 187 -36 23 -43 44 -14 44 8 0 35 -12 62 -27z m-2113 -52 c23
-16 76 -63 117 -105 41 -42 78 -76 83 -76 22 0 0 38 -60 100 -39 42 -62 74
-57 80 12 12 299 -7 327 -21 12 -7 48 -36 79 -65 54 -51 78 -65 78 -45 0 5
-11 23 -25 39 -14 17 -25 35 -25 40 0 19 36 23 73 7 21 -9 38 -11 42 -5 3 5
77 9 173 8 127 -1 182 3 230 15 80 21 172 32 172 21 0 -14 -86 -88 -122 -105
-154 -73 -244 -125 -307 -181 -24 -21 -49 -38 -56 -38 -7 0 -32 -15 -56 -33
-37 -28 -157 -77 -189 -77 -5 0 -40 28 -77 61 -37 34 -93 79 -125 100 -31 21
-60 43 -63 49 -3 5 -15 10 -25 10 -11 0 -32 8 -48 18 -41 24 -232 207 -232
220 0 22 51 12 93 -17z m474 -616 c4 -12 15 -14 47 -10 33 5 47 2 69 -16 19
-14 27 -28 24 -40 -4 -13 0 -19 12 -19 9 0 30 -13 47 -28 64 -63 164 -142 178
-142 8 0 17 -4 20 -9 3 -5 26 -18 51 -30 53 -25 58 -48 13 -63 -18 -7 -69 -31
-113 -54 -77 -40 -145 -63 -145 -49 0 4 27 37 60 73 58 63 81 105 65 120 -4 4
-21 -11 -39 -32 -17 -22 -55 -64 -84 -93 -40 -42 -52 -60 -50 -82 1 -21 -8
-36 -39 -64 -23 -21 -48 -53 -58 -73 -29 -63 -58 -56 -144 35 l-53 56 6 58 c9
89 57 168 176 290 42 42 72 77 68 77 -16 0 -64 -22 -81 -38 -120 -111 -186
-215 -196 -311 -7 -65 -28 -77 -67 -40 -62 58 6 222 149 362 38 37 68 70 66
72 -9 9 -110 -63 -142 -100 -58 -68 -117 -171 -125 -217 -5 -28 -13 -44 -24
-46 -22 -4 -26 22 -13 94 20 108 134 252 250 313 47 25 64 26 72 6z m-805
-265 c26 -16 53 -30 58 -30 5 0 38 -15 72 -34 35 -18 86 -41 113 -50 28 -9 73
-30 100 -46 53 -32 107 -59 168 -84 20 -8 37 -20 37 -26 0 -13 -76 -49 -102
-50 -10 0 -18 5 -18 10 0 16 -48 12 -62 -5 -35 -42 -57 -56 -146 -90 -85 -33
-104 -36 -154 -31 -81 8 -165 53 -218 116 -41 50 -44 51 -55 31 -13 -25 -25
-18 -25 14 0 11 -5 26 -11 32 -6 6 -8 21 -4 34 6 19 9 20 17 6 5 -9 8 -24 6
-33 -2 -9 3 -19 10 -21 9 -4 12 13 12 64 0 37 6 77 13 89 6 12 24 44 39 72 40
73 72 80 150 32z m2051 -7 c-7 -2 -19 -2 -25 0 -7 3 -2 5 12 5 14 0 19 -2 13
-5z m-555 -99 c46 -14 86 -32 89 -40 3 -9 -13 -35 -41 -64 -25 -27 -46 -53
-46 -59 0 -5 -26 -17 -57 -27 -32 -10 -74 -25 -93 -35 -19 -9 -60 -29 -91 -43
-73 -34 -171 -137 -210 -220 -20 -43 -29 -79 -30 -121 -2 -75 -4 -78 -34 -59
-30 20 -65 94 -65 138 0 79 83 193 195 266 28 18 52 34 53 36 10 7 6 77 -4 81
-35 13 -180 -101 -215 -168 -24 -48 -44 -49 -65 -6 -15 31 -15 35 3 63 21 36
76 84 118 106 31 16 171 82 215 102 14 6 52 28 85 49 66 42 57 42 193 1z m141
-121 c8 -15 12 -16 22 -5 7 6 16 12 20 12 16 0 39 -33 39 -56 0 -27 -89 -215
-118 -249 -29 -35 -91 -77 -102 -70 -15 9 -12 41 6 56 22 18 54 94 54 128 0
15 5 32 12 39 17 17 2 28 -17 12 -13 -11 -15 -8 -15 19 0 53 48 129 82 131 4
0 11 -8 17 -17z m-151 -148 c5 -53 -54 -221 -103 -296 -79 -118 -153 -169
-247 -169 -53 0 -67 8 -83 47 -20 47 -19 78 4 140 49 134 155 233 306 284 100
35 119 34 123 -6z"/>
    <path id="p39" d="M10645 5073 c-53 -16 -95 -40 -95 -55 0 -12 31 -7 130 22 49 14 88
20 112 16 43 -7 61 10 24 23 -34 14 -113 10 -171 -6z"/>
    <path id="p40" d="M10332 4911 c-53 -42 -85 -81 -96 -118 -10 -32 10 -29 31 5 10 15 44
53 75 85 32 33 58 61 58 63 0 12 -24 0 -68 -35z"/>
    <path id="p41" d="M10282 4724 c-30 -46 -17 -66 14 -20 13 19 24 40 24 45 0 21 -15 11
-38 -25z"/>
    <path id="p42" d="M8825 5068 c4 -116 9 -217 12 -225 3 -7 14 -13 25 -13 18 0 20 4 14
38 -3 20 -9 121 -13 225 -6 178 -7 187 -26 187 -19 0 -20 -5 -12 -212z"/>
    <path id="p43" d="M8987 5234 c-6 -6 0 -86 9 -131 5 -26 34 -32 34 -8 0 29 -25 145 -31
145 -3 0 -8 -3 -12 -6z"/>
    <path id="p44" d="M9506 4610 c15 -15 56 -17 61 -2 3 8 -7 12 -33 12 -25 0 -35 -3 -28
-10z"/>
    <path id="p45" d="M10465 4679 l-40 -41 35 6 c35 6 35 6 13 -10 -19 -14 -33 -54 -19
-54 16 0 126 75 115 78 -8 2 -21 6 -29 9 -8 4 -18 5 -22 5 -15 -3 -8 16 7 22
21 8 19 26 -2 26 -10 -1 -36 -19 -58 -41z"/>
    <path id="p46" d="M10890 4500 c11 -20 30 -28 30 -12 0 11 -22 32 -32 32 -5 0 -4 -9 2
-20z"/>
    <path id="p47" d="M9525 4149 c-10 -15 3 -25 16 -12 7 7 7 13 1 17 -6 3 -14 1 -17 -5z"/>
    <path id="p48" d="M10316 4102 c-4 -7 7 -32 27 -60 19 -26 45 -71 57 -99 20 -48 50 -72
50 -40 0 46 -119 223 -134 199z"/>
    <path id="p49" d="M10146 3934 c-9 -23 -7 -57 4 -74 9 -13 11 -13 20 0 15 24 13 90 -4
90 -8 0 -17 -7 -20 -16z"/>
    <path id="p50" d="M10080 3849 c0 -28 21 -101 32 -114 15 -17 27 15 21 54 -10 58 -53
107 -53 60z"/>
    <path id="p51" d="M9464 3928 c-11 -18 66 -62 82 -46 10 10 -8 36 -32 47 -31 14 -41 14
-50 -1z"/>
    <path id="p52" d="M7653 3374 c-25 -23 -28 -24 -39 -9 -11 15 -17 14 -61 -15 -50 -34
-133 -132 -133 -159 0 -9 25 11 58 45 48 51 102 86 102 67 0 -3 -16 -35 -36
-71 -54 -98 -85 -190 -78 -230 9 -49 28 -33 35 29 4 30 10 63 15 74 24 63 147
210 212 254 38 27 34 41 -13 41 -23 0 -43 -9 -62 -26z"/>
    <path id="p53" d="M7828 3108 c-15 -10 -67 -36 -115 -57 -116 -51 -123 -83 -10 -49 32
10 41 10 45 0 6 -18 40 -14 46 6 3 9 21 35 41 57 19 22 35 43 35 47 0 16 -17
15 -42 -4z"/>
    <path id="p54" d="M7710 2920 c0 -5 5 -10 10 -10 6 0 10 5 10 10 0 6 -4 10 -10 10 -5 0
-10 -4 -10 -10z"/>
    <path id="p55" d="M8360 2877 c-34 -31 -35 -31 -38 -9 -8 52 -55 32 -94 -38 -10 -19
-30 -53 -43 -75 -38 -61 -58 -131 -50 -171 6 -32 9 -35 37 -32 29 3 33 8 52
63 26 75 76 154 140 223 56 60 53 90 -4 39z m-98 -109 c-15 -15 -24 -6 -16 16
5 12 10 14 17 7 8 -8 8 -14 -1 -23z"/>
    <path id="p56" d="M7676 2884 c-11 -7 -16 -17 -13 -21 4 -4 15 1 24 10 22 21 14 30 -11
11z"/>
    <path id="p57" d="M10490 3533 c0 -12 70 -83 81 -83 18 0 8 34 -18 62 -25 26 -63 38
-63 21z"/>
    <path id="p58" d="M9780 3435 c13 -16 50 -21 50 -6 0 10 -24 21 -47 21 -13 0 -13 -3 -3
-15z"/>
    <path id="p59" d="M10040 3196 c0 -13 9 -34 20 -47 l19 -24 1 32 c0 17 -3 38 -6 47 -10
25 -34 19 -34 -8z"/>
    <path id="p60" d="M10156 3093 c-4 -27 -11 -75 -18 -108 -24 -123 -8 -170 25 -75 31 89
36 230 7 230 -5 0 -11 -21 -14 -47z"/>
    <path id="p61" d="M9374 3094 c5 -11 13 -32 19 -49 5 -16 18 -41 27 -55 9 -14 31 -52
49 -86 33 -62 125 -163 137 -151 4 4 -7 25 -24 47 -78 98 -93 120 -140 210
-27 52 -55 96 -62 98 -9 3 -11 -1 -6 -14z"/>
    <path id="p62" d="M8907 3043 c-19 -19 11 -116 61 -196 28 -47 41 -42 18 7 -9 19 -23
65 -33 103 -9 37 -17 74 -19 81 -4 13 -17 16 -27 5z"/>
    <path id="p63" d="M9998 2923 c-7 -15 -25 -44 -40 -63 -29 -38 -52 -150 -30 -150 15 0
35 38 28 55 -3 8 15 44 40 81 25 37 44 74 42 82 -5 27 -27 24 -40 -5z"/>
    <path id="p64" d="M8830 2932 c0 -18 12 -42 21 -42 14 0 10 26 -6 40 -9 8 -15 8 -15 2z"/>
    <path id="p65" d="M9378 2593 c6 -2 18 -2 25 0 6 3 1 5 -13 5 -14 0 -19 -2 -12 -5z"/>
    <path id="p66" d="M8810 3397 c0 -8 8 -25 18 -38 9 -13 26 -41 36 -61 20 -40 31 -47 39
-24 7 18 -48 112 -73 126 -16 8 -20 8 -20 -3z"/>
    <path id="p67" d="M8490 3331 c0 -39 129 -186 147 -168 4 5 -7 23 -72 117 -48 71 -75
89 -75 51z"/>
    <path id="p68" d="M8778 2662 c-98 -77 -185 -195 -204 -276 -11 -45 16 -28 45 29 14 26
47 72 73 100 26 29 48 57 48 61 0 5 21 29 46 55 51 52 45 74 -8 31z"/>
  </g>
</svg>