<svg
  xmlns="http://www.w3.org/2000/svg"
  viewBox="0 0 2000 1972"
  width="500"
  height="493"
  fill="currentColor"
>
  <g
    id="astronaut-admin"
    transform="translate(0.000000,1972.000000) scale(0.100000,-0.100000)"
    stroke="none"
  >
    <path id="antenna-right" d="M17145 19400 c-82 -13 -127 -28 -154 -49 -14 -11 -45 -30 -68 -41
-70 -35 -231 -234 -256 -315 -19 -61 -26 -239 -13 -337 12 -95 18 -110 64
-189 57 -97 151 -191 219 -220 24 -10 55 -30 68 -43 24 -25 25 -28 25 -179 0
-106 -4 -157 -12 -165 -8 -8 -59 -12 -162 -12 -137 0 -156 -2 -201 -24 -28
-13 -63 -39 -78 -60 -37 -48 -60 -127 -52 -176 9 -54 56 -124 105 -156 40 -27
48 -28 207 -33 148 -5 166 -8 179 -25 11 -16 14 -66 14 -242 0 -193 -2 -223
-16 -228 -9 -3 -81 -6 -161 -6 -135 0 -150 -2 -202 -26 -63 -28 -99 -75 -120
-158 -16 -66 4 -126 67 -195 59 -65 83 -72 266 -69 167 2 166 3 167 -116 3
-227 -3 -351 -16 -365 -10 -11 -48 -14 -154 -15 -204 -1 -191 21 -192 -319 0
-268 0 -268 25 -311 14 -24 31 -46 38 -49 14 -5 209 -153 243 -184 11 -10 58
-44 105 -75 47 -32 117 -82 155 -113 39 -30 97 -76 130 -100 33 -25 76 -59 95
-74 62 -51 163 -126 222 -164 31 -20 65 -47 75 -60 26 -32 111 -89 125 -85 10
4 12 173 9 739 -3 734 -3 734 -29 756 -39 31 -97 43 -214 43 -157 0 -148 -15
-148 245 0 181 2 216 16 229 12 13 41 16 137 17 185 1 226 8 270 48 43 40 87
129 87 177 0 38 -34 130 -58 158 -9 10 -39 29 -67 42 -46 22 -63 24 -202 24
-124 0 -154 3 -167 16 -14 13 -16 49 -16 233 0 191 2 220 16 232 12 10 63 15
178 19 158 5 162 6 211 36 59 36 103 113 104 180 1 64 -39 143 -95 189 -48 39
-48 39 -213 43 -132 3 -170 7 -183 20 -16 13 -18 34 -18 156 0 163 3 168 90
211 37 18 83 55 138 112 45 47 82 90 82 96 0 6 19 47 41 91 42 80 42 80 42
256 0 176 0 176 -41 247 -23 39 -42 74 -42 78 0 4 -30 40 -67 82 -75 83 -193
163 -278 189 -59 17 -249 26 -320 14z"/>
    <path id="helmet-main" d="M9760 19210 c-25 -5 -81 -9 -125 -9 -44 -1 -107 -8 -140 -15 -33 -8
-112 -19 -175 -26 -118 -12 -221 -31 -299 -56 -25 -8 -56 -14 -70 -14 -14 -1
-44 -8 -66 -16 -22 -8 -94 -30 -160 -49 -66 -19 -160 -48 -210 -64 -49 -17
-94 -31 -99 -31 -5 0 -28 -8 -50 -19 -23 -10 -72 -28 -111 -41 -38 -12 -93
-35 -120 -51 -46 -26 -53 -34 -76 -96 -47 -128 -60 -173 -69 -251 -5 -42 -22
-131 -39 -197 -16 -66 -35 -176 -41 -245 -6 -69 -17 -156 -25 -195 -8 -38 -15
-87 -15 -108 0 -21 -6 -66 -14 -100 -8 -34 -19 -174 -25 -312 -7 -137 -18
-358 -26 -490 -18 -300 -19 -417 -3 -433 17 -17 176 -15 258 2 36 8 117 19
180 25 63 7 153 16 200 22 47 5 175 12 285 14 110 3 272 12 360 20 400 36
1084 45 1573 20 155 -8 287 -17 293 -21 6 -3 124 -10 262 -15 139 -5 299 -13
357 -19 58 -6 157 -15 220 -21 63 -6 147 -17 187 -25 40 -8 101 -14 137 -14
101 0 100 -4 93 230 -3 107 -13 303 -22 435 -9 132 -20 321 -25 420 -5 99 -14
203 -19 230 -6 28 -15 82 -21 120 -5 39 -14 99 -20 135 -5 36 -12 103 -15 150
-6 83 -18 153 -55 315 -11 44 -22 104 -25 132 -3 29 -21 88 -39 130 -19 43
-37 86 -40 95 -3 9 -22 26 -43 38 -21 11 -45 24 -53 29 -15 9 -51 23 -145 55
-27 10 -99 35 -160 57 -111 40 -225 74 -302 90 -24 4 -55 15 -70 22 -16 8 -46
17 -68 21 -22 4 -62 13 -90 21 -108 29 -195 45 -300 55 -60 6 -128 15 -150 21
-22 6 -87 15 -145 20 -150 13 -587 19 -640 9z"/>
    <path id="helmet-left" d="M7144 18336 c-27 -19 -92 -57 -144 -86 -51 -29 -112 -67 -134 -86
-22 -19 -43 -34 -48 -34 -5 0 -33 -18 -62 -40 -29 -22 -58 -40 -64 -40 -6 0
-31 -17 -56 -37 -24 -21 -74 -60 -111 -88 -37 -27 -88 -67 -113 -88 -26 -20
-81 -63 -122 -95 -41 -31 -81 -64 -90 -72 -9 -9 -34 -29 -55 -45 -22 -16 -74
-61 -116 -100 -41 -38 -111 -101 -155 -139 -71 -62 -172 -158 -438 -415 -106
-102 -426 -449 -477 -516 -13 -16 -48 -59 -79 -95 -30 -36 -74 -90 -97 -120
-23 -30 -54 -68 -68 -84 -14 -16 -25 -32 -25 -35 0 -4 -16 -23 -35 -42 -19
-20 -39 -47 -45 -60 -5 -13 -39 -60 -75 -104 -35 -44 -72 -93 -81 -110 -9 -16
-29 -46 -44 -65 -15 -19 -31 -46 -35 -60 -4 -14 -17 -37 -29 -51 -11 -15 -39
-56 -61 -93 -22 -36 -58 -95 -80 -130 -83 -133 -101 -164 -158 -266 -73 -134
-297 -585 -332 -670 -15 -36 -33 -75 -42 -88 -8 -13 -26 -53 -39 -90 -14 -37
-32 -78 -40 -92 -7 -14 -20 -43 -28 -65 -7 -22 -29 -83 -49 -135 -52 -141 -54
-147 -88 -245 -70 -203 -123 -366 -150 -460 -16 -55 -37 -127 -48 -160 -22
-70 -67 -249 -87 -350 -27 -133 -45 -220 -60 -285 -22 -98 -44 -197 -58 -270
-7 -36 -18 -83 -24 -105 -5 -22 -13 -87 -17 -144 -3 -57 -13 -123 -21 -147
-16 -48 -25 -108 -49 -314 -8 -74 -20 -169 -26 -210 -45 -312 -52 -474 -46
-1070 4 -539 12 -694 42 -860 9 -47 22 -150 30 -230 17 -173 31 -261 50 -315
8 -22 19 -80 25 -130 13 -100 24 -152 51 -240 10 -33 23 -87 28 -120 5 -33 14
-73 20 -90 5 -16 21 -77 35 -135 13 -58 31 -125 40 -150 8 -25 28 -85 45 -135
16 -49 48 -139 71 -200 23 -60 57 -152 76 -204 19 -52 39 -100 43 -105 5 -6
21 -42 35 -79 23 -61 82 -192 123 -272 78 -152 111 -212 158 -290 30 -49 59
-100 65 -113 5 -12 33 -56 62 -98 29 -42 76 -109 104 -150 28 -40 71 -100 95
-131 25 -32 52 -69 61 -83 22 -34 272 -314 333 -372 74 -71 256 -228 285 -246
14 -9 41 -30 61 -47 20 -16 54 -42 75 -57 22 -15 97 -70 168 -122 71 -53 133
-96 139 -96 6 0 27 -11 46 -23 96 -63 150 -97 157 -97 4 0 30 -15 58 -34 28
-18 62 -37 76 -41 14 -4 32 -13 40 -20 16 -15 402 -211 460 -234 19 -8 55 -22
80 -31 50 -19 182 -73 307 -126 45 -19 87 -34 94 -34 14 0 139 -48 154 -60 6
-4 28 -10 51 -13 22 -4 74 -21 115 -38 41 -17 100 -35 133 -40 32 -5 71 -16
85 -23 14 -8 49 -17 76 -21 51 -7 153 -36 215 -61 19 -8 67 -18 105 -23 72 -9
198 -41 231 -59 11 -5 51 -13 89 -16 39 -4 111 -15 160 -26 183 -40 231 -49
295 -55 108 -11 393 -54 430 -65 19 -5 68 -10 108 -10 40 0 114 -6 165 -14 50
-8 151 -19 222 -25 72 -6 186 -18 255 -26 177 -22 1101 -21 1240 0 52 8 124
15 160 15 36 0 155 11 265 25 110 14 225 25 255 25 30 0 71 4 90 10 52 14 216
38 375 55 136 15 206 27 370 65 44 10 107 22 140 25 33 4 75 13 94 21 46 19
150 43 234 54 37 4 91 17 120 28 55 22 133 44 207 61 175 39 275 72 275 91 0
27 -115 58 -380 104 -136 23 -195 49 -207 91 -5 17 -18 50 -28 75 -24 61 -48
211 -54 345 -6 110 -30 297 -41 315 -9 15 -58 12 -143 -10 -42 -11 -117 -24
-167 -29 -101 -11 -184 -26 -265 -47 -72 -19 -174 -34 -230 -34 -25 0 -63 -7
-85 -15 -22 -8 -60 -14 -85 -15 -25 0 -79 -7 -120 -15 -41 -8 -181 -19 -310
-25 -129 -6 -248 -15 -265 -21 -55 -19 -825 -32 -1225 -20 -201 6 -387 16
-415 21 -27 6 -151 15 -275 20 -124 5 -261 16 -305 25 -44 8 -99 15 -122 15
-23 0 -62 6 -85 14 -24 8 -81 17 -128 21 -76 5 -185 25 -305 56 -22 5 -80 14
-130 19 -49 5 -142 23 -205 40 -63 17 -144 36 -180 41 -63 9 -113 21 -234 60
-33 10 -70 19 -83 19 -35 0 -305 85 -338 106 -11 7 -40 16 -65 19 -51 8 -139
38 -173 59 -12 8 -38 17 -57 21 -19 4 -68 22 -109 41 -41 20 -88 38 -105 41
-17 4 -58 21 -91 39 -33 17 -71 35 -85 39 -14 5 -47 23 -75 41 -27 19 -55 34
-62 34 -15 0 -194 91 -258 132 -49 31 -294 214 -407 304 -55 43 -208 207 -291
311 -148 185 -228 305 -336 505 -20 36 -52 93 -71 125 -33 56 -89 163 -170
323 -35 70 -119 274 -135 329 -4 13 -22 52 -40 86 -18 35 -35 79 -39 100 -4
20 -22 65 -40 98 -18 34 -36 83 -40 109 -4 26 -11 50 -16 53 -8 5 -47 124 -68
210 -6 22 -24 81 -40 130 -39 116 -69 234 -81 312 -5 34 -14 70 -19 80 -9 18
-43 180 -61 288 -5 33 -14 80 -20 105 -29 128 -51 290 -55 420 -3 80 -10 163
-15 185 -21 90 -33 542 -21 825 6 151 16 293 21 315 5 22 12 108 15 190 5 140
27 310 59 450 8 33 17 92 20 130 7 75 50 287 64 314 5 9 11 45 14 81 3 36 15
94 26 129 12 35 21 74 21 87 0 13 6 43 14 66 19 60 61 204 75 258 22 84 58
196 103 315 16 44 36 105 43 136 8 31 26 83 41 115 14 33 37 93 51 134 28 81
63 172 93 235 80 169 100 214 100 219 0 13 189 383 236 461 13 22 30 56 39 75
35 78 189 335 229 385 38 46 72 95 107 155 45 76 233 311 335 420 126 134 203
204 283 258 51 34 97 62 102 62 5 0 42 15 82 34 40 19 91 39 114 45 23 7 45
16 48 21 5 8 110 42 210 68 22 5 54 15 70 20 17 6 68 21 115 32 47 12 117 30
155 40 121 32 207 49 313 60 125 13 149 22 162 55 6 15 10 153 10 323 0 316
12 578 36 782 8 69 14 171 14 227 0 56 6 144 14 195 8 51 20 131 26 178 7 46
16 92 21 102 12 22 30 213 23 233 -10 25 -49 17 -100 -19z"/>
    <path id="helmet-right" d="M12763 18354 c-10 -26 5 -196 22 -241 8 -23 19 -80 24 -125 6 -46 15
-99 21 -118 5 -19 10 -82 10 -140 0 -58 6 -161 14 -230 26 -225 37 -419 42
-790 3 -211 10 -376 16 -392 6 -15 18 -29 27 -32 31 -9 80 -17 178 -32 124
-18 213 -36 283 -56 30 -9 89 -24 130 -33 124 -28 384 -111 415 -132 11 -7 28
-13 38 -13 11 0 49 -16 86 -35 36 -19 79 -39 95 -45 96 -36 269 -182 433 -365
109 -123 273 -328 273 -342 0 -3 17 -29 38 -57 20 -28 51 -71 67 -96 17 -25
34 -49 38 -55 43 -54 101 -144 137 -210 49 -91 128 -236 182 -334 93 -167 269
-551 294 -641 3 -14 17 -43 29 -65 13 -22 31 -65 40 -95 9 -30 22 -68 30 -85
37 -82 53 -126 60 -163 3 -22 20 -72 36 -112 16 -39 35 -95 43 -123 8 -29 28
-89 44 -134 17 -44 33 -101 37 -125 4 -23 11 -48 16 -54 10 -12 51 -159 67
-239 5 -27 18 -88 27 -135 9 -47 23 -110 31 -140 7 -30 23 -93 35 -140 11 -47
23 -121 26 -165 3 -44 9 -87 14 -96 18 -35 51 -263 60 -409 4 -85 13 -171 19
-190 20 -71 42 -536 36 -770 -7 -247 -21 -452 -37 -545 -6 -33 -15 -125 -19
-205 -7 -122 -39 -324 -56 -351 -2 -4 -9 -33 -15 -63 -18 -97 -19 -96 194 -96
100 0 211 -5 247 -10 36 -6 134 -15 219 -20 85 -5 178 -14 207 -20 67 -14 90
-3 104 48 32 122 54 823 40 1317 -11 397 -24 590 -40 641 -6 18 -20 113 -31
211 -27 254 -34 303 -53 374 -9 35 -23 118 -31 184 -19 156 -31 231 -44 264
-5 14 -15 58 -21 96 -15 96 -39 198 -62 270 -11 32 -22 82 -25 110 -2 27 -11
70 -18 95 -8 25 -24 88 -36 140 -12 52 -28 107 -36 122 -7 15 -25 75 -39 132
-13 58 -33 125 -44 148 -10 24 -28 81 -40 128 -12 46 -28 96 -36 110 -8 14
-30 70 -48 125 -51 147 -73 208 -101 271 -14 31 -25 61 -25 66 0 6 -11 36 -24
67 -13 31 -34 81 -46 111 -12 30 -38 88 -56 128 -19 40 -34 76 -34 81 0 5 -8
19 -18 32 -10 13 -29 52 -42 87 -12 34 -31 73 -40 85 -10 12 -29 49 -43 82
-15 33 -43 92 -63 130 -20 39 -51 98 -69 132 -17 34 -43 77 -57 95 -14 18 -29
44 -33 57 -4 13 -23 45 -41 71 -19 26 -34 50 -34 53 0 8 -77 134 -129 211 -25
37 -55 82 -65 100 -53 87 -104 166 -136 208 -19 25 -51 70 -70 98 -19 29 -50
69 -68 90 -18 21 -43 52 -55 69 -123 171 -369 466 -481 576 -17 17 -60 63 -96
104 -84 95 -554 547 -645 620 -38 31 -99 84 -135 118 -36 35 -68 63 -72 63 -4
0 -20 12 -35 26 -15 15 -50 44 -78 65 -27 20 -72 56 -100 78 -119 96 -318 247
-345 262 -16 9 -45 30 -65 47 -20 18 -52 39 -73 48 -20 8 -48 25 -62 38 -14
13 -65 47 -115 75 -49 29 -115 68 -145 86 -61 38 -88 43 -97 19z"/>
    <path id="visor-ring" d="M2109 18164 c-103 -51 -190 -114 -236 -172 -40 -50 -113 -172 -118
-197 -2 -11 -10 -56 -19 -100 -9 -44 -16 -100 -16 -123 0 -69 29 -213 52 -257
58 -113 74 -139 112 -178 23 -23 60 -58 84 -78 40 -35 42 -38 42 -95 1 -32 2
-630 3 -1329 2 -1270 2 -1270 24 -1273 22 -3 143 76 227 149 22 20 113 90 201
157 88 66 176 134 195 150 35 31 35 31 40 1120 l5 1090 74 68 c139 128 182
208 202 374 13 113 5 221 -22 305 -24 70 -80 168 -121 209 -15 15 -28 32 -28
37 0 5 -17 20 -38 33 -22 13 -46 32 -56 41 -9 10 -61 39 -114 66 -97 49 -97
49 -248 49 -151 0 -151 0 -245 -46z"/>
    <path id="neck-ring" d="M7775 15734 c-66 -8 -181 -20 -256 -27 -74 -7 -140 -16 -145 -20 -16
-9 -222 -54 -289 -62 -33 -5 -89 -21 -125 -37 -36 -16 -87 -34 -115 -39 -27
-5 -82 -25 -122 -44 -39 -19 -78 -35 -85 -35 -14 0 -313 -149 -357 -178 -14
-9 -33 -21 -42 -27 -9 -5 -49 -32 -90 -59 -68 -46 -100 -73 -282 -246 -89 -84
-202 -225 -257 -320 -23 -41 -55 -93 -70 -115 -26 -38 -96 -163 -128 -230 -92
-191 -140 -303 -157 -367 -7 -25 -20 -57 -29 -69 -9 -13 -16 -32 -16 -42 0
-10 -17 -59 -39 -110 -21 -51 -41 -107 -45 -126 -3 -19 -22 -74 -41 -123 -19
-48 -35 -97 -35 -108 0 -11 -14 -59 -31 -108 -17 -48 -38 -118 -45 -157 -8
-38 -28 -106 -44 -150 -16 -44 -36 -118 -44 -165 -17 -89 -29 -142 -51 -225
-8 -27 -19 -81 -25 -120 -6 -38 -18 -92 -26 -119 -7 -27 -14 -67 -14 -89 0
-21 -7 -66 -15 -100 -30 -129 -65 -336 -65 -389 0 -31 -6 -89 -14 -129 -8 -41
-19 -125 -26 -187 -7 -63 -16 -128 -22 -145 -5 -18 -14 -111 -18 -207 -5 -96
-14 -240 -20 -320 -15 -184 -6 -1021 13 -1243 11 -128 17 -162 33 -184 11 -15
25 -28 31 -30 18 -6 55 68 69 137 7 36 23 99 35 140 12 41 28 108 35 148 7 40
17 80 22 90 9 16 22 69 57 222 8 36 23 92 34 125 10 33 27 96 36 140 9 44 25
100 36 125 10 25 29 90 43 146 13 56 31 114 39 130 8 16 24 65 37 109 12 44
30 105 40 135 19 57 85 269 102 330 6 19 14 40 18 45 4 6 23 55 43 110 45 129
82 224 117 305 15 36 31 79 35 95 7 31 56 145 106 249 16 32 29 63 29 70 0 6
37 86 83 177 45 90 87 174 92 186 31 67 83 163 107 200 16 23 35 60 43 82 8
23 25 56 39 74 13 17 42 66 64 107 50 95 98 173 139 229 18 24 33 50 33 56 0
7 16 33 36 56 20 24 40 55 46 68 5 13 22 41 39 60 31 36 61 79 146 206 25 39
58 84 72 101 77 93 97 118 147 186 31 40 66 84 79 98 13 14 60 66 103 115 44
50 136 146 206 215 162 161 142 143 284 266 67 59 122 111 122 116 0 4 12 13
26 18 14 6 49 30 77 55 120 103 215 178 257 203 25 14 63 39 85 55 22 15 63
43 90 61 28 19 57 41 64 50 7 9 19 16 26 16 7 0 36 18 64 40 28 22 72 52 99
67 27 16 80 45 118 67 38 21 95 54 127 73 32 19 93 53 135 76 42 22 100 53
127 68 28 15 80 42 118 60 37 17 67 37 67 44 0 27 -34 39 -114 42 -44 2 -119
8 -166 13 -125 15 -760 10 -905 -6z"/>
    <path id="shoulder-left" d="M17260 13943 c0 -21 7 -51 15 -66 8 -15 19 -55 25 -89 6 -34 23 -91
36 -127 14 -36 38 -114 55 -174 16 -59 36 -122 43 -140 8 -17 28 -88 45 -157
16 -69 36 -145 45 -170 8 -25 24 -94 36 -155 12 -60 28 -126 35 -145 8 -19 18
-64 24 -100 24 -157 45 -266 54 -284 5 -11 18 -81 28 -155 10 -75 23 -163 29
-196 23 -135 62 -462 81 -675 4 -52 14 -158 21 -235 9 -97 13 -329 13 -755 -1
-611 -10 -822 -45 -1070 -21 -149 -30 -220 -40 -315 -6 -55 -17 -143 -25 -195
-23 -148 -39 -324 -32 -344 6 -15 14 -17 43 -13 43 7 60 21 129 107 53 66 84
102 132 153 14 16 43 53 63 83 20 29 56 75 81 101 24 26 57 66 73 87 16 22 49
62 75 85 23 24 42 49 42 54 0 5 15 26 34 46 46 49 113 127 161 190 22 28 62
75 88 104 27 29 94 110 150 181 56 71 130 162 164 203 79 94 89 128 74 243 -7
47 -16 114 -21 150 -5 36 -16 90 -25 120 -14 52 -21 84 -60 305 -9 50 -22 108
-30 130 -8 22 -21 94 -30 160 -9 66 -27 164 -41 218 -13 54 -24 117 -24 140 0
23 -5 58 -10 77 -48 180 -70 282 -70 327 0 21 -7 66 -16 98 -9 33 -22 89 -29
125 -7 36 -18 92 -25 125 -6 33 -20 94 -30 135 -10 41 -22 98 -26 125 -4 28
-11 61 -16 75 -5 14 -14 63 -18 109 -5 46 -16 105 -24 130 -13 43 -38 127 -51
179 -9 33 -120 141 -200 193 -39 26 -76 54 -84 63 -7 9 -19 16 -25 16 -7 0
-23 12 -37 26 -13 14 -62 51 -109 82 -73 48 -124 86 -201 152 -10 8 -39 32
-66 52 -26 21 -86 68 -131 105 -100 81 -108 87 -192 143 -36 24 -105 75 -155
115 -87 69 -139 105 -150 105 -3 0 -5 -17 -5 -37z"/>
    <path id="shoulder-right" d="M2683 13947 c-17 -12 -65 -50 -106 -84 -41 -34 -88 -68 -103 -77 -38
-21 -116 -79 -268 -201 -69 -55 -146 -116 -172 -135 -26 -19 -61 -47 -78 -61
-17 -14 -67 -50 -111 -80 -44 -29 -87 -62 -95 -72 -8 -10 -32 -28 -52 -40 -20
-12 -73 -50 -118 -84 -45 -35 -89 -67 -99 -72 -40 -22 -92 -101 -111 -168 -23
-84 -55 -235 -69 -328 -17 -111 -38 -219 -55 -276 -9 -29 -16 -69 -16 -88 0
-20 -5 -52 -11 -71 -6 -19 -17 -62 -24 -95 -7 -33 -20 -89 -28 -125 -8 -36
-21 -96 -27 -135 -19 -115 -38 -207 -54 -265 -9 -30 -16 -71 -16 -92 0 -21 -9
-70 -20 -109 -10 -39 -22 -98 -26 -132 -10 -95 -43 -286 -53 -305 -4 -9 -14
-48 -20 -87 -20 -121 -42 -225 -65 -320 -25 -103 -47 -239 -48 -301 -1 -71 19
-115 89 -194 27 -30 61 -74 75 -97 33 -51 138 -180 203 -248 25 -27 65 -77 91
-112 25 -33 66 -83 91 -112 25 -28 69 -79 96 -113 28 -34 65 -78 83 -98 64
-73 88 -102 155 -184 273 -336 453 -552 498 -597 15 -14 38 -45 53 -68 34 -56
66 -59 66 -8 0 20 -6 48 -14 63 -7 15 -16 50 -20 77 -4 28 -12 82 -18 120 -5
39 -16 115 -24 170 -8 55 -19 149 -24 210 -6 60 -17 152 -26 205 -8 52 -19
154 -25 225 -5 72 -13 171 -19 220 -16 149 -23 897 -11 1165 14 317 30 561 42
630 5 30 18 141 29 245 22 220 37 336 50 385 5 19 14 82 20 140 7 58 18 123
26 145 13 40 32 135 58 295 8 47 19 99 24 115 15 41 62 258 62 282 0 10 5 24
10 29 6 6 26 73 44 150 19 76 41 159 49 184 41 120 81 246 111 355 19 66 42
141 51 167 27 76 8 96 -52 55z"/>
    <path id="antenna-left" d="M16095 8840 c-168 -11 -223 -21 -249 -41 -27 -21 -52 -112 -66 -241
-6 -46 -21 -137 -36 -203 -14 -66 -31 -154 -38 -195 -15 -91 -28 -118 -64
-126 -15 -4 -44 -15 -64 -25 -21 -11 -45 -19 -54 -19 -17 0 -185 -68 -239 -97
-16 -9 -68 -35 -114 -59 -45 -24 -91 -50 -101 -59 -10 -9 -36 -19 -58 -22 -36
-5 -48 0 -119 47 -43 29 -91 65 -108 80 -16 15 -40 31 -52 35 -13 3 -23 10
-23 15 0 4 -39 32 -86 61 -47 30 -103 68 -123 84 -20 17 -66 46 -103 65 -79
41 -70 44 -200 -65 -114 -96 -278 -262 -475 -483 -97 -109 -102 -127 -48 -193
20 -23 41 -51 47 -63 6 -11 36 -53 67 -94 31 -40 66 -88 78 -105 12 -18 35
-51 52 -73 16 -23 37 -57 45 -75 8 -19 35 -61 60 -94 25 -34 45 -72 45 -87 1
-14 -15 -54 -34 -88 -19 -34 -35 -68 -35 -76 0 -8 -8 -26 -17 -41 -16 -24 -41
-88 -64 -159 -5 -18 -16 -37 -24 -44 -8 -7 -15 -23 -15 -37 0 -32 -46 -139
-77 -179 -28 -37 -60 -50 -153 -58 -36 -4 -101 -15 -145 -26 -104 -25 -225
-47 -297 -55 -80 -9 -160 -51 -170 -90 -40 -151 -54 -623 -23 -799 27 -155 37
-166 165 -180 30 -4 87 -15 125 -26 133 -36 200 -49 281 -55 75 -5 204 -41
226 -63 11 -11 48 -106 60 -157 6 -22 19 -62 30 -90 12 -27 30 -77 42 -110 27
-75 103 -232 116 -240 35 -22 -5 -101 -163 -320 -12 -17 -38 -51 -58 -75 -19
-25 -43 -56 -52 -70 -9 -14 -37 -52 -62 -85 -111 -147 -111 -156 -17 -257 84
-91 155 -169 207 -227 22 -25 62 -66 88 -91 27 -25 101 -98 165 -162 134 -137
154 -146 224 -103 23 14 70 46 103 71 33 24 73 52 89 61 15 10 58 40 95 67 36
26 76 53 89 59 12 5 22 14 22 18 0 5 14 16 32 25 18 9 38 23 46 30 7 8 37 30
66 49 61 40 55 41 171 -25 88 -50 170 -90 260 -124 39 -15 89 -36 112 -47 23
-10 70 -26 105 -36 96 -25 115 -48 123 -146 4 -45 11 -92 16 -104 16 -43 50
-228 60 -328 10 -102 36 -196 60 -220 13 -13 63 -20 304 -47 133 -14 462 -5
590 17 113 20 137 36 155 108 6 23 18 65 26 93 8 28 14 68 14 90 0 48 26 219
35 234 4 7 11 39 16 73 22 151 26 169 45 187 10 11 59 31 107 45 49 14 121 40
160 59 40 18 83 37 97 41 14 4 94 41 178 82 83 41 158 72 165 69 43 -22 301
-199 337 -232 32 -30 109 -85 229 -165 81 -53 73 -58 360 228 260 260 401 420
401 459 0 12 -11 36 -24 55 -14 19 -46 68 -72 109 -26 41 -56 86 -67 100 -10
14 -43 59 -73 100 -31 41 -62 83 -69 92 -8 10 -26 35 -40 55 -14 21 -37 53
-50 72 -30 41 -32 90 -6 140 27 50 71 148 71 157 0 4 6 15 14 23 20 23 86 194
102 269 26 113 39 131 120 157 38 13 110 26 160 30 49 4 130 18 179 32 50 14
135 33 190 44 182 34 176 23 189 317 10 241 -2 622 -23 675 -14 36 -95 74
-176 82 -90 9 -231 35 -310 57 -38 11 -105 23 -147 25 -49 4 -88 12 -107 24
-31 19 -71 95 -71 136 0 35 -100 267 -187 436 -33 65 -33 106 0 156 46 70 77
114 123 176 24 33 53 76 63 96 11 19 26 41 34 48 16 13 143 196 166 238 11 22
11 30 0 54 -36 74 -309 362 -622 657 -19 17 -44 32 -55 32 -22 0 -123 -60
-180 -108 -18 -15 -43 -31 -55 -37 -12 -5 -56 -35 -97 -66 -158 -118 -309
-219 -329 -219 -8 0 -44 18 -80 39 -36 21 -77 42 -90 46 -13 4 -49 22 -80 41
-31 19 -62 34 -69 34 -7 0 -45 16 -85 35 -40 18 -95 39 -121 45 -26 6 -61 17
-77 25 -15 8 -37 15 -48 15 -32 0 -46 23 -64 111 -10 46 -27 125 -38 174 -11
50 -24 128 -29 175 -21 183 -60 312 -97 324 -83 25 -531 41 -738 26z m525
-1680 c41 -7 92 -19 113 -26 20 -8 49 -14 63 -14 14 0 67 -18 119 -40 52 -22
99 -40 105 -40 22 0 226 -124 303 -184 43 -34 95 -74 115 -89 42 -32 161 -155
201 -207 14 -19 34 -41 43 -48 10 -7 18 -19 19 -25 0 -7 20 -39 45 -72 62 -85
138 -236 170 -341 15 -49 31 -94 35 -100 15 -19 46 -194 59 -330 13 -128 10
-217 -10 -394 -24 -210 -106 -432 -232 -624 -21 -32 -38 -63 -38 -68 0 -26
-136 -185 -230 -267 -173 -154 -222 -188 -424 -298 -108 -59 -338 -133 -411
-133 -22 0 -75 -7 -118 -15 -102 -19 -331 -19 -412 0 -33 8 -80 15 -105 15
-25 0 -65 6 -90 14 -25 9 -85 27 -135 42 -49 14 -95 30 -102 36 -7 5 -43 25
-80 44 -73 36 -163 92 -264 163 -75 53 -266 242 -329 326 -72 95 -160 232
-160 248 0 8 -8 25 -18 38 -27 37 -62 114 -62 138 0 12 -7 36 -16 52 -8 17
-21 58 -29 92 -7 34 -18 82 -24 107 -41 174 -44 206 -38 386 3 99 10 195 15
214 14 45 31 121 43 189 5 29 18 72 28 95 10 22 21 57 25 77 3 19 19 56 35 81
16 25 38 67 50 93 11 25 32 60 46 77 14 16 25 36 25 44 0 8 6 17 14 20 8 3 30
32 50 64 51 82 286 316 361 360 33 19 80 49 104 67 24 18 48 33 52 33 5 0 37
18 71 40 35 22 71 40 81 40 10 0 60 18 112 40 52 22 107 40 123 40 16 0 48 6
73 14 24 8 78 20 119 26 41 6 77 13 80 16 9 10 352 -3 430 -16z"/>
    <path id="detail-01" d="M3945 5097 c-154 -84 -279 -186 -375 -307 -34 -42 -110 -149 -110
-155 0 -2 -20 -46 -45 -97 -48 -101 -75 -222 -56 -255 18 -33 192 -193 210
-193 6 0 28 -16 50 -35 21 -19 43 -35 48 -35 6 0 27 -13 48 -30 43 -35 354
-215 425 -246 19 -9 60 -31 90 -49 30 -18 66 -36 80 -40 14 -4 44 -21 67 -37
24 -16 62 -35 85 -42 24 -7 61 -24 83 -38 22 -14 51 -29 65 -33 27 -8 96 -39
258 -116 56 -27 108 -49 115 -49 7 0 26 -8 43 -19 17 -10 41 -22 55 -26 24 -7
100 -39 130 -55 8 -4 47 -20 85 -34 38 -15 83 -33 99 -41 17 -8 84 -35 150
-60 66 -25 136 -52 155 -61 19 -9 73 -28 120 -44 48 -15 97 -33 110 -40 32
-17 197 -75 315 -111 55 -17 109 -35 120 -41 20 -12 185 -68 330 -114 44 -13
107 -33 140 -44 33 -10 76 -21 95 -25 19 -4 44 -12 55 -19 11 -6 65 -22 120
-35 55 -13 123 -31 150 -42 28 -10 104 -32 170 -50 162 -43 392 -105 435 -117
19 -6 87 -23 150 -37 63 -14 131 -32 151 -40 20 -8 70 -17 111 -21 63 -5 77
-4 91 11 10 9 15 25 13 34 -10 29 -17 754 -8 821 4 36 5 96 2 134 -7 79 -18
92 -89 101 -25 3 -75 13 -111 22 -73 17 -128 27 -245 42 -75 10 -211 34 -370
65 -38 7 -83 19 -100 26 -16 6 -61 16 -98 21 -37 5 -123 24 -190 44 -68 19
-136 35 -151 35 -14 0 -41 6 -59 13 -18 8 -50 17 -71 21 -21 4 -50 15 -63 23
-13 9 -41 19 -61 24 -45 9 -125 35 -170 55 -18 7 -51 17 -75 20 -23 3 -86 23
-140 45 -53 21 -105 39 -115 39 -9 0 -29 6 -43 14 -15 7 -64 26 -110 41 -46
16 -105 39 -130 52 -26 12 -50 23 -54 23 -3 0 -34 14 -68 31 -34 17 -91 42
-127 56 -36 13 -78 33 -95 42 -16 10 -57 29 -90 42 -33 13 -65 27 -72 32 -6 4
-53 30 -105 56 -227 118 -330 175 -424 237 -29 19 -64 38 -78 44 -15 5 -57 34
-94 63 -58 46 -201 137 -215 137 -9 0 -179 130 -236 180 -202 177 -259 220
-293 220 -12 0 -50 -15 -83 -33z"/>
    <path id="detail-02" d="M2775 3670 c-50 -34 -110 -76 -135 -95 -25 -18 -49 -34 -53 -34 -5
-1 -25 -14 -45 -30 -37 -30 -75 -53 -147 -92 -22 -12 -53 -33 -70 -46 -41 -33
-165 -113 -175 -113 -5 0 -30 -18 -55 -40 -25 -22 -52 -40 -59 -40 -7 0 -33
-15 -57 -33 -24 -19 -57 -42 -74 -51 -39 -22 -98 -60 -182 -118 -66 -46 -111
-77 -223 -151 -30 -21 -66 -46 -80 -56 -14 -10 -70 -47 -125 -83 -55 -36 -147
-96 -204 -134 -56 -38 -127 -85 -157 -104 -29 -19 -97 -65 -151 -101 -96 -65
-194 -130 -238 -158 -12 -8 -28 -23 -34 -33 -9 -14 -12 -242 -11 -881 0 -796
1 -863 17 -874 13 -10 176 -13 735 -13 717 0 717 0 729 21 8 16 10 114 7 346
-4 251 -2 327 8 341 11 16 41 17 349 17 322 0 337 -1 351 -19 11 -16 14 -81
14 -352 0 -268 3 -334 14 -343 15 -13 14545 -16 14558 -3 4 4 9 161 10 349 2
217 7 346 13 352 15 15 657 16 684 1 21 -11 21 -17 21 -350 0 -340 0 -340 23
-354 18 -12 65 -14 267 -12 135 2 452 4 706 5 351 1 464 4 477 14 16 11 18 50
22 412 3 220 2 609 -1 865 -7 465 -7 465 -53 510 -26 25 -76 62 -111 81 -36
20 -94 57 -130 83 -36 25 -116 80 -177 122 -146 99 -156 99 -275 -8 -171 -153
-345 -278 -388 -278 -16 0 -32 4 -35 10 -3 5 -50 39 -103 74 -53 35 -123 83
-154 107 -66 51 -191 139 -222 156 -11 7 -30 19 -41 28 -48 38 -141 95 -155
95 -9 0 -25 -6 -36 -14 -11 -8 -38 -19 -61 -25 -62 -17 -100 -57 -108 -117 -4
-27 -13 -69 -20 -94 -15 -46 -49 -227 -60 -315 -3 -27 -12 -70 -20 -95 -8 -25
-21 -88 -30 -140 -9 -52 -22 -104 -30 -116 -10 -16 -34 -24 -107 -37 -295 -52
-431 -62 -813 -62 -359 0 -521 11 -735 51 -74 13 -147 24 -161 24 -40 0 -89
60 -89 108 0 33 -20 116 -65 266 -8 26 -15 67 -15 89 0 42 -77 374 -91 392 -8
10 -35 24 -122 64 -48 21 -48 21 -125 -25 -97 -58 -174 -110 -187 -127 -5 -8
-21 -20 -35 -27 -14 -7 -59 -39 -101 -71 -41 -32 -111 -79 -154 -104 -44 -26
-95 -58 -114 -71 -37 -25 -85 -32 -96 -14 -4 6 -25 20 -48 31 -37 19 -46 20
-91 10 -28 -6 -73 -22 -101 -36 -64 -31 -260 -100 -350 -124 -38 -10 -92 -28
-120 -40 -74 -30 -227 -78 -337 -106 -54 -14 -115 -33 -136 -44 -21 -11 -60
-24 -88 -30 -27 -5 -83 -20 -124 -32 -41 -11 -100 -27 -130 -34 -30 -7 -77
-19 -105 -28 -87 -28 -159 -46 -205 -53 -25 -4 -52 -11 -61 -15 -23 -12 -194
-55 -249 -63 -25 -4 -74 -16 -110 -26 -36 -11 -117 -29 -180 -40 -63 -12 -142
-30 -175 -40 -89 -28 -269 -58 -550 -91 -49 -6 -130 -17 -180 -25 -352 -57
-347 -56 -845 -61 -547 -5 -700 4 -987 58 -56 10 -126 19 -155 20 -29 0 -75 4
-103 9 -27 4 -117 17 -200 29 -188 26 -290 46 -335 65 -19 8 -67 19 -105 25
-73 12 -147 28 -255 56 -36 10 -87 21 -115 26 -58 9 -115 23 -200 49 -33 11
-76 22 -95 25 -19 4 -57 13 -85 20 -27 8 -88 24 -135 36 -126 32 -361 98 -395
111 -16 6 -85 25 -153 44 -68 18 -129 37 -135 42 -7 6 -61 24 -121 41 -60 17
-114 35 -120 40 -6 5 -60 23 -121 39 -99 27 -149 45 -320 114 -27 11 -88 30
-135 44 -47 13 -98 30 -115 37 -16 8 -43 19 -60 25 -16 6 -63 24 -104 41 -40
17 -81 31 -90 31 -9 0 -34 9 -56 20 -21 11 -54 25 -74 31 -32 11 -161 67 -201
88 -9 5 -31 12 -50 16 -19 4 -72 25 -117 46 -46 22 -88 39 -95 39 -7 0 -26 7
-43 16 -16 9 -59 27 -94 40 -35 13 -79 33 -96 44 -18 11 -40 20 -50 20 -10 0
-49 18 -87 40 -39 22 -75 40 -81 41 -7 0 -37 13 -67 29 -30 16 -66 34 -80 40
-46 22 -145 70 -160 79 -8 5 -64 33 -123 62 -60 29 -111 57 -113 61 -3 4 -14
8 -24 8 -10 0 -40 16 -66 36 -26 20 -62 41 -79 45 -18 5 -48 20 -66 34 -19 14
-52 33 -74 44 -22 10 -57 33 -79 50 -21 17 -44 31 -50 31 -6 0 -35 18 -64 40
-29 22 -55 40 -59 40 -5 0 -112 70 -173 115 -16 11 -68 54 -117 96 -92 79
-122 99 -145 99 -8 0 -54 -27 -103 -60z"/>
    <path id="detail-03" d="M12980 3624 c-35 -8 -92 -23 -125 -33 -33 -11 -96 -27 -140 -36 -44
-9 -109 -25 -145 -35 -64 -19 -107 -27 -245 -50 -38 -6 -102 -17 -140 -26 -39
-8 -121 -19 -183 -24 -61 -5 -121 -14 -132 -20 -12 -6 -64 -20 -117 -30 -53
-10 -100 -24 -104 -32 -5 -7 -9 -247 -9 -534 0 -413 3 -524 13 -538 12 -16 20
-17 93 -6 43 6 106 20 139 30 33 10 105 28 160 40 55 12 118 28 140 35 22 8
93 26 159 41 65 14 137 34 160 45 22 10 51 19 64 19 12 0 78 18 145 39 67 22
160 50 207 62 47 12 101 31 120 41 19 10 45 18 57 18 12 0 40 7 60 15 21 8 56
19 78 24 71 17 185 51 203 61 9 5 36 14 59 20 22 6 52 19 65 29 23 19 23 19 3
44 -29 37 -172 202 -235 273 -59 67 -197 238 -257 319 -43 58 -51 119 -20 153
19 21 20 64 2 68 -5 1 -39 -4 -75 -12z"/>
    <path id="gear" d="M9076 3265 c-3 -9 -6 -266 -6 -571 0 -647 -18 -576 154 -594 60 -6
113 -13 117 -16 12 -7 255 -35 394 -44 159 -12 554 -11 650 0 169 21 309 40
343 49 21 5 68 12 107 16 38 3 75 11 82 17 20 16 19 1131 -1 1147 -11 9 -50 9
-163 1 -149 -12 -1399 -7 -1584 6 -74 5 -87 3 -93 -11z"/>
  </g>
</svg>
