<svg xmlns="http://www.w3.org/2000/svg" viewBox="0 0 55 54" role="img" aria-label="Card de carreira 6">
  <title>Card de carreira 6</title>
  <g fill="#00d4e8" fill-rule="nonzero" shape-rendering="geometricPrecision">
    <path opacity="0.0039" d="M6 0h1v1H6zM18 1h1v1H18zM21 5h1v1H21zM34 5h1v1H34zM27 6h1v1H27zM38 6h1v1H38zM5 7h1v1H5zM30 7h1v1H30zM14 9h1v1H14zM37 9h1v1H37zM43 9h1v1H43zM9 10h1v1H9zM12 10h1v1H12zM20 10h1v1H20zM44 10h1v1H44zM16 13h1v1H16zM18 13h1v1H18zM31 13h1v1H31zM24 14h1v1H24zM32 14h1v1H32zM11 17h1v1H11zM28 17h1v1H28zM32 19h1v1H32zM40 20h1v1H40zM31 22h1v1H31zM1 23h1v1H1zM42 24h1v1H42zM17 25h1v1H17zM30 26h1v1H30zM0 27h1v1H0zM41 28h1v1H41zM24 29h1v1H24zM21 32h1v1H21zM37 33h1v1H37zM40 34h1v1H40zM17 35h1v1H17zM20 36h1v1H20zM10 37h1v1H10zM36 37h1v1H36zM1 40h1v1H1zM21 40h1v1H21zM24 40h1v1H24zM7 41h1v1H7zM10 45h2v1H10zM34 45h1v1H34zM32 47h1v1H32zM22 48h1v1H22zM26 49h3v1H26zM33 49h2v1H33z"/>
    <path opacity="0.0392" d="M12 0h1v1H12zM17 1h1v1H17zM8 2h1v1H8zM10 2h1v1H10zM3 3h1v1H3zM18 4h1v1H18zM5 5h1v1H5zM22 5h1v1H22zM33 5h1v1H33zM2 6h1v1H2zM5 6h1v1H5zM15 9h2v1H15zM38 9h1v1H38zM1 10h1v1H1zM4 10h1v1H4zM23 11h1v1H23zM44 11h1v1H44zM26 12h1v1H26zM44 12h1v1H44zM19 13h1v1H19zM8 15h1v1H8zM32 15h1v1H32zM44 15h1v1H44zM8 16h1v1H8zM44 16h1v1H44zM41 17h1v1H41zM28 18h1v1H28zM32 20h1v1H32zM30 21h1v1H30zM35 21h1v1H35zM40 21h1v1H40zM1 22h1v1H1zM16 23h1v1H16zM34 23h1v1H34zM25 24h1v1H25zM13 25h1v1H13zM24 25h1v1H24zM27 27h1v1H27zM23 29h1v1H23zM38 30h1v1H38zM22 33h1v1H22zM40 33h1v1H40zM24 35h1v1H24zM11 37h1v1H11zM39 37h1v1H39zM36 38h1v1H36zM22 40h1v1H22zM10 42h1v1H10zM3 43h1v1H3zM6 44h1v1H6zM16 44h1v1H16zM12 45h1v1H12zM22 45h1v1H22zM36 47h1v1H36zM35 48h1v1H35z"/>
    <path opacity="0.0784" d="M16 1h1v1H16zM21 2h1v1H21zM15 3h1v1H15zM28 4h1v1H28zM23 5h2v1H23zM37 6h1v1H37zM31 7h1v1H31zM35 8h1v1H35zM39 9h1v1H39zM11 10h1v1H11zM1 11h1v1H1zM12 13h1v1H12zM20 13h1v1H20zM30 13h1v1H30zM42 13h1v1H42zM44 13h1v1H44zM44 14h1v1H44zM28 15h1v1H28zM0 16h1v1H0zM15 19h1v1H15zM9 20h1v1H9zM15 20h1v1H15zM43 20h1v1H43zM1 21h1v1H1zM40 22h1v1H40zM30 23h1v1H30zM40 23h1v1H40zM32 25h1v1H32zM0 26h1v1H0zM16 30h1v1H16zM40 32h1v1H40zM10 34h1v1H10zM23 34h1v1H23zM37 34h1v1H37zM15 38h1v1H15zM18 39h1v1H18zM24 39h1v1H24zM36 39h1v1H36zM23 40h1v1H23zM6 41h1v1H6zM37 44h1v1H37zM16 46h1v1H16zM25 46h1v1H25zM19 47h1v1H19zM23 48h1v1H23z"/>
    <path opacity="0.1176" d="M15 1h1v1H15zM6 3h1v1H6zM32 5h1v1H32zM40 7h1v1H40zM10 10h1v1H10zM19 10h1v1H19zM1 12h1v1H1zM3 14h1v1H3zM15 18h1v1H15zM32 21h1v1H32zM42 23h1v1H42zM33 24h1v1H33zM18 26h1v1H18zM23 26h1v1H23zM39 27h1v1H39zM41 27h1v1H41zM25 28h1v1H25zM21 31h1v1H21zM11 33h1v1H11zM21 33h1v1H21zM24 36h1v1H24zM36 40h1v1H36zM0 42h1v1H0zM7 44h1v1H7zM35 44h1v1H35zM21 45h1v1H21zM28 47h1v1H28z"/>
    <path opacity="0.1569" d="M5 1h1v1H5zM4 2h1v1H4zM24 3h1v1H24zM19 4h1v1H19zM36 6h1v1H36zM2 7h1v1H2zM4 9h1v1H4zM14 10h1v1H14zM41 10h1v1H41zM21 13h1v1H21zM13 14h1v1H13zM42 14h1v1H42zM35 17h1v1H35zM11 18h1v1H11zM41 18h1v1H41zM43 19h1v1H43zM12 20h1v1H12zM15 21h1v1H15zM27 21h1v1H27zM26 23h1v1H26zM16 24h1v1H16zM14 26h1v1H14zM20 27h1v1H20zM16 28h1v1H16zM14 35h1v1H14zM18 35h1v1H18zM37 35h1v1H37zM39 36h1v1H39zM24 37h1v1H24zM24 38h1v1H24zM38 40h1v1H38zM4 41h2v1H4zM13 43h1v1H13zM20 45h1v1H20zM34 46h1v1H34zM24 48h1v1H24z"/>
    <path opacity="0.1961" d="M20 2h1v1H20zM36 8h1v1H36zM42 12h1v1H42zM11 13h1v1H11zM13 15h1v1H13zM33 16h1v1H33zM2 17h1v1H2zM15 17h1v1H15zM29 23h1v1H29zM0 25h1v1H0zM15 27h1v1H15zM21 27h1v1H21zM22 29h1v1H22zM40 31h1v1H40zM12 37h1v1H12zM3 41h1v1H3zM9 42h1v1H9zM4 43h1v1H4zM8 44h1v1H8zM25 48h1v1H25z"/>
    <path opacity="0.2353" d="M7 0h1v1H7zM11 0h1v1H11zM11 2h1v1H11zM19 2h1v1H19zM3 4h1v1H3zM20 4h1v1H20zM28 6h1v1H28zM35 6h1v1H35zM32 7h1v1H32zM4 8h1v1H4zM18 10h1v1H18zM43 10h1v1H43zM9 11h1v1H9zM22 11h1v1H22zM25 12h1v1H25zM43 18h1v1H43zM28 19h1v1H28zM41 19h1v1H41zM10 21h1v1H10zM0 24h1v1H0zM13 24h1v1H13zM40 24h1v1H40zM29 26h1v1H29zM38 31h1v1H38zM18 32h1v1H18zM10 35h1v1H10zM39 35h1v1H39zM37 36h1v1H37zM21 37h1v1H21zM19 39h1v1H19zM19 45h1v1H19zM24 46h1v1H24zM36 46h1v1H36zM20 47h1v1H20zM29 49h1v1H29z"/>
    <path opacity="0.2745" d="M16 3h1v1H16zM5 4h1v1H5zM21 4h1v1H21zM34 6h1v1H34zM2 8h1v1H2zM17 10h1v1H17zM17 12h1v1H17zM3 13h1v1H3zM29 13h1v1H29zM25 14h1v1H25zM31 14h1v1H31zM15 16h1v1H15zM29 16h1v1H29zM43 17h1v1H43zM31 18h1v1H31zM1 20h1v1H1zM35 20h1v1H35zM12 23h1v1H12zM26 27h1v1H26zM10 36h1v1H10zM9 44h1v1H9zM15 44h1v1H15zM13 45h1v1H13z"/>
    <path opacity="0.3137" d="M14 1h1v1H14zM18 2h1v1H18zM23 3h1v1H23zM37 8h1v1H37zM41 8h1v1H41zM2 9h1v1H2zM40 9h1v1H40zM16 12h1v1H16zM1 13h1v1H1zM15 15h1v1H15zM42 15h1v1H42zM0 17h1v1H0zM32 18h1v1H32zM9 19h1v1H9zM30 20h1v1H30zM11 22h1v1H11zM15 22h1v1H15zM34 22h1v1H34zM42 22h1v1H42zM41 26h1v1H41zM21 30h1v1H21zM39 34h1v1H39zM21 36h1v1H21zM20 37h1v1H20zM37 37h1v1H37zM16 38h1v1H16zM8 42h1v1H8zM23 46h1v1H23zM32 49h1v1H32z"/>
    <path opacity="0.3529" d="M7 2h1v1H7zM27 4h1v1H27zM4 7h1v1H4zM33 7h1v1H33zM39 7h1v1H39zM42 9h1v1H42zM42 11h1v1H42zM15 14h1v1H15zM13 16h1v1H13zM35 18h1v1H35zM11 19h1v1H11zM35 19h1v1H35zM41 20h1v1H41zM25 25h1v1H25zM17 26h1v1H17zM39 28h1v1H39zM19 35h1v1H19zM16 36h1v1H16zM20 39h1v1H20zM38 39h1v1H38zM0 40h1v1H0zM1 42h1v1H1zM37 43h1v1H37zM17 46h1v1H17zM21 47h1v1H21zM27 47h1v1H27zM33 47h1v1H33zM34 48h1v1H34z"/>
    <path opacity="0.3922" d="M17 3h1v1H17zM22 3h1v1H22zM25 5h1v1H25zM34 7h1v1H34zM38 7h1v1H38zM13 11h1v1H13zM3 12h1v1H3zM18 12h1v1H18zM42 16h1v1H42zM33 19h1v1H33zM42 21h1v1H42zM0 23h1v1H0zM19 27h1v1H19zM22 27h1v1H22zM18 31h1v1H18zM38 32h1v1H38zM22 34h1v1H22zM5 43h1v1H5zM22 47h1v1H22z"/>
    <path opacity="0.4314" d="M12 2h1v1H12zM31 5h1v1H31zM3 11h1v1H3zM21 11h1v1H21zM15 13h1v1H15zM29 15h1v1H29zM43 16h1v1H43zM31 23h1v1H31zM14 25h1v1H14zM31 25h1v1H31zM24 26h1v1H24zM24 28h1v1H24zM40 30h1v1H40zM23 35h1v1H23zM38 38h1v1H38zM21 39h1v1H21zM36 41h1v1H36zM7 42h1v1H7zM35 45h1v1H35zM22 46h1v1H22zM26 47h1v1H26zM26 48h1v1H26z"/>
    <path opacity="0.4706" d="M22 4h1v1H22zM3 5h1v1H3zM2 10h1v1H2zM12 11h1v1H12zM43 11h1v1H43zM22 13h1v1H22zM26 14h1v1H26zM2 16h1v1H2zM42 17h1v1H42zM41 21h1v1H41zM27 22h1v1H27zM26 24h1v1H26zM40 25h1v1H40zM16 31h1v1H16zM13 32h1v1H13zM38 33h1v1H38zM14 34h2v1H14zM20 35h1v1H20zM13 37h1v1H13zM38 37h1v1H38zM35 47h1v1H35zM30 49h1v1H30z"/>
    <path opacity="0.5098" d="M10 0h1v1H10zM17 2h1v1H17zM18 3h1v1H18zM37 7h1v1H37zM16 10h1v1H16zM20 11h1v1H20zM24 12h1v1H24zM43 12h1v1H43zM13 13h1v1H13zM43 13h1v1H43zM13 17h1v1H13zM30 19h1v1H30zM15 23h1v1H15zM28 26h1v1H28zM2 41h1v1H2zM2 42h1v1H2zM6 43h1v1H6zM12 43h1v1H12zM14 45h1v1H14zM18 46h1v1H18zM31 49h1v1H31z"/>
    <path opacity="0.5490" d="M8 0h1v1H8zM13 2h1v1H13zM21 3h1v1H21zM26 4h1v1H26zM29 6h1v1H29zM35 7h1v1H35zM3 10h1v1H3zM15 10h1v1H15zM14 11h1v1H14zM43 14h1v1H43zM10 15h1v1H10zM31 15h1v1H31zM43 15h1v1H43zM29 17h1v1H29zM0 18h1v1H0zM42 20h1v1H42zM34 21h1v1H34zM29 22h1v1H29zM29 24h1v1H29zM16 25h1v1H16zM41 25h1v1H41zM19 30h1v1H19zM19 31h1v1H19zM11 34h1v1H11zM16 34h1v1H16zM22 39h2v1H22zM37 42h1v1H37zM11 43h1v1H11zM18 45h1v1H18zM23 47h1v1H23zM25 47h1v1H25z"/>
    <path opacity="0.5882" d="M9 0h1v1H9zM14 2h1v1H14zM3 6h1v1H3zM33 6h1v1H33zM38 8h1v1H38zM1 14h1v1H1zM10 14h1v1H10zM10 16h1v1H10zM32 16h1v1H32zM32 22h1v1H32zM33 23h1v1H33zM39 29h1v1H39zM18 30h1v1H18zM38 34h1v1H38zM19 37h1v1H19zM17 38h1v1H17zM3 42h1v1H3zM10 44h1v1H10z"/>
    <path opacity="0.6275" d="M13 1h1v1H13zM4 3h1v1H4zM23 4h1v1H23zM25 4h1v1H25zM4 6h1v1H4zM36 7h1v1H36zM40 8h1v1H40zM41 9h1v1H41zM42 10h1v1H42zM11 11h1v1H11zM19 12h1v1H19zM27 14h1v1H27zM2 15h1v1H2zM10 17h1v1H10zM42 18h1v1H42zM1 19h1v1H1zM41 22h1v1H41zM41 24h1v1H41zM39 33h1v1H39zM17 34h1v1H17zM37 38h1v1H37zM37 41h1v1H37zM10 43h1v1H10zM14 44h1v1H14zM36 45h1v1H36zM19 46h1v1H19zM34 47h1v1H34z"/>
    <path opacity="0.6667" d="M15 2h1v1H15zM19 3h1v1H19zM24 4h1v1H24zM26 5h1v1H26zM30 6h1v1H30zM10 11h1v1H10zM28 13h1v1H28zM34 17h1v1H34zM13 18h1v1H13zM0 19h1v1H0zM14 19h1v1H14zM10 20h1v1H10zM14 20h1v1H14zM28 20h1v1H28zM33 20h1v1H33zM41 23h1v1H41zM40 26h1v1H40zM18 27h1v1H18zM23 27h1v1H23zM14 32h1v1H14zM19 32h1v1H19zM12 33h1v1H12zM15 36h1v1H15zM38 36h1v1H38zM14 37h1v1H14zM22 37h1v1H22zM36 42h1v1H36zM15 45h1v1H15zM21 46h1v1H21zM35 46h1v1H35zM24 47h1v1H24zM27 48h3v1H27z"/>
    <path opacity="0.7059" d="M6 1h1v1H6zM16 2h1v1H16zM20 3h1v1H20zM39 8h1v1H39zM2 11h1v1H2zM19 11h1v1H19zM9 12h1v1H9zM15 12h1v1H15zM23 12h1v1H23zM23 13h1v1H23zM28 14h1v1H28zM14 18h1v1H14zM33 18h1v1H33zM42 19h1v1H42zM0 22h1v1H0zM30 24h1v1H30zM15 26h1v1H15zM27 26h1v1H27zM25 27h1v1H25zM40 29h1v1H40zM39 30h1v1H39zM15 32h1v1H15zM13 35h1v1H13zM38 35h1v1H38zM18 38h1v1H18zM4 42h1v1H4zM6 42h1v1H6zM7 43h1v1H7zM16 45h2v1H16zM30 48h4v1H30z"/>
    <path opacity="0.7451" d="M5 2h2v1H5zM5 3h1v1H5zM31 6h1v1H31zM3 7h1v1H3zM10 13h1v1H10zM24 13h1v1H24zM2 14h1v1H2zM9 18h2v1H9zM30 18h1v1H30zM14 21h1v1H14zM29 21h1v1H29zM13 23h1v1H13zM27 23h1v1H27zM30 25h1v1H30zM40 27h1v1H40zM37 40h1v1H37zM1 41h1v1H1zM9 43h1v1H9zM36 43h1v1H36zM36 44h1v1H36zM20 46h1v1H20z"/>
    <path opacity="0.7843" d="M12 1h1v1H12zM27 5h1v1H27zM30 5h1v1H30zM32 6h1v1H32zM3 9h1v1H3zM30 14h1v1H30zM1 18h1v1H1zM13 19h1v1H13zM0 20h1v1H0zM11 20h1v1H11zM32 24h1v1H32zM16 27h1v1H16zM23 28h1v1H23zM40 28h1v1H40zM21 29h1v1H21zM13 34h1v1H13zM18 34h1v1H18zM23 36h1v1H23zM37 39h1v1H37zM0 41h1v1H0z"/>
    <path opacity="0.8235" d="M4 4h1v1H4zM28 5h1v1H28zM20 12h1v1H20zM25 13h1v1H25zM27 13h1v1H27zM1 15h1v1H1zM14 17h1v1H14zM0 21h1v1H0zM11 21h1v1H11zM12 22h1v1H12zM20 28h2v1H20zM39 31h1v1H39zM39 32h1v1H39zM21 34h1v1H21zM11 35h1v1H11zM14 36h1v1H14zM15 37h1v1H15zM8 43h1v1H8zM13 44h1v1H13z"/>
    <path opacity="0.8627" d="M7 1h1v1H7zM9 1h1v1H9zM11 1h1v1H11zM4 5h1v1H4zM29 5h1v1H29zM3 8h1v1H3zM18 11h1v1H18zM2 12h1v1H2zM22 12h1v1H22zM2 13h1v1H2zM26 13h1v1H26zM14 14h1v1H14zM29 14h1v1H29zM14 15h1v1H14zM14 16h1v1H14zM1 17h1v1H1zM29 18h1v1H29zM28 21h1v1H28zM33 22h1v1H33zM14 24h2v1H14zM29 25h1v1H29zM26 26h1v1H26zM17 29h1v1H17zM17 32h1v1H17zM21 35h1v1H21zM11 36h1v1H11zM18 37h1v1H18zM19 38h1v1H19zM5 42h1v1H5z"/>
    <path opacity="0.9020" d="M8 1h1v1H8zM10 1h1v1H10zM17 11h1v1H17zM9 13h1v1H9zM9 14h1v1H9zM1 16h1v1H1zM31 16h1v1H31zM32 17h2v1H32zM10 19h1v1H10zM29 20h1v1H29zM34 20h1v1H34zM14 22h1v1H14zM32 23h1v1H32zM22 28h1v1H22zM16 32h1v1H16zM22 36h1v1H22zM16 37h1v1H16zM23 37h1v1H23zM23 38h1v1H23zM11 44h1v1H11z"/>
    <path opacity="0.9412" d="M16 11h1v1H16zM13 12h2v1H13zM21 12h1v1H21zM9 15h1v1H9zM9 16h1v1H9zM9 17h1v1H9zM31 17h1v1H31zM13 20h1v1H13zM12 21h1v1H12zM33 21h1v1H33zM28 22h1v1H28zM31 24h1v1H31zM17 27h1v1H17zM24 27h1v1H24zM19 28h1v1H19zM18 29h2v1H18zM17 30h1v1H17zM17 31h1v1H17zM20 31h1v1H20zM20 32h1v1H20zM14 33h2v1H14zM18 33h1v1H18zM19 34h1v1H19zM22 35h1v1H22zM17 37h1v1H17zM20 38h1v1H20z"/>
    <path opacity="0.9804" d="M15 11h1v1H15zM29 19h1v1H29zM28 23h1v1H28zM27 24h2v1H27zM15 25h1v1H15zM26 25h1v1H26zM28 25h1v1H28zM17 28h1v1H17zM20 30h1v1H20zM13 33h1v1H13zM16 33h1v1H16zM12 34h1v1H12zM13 36h1v1H13zM21 38h1v1H21zM12 44h1v1H12z"/>
    <path opacity="1.0000" d="M10 12h3v1H10zM14 13h1v1H14zM30 15h1v1H30zM30 16h1v1H30zM30 17h1v1H30zM34 18h1v1H34zM34 19h1v1H34zM13 21h1v1H13zM13 22h1v1H13zM14 23h1v1H14zM27 25h1v1H27zM16 26h1v1H16zM25 26h1v1H25zM18 28h1v1H18zM20 29h1v1H20zM17 33h1v1H17zM19 33h2v1H19zM20 34h1v1H20zM12 35h1v1H12zM12 36h1v1H12zM22 38h1v1H22z"/>
  </g>
</svg>
