<svg xmlns="http://www.w3.org/2000/svg" viewBox="0 0 51 49" role="img" aria-label="Card de carreira 1">
  <title>Card de carreira 1</title>
  <g fill="#00d4e8" fill-rule="nonzero" shape-rendering="geometricPrecision">
    <path opacity="0.0039" d="M9 0h1v1H9zM16 0h1v1H16zM8 1h1v1H8zM20 1h1v1H20zM10 3h1v1H10zM9 4h1v1H9zM18 4h1v1H18zM30 4h1v1H30zM34 5h1v1H34zM5 6h1v1H5zM27 6h1v1H27zM30 7h1v1H30zM33 8h1v1H33zM26 10h1v1H26zM41 10h1v1H41zM47 10h1v1H47zM7 11h1v1H7zM44 12h1v1H44zM28 14h1v1H28zM28 15h1v1H28zM28 16h1v1H28zM27 18h1v1H27zM32 18h1v1H32zM48 18h1v1H48zM44 21h1v1H44zM47 21h1v1H47zM5 23h1v1H5zM20 24h1v1H20zM26 24h1v1H26zM1 25h1v1H1zM28 25h1v1H28zM4 28h1v1H4zM15 28h1v1H15zM45 29h1v1H45zM26 31h1v1H26zM30 32h2v1H30zM42 33h1v1H42zM2 34h1v1H2zM19 34h2v1H19zM24 34h1v1H24zM16 35h1v1H16zM31 35h1v1H31zM26 36h1v1H26zM19 37h1v1H19zM28 37h1v1H28zM41 37h1v1H41zM28 38h1v1H28zM36 38h1v1H36zM44 38h1v1H44zM2 39h1v1H2zM36 39h1v1H36zM0 40h1v1H0zM22 40h2v1H22zM35 40h1v1H35zM28 41h1v1H28zM1 42h1v1H1zM9 42h1v1H9zM29 42h1v1H29zM43 43h1v1H43zM6 44h3v1H6zM20 44h1v1H20zM42 46h1v1H42zM38 47h1v1H38zM21 48h2v1H21zM35 48h1v1H35z"/>
    <path opacity="0.0392" d="M15 0h1v1H15zM23 2h1v1H23zM15 3h1v1H15zM19 4h1v1H19zM23 5h1v1H23zM8 6h1v1H8zM5 7h1v1H5zM34 8h1v1H34zM44 8h1v1H44zM7 10h1v1H7zM29 11h1v1H29zM22 12h1v1H22zM48 12h1v1H48zM21 13h1v1H21zM25 13h1v1H25zM27 13h1v1H27zM24 14h1v1H24zM6 15h1v1H6zM32 15h1v1H32zM28 17h1v1H28zM32 17h1v1H32zM48 17h1v1H48zM25 19h2v1H25zM5 20h1v1H5zM2 21h1v1H2zM5 21h1v1H5zM18 21h1v1H18zM5 22h1v1H5zM17 22h1v1H17zM44 22h1v1H44zM22 23h3v1H22zM44 23h1v1H44zM19 24h1v1H19zM27 24h1v1H27zM31 24h1v1H31zM44 24h1v1H44zM46 25h1v1H46zM1 26h1v1H1zM19 26h1v1H19zM32 26h1v1H32zM29 27h1v1H29zM27 28h1v1H27zM19 29h1v1H19zM3 30h1v1H3zM12 30h1v1H12zM15 32h1v1H15zM16 33h1v1H16zM9 35h1v1H9zM9 36h1v1H9zM44 37h1v1H44zM4 40h1v1H4zM40 40h1v1H40zM3 43h1v1H3zM19 44h1v1H19zM23 45h1v1H23zM18 47h1v1H18zM23 48h1v1H23zM34 48h1v1H34zM36 48h1v1H36z"/>
    <path opacity="0.0784" d="M10 0h5v1H10zM19 1h1v1H19zM7 2h1v1H7zM20 4h1v1H20zM28 4h2v1H28zM24 5h1v1H24zM33 5h1v1H33zM37 6h1v1H37zM5 8h1v1H5zM42 10h1v1H42zM31 13h1v1H31zM48 13h1v1H48zM45 14h1v1H45zM48 14h1v1H48zM45 15h1v1H45zM48 15h1v1H48zM32 16h1v1H32zM48 16h1v1H48zM5 19h1v1H5zM31 19h1v1H31zM30 20h1v1H30zM29 21h1v1H29zM15 25h1v1H15zM18 25h1v1H18zM44 25h1v1H44zM1 27h1v1H1zM4 27h1v1H4zM22 27h1v1H22zM32 27h1v1H32zM1 28h1v1H1zM16 28h1v1H16zM26 28h1v1H26zM1 29h1v1H1zM43 29h1v1H43zM1 30h1v1H1zM11 31h1v1H11zM27 31h1v1H27zM9 34h1v1H9zM16 34h1v1H16zM42 34h1v1H42zM15 35h1v1H15zM33 35h1v1H33zM44 35h1v1H44zM19 36h1v1H19zM29 36h1v1H29zM44 36h1v1H44zM14 37h1v1H14zM41 38h1v1H41zM19 39h1v1H19zM1 41h1v1H1zM43 42h1v1H43zM12 43h1v1H12zM15 46h1v1H15zM39 46h1v1H39zM33 48h1v1H33z"/>
    <path opacity="0.1176" d="M31 7h1v1H31zM41 7h1v1H41zM5 9h1v1H5zM44 11h1v1H44zM30 12h1v1H30zM4 15h1v1H4zM45 16h1v1H45zM21 19h1v1H21zM21 20h1v1H21zM47 20h1v1H47zM21 23h1v1H21zM25 23h1v1H25zM25 28h1v1H25zM32 28h1v1H32zM45 28h1v1H45zM13 30h1v1H13zM24 30h1v1H24zM28 31h1v1H28zM32 31h1v1H32zM2 33h1v1H2zM9 33h1v1H9zM22 33h2v1H22zM0 35h1v1H0zM24 39h1v1H24zM40 41h1v1H40zM32 42h1v1H32zM42 45h1v1H42zM27 47h1v1H27zM32 48h1v1H32zM37 48h1v1H37z"/>
    <path opacity="0.1569" d="M16 3h1v1H16zM6 4h1v1H6zM8 5h1v1H8zM43 8h1v1H43zM7 9h1v1H7zM39 9h1v1H39zM45 9h1v1H45zM21 14h1v1H21zM23 16h1v1H23zM23 17h1v1H23zM3 19h1v1H3zM19 21h1v1H19zM2 22h1v1H2zM46 24h1v1H46zM29 26h1v1H29zM20 29h1v1H20zM32 29h1v1H32zM21 34h1v1H21zM44 34h1v1H44zM30 36h1v1H30zM34 37h1v1H34zM19 38h1v1H19zM20 39h2v1H20zM34 40h1v1H34zM5 41h1v1H5zM2 42h1v1H2zM8 42h1v1H8zM33 42h1v1H33zM40 42h1v1H40zM4 43h1v1H4zM18 44h1v1H18zM12 45h1v1H12zM22 45h1v1H22zM19 47h1v1H19zM24 48h1v1H24zM31 48h1v1H31z"/>
    <path opacity="0.1961" d="M18 1h1v1H18zM12 2h1v1H12zM22 2h1v1H22zM24 3h1v1H24zM21 4h1v1H21zM32 5h1v1H32zM28 6h1v1H28zM32 7h1v1H32zM35 8h1v1H35zM47 11h1v1H47zM45 13h1v1H45zM45 17h1v1H45zM5 18h1v1H5zM28 18h1v1H28zM24 19h1v1H24zM4 26h1v1H4zM44 26h1v1H44zM32 30h1v1H32zM1 31h1v1H1zM29 31h1v1H29zM14 32h1v1H14zM0 39h1v1H0zM3 40h1v1H3zM43 41h1v1H43zM5 43h1v1H5zM40 43h1v1H40zM9 44h1v1H9zM24 46h1v1H24zM20 47h1v1H20z"/>
    <path opacity="0.2353" d="M9 3h1v1H9zM27 4h1v1H27zM25 5h1v1H25zM46 10h1v1H46zM21 18h1v1H21zM27 19h1v1H27zM47 19h1v1H47zM2 23h1v1H2zM4 25h1v1H4zM31 25h1v1H31zM18 26h1v1H18zM28 29h2v1H28zM9 32h1v1H9zM42 35h1v1H42zM13 37h1v1H13zM25 37h1v1H25zM24 38h1v1H24zM35 38h1v1H35zM35 39h1v1H35zM41 39h1v1H41zM43 40h1v1H43zM16 46h1v1H16zM30 48h1v1H30z"/>
    <path opacity="0.2745" d="M9 1h1v1H9zM13 2h1v1H13zM17 3h1v1H17zM6 5h1v1H6zM31 5h1v1H31zM33 7h1v1H33zM6 14h1v1H6zM23 15h1v1H23zM45 18h1v1H45zM45 19h1v1H45zM45 20h1v1H45zM20 21h1v1H20zM45 21h1v1H45zM20 23h1v1H20zM4 24h1v1H4zM3 29h1v1H3zM25 30h1v1H25zM43 30h1v1H43zM19 35h1v1H19zM24 35h1v1H24zM10 36h1v1H10zM14 36h1v1H14zM43 39h1v1H43zM29 41h1v1H29zM21 45h1v1H21zM41 47h1v1H41z"/>
    <path opacity="0.3137" d="M17 1h1v1H17zM11 2h1v1H11zM8 4h1v1H8zM40 7h1v1H40zM7 8h1v1H7zM5 10h1v1H5zM43 10h1v1H43zM31 14h1v1H31zM23 18h1v1H23zM31 18h1v1H31zM26 23h1v1H26zM2 24h1v1H2zM15 26h1v1H15zM15 27h1v1H15zM21 27h1v1H21zM43 38h1v1H43zM17 44h1v1H17z"/>
    <path opacity="0.3529" d="M14 2h1v1H14zM18 3h1v1H18zM6 6h1v1H6zM36 6h1v1H36zM45 12h1v1H45zM4 16h1v1H4zM47 18h1v1H47zM46 23h1v1H46zM17 28h1v1H17zM30 28h1v1H30zM2 32h1v1H2zM44 33h1v1H44zM23 34h1v1H23zM42 36h1v1H42zM22 39h1v1H22zM29 40h1v1H29zM6 43h1v1H6zM42 44h1v1H42z"/>
    <path opacity="0.3922" d="M16 1h1v1H16zM8 2h1v1H8zM21 2h1v1H21zM7 3h1v1H7zM30 5h1v1H30zM29 6h1v1H29zM24 11h1v1H24zM21 15h1v1H21zM3 20h1v1H3zM46 22h1v1H46zM4 23h1v1H4zM29 23h1v1H29zM45 27h1v1H45zM21 29h1v1H21zM27 29h1v1H27zM26 30h1v1H26zM15 33h1v1H15zM32 35h1v1H32zM0 36h1v1H0zM1 37h1v1H1zM42 37h1v1H42zM0 38h1v1H0zM29 39h1v1H29zM30 41h1v1H30zM7 42h1v1H7zM11 43h1v1H11zM40 44h1v1H40zM13 45h1v1H13zM20 45h1v1H20z"/>
    <path opacity="0.4314" d="M10 2h1v1H10zM30 6h1v1H30zM7 7h1v1H7zM22 13h1v1H22zM28 13h1v1H28zM29 15h1v1H29zM5 17h1v1H5zM18 22h1v1H18zM45 22h1v1H45zM16 24h1v1H16zM28 24h1v1H28zM30 24h1v1H30zM2 25h1v1H2zM31 26h1v1H31zM24 28h1v1H24zM43 31h1v1H43zM31 41h1v1H31zM16 44h1v1H16zM17 46h1v1H17zM26 47h1v1H26zM38 48h1v1H38z"/>
    <path opacity="0.4706" d="M26 5h1v1H26zM7 6h1v1H7zM34 6h2v1H34zM40 9h1v1H40zM28 11h1v1H28zM6 13h1v1H6zM29 16h1v1H29zM46 21h1v1H46zM18 24h1v1H18zM44 27h1v1H44zM3 28h1v1H3zM22 29h1v1H22zM27 30h1v1H27zM2 31h1v1H2zM30 31h1v1H30zM1 32h1v1H1zM1 36h1v1H1zM11 36h1v1H11zM0 37h1v1H0zM43 37h1v1H43zM1 38h1v1H1zM1 40h1v1H1zM6 42h1v1H6zM14 45h1v1H14zM21 47h1v1H21z"/>
    <path opacity="0.5098" d="M15 2h1v1H15zM20 2h1v1H20zM39 7h1v1H39zM36 8h1v1H36zM23 12h1v1H23zM23 14h1v1H23zM31 15h1v1H31zM4 17h1v1H4zM21 17h1v1H21zM31 17h1v1H31zM47 17h1v1H47zM17 23h1v1H17zM45 26h1v1H45zM23 29h1v1H23zM30 29h1v1H30zM43 32h1v1H43zM25 36h1v1H25zM10 44h1v1H10zM39 47h1v1H39zM25 48h1v1H25zM40 48h1v1H40z"/>
    <path opacity="0.5490" d="M15 1h1v1H15zM19 3h1v1H19zM26 4h1v1H26zM27 5h1v1H27zM33 6h1v1H33zM6 7h1v1H6zM44 9h1v1H44zM44 10h1v1H44zM5 11h1v1H5zM24 13h1v1H24zM4 18h1v1H4zM3 21h1v1H3zM4 22h1v1H4zM22 22h2v1H22zM28 22h1v1H28zM29 25h1v1H29zM30 27h1v1H30zM2 30h1v1H2zM28 30h1v1H28zM43 33h1v1H43zM15 34h1v1H15zM10 35h1v1H10zM33 36h1v1H33zM4 41h1v1H4zM33 41h1v1H33zM3 42h1v1H3zM42 43h1v1H42zM19 45h1v1H19zM18 46h1v1H18zM23 46h1v1H23zM29 48h1v1H29z"/>
    <path opacity="0.5882" d="M42 8h1v1H42zM6 12h1v1H6zM46 15h1v1H46zM5 16h1v1H5zM21 16h1v1H21zM30 19h1v1H30zM29 20h1v1H29zM21 21h1v1H21zM24 22h1v1H24zM45 23h1v1H45zM45 25h1v1H45zM44 28h1v1H44zM12 31h2v1H12zM44 32h1v1H44zM1 33h1v1H1zM1 34h1v1H1zM22 34h1v1H22zM1 35h1v1H1zM42 38h1v1H42zM1 39h1v1H1zM41 40h1v1H41zM7 43h1v1H7zM10 43h1v1H10zM15 44h1v1H15z"/>
    <path opacity="0.6275" d="M23 3h1v1H23zM22 4h1v1H22zM25 4h1v1H25zM31 6h1v1H31zM6 10h1v1H6zM6 11h1v1H6zM27 11h1v1H27zM26 12h1v1H26zM30 13h1v1H30zM31 16h1v1H31zM4 19h1v1H4zM22 20h1v1H22zM45 24h1v1H45zM2 26h1v1H2zM24 29h1v1H24zM26 29h1v1H26zM31 31h1v1H31zM43 34h1v1H43zM14 35h1v1H14zM31 36h1v1H31zM29 37h1v1H29zM23 39h1v1H23zM2 40h1v1H2zM8 43h2v1H8zM15 45h1v1H15zM41 46h1v1H41zM25 47h1v1H25z"/>
    <path opacity="0.6667" d="M19 2h1v1H19zM7 5h1v1H7zM28 5h2v1H28zM34 7h1v1H34zM38 7h1v1H38zM6 9h1v1H6zM41 9h1v1H41zM45 10h1v1H45zM29 12h1v1H29zM47 12h1v1H47zM46 14h1v1H46zM29 17h1v1H29zM46 20h1v1H46zM4 21h1v1H4zM21 22h1v1H21zM3 27h1v1H3zM20 27h1v1H20zM18 28h1v1H18zM44 29h1v1H44zM29 30h1v1H29zM10 34h1v1H10zM43 35h1v1H43zM12 36h1v1H12zM43 36h1v1H43zM42 42h1v1H42zM11 44h1v1H11z"/>
    <path opacity="0.7059" d="M10 1h1v1H10zM9 2h1v1H9zM7 4h1v1H7zM32 6h1v1H32zM25 11h2v1H25zM45 11h1v1H45zM5 12h1v1H5zM29 14h1v1H29zM5 15h1v1H5zM46 16h2v1H46zM28 19h1v1H28zM4 20h1v1H4zM28 21h1v1H28zM19 23h1v1H19zM27 23h1v1H27zM31 27h1v1H31zM44 30h1v1H44zM44 31h1v1H44zM20 35h1v1H20zM20 38h1v1H20zM34 38h1v1H34zM2 41h1v1H2zM32 41h1v1H32zM5 42h1v1H5zM14 44h1v1H14zM40 45h1v1H40zM26 48h1v1H26z"/>
    <path opacity="0.7451" d="M14 1h1v1H14zM8 3h1v1H8zM37 7h1v1H37zM6 8h1v1H6zM42 9h1v1H42zM27 12h1v1H27zM5 13h1v1H5zM5 14h1v1H5zM22 16h1v1H22zM26 20h1v1H26zM3 22h1v1H3zM19 22h1v1H19zM25 22h1v1H25zM2 27h1v1H2zM19 27h1v1H19zM23 28h1v1H23zM2 29h1v1H2zM25 29h1v1H25zM24 37h1v1H24zM12 44h1v1H12zM22 46h1v1H22z"/>
    <path opacity="0.7843" d="M16 2h1v1H16zM24 4h1v1H24zM43 9h1v1H43zM46 11h1v1H46zM22 17h1v1H22zM22 19h2v1H22zM25 20h1v1H25zM16 25h1v1H16zM31 28h1v1H31zM20 37h1v1H20zM29 38h1v1H29zM34 39h1v1H34zM42 41h1v1H42zM13 44h1v1H13zM41 45h1v1H41zM22 47h1v1H22zM24 47h1v1H24zM27 48h2v1H27z"/>
    <path opacity="0.8235" d="M12 1h2v1H12zM22 3h1v1H22zM37 8h1v1H37zM25 12h1v1H25zM23 13h1v1H23zM46 13h1v1H46zM22 14h1v1H22zM47 15h1v1H47zM22 18h1v1H22zM20 22h1v1H20zM29 24h1v1H29zM30 25h1v1H30zM3 26h1v1H3zM30 26h1v1H30zM2 28h1v1H2zM19 28h1v1H19zM10 32h1v1H10zM21 35h1v1H21zM23 35h1v1H23zM13 36h1v1H13zM20 36h1v1H20zM33 37h1v1H33zM21 38h1v1H21zM33 40h1v1H33zM18 45h1v1H18zM19 46h1v1H19zM39 48h1v1H39z"/>
    <path opacity="0.8627" d="M11 1h1v1H11zM18 2h1v1H18zM20 3h1v1H20zM23 4h1v1H23zM47 13h1v1H47zM47 14h1v1H47zM22 15h1v1H22zM46 17h1v1H46zM28 23h1v1H28zM17 25h1v1H17zM17 26h1v1H17zM18 27h1v1H18zM20 28h1v1H20zM22 28h1v1H22zM13 32h1v1H13zM14 33h1v1H14zM42 39h1v1H42zM42 40h1v1H42zM4 42h1v1H4zM16 45h1v1H16zM40 46h1v1H40z"/>
    <path opacity="0.9020" d="M36 7h1v1H36zM38 8h4v1H38zM24 12h1v1H24zM28 12h1v1H28zM29 18h1v1H29zM46 19h1v1H46zM27 20h1v1H27zM26 22h1v1H26zM3 23h1v1H3zM18 23h1v1H18zM17 24h1v1H17zM16 26h1v1H16zM16 27h1v1H16zM21 28h1v1H21zM31 29h1v1H31zM30 30h1v1H30zM10 33h1v1H10zM30 37h1v1H30zM3 41h1v1H3zM41 44h1v1H41zM21 46h1v1H21zM23 47h1v1H23z"/>
    <path opacity="0.9412" d="M17 2h1v1H17zM21 3h1v1H21zM29 13h1v1H29zM30 14h1v1H30zM30 18h1v1H30zM24 20h1v1H24zM22 21h1v1H22zM3 25h1v1H3zM11 32h1v1H11zM14 34h1v1H14zM32 36h1v1H32zM22 38h2v1H22zM30 40h2v1H30zM41 41h1v1H41zM40 47h1v1H40z"/>
    <path opacity="0.9804" d="M35 7h1v1H35zM46 12h1v1H46zM29 19h1v1H29zM28 20h1v1H28zM31 30h1v1H31zM22 35h1v1H22zM24 36h1v1H24zM33 38h1v1H33zM17 45h1v1H17zM20 46h1v1H20z"/>
    <path opacity="1.0000" d="M30 15h1v1H30zM30 16h1v1H30zM30 17h1v1H30zM46 18h1v1H46zM23 20h1v1H23zM23 21h5v1H23zM27 22h1v1H27zM3 24h1v1H3zM17 27h1v1H17zM12 32h1v1H12zM11 33h3v1H11zM11 34h3v1H11zM11 35h3v1H11zM21 36h3v1H21zM21 37h3v1H21zM31 37h2v1H31zM30 38h3v1H30zM30 39h4v1H30zM32 40h1v1H32zM41 42h1v1H41zM41 43h1v1H41z"/>
  </g>
</svg>
