<svg xmlns="http://www.w3.org/2000/svg" viewBox="0 0 61 55" role="img" aria-label="Card de carreira 5">
  <title>Card de carreira 5</title>
  <g fill="#00d4e8" fill-rule="nonzero" shape-rendering="geometricPrecision">
    <path opacity="0.0039" d="M6 2h1v1H6zM21 2h1v1H21zM23 6h1v1H23zM37 6h1v1H37zM29 14h1v1H29zM35 14h1v1H35zM43 15h1v1H43zM2 17h1v1H2zM5 17h1v1H5zM33 17h1v1H33zM23 18h1v1H23zM42 18h1v1H42zM1 20h1v1H1zM26 20h1v1H26zM36 20h1v1H36zM23 22h1v1H23zM41 22h1v1H41zM9 23h1v1H9zM21 23h1v1H21zM32 23h1v1H32zM16 24h1v1H16zM21 24h1v1H21zM27 24h1v1H27zM32 24h1v1H32zM12 26h1v1H12zM22 26h1v1H22zM29 26h1v1H29zM25 27h2v1H25zM40 27h1v1H40zM11 28h1v1H11zM31 28h1v1H31zM21 30h1v1H21zM12 31h1v1H12zM25 31h1v1H25zM15 32h2v1H15zM30 32h1v1H30zM1 35h1v1H1zM9 35h1v1H9zM23 35h1v1H23zM1 36h1v1H1zM29 36h1v1H29zM32 37h1v1H32zM20 38h2v1H20zM37 40h1v1H37zM9 41h1v1H9zM3 42h1v1H3zM19 43h1v1H19zM22 44h1v1H22zM36 44h1v1H36zM25 45h1v1H25zM39 45h1v1H39zM18 46h2v1H18zM32 46h1v1H32zM38 46h1v1H38zM27 48h1v1H27zM32 49h3v1H32z"/>
    <path opacity="0.0392" d="M15 1h1v1H15zM20 2h1v1H20zM14 3h1v1H14zM5 4h1v1H5zM17 4h1v1H17zM27 4h1v1H27zM7 6h1v1H7zM24 6h1v1H24zM36 6h1v1H36zM30 7h1v1H30zM37 9h1v1H37zM44 9h1v1H44zM41 10h1v1H41zM3 13h1v1H3zM36 15h1v1H36zM5 16h1v1H5zM20 18h1v1H20zM22 18h1v1H22zM33 19h1v1H33zM1 21h1v1H1zM4 21h1v1H4zM26 21h1v1H26zM21 22h1v1H21zM30 22h1v1H30zM12 23h1v1H12zM35 23h1v1H35zM44 23h1v1H44zM3 25h1v1H3zM17 25h1v1H17zM32 25h1v1H32zM25 26h1v1H25zM16 27h1v1H16zM34 27h1v1H34zM40 28h1v1H40zM40 29h1v1H40zM24 31h1v1H24zM33 31h1v1H33zM10 32h1v1H10zM28 33h1v1H28zM38 37h1v1H38zM3 39h1v1H3zM27 39h1v1H27zM1 41h1v1H1zM40 41h1v1H40zM4 42h1v1H4zM14 42h1v1H14zM11 44h1v1H11zM15 45h1v1H15zM20 46h2v1H20zM33 46h1v1H33zM36 48h1v1H36z"/>
    <path opacity="0.0784" d="M7 2h1v1H7zM9 3h1v1H9zM8 4h1v1H8zM5 5h1v1H5zM25 6h2v1H25zM35 6h1v1H35zM40 7h1v1H40zM33 8h1v1H33zM45 11h1v1H45zM34 14h1v1H34zM5 15h1v1H5zM29 15h1v1H29zM45 16h1v1H45zM21 18h1v1H21zM31 18h1v1H31zM36 19h1v1H36zM28 21h1v1H28zM1 22h1v1H1zM18 22h1v1H18zM44 22h1v1H44zM1 23h1v1H1zM23 23h1v1H23zM41 23h1v1H41zM9 24h1v1H9zM13 26h1v1H13zM17 26h1v1H17zM43 26h1v1H43zM11 27h1v1H11zM20 27h1v1H20zM22 27h1v1H22zM31 29h1v1H31zM42 30h1v1H42zM10 31h1v1H10zM15 31h1v1H15zM21 31h1v1H21zM7 32h1v1H7zM25 32h1v1H25zM1 33h1v1H1zM30 33h1v1H30zM1 34h1v1H1zM18 34h1v1H18zM41 34h1v1H41zM10 35h1v1H10zM32 36h1v1H32zM1 37h1v1H1zM17 37h1v1H17zM28 37h2v1H28zM31 39h1v1H31zM6 40h1v1H6zM40 40h1v1H40zM37 41h1v1H37zM13 42h1v1H13zM18 43h1v1H18zM31 46h1v1H31zM34 46h1v1H34zM25 47h1v1H25zM28 48h1v1H28z"/>
    <path opacity="0.1176" d="M19 2h1v1H19zM24 3h1v1H24zM27 6h1v1H27zM34 6h1v1H34zM38 9h1v1H38zM5 14h1v1H5zM19 19h1v1H19zM25 19h1v1H25zM42 19h1v1H42zM33 20h1v1H33zM44 21h1v1H44zM9 25h1v1H9zM16 25h1v1H16zM16 26h1v1H16zM13 27h1v1H13zM17 27h1v1H17zM0 28h1v1H0zM26 28h1v1H26zM19 30h1v1H19zM24 30h1v1H24zM1 32h1v1H1zM21 32h1v1H21zM28 32h1v1H28zM25 33h1v1H25zM7 34h1v1H7zM32 35h1v1H32zM0 40h1v1H0zM12 42h1v1H12zM8 43h1v1H8zM39 44h1v1H39zM16 45h1v1H16zM36 45h1v1H36zM30 46h1v1H30zM35 46h1v1H35z"/>
    <path opacity="0.1569" d="M21 5h1v1H21zM30 5h1v1H30zM39 7h1v1H39zM6 10h1v1H6zM30 14h1v1H30zM33 14h1v1H33zM29 16h1v1H29zM36 16h1v1H36zM43 16h1v1H43zM36 17h1v1H36zM2 18h1v1H2zM36 18h1v1H36zM4 20h1v1H4zM33 21h1v1H33zM35 22h1v1H35zM10 23h2v1H10zM1 24h1v1H1zM15 24h1v1H15zM41 24h1v1H41zM27 25h1v1H27zM29 25h1v1H29zM17 28h1v1H17zM8 29h1v1H8zM40 30h1v1H40zM28 31h1v1H28zM16 33h1v1H16zM23 34h1v1H23zM25 34h1v1H25zM39 34h1v1H39zM18 37h1v1H18zM22 37h1v1H22zM40 38h1v1H40zM40 39h1v1H40zM21 44h1v1H21zM29 46h1v1H29z"/>
    <path opacity="0.1961" d="M18 4h1v1H18zM42 8h1v1H42zM39 9h1v1H39zM4 10h1v1H4zM3 14h1v1H3zM29 17h1v1H29zM44 20h1v1H44zM3 24h1v1H3zM41 25h1v1H41zM20 26h1v1H20zM34 26h1v1H34zM2 27h1v1H2zM13 28h1v1H13zM22 28h1v1H22zM17 29h1v1H17zM24 29h1v1H24zM12 32h1v1H12zM7 33h1v1H7zM21 33h1v1H21zM30 34h1v1H30zM32 34h1v1H32zM16 36h1v1H16zM27 36h1v1H27zM8 41h1v1H8zM37 42h1v1H37zM12 44h1v1H12zM22 46h1v1H22zM28 46h1v1H28z"/>
    <path opacity="0.2353" d="M14 1h1v1H14zM6 3h1v1H6zM15 3h1v1H15zM23 3h1v1H23zM7 5h1v1H7zM5 6h1v1H5zM38 7h1v1H38zM40 9h1v1H40zM4 19h1v1H4zM22 21h1v1H22zM18 23h1v1H18zM25 25h1v1H25zM43 25h1v1H43zM32 26h1v1H32zM41 26h1v1H41zM26 29h1v1H26zM42 29h1v1H42zM18 33h1v1H18zM14 34h1v1H14zM19 37h1v1H19zM38 38h1v1H38zM2 39h1v1H2zM2 41h1v1H2zM5 42h1v1H5zM16 43h2v1H16zM17 45h1v1H17z"/>
    <path opacity="0.2745" d="M9 1h1v1H9zM22 3h1v1H22zM26 4h1v1H26zM22 5h1v1H22zM43 11h1v1H43zM45 15h1v1H45zM4 18h1v1H4zM2 19h1v1H2zM24 19h1v1H24zM42 20h1v1H42zM23 21h1v1H23zM33 22h1v1H33zM23 24h1v1H23zM20 25h1v1H20zM11 26h1v1H11zM22 29h1v1H22zM15 30h1v1H15zM28 30h1v1H28zM31 30h1v1H31zM1 31h1v1H1zM11 35h1v1H11zM27 35h1v1H27zM1 38h1v1H1zM31 38h1v1H31zM28 39h1v1H28zM15 43h1v1H15zM24 45h1v1H24zM29 48h1v1H29zM35 48h1v1H35z"/>
    <path opacity="0.3137" d="M18 2h1v1H18zM31 7h1v1H31zM42 10h1v1H42zM45 12h1v1H45zM3 15h1v1H3zM4 17h1v1H4zM31 17h1v1H31zM21 21h1v1H21zM30 21h1v1H30zM35 21h1v1H35zM18 24h1v1H18zM43 24h1v1H43zM9 26h1v1H9zM24 28h1v1H24zM19 29h1v1H19zM26 30h1v1H26zM23 33h1v1H23zM19 35h2v1H19zM25 35h1v1H25zM30 35h1v1H30zM39 35h1v1H39zM31 37h1v1H31zM25 38h1v1H25zM37 43h1v1H37zM39 43h1v1H39zM13 44h1v1H13z"/>
    <path opacity="0.3529" d="M29 5h1v1H29zM37 7h1v1H37zM34 8h1v1H34zM32 14h1v1H32zM2 20h1v1H2zM28 22h1v1H28zM3 23h1v1H3zM42 28h1v1H42zM10 30h1v1H10zM22 30h1v1H22zM33 30h1v1H33zM41 33h1v1H41zM30 36h1v1H30zM5 40h1v1H5zM11 42h1v1H11zM39 42h1v1H39zM14 44h1v1H14zM26 47h1v1H26zM30 48h1v1H30z"/>
    <path opacity="0.3922" d="M19 4h1v1H19zM23 5h1v1H23zM28 6h1v1H28zM41 8h1v1H41zM5 13h1v1H5zM31 14h1v1H31zM35 15h1v1H35zM3 16h1v1H3zM43 17h1v1H43zM29 18h1v1H29zM23 19h1v1H23zM35 20h1v1H35zM42 21h1v1H42zM14 24h1v1H14zM1 25h1v1H1zM12 25h1v1H12zM34 25h1v1H34zM27 26h1v1H27zM41 27h1v1H41zM19 28h1v1H19zM0 29h1v1H0zM13 29h1v1H13zM15 29h1v1H15zM26 31h1v1H26zM23 32h1v1H23zM27 34h1v1H27zM13 35h1v1H13zM0 36h1v1H0zM20 37h1v1H20zM30 39h1v1H30zM38 39h1v1H38zM9 43h1v1H9zM14 43h1v1H14zM20 44h1v1H20zM18 45h1v1H18zM32 47h1v1H32zM31 48h1v1H31zM34 48h1v1H34z"/>
    <path opacity="0.4314" d="M33 6h1v1H33zM44 10h1v1H44zM45 13h1v1H45zM45 14h1v1H45zM34 17h1v1H34zM34 18h1v1H34zM44 19h1v1H44zM13 24h1v1H13zM42 27h1v1H42zM17 30h1v1H17zM11 33h1v1H11zM0 35h1v1H0zM40 37h1v1H40zM15 44h1v1H15zM27 46h1v1H27zM33 47h1v1H33zM32 48h2v1H32z"/>
    <path opacity="0.4706" d="M13 1h1v1H13zM16 3h1v1H16zM21 3h1v1H21zM6 4h1v1H6zM20 4h1v1H20zM25 4h1v1H25zM35 8h3v1H35zM6 9h1v1H6zM43 9h1v1H43zM4 11h1v1H4zM32 16h1v1H32zM3 17h1v1H3zM19 20h1v1H19zM30 20h1v1H30zM3 22h1v1H3zM42 22h1v1H42zM43 23h1v1H43zM20 24h1v1H20zM29 24h1v1H29zM34 24h1v1H34zM18 25h1v1H18zM23 25h1v1H23zM15 28h1v1H15zM8 30h1v1H8zM31 31h1v1H31zM40 31h1v1H40zM18 32h1v1H18zM16 34h1v1H16zM21 34h1v1H21zM12 35h1v1H12zM39 36h1v1H39zM29 39h1v1H29zM38 40h1v1H38zM38 45h1v1H38zM23 46h1v1H23zM37 46h1v1H37zM36 47h1v1H36z"/>
    <path opacity="0.5098" d="M28 5h1v1H28zM40 8h1v1H40zM41 9h1v1H41zM33 16h1v1H33zM2 26h1v1H2zM15 27h1v1H15zM28 29h1v1H28zM23 31h1v1H23zM27 33h1v1H27zM16 35h1v1H16zM18 35h1v1H18zM22 36h1v1H22zM31 36h1v1H31zM21 37h1v1H21zM1 40h1v1H1zM39 41h1v1H39zM19 44h1v1H19z"/>
    <path opacity="0.5490" d="M10 1h1v1H10zM8 2h1v1H8zM27 5h1v1H27zM32 7h1v1H32zM30 19h1v1H30zM34 19h1v1H34zM3 21h1v1H3zM19 21h1v1H19zM33 23h2v1H33zM12 24h1v1H12zM25 24h1v1H25zM14 26h1v1H14zM42 26h1v1H42zM27 27h1v1H27zM32 27h1v1H32zM1 30h1v1H1zM31 32h1v1H31zM41 32h1v1H41zM14 33h1v1H14zM32 33h1v1H32zM8 34h1v1H8zM27 37h1v1H27zM0 39h1v1H0zM4 40h1v1H4zM7 41h1v1H7zM6 42h1v1H6zM10 43h1v1H10zM23 45h1v1H23zM27 47h1v1H27z"/>
    <path opacity="0.5882" d="M11 1h2v1H11zM7 4h1v1H7zM24 5h1v1H24zM38 8h1v1H38zM44 13h1v1H44zM4 16h1v1H4zM43 18h1v1H43zM22 19h1v1H22zM25 20h1v1H25zM28 23h1v1H28zM42 23h1v1H42zM11 25h1v1H11zM1 26h1v1H1zM23 26h1v1H23zM19 27h1v1H19zM41 28h1v1H41zM10 29h1v1H10zM0 30h1v1H0zM18 31h1v1H18zM22 31h1v1H22zM26 32h1v1H26zM17 36h1v1H17zM25 36h1v1H25zM40 36h1v1H40zM30 37h1v1H30zM39 37h1v1H39zM3 40h1v1H3zM3 41h1v1H3zM19 45h1v1H19zM24 46h1v1H24zM31 47h1v1H31z"/>
    <path opacity="0.6275" d="M11 2h2v1H11zM8 3h1v1H8zM5 7h1v1H5zM6 8h1v1H6zM39 8h1v1H39zM4 12h1v1H4zM44 14h1v1H44zM30 15h1v1H30zM20 19h1v1H20zM2 21h1v1H2zM2 25h1v1H2zM9 27h1v1H9zM33 29h1v1H33zM41 31h1v1H41zM14 32h1v1H14zM22 35h1v1H22zM11 43h1v1H11zM13 43h1v1H13zM16 44h1v1H16zM22 45h1v1H22zM26 46h1v1H26zM36 46h1v1H36zM34 47h1v1H34z"/>
    <path opacity="0.6667" d="M6 5h1v1H6zM6 6h1v1H6zM29 6h2v1H29zM32 6h1v1H32zM6 7h1v1H6zM36 7h1v1H36zM5 12h1v1H5zM44 12h1v1H44zM30 18h1v1H30zM19 22h1v1H19zM34 22h1v1H34zM29 23h1v1H29zM13 25h1v1H13zM15 25h1v1H15zM1 27h1v1H1zM23 27h1v1H23zM10 28h1v1H10zM32 28h1v1H32zM41 30h1v1H41zM0 31h1v1H0zM8 31h1v1H8zM40 32h1v1H40zM10 33h1v1H10zM31 33h1v1H31zM0 34h1v1H0zM38 41h1v1H38zM12 43h1v1H12zM18 44h1v1H18zM37 44h1v1H37zM20 45h2v1H20zM25 46h1v1H25zM28 47h1v1H28z"/>
    <path opacity="0.7059" d="M10 2h1v1H10zM13 2h1v1H13zM17 2h1v1H17zM21 4h1v1H21zM24 4h1v1H24zM31 6h1v1H31zM33 7h1v1H33zM42 9h1v1H42zM4 13h1v1H4zM44 15h1v1H44zM31 16h1v1H31zM3 18h1v1H3zM44 18h1v1H44zM35 19h1v1H35zM43 19h1v1H43zM24 22h1v1H24zM43 22h1v1H43zM25 23h1v1H25zM10 24h1v1H10zM28 24h1v1H28zM15 26h1v1H15zM18 26h1v1H18zM10 27h1v1H10zM24 27h1v1H24zM1 28h1v1H1zM27 28h2v1H27zM1 29h1v1H1zM41 29h1v1H41zM23 30h1v1H23zM14 31h1v1H14zM17 31h1v1H17zM12 33h1v1H12zM40 33h1v1H40zM31 35h1v1H31zM40 35h1v1H40zM26 38h1v1H26zM7 42h1v1H7zM10 42h1v1H10zM38 44h1v1H38z"/>
    <path opacity="0.7451" d="M9 2h1v1H9zM14 2h1v1H14zM17 3h1v1H17zM26 5h1v1H26zM44 11h1v1H44zM4 15h1v1H4zM29 19h1v1H29zM3 20h1v1H3zM34 20h1v1H34zM29 22h1v1H29zM33 24h1v1H33zM42 24h1v1H42zM42 25h1v1H42zM33 28h1v1H33zM13 30h1v1H13zM18 30h1v1H18zM8 32h1v1H8zM22 34h1v1H22zM40 34h1v1H40zM0 37h1v1H0zM25 37h1v1H25zM27 38h2v1H27zM2 40h1v1H2zM6 41h1v1H6zM17 44h1v1H17z"/>
    <path opacity="0.7843" d="M15 2h2v1H15zM7 3h1v1H7zM20 3h1v1H20zM5 8h1v1H5zM43 10h1v1H43zM5 11h1v1H5zM4 14h1v1H4zM34 15h1v1H34zM34 16h1v1H34zM44 16h1v1H44zM44 17h1v1H44zM21 19h1v1H21zM34 21h1v1H34zM25 22h1v1H25zM20 23h1v1H20zM24 23h1v1H24zM2 24h1v1H2zM11 24h1v1H11zM33 27h1v1H33zM23 28h1v1H23zM32 29h1v1H32zM0 32h1v1H0zM22 32h1v1H22zM27 32h1v1H27zM32 32h1v1H32zM26 33h1v1H26zM31 34h1v1H31zM1 39h1v1H1zM39 40h1v1H39zM8 42h1v1H8zM29 47h2v1H29zM35 47h1v1H35z"/>
    <path opacity="0.8235" d="M18 3h1v1H18zM25 5h1v1H25zM35 7h1v1H35zM5 9h1v1H5zM5 10h1v1H5zM3 19h1v1H3zM24 21h2v1H24zM29 21h1v1H29zM2 22h1v1H2zM28 25h1v1H28zM33 25h1v1H33zM14 27h1v1H14zM28 27h1v1H28zM23 29h1v1H23zM27 29h1v1H27zM17 32h1v1H17zM0 33h1v1H0zM8 33h1v1H8zM22 33h1v1H22zM9 34h1v1H9zM17 34h1v1H17zM26 35h1v1H26zM18 36h1v1H18zM26 36h1v1H26zM29 38h2v1H29zM39 38h1v1H39zM9 42h1v1H9z"/>
    <path opacity="0.8627" d="M34 7h1v1H34zM30 16h1v1H30zM30 17h1v1H30zM29 20h1v1H29zM43 20h1v1H43zM43 21h1v1H43zM2 23h1v1H2zM19 23h1v1H19zM24 24h1v1H24zM10 26h1v1H10zM28 26h1v1H28zM33 26h1v1H33zM18 27h1v1H18zM9 28h1v1H9zM18 29h1v1H18zM14 30h1v1H14zM9 31h1v1H9zM27 31h1v1H27zM9 32h1v1H9zM17 33h1v1H17zM10 34h1v1H10zM13 34h1v1H13zM26 34h1v1H26zM21 35h1v1H21z"/>
    <path opacity="0.9020" d="M19 3h1v1H19zM35 16h1v1H35zM14 25h1v1H14zM19 26h1v1H19zM18 28h1v1H18zM9 30h1v1H9zM27 30h1v1H27zM32 30h1v1H32zM13 31h1v1H13zM32 31h1v1H32zM11 34h1v1H11zM0 38h1v1H0zM39 39h1v1H39zM4 41h2v1H4zM38 42h1v1H38zM38 43h1v1H38zM37 45h1v1H37z"/>
    <path opacity="0.9412" d="M22 4h2v1H22zM35 17h1v1H35zM35 18h1v1H35zM20 20h1v1H20zM22 20h1v1H22zM24 20h1v1H24zM20 22h1v1H20zM19 24h1v1H19zM10 25h1v1H10zM24 25h1v1H24zM24 26h1v1H24zM9 29h1v1H9zM13 32h1v1H13zM12 34h1v1H12zM17 35h1v1H17zM19 36h2v1H19zM26 37h1v1H26z"/>
    <path opacity="0.9804" d="M33 15h1v1H33zM23 20h1v1H23zM14 28h1v1H14zM14 29h1v1H14zM9 33h1v1H9zM13 33h1v1H13zM21 36h1v1H21z"/>
    <path opacity="1.0000" d="M31 15h2v1H31zM21 20h1v1H21zM20 21h1v1H20zM19 25h1v1H19z"/>
  </g>
</svg>
