<svg xmlns="http://www.w3.org/2000/svg" viewBox="0 0 52 50" role="img" aria-label="Card de carreira 2">
  <title>Card de carreira 2</title>
  <g fill="#00d4e8" fill-rule="nonzero" shape-rendering="geometricPrecision">
    <path opacity="0.0039" d="M40 1h1v1H40zM44 1h1v1H44zM10 3h1v1H10zM19 4h1v1H19zM45 4h1v1H45zM14 5h1v1H14zM35 5h1v1H35zM31 9h1v1H31zM39 9h1v1H39zM30 12h1v1H30zM38 12h1v1H38zM3 13h1v1H3zM15 13h1v1H15zM37 13h1v1H37zM44 13h1v1H44zM27 14h1v1H27zM17 16h1v1H17zM16 17h1v1H16zM18 17h1v1H18zM27 17h1v1H27zM30 19h1v1H30zM14 21h1v1H14zM21 21h1v1H21zM28 21h1v1H28zM37 21h1v1H37zM29 24h1v1H29zM49 24h1v1H49zM27 25h1v1H27zM46 25h1v1H46zM14 26h1v1H14zM37 27h1v1H37zM50 28h1v1H50zM3 29h1v1H3zM18 30h1v1H18zM47 30h1v1H47zM19 31h1v1H19zM26 32h1v1H26zM30 32h1v1H30zM4 33h1v1H4zM7 33h1v1H7zM14 33h1v1H14zM20 33h1v1H20zM34 33h1v1H34zM15 34h1v1H15zM24 34h1v1H24zM48 35h1v1H48zM30 36h1v1H30zM20 37h2v1H20zM27 37h1v1H27zM47 37h1v1H47zM46 38h1v1H46zM50 38h1v1H50zM37 40h1v1H37zM46 41h1v1H46zM37 43h1v1H37zM33 44h1v1H33zM7 45h1v1H7zM26 45h2v1H26zM22 46h1v1H22zM18 47h1v1H18zM12 48h3v1H12z"/>
    <path opacity="0.0392" d="M18 1h1v1H18zM33 1h1v1H33zM6 4h1v1H6zM13 5h1v1H13zM42 5h1v1H42zM43 9h1v1H43zM46 9h1v1H46zM46 10h1v1H46zM19 11h1v1H19zM28 11h1v1H28zM0 12h1v1H0zM17 12h1v1H17zM23 13h1v1H23zM3 14h1v1H3zM19 14h1v1H19zM35 14h1v1H35zM3 15h1v1H3zM18 15h1v1H18zM33 15h1v1H33zM12 17h1v1H12zM31 17h2v1H31zM35 17h1v1H35zM11 19h1v1H11zM26 19h1v1H26zM29 20h1v1H29zM48 20h1v1H48zM2 21h1v1H2zM19 21h1v1H19zM29 23h1v1H29zM27 24h1v1H27zM46 24h1v1H46zM3 28h1v1H3zM31 28h1v1H31zM24 29h1v1H24zM50 29h1v1H50zM50 30h1v1H50zM35 31h1v1H35zM13 32h1v1H13zM22 32h1v1H22zM28 33h1v1H28zM7 34h1v1H7zM23 34h1v1H23zM25 34h1v1H25zM22 37h2v1H22zM25 37h2v1H25zM50 37h1v1H50zM48 40h1v1H48zM32 41h1v1H32zM45 41h1v1H45zM24 43h1v1H24zM36 43h1v1H36zM25 45h1v1H25zM8 46h1v1H8z"/>
    <path opacity="0.0784" d="M25 0h1v1H25zM43 0h1v1H43zM19 1h2v1H19zM30 1h3v1H30zM15 2h1v1H15zM18 4h1v1H18zM42 4h1v1H42zM3 5h1v1H3zM11 5h2v1H11zM45 5h1v1H45zM36 6h1v1H36zM3 8h1v1H3zM0 9h1v1H0zM38 11h1v1H38zM46 11h1v1H46zM22 13h1v1H22zM24 13h2v1H24zM32 16h1v1H32zM47 16h1v1H47zM1 17h1v1H1zM24 18h1v1H24zM30 18h1v1H30zM4 20h1v1H4zM14 20h1v1H14zM20 20h1v1H20zM34 22h1v1H34zM34 23h1v1H34zM46 23h1v1H46zM34 24h1v1H34zM5 25h1v1H5zM21 25h1v1H21zM34 25h1v1H34zM22 26h1v1H22zM26 26h1v1H26zM37 26h1v1H37zM3 27h1v1H3zM14 27h1v1H14zM16 27h1v1H16zM11 28h1v1H11zM27 28h1v1H27zM6 29h1v1H6zM23 29h1v1H23zM25 29h1v1H25zM36 29h1v1H36zM47 29h1v1H47zM31 31h1v1H31zM50 31h1v1H50zM25 32h1v1H25zM19 33h1v1H19zM26 34h1v1H26zM18 36h1v1H18zM24 37h1v1H24zM43 39h1v1H43zM49 39h1v1H49zM8 40h1v1H8zM29 42h1v1H29zM40 42h1v1H40zM10 44h1v1H10zM32 44h1v1H32zM12 45h3v1H12z"/>
    <path opacity="0.1176" d="M22 3h1v1H22zM17 4h1v1H17zM6 6h1v1H6zM34 6h1v1H34zM1 7h1v1H1zM4 7h1v1H4zM0 10h1v1H0zM31 10h1v1H31zM0 11h1v1H0zM44 12h1v1H44zM3 16h1v1H3zM13 16h1v1H13zM45 17h1v1H45zM32 18h1v1H32zM17 19h1v1H17zM21 19h1v1H21zM36 19h1v1H36zM11 20h1v1H11zM22 21h1v1H22zM37 22h1v1H37zM46 22h1v1H46zM37 25h1v1H37zM49 25h1v1H49zM3 26h1v1H3zM17 28h1v1H17zM22 29h1v1H22zM30 29h1v1H30zM32 30h1v1H32zM28 31h1v1H28zM4 32h1v1H4zM23 32h2v1H23zM7 35h1v1H7zM5 36h1v1H5zM29 36h1v1H29zM6 40h1v1H6zM38 40h1v1H38zM33 41h1v1H33zM31 44h1v1H31z"/>
    <path opacity="0.1569" d="M37 0h2v1H37zM41 1h1v1H41zM26 2h1v1H26zM11 3h1v1H11zM45 6h1v1H45zM43 8h1v1H43zM21 13h1v1H21zM34 14h1v1H34zM29 15h1v1H29zM23 18h1v1H23zM11 21h1v1H11zM16 21h1v1H16zM48 21h1v1H48zM37 23h1v1H37zM37 24h1v1H37zM3 25h1v1H3zM29 25h1v1H29zM11 27h1v1H11zM28 27h1v1H28zM14 28h1v1H14zM26 29h1v1H26zM6 30h1v1H6zM12 30h1v1H12zM29 30h1v1H29zM20 31h1v1H20zM48 33h1v1H48zM22 34h1v1H22zM17 35h1v1H17zM31 35h1v1H31zM47 40h1v1H47zM34 41h2v1H34zM9 43h1v1H9zM7 44h1v1H7zM21 44h1v1H21zM29 44h2v1H29zM21 46h1v1H21zM10 47h1v1H10zM17 47h1v1H17z"/>
    <path opacity="0.1961" d="M36 0h1v1H36zM21 1h1v1H21zM16 2h1v1H16zM16 4h1v1H16zM2 6h1v1H2zM2 10h1v1H2zM2 11h1v1H2zM27 11h1v1H27zM2 12h1v1H2zM46 12h1v1H46zM28 14h1v1H28zM16 16h1v1H16zM25 18h1v1H25zM11 22h1v1H11zM21 22h1v1H21zM34 26h1v1H34zM49 26h1v1H49zM47 28h1v1H47zM15 30h1v1H15zM6 31h1v1H6zM16 31h1v1H16zM17 32h1v1H17zM34 32h1v1H34zM32 34h1v1H32zM19 36h1v1H19zM11 45h1v1H11zM15 45h1v1H15z"/>
    <path opacity="0.2353" d="M35 0h1v1H35zM39 0h1v1H39zM29 1h1v1H29zM17 2h1v1H17zM44 2h1v1H44zM42 3h1v1H42zM15 4h1v1H15zM4 5h1v1H4zM36 7h1v1H36zM43 7h1v1H43zM45 7h1v1H45zM45 8h1v1H45zM2 9h1v1H2zM31 11h1v1H31zM29 12h1v1H29zM14 15h1v1H14zM21 16h1v1H21zM19 17h1v1H19zM12 18h1v1H12zM33 19h1v1H33zM46 21h1v1H46zM5 26h1v1H5zM11 26h1v1H11zM47 27h1v1H47zM49 27h1v1H49zM33 29h1v1H33zM4 31h1v1H4zM33 33h1v1H33zM16 34h1v1H16zM28 36h1v1H28zM48 36h1v1H48zM50 36h1v1H50zM44 41h1v1H44zM30 42h1v1H30zM25 43h1v1H25zM35 43h1v1H35zM16 45h1v1H16zM24 45h1v1H24z"/>
    <path opacity="0.2745" d="M7 4h1v1H7zM43 6h1v1H43zM20 11h1v1H20zM31 12h1v1H31zM37 12h1v1H37zM30 13h1v1H30zM1 16h1v1H1zM27 18h1v1H27zM14 19h1v1H14zM29 19h1v1H29zM2 20h1v1H2zM4 21h1v1H4zM48 22h1v1H48zM11 23h1v1H11zM13 23h1v1H13zM13 24h1v1H13zM18 24h1v1H18zM16 26h1v1H16zM19 27h1v1H19zM31 27h1v1H31zM6 32h1v1H6zM18 33h1v1H18zM29 33h1v1H29zM21 34h1v1H21zM27 34h1v1H27zM44 39h1v1H44zM39 42h1v1H39zM16 47h1v1H16z"/>
    <path opacity="0.3137" d="M26 0h1v1H26zM34 0h1v1H34zM12 3h1v1H12zM21 3h1v1H21zM14 4h1v1H14zM35 6h1v1H35zM44 11h1v1H44zM16 13h1v1H16zM26 13h1v1H26zM29 14h1v1H29zM17 15h1v1H17zM26 16h1v1H26zM15 17h1v1H15zM47 17h1v1H47zM18 18h1v1H18zM26 18h1v1H26zM34 21h1v1H34zM13 22h1v1H13zM29 22h1v1H29zM13 25h1v1H13zM47 26h1v1H47zM20 28h1v1H20zM36 28h1v1H36zM4 30h1v1H4zM27 31h1v1H27zM50 32h1v1H50zM5 35h1v1H5zM7 36h1v1H7zM47 38h1v1H47zM8 41h1v1H8zM31 42h1v1H31zM7 43h1v1H7zM28 44h1v1H28zM17 45h1v1H17z"/>
    <path opacity="0.3529" d="M32 9h1v1H32zM36 13h1v1H36zM15 14h1v1H15zM3 17h1v1H3zM30 20h1v1H30zM36 20h1v1H36zM13 21h1v1H13zM29 21h1v1H29zM31 21h1v1H31zM16 22h1v1H16zM3 24h1v1H3zM47 25h1v1H47zM5 27h1v1H5zM49 28h1v1H49zM4 29h1v1H4zM35 30h1v1H35zM21 31h1v1H21zM20 36h1v1H20zM6 39h1v1H6zM9 46h1v1H9zM11 47h1v1H11zM15 47h1v1H15z"/>
    <path opacity="0.3922" d="M40 0h1v1H40zM13 3h2v1H13zM10 5h1v1H10zM5 6h1v1H5zM1 8h1v1H1zM33 8h1v1H33zM36 8h1v1H36zM26 11h1v1H26zM2 13h1v1H2zM1 15h1v1H1zM45 16h1v1H45zM28 17h1v1H28zM35 18h1v1H35zM16 23h1v1H16zM18 23h1v1H18zM48 23h1v1H48zM16 24h1v1H16zM11 25h1v1H11zM16 25h1v1H16zM13 26h1v1H13zM5 28h1v1H5zM12 29h1v1H12zM18 29h1v1H18zM21 29h1v1H21zM13 31h1v1H13zM15 33h1v1H15zM20 34h1v1H20zM48 39h1v1H48zM39 40h1v1H39zM36 41h1v1H36zM34 43h1v1H34zM8 45h1v1H8zM20 46h1v1H20zM12 47h1v1H12zM14 47h1v1H14z"/>
    <path opacity="0.4314" d="M27 0h1v1H27zM22 1h1v1H22zM25 2h1v1H25zM20 3h1v1H20zM44 3h1v1H44zM44 10h1v1H44zM21 11h1v1H21zM25 11h1v1H25zM18 12h1v1H18zM1 14h1v1H1zM12 19h1v1H12zM28 20h1v1H28zM18 25h1v1H18zM19 30h1v1H19zM26 31h1v1H26zM48 32h1v1H48zM30 35h1v1H30zM49 38h1v1H49zM13 47h1v1H13z"/>
    <path opacity="0.4706" d="M33 0h1v1H33zM8 4h1v1H8zM45 9h1v1H45zM22 11h3v1H22zM1 13h1v1H1zM22 18h1v1H22zM17 20h1v1H17zM27 21h1v1H27zM4 22h1v1H4zM11 24h1v1H11zM21 24h1v1H21zM48 24h1v1H48zM25 26h1v1H25zM36 27h1v1H36zM31 32h1v1H31zM50 33h1v1H50zM5 34h1v1H5zM50 34h1v1H50zM50 35h1v1H50zM27 36h1v1H27zM7 37h1v1H7zM45 39h1v1H45zM43 41h1v1H43zM8 42h1v1H8zM32 42h1v1H32zM38 42h1v1H38zM26 43h1v1H26zM28 43h1v1H28zM33 43h1v1H33zM22 44h1v1H22z"/>
    <path opacity="0.5098" d="M19 3h1v1H19zM44 4h1v1H44zM43 5h1v1H43zM3 7h1v1H3zM44 9h1v1H44zM38 10h1v1H38zM1 12h1v1H1zM20 13h1v1H20zM46 13h1v1H46zM33 14h1v1H33zM32 15h1v1H32zM13 17h1v1H13zM47 18h1v1H47zM26 20h1v1H26zM36 21h1v1H36zM4 23h1v1H4zM21 23h1v1H21zM4 24h1v1H4zM23 26h1v1H23zM34 27h1v1H34zM48 31h1v1H48zM14 32h1v1H14zM5 33h1v1H5zM48 37h1v1H48zM46 39h1v1H46zM27 43h1v1H27zM18 45h1v1H18zM23 45h1v1H23zM19 46h1v1H19z"/>
    <path opacity="0.5490" d="M28 0h2v1H28zM28 1h1v1H28zM43 1h1v1H43zM15 3h1v1H15zM9 4h1v1H9zM1 9h1v1H1zM18 14h1v1H18zM29 16h1v1H29zM2 19h1v1H2zM20 19h1v1H20zM46 20h1v1H46zM24 26h1v1H24zM29 26h1v1H29zM31 26h1v1H31zM4 28h1v1H4zM28 28h1v1H28zM5 29h1v1H5zM24 30h1v1H24zM48 30h1v1H48zM22 31h1v1H22zM32 31h1v1H32zM6 38h1v1H6zM46 40h1v1H46zM37 42h1v1H37zM29 43h1v1H29zM32 43h1v1H32zM13 46h1v1H13z"/>
    <path opacity="0.5882" d="M24 2h1v1H24zM44 5h1v1H44zM34 7h1v1H34zM45 15h1v1H45zM22 16h1v1H22zM33 17h1v1H33zM47 19h1v1H47zM31 22h1v1H31zM4 25h1v1H4zM13 27h1v1H13zM14 29h1v1H14zM25 31h1v1H25zM6 33h1v1H6zM28 34h1v1H28zM18 35h1v1H18zM24 35h2v1H24zM7 38h1v1H7zM40 40h1v1H40zM9 44h1v1H9zM27 44h1v1H27zM18 46h1v1H18z"/>
    <path opacity="0.6275" d="M30 0h1v1H30zM32 0h1v1H32zM18 2h1v1H18zM23 2h1v1H23zM16 3h3v1H16zM10 4h1v1H10zM5 5h1v1H5zM9 5h1v1H9zM3 6h2v1H3zM2 8h1v1H2zM1 10h1v1H1zM1 11h1v1H1zM31 13h1v1H31zM30 14h1v1H30zM45 14h1v1H45zM25 16h1v1H25zM3 18h1v1H3zM19 20h1v1H19zM23 21h1v1H23zM18 22h1v1H18zM3 23h1v1H3zM31 23h1v1H31zM31 24h1v1H31zM47 24h1v1H47zM26 25h1v1H26zM31 25h1v1H31zM36 26h1v1H36zM17 27h1v1H17zM12 28h1v1H12zM49 29h1v1H49zM23 30h1v1H23zM25 30h1v1H25zM5 32h1v1H5zM23 35h1v1H23zM7 39h1v1H7zM47 39h1v1H47zM36 42h1v1H36zM31 43h1v1H31z"/>
    <path opacity="0.6667" d="M42 0h1v1H42zM42 2h1v1H42zM13 4h1v1H13zM6 5h2v1H6zM38 9h1v1H38zM28 12h1v1H28zM45 13h1v1H45zM2 14h1v1H2zM31 16h1v1H31zM34 17h1v1H34zM2 18h1v1H2zM33 18h1v1H33zM13 20h1v1H13zM47 20h1v1H47zM30 28h1v1H30zM27 29h1v1H27zM48 29h1v1H48zM28 30h1v1H28zM26 35h1v1H26zM21 36h1v1H21zM6 37h1v1H6zM30 43h1v1H30zM23 44h1v1H23zM22 45h1v1H22zM12 46h1v1H12z"/>
    <path opacity="0.7059" d="M31 0h1v1H31zM23 1h1v1H23zM27 1h1v1H27zM11 4h1v1H11zM8 5h1v1H8zM2 7h1v1H2zM44 8h1v1H44zM32 10h1v1H32zM45 10h1v1H45zM37 11h1v1H37zM19 12h1v1H19zM45 12h1v1H45zM46 14h1v1H46zM14 16h1v1H14zM23 16h2v1H23zM30 17h1v1H30zM14 18h1v1H14zM21 18h1v1H21zM3 19h1v1H3zM35 19h1v1H35zM34 20h1v1H34zM36 22h1v1H36zM47 23h1v1H47zM22 25h1v1H22zM36 25h1v1H36zM48 25h1v1H48zM4 26h1v1H4zM4 27h1v1H4zM5 30h1v1H5zM23 31h2v1H23zM31 34h1v1H31zM49 34h1v1H49zM49 35h1v1H49zM48 38h1v1H48zM7 40h1v1H7zM42 41h1v1H42zM7 42h1v1H7zM8 43h1v1H8zM24 44h1v1H24zM10 45h1v1H10zM14 46h1v1H14z"/>
    <path opacity="0.7451" d="M22 2h1v1H22zM27 13h1v1H27zM16 15h1v1H16zM2 17h1v1H2zM20 17h1v1H20zM26 17h1v1H26zM29 18h1v1H29zM27 19h1v1H27zM46 19h1v1H46zM3 20h1v1H3zM12 20h1v1H12zM17 21h1v1H17zM47 21h1v1H47zM29 29h1v1H29zM35 29h1v1H35zM13 30h1v1H13zM33 30h1v1H33zM5 31h1v1H5zM34 31h1v1H34zM16 32h1v1H16zM17 34h1v1H17zM19 34h1v1H19zM22 35h1v1H22zM29 35h1v1H29zM6 36h1v1H6zM41 40h1v1H41zM35 42h1v1H35zM19 45h1v1H19zM21 45h1v1H21zM10 46h1v1H10zM17 46h1v1H17z"/>
    <path opacity="0.7843" d="M12 4h1v1H12zM44 6h1v1H44zM45 11h1v1H45zM23 12h2v1H23zM17 13h1v1H17zM19 13h1v1H19zM29 13h1v1H29zM35 13h1v1H35zM46 15h1v1H46zM15 16h1v1H15zM18 19h1v1H18zM3 21h1v1H3zM24 21h1v1H24zM3 22h1v1H3zM22 22h1v1H22zM26 22h1v1H26zM47 22h1v1H47zM36 23h1v1H36zM36 24h1v1H36zM18 26h1v1H18zM29 27h1v1H29zM48 28h1v1H48zM20 30h1v1H20zM26 30h1v1H26zM15 31h1v1H15zM32 33h1v1H32zM42 40h2v1H42zM7 41h1v1H7zM33 42h1v1H33zM25 44h2v1H25zM20 45h1v1H20z"/>
    <path opacity="0.8235" d="M41 0h1v1H41zM24 1h1v1H24zM26 1h1v1H26zM35 7h1v1H35zM44 7h1v1H44zM37 9h1v1H37zM22 12h1v1H22zM27 12h1v1H27zM36 12h1v1H36zM2 15h1v1H2zM2 16h1v1H2zM13 18h1v1H13zM46 18h1v1H46zM28 19h1v1H28zM25 21h1v1H25zM26 23h1v1H26zM48 26h1v1H48zM48 27h1v1H48zM19 28h1v1H19zM34 28h1v1H34zM22 30h1v1H22zM17 33h1v1H17zM30 33h1v1H30zM49 33h1v1H49zM6 34h1v1H6zM6 35h1v1H6zM26 36h1v1H26zM49 36h1v1H49zM49 37h1v1H49zM37 41h1v1H37zM40 41h2v1H40zM8 44h1v1H8z"/>
    <path opacity="0.8627" d="M25 1h1v1H25zM43 2h1v1H43zM43 4h1v1H43zM20 12h2v1H20zM25 12h1v1H25zM17 14h1v1H17zM15 15h1v1H15zM46 16h1v1H46zM46 17h1v1H46zM28 18h1v1H28zM13 19h1v1H13zM27 20h1v1H27zM12 21h1v1H12zM30 21h1v1H30zM12 22h1v1H12zM12 23h1v1H12zM30 23h1v1H30zM12 24h1v1H12zM26 24h1v1H26zM30 24h1v1H30zM18 28h1v1H18zM20 29h1v1H20zM49 30h1v1H49zM33 32h1v1H33zM16 33h1v1H16zM21 35h1v1H21zM45 40h1v1H45zM34 42h1v1H34zM11 46h1v1H11zM16 46h1v1H16z"/>
    <path opacity="0.9020" d="M42 1h1v1H42zM21 2h1v1H21zM33 9h1v1H33zM32 11h1v1H32zM26 12h1v1H26zM28 13h1v1H28zM34 13h1v1H34zM16 14h1v1H16zM32 14h1v1H32zM30 15h1v1H30zM14 17h1v1H14zM23 17h3v1H23zM29 17h1v1H29zM34 19h1v1H34zM35 20h1v1H35zM18 21h1v1H18zM26 21h1v1H26zM30 22h1v1H30zM12 25h1v1H12zM30 25h1v1H30zM17 26h1v1H17zM13 28h1v1H13zM35 28h1v1H35zM34 29h1v1H34zM21 30h1v1H21zM27 30h1v1H27zM27 35h1v1H27zM22 36h1v1H22zM44 40h1v1H44zM39 41h1v1H39zM9 45h1v1H9zM15 46h1v1H15z"/>
    <path opacity="0.9412" d="M19 2h2v1H19zM43 3h1v1H43zM34 8h2v1H34zM36 9h1v1H36zM18 13h1v1H18zM33 13h1v1H33zM31 15h1v1H31zM21 17h2v1H21zM20 18h1v1H20zM34 18h1v1H34zM19 19h1v1H19zM18 20h1v1H18zM17 22h1v1H17zM35 23h1v1H35zM22 24h1v1H22zM25 25h1v1H25zM30 26h1v1H30zM12 27h1v1H12zM18 27h1v1H18zM30 27h1v1H30zM19 29h1v1H19zM34 30h1v1H34zM14 31h1v1H14zM32 32h1v1H32zM49 32h1v1H49zM31 33h1v1H31zM18 34h1v1H18zM29 34h1v1H29zM19 35h1v1H19zM28 35h1v1H28zM38 41h1v1H38z"/>
    <path opacity="0.9804" d="M37 10h1v1H37zM30 16h1v1H30zM19 18h1v1H19zM35 21h1v1H35zM17 23h1v1H17zM22 23h1v1H22zM35 24h1v1H35zM23 25h1v1H23zM12 26h1v1H12zM35 27h1v1H35zM29 28h1v1H29zM13 29h1v1H13zM28 29h1v1H28zM14 30h1v1H14zM33 31h1v1H33zM49 31h1v1H49zM30 34h1v1H30zM20 35h1v1H20z"/>
    <path opacity="1.0000" d="M34 9h2v1H34zM33 10h4v1H33zM33 11h4v1H33zM32 12h4v1H32zM32 13h1v1H32zM31 14h1v1H31zM23 22h3v1H23zM35 22h1v1H35zM23 23h3v1H23zM17 24h1v1H17zM23 24h3v1H23zM17 25h1v1H17zM24 25h1v1H24zM35 25h1v1H35zM35 26h1v1H35zM15 32h1v1H15zM23 36h3v1H23z"/>
  </g>
</svg>
