<svg xmlns="http://www.w3.org/2000/svg" viewBox="0 0 51 46" role="img" aria-label="Card de carreira 4">
  <title>Card de carreira 4</title>
  <g fill="#00d4e8" fill-rule="nonzero" shape-rendering="geometricPrecision">
    <path opacity="0.0039" d="M8 0h1v1H8zM19 1h1v1H19zM10 3h1v1H10zM13 3h1v1H13zM29 3h1v1H29zM4 5h1v1H4zM36 5h1v1H36zM4 6h1v1H4zM8 6h1v1H8zM26 6h1v1H26zM8 7h1v1H8zM31 7h1v1H31zM45 8h1v1H45zM46 9h1v1H46zM20 10h1v1H20zM3 11h1v1H3zM12 12h1v1H12zM14 12h1v1H14zM25 13h1v1H25zM23 14h1v1H23zM2 15h1v1H2zM5 15h1v1H5zM46 16h1v1H46zM9 18h1v1H9zM27 18h1v1H27zM1 19h1v1H1zM31 19h1v1H31zM35 20h1v1H35zM9 21h1v1H9zM45 21h1v1H45zM4 22h1v1H4zM12 23h1v1H12zM25 23h1v1H25zM34 23h1v1H34zM42 23h1v1H42zM8 24h1v1H8zM26 24h2v1H26zM0 25h1v1H0zM3 25h1v1H3zM8 25h1v1H8zM44 25h1v1H44zM0 26h1v1H0zM36 26h1v1H36zM44 26h1v1H44zM0 27h1v1H0zM41 27h1v1H41zM44 27h1v1H44zM24 28h1v1H24zM35 29h1v1H35zM13 31h1v1H13zM34 33h1v1H34zM16 35h1v1H16zM2 36h1v1H2zM39 37h1v1H39zM6 38h1v1H6zM11 39h1v1H11zM2 40h1v1H2zM15 40h1v1H15zM18 40h1v1H18zM41 40h1v1H41zM5 41h1v1H5zM23 41h1v1H23zM38 41h1v1H38zM14 43h2v1H14zM32 43h1v1H32zM40 43h1v1H40zM40 44h1v1H40zM24 45h1v1H24z"/>
    <path opacity="0.0392" d="M23 2h1v1H23zM5 3h1v1H5zM28 3h1v1H28zM8 5h1v1H8zM24 5h1v1H24zM39 6h1v1H39zM4 7h1v1H4zM7 7h1v1H7zM32 7h1v1H32zM7 8h1v1H7zM7 9h1v1H7zM7 10h1v1H7zM6 11h1v1H6zM19 11h1v1H19zM29 11h1v1H29zM13 12h1v1H13zM30 12h1v1H30zM13 15h2v1H13zM32 16h1v1H32zM23 17h1v1H23zM9 19h1v1H9zM32 19h1v1H32zM43 19h1v1H43zM9 20h1v1H9zM16 22h1v1H16zM28 24h1v1H28zM8 26h1v1H8zM8 27h1v1H8zM25 27h3v1H25zM2 28h1v1H2zM22 28h1v1H22zM32 28h1v1H32zM43 31h1v1H43zM40 32h1v1H40zM1 33h1v1H1zM9 33h1v1H9zM1 34h1v1H1zM12 34h1v1H12zM3 37h1v1H3zM25 37h1v1H25zM29 38h1v1H29zM17 40h1v1H17zM6 41h1v1H6zM21 41h2v1H21zM23 42h1v1H23zM16 43h2v1H16zM30 43h2v1H30zM37 43h1v1H37zM21 44h1v1H21z"/>
    <path opacity="0.0784" d="M14 0h1v1H14zM22 2h1v1H22zM9 3h1v1H9zM14 3h2v1H14zM26 3h2v1H26zM21 4h1v1H21zM32 4h1v1H32zM27 6h1v1H27zM33 7h1v1H33zM43 7h1v1H43zM23 10h1v1H23zM3 12h1v1H3zM22 12h1v1H22zM44 12h1v1H44zM44 13h1v1H44zM5 14h1v1H5zM10 15h1v1H10zM15 15h1v1H15zM27 15h1v1H27zM2 16h1v1H2zM33 19h1v1H33zM4 21h1v1H4zM37 22h1v1H37zM29 24h1v1H29zM44 24h1v1H44zM17 25h1v1H17zM36 25h1v1H36zM11 26h1v1H11zM28 27h4v1H28zM23 28h1v1H23zM35 28h1v1H35zM41 28h1v1H41zM32 29h1v1H32zM12 31h1v1H12zM1 32h1v1H1zM24 34h1v1H24zM17 35h1v1H17zM30 35h1v1H30zM33 36h1v1H33zM30 38h2v1H30zM10 39h1v1H10zM20 41h1v1H20zM11 42h1v1H11zM22 42h1v1H22zM29 43h1v1H29zM35 44h1v1H35zM39 45h1v1H39z"/>
    <path opacity="0.1176" d="M16 3h1v1H16zM7 6h1v1H7zM34 7h1v1H34zM42 9h1v1H42zM16 15h1v1H16zM26 15h1v1H26zM46 15h1v1H46zM20 16h1v1H20zM12 17h1v1H12zM35 17h1v1H35zM12 18h1v1H12zM28 18h1v1H28zM12 19h1v1H12zM34 19h1v1H34zM1 20h1v1H1zM45 20h1v1H45zM14 21h1v1H14zM9 22h1v1H9zM19 23h1v1H19zM3 24h1v1H3zM30 24h3v1H30zM42 24h1v1H42zM0 28h1v1H0zM32 30h1v1H32zM43 30h1v1H43zM8 32h1v1H8zM16 32h1v1H16zM40 33h1v1H40zM1 35h1v1H1zM28 35h2v1H28zM42 35h1v1H42zM22 36h1v1H22zM26 37h1v1H26zM5 38h1v1H5zM39 38h1v1H39zM9 39h1v1H9zM14 40h1v1H14zM7 41h1v1H7zM38 42h1v1H38zM34 44h1v1H34zM36 44h1v1H36zM25 45h1v1H25z"/>
    <path opacity="0.1569" d="M13 0h1v1H13zM7 1h1v1H7zM18 1h1v1H18zM42 7h1v1H42zM4 8h1v1H4zM39 8h1v1H39zM21 10h1v1H21zM46 10h1v1H46zM28 11h1v1H28zM44 11h1v1H44zM5 13h1v1H5zM11 13h1v1H11zM26 13h1v1H26zM28 14h1v1H28zM44 14h1v1H44zM44 15h1v1H44zM44 16h1v1H44zM24 17h1v1H24zM4 20h1v1H4zM35 21h1v1H35zM13 23h1v1H13zM20 23h1v1H20zM33 24h1v1H33zM43 29h1v1H43zM20 33h1v1H20zM13 34h1v1H13zM40 34h1v1H40zM0 38h1v1H0zM1 39h1v1H1zM8 39h1v1H8zM41 39h1v1H41zM19 41h1v1H19zM12 42h1v1H12zM27 43h2v1H27z"/>
    <path opacity="0.1961" d="M9 0h1v1H9zM5 4h1v1H5zM28 6h1v1H28zM23 12h1v1H23zM31 16h1v1H31zM29 18h1v1H29zM1 21h1v1H1zM24 23h1v1H24zM35 27h1v1H35zM8 28h1v1H8zM43 28h1v1H43zM41 29h1v1H41zM11 31h1v1H11zM34 32h1v1H34zM14 34h1v1H14zM27 35h1v1H27zM40 42h1v1H40zM18 43h1v1H18zM26 43h1v1H26z"/>
    <path opacity="0.2353" d="M10 0h3v1H10zM6 2h1v1H6zM21 2h1v1H21zM8 4h1v1H8zM31 4h1v1H31zM35 5h1v1H35zM38 6h1v1H38zM35 7h1v1H35zM44 8h1v1H44zM17 13h1v1H17zM30 13h1v1H30zM22 14h1v1H22zM12 16h1v1H12zM2 17h1v1H2zM30 18h1v1H30zM45 19h1v1H45zM1 22h1v1H1zM1 23h1v1H1zM9 23h1v1H9zM18 23h1v1H18zM15 24h1v1H15zM11 25h1v1H11zM18 25h1v1H18zM32 27h1v1H32zM10 30h1v1H10zM15 32h1v1H15zM18 35h1v1H18zM2 37h1v1H2zM27 37h1v1H27zM32 37h1v1H32zM13 40h1v1H13zM8 41h1v1H8zM13 42h1v1H13zM22 44h1v1H22zM33 44h1v1H33z"/>
    <path opacity="0.2745" d="M11 2h2v1H11zM30 4h1v1H30zM25 5h1v1H25zM29 6h1v1H29zM22 10h1v1H22zM46 14h1v1H46zM10 16h1v1H10zM37 19h1v1H37zM1 24h1v1H1zM2 27h1v1H2zM41 30h1v1H41zM1 31h1v1H1zM41 31h1v1H41zM10 33h1v1H10zM42 34h1v1H42zM31 35h1v1H31zM7 39h1v1H7z"/>
    <path opacity="0.3137" d="M29 4h1v1H29zM30 6h1v1H30zM45 9h1v1H45zM6 10h1v1H6zM46 11h1v1H46zM18 13h1v1H18zM27 13h1v1H27zM46 13h1v1H46zM28 15h1v1H28zM25 17h1v1H25zM4 19h1v1H4zM37 21h1v1H37zM3 23h1v1H3zM9 24h1v1H9zM11 24h1v1H11zM42 25h1v1H42zM20 27h1v1H20zM10 29h1v1H10zM32 31h1v1H32zM14 32h1v1H14zM42 32h1v1H42zM42 33h1v1H42zM15 34h1v1H15zM23 34h1v1H23zM28 37h1v1H28zM39 39h1v1H39zM3 40h1v1H3zM12 40h1v1H12zM9 41h1v1H9zM18 41h1v1H18zM21 42h1v1H21zM25 43h1v1H25zM26 45h1v1H26z"/>
    <path opacity="0.3529" d="M17 1h1v1H17zM10 2h1v1H10zM17 3h1v1H17zM5 5h1v1H5zM31 6h1v1H31zM21 12h1v1H21zM46 12h1v1H46zM3 13h1v1H3zM30 14h1v1H30zM34 17h1v1H34zM44 17h1v1H44zM2 18h1v1H2zM45 18h1v1H45zM12 20h1v1H12zM43 20h1v1H43zM11 23h1v1H11zM25 24h1v1H25zM36 24h1v1H36zM11 33h1v1H11zM11 40h1v1H11zM39 44h1v1H39z"/>
    <path opacity="0.3922" d="M13 2h1v1H13zM25 3h1v1H25zM22 4h1v1H22zM7 5h1v1H7zM40 8h1v1H40zM43 9h1v1H43zM16 13h1v1H16zM30 15h1v1H30zM21 16h1v1H21zM10 17h1v1H10zM26 17h1v1H26zM4 18h1v1H4zM13 21h1v1H13zM3 22h1v1H3zM34 24h1v1H34zM19 25h1v1H19zM35 26h1v1H35zM0 29h1v1H0zM34 31h1v1H34zM42 31h1v1H42zM13 32h1v1H13zM41 32h1v1H41zM19 33h1v1H19zM33 35h1v1H33zM23 36h1v1H23zM41 38h1v1H41zM10 41h1v1H10zM32 44h1v1H32z"/>
    <path opacity="0.4314" d="M16 1h1v1H16zM34 5h1v1H34zM41 7h1v1H41zM4 9h1v1H4zM5 12h1v1H5zM24 12h1v1H24zM29 12h1v1H29zM27 17h1v1H27zM45 17h1v1H45zM31 18h1v1H31zM12 22h1v1H12zM35 22h1v1H35zM24 27h1v1H24zM43 27h1v1H43zM10 28h1v1H10zM34 30h1v1H34zM19 35h1v1H19zM1 36h1v1H1zM4 38h1v1H4zM19 43h1v1H19z"/>
    <path opacity="0.4706" d="M8 1h1v1H8zM15 1h1v1H15zM20 2h1v1H20zM18 3h1v1H18zM33 5h1v1H33zM37 6h1v1H37zM36 7h1v1H36zM41 8h1v1H41zM19 12h1v1H19zM12 13h1v1H12zM15 13h1v1H15zM17 15h1v1H17zM25 15h1v1H25zM45 16h1v1H45zM4 17h1v1H4zM33 17h1v1H33zM10 18h1v1H10zM36 18h1v1H36zM2 19h1v1H2zM35 19h1v1H35zM37 20h1v1H37zM44 23h1v1H44zM2 26h1v1H2zM42 26h1v1H42zM26 35h1v1H26zM29 37h1v1H29zM14 42h1v1H14zM23 44h1v1H23zM27 45h1v1H27zM38 45h1v1H38z"/>
    <path opacity="0.5098" d="M26 5h1v1H26zM6 9h1v1H6zM44 10h1v1H44zM14 13h1v1H14zM11 14h1v1H11zM10 20h1v1H10zM10 21h1v1H10zM15 22h1v1H15zM1 25h1v1H1zM9 25h1v1H9zM10 27h1v1H10zM42 27h1v1H42zM34 29h1v1H34zM18 33h1v1H18zM41 37h1v1H41zM38 43h1v1H38zM31 44h1v1H31zM37 44h1v1H37z"/>
    <path opacity="0.5490" d="M6 3h1v1H6zM6 7h1v1H6zM6 8h1v1H6zM27 11h1v1H27zM13 13h1v1H13zM14 23h1v1H14zM16 24h1v1H16zM2 25h1v1H2zM26 25h2v1H26zM33 28h1v1H33zM8 29h1v1H8zM1 30h1v1H1zM32 32h1v1H32zM12 33h1v1H12zM17 33h1v1H17zM33 34h1v1H33zM40 35h1v1H40zM10 40h1v1H10zM39 40h1v1H39zM11 41h1v1H11zM16 41h2v1H16zM30 44h1v1H30z"/>
    <path opacity="0.5882" d="M14 1h1v1H14zM28 4h1v1H28zM36 6h1v1H36zM25 12h1v1H25zM28 13h1v1H28zM3 14h1v1H3zM21 14h1v1H21zM12 15h1v1H12zM45 15h1v1H45zM22 16h1v1H22zM32 17h1v1H32zM10 19h1v1H10zM11 22h1v1H11zM28 25h1v1H28zM8 31h1v1H8zM10 31h1v1H10zM16 34h1v1H16zM22 34h1v1H22zM24 36h1v1H24zM41 36h1v1H41zM31 37h1v1H31zM4 40h1v1H4zM15 41h1v1H15zM40 41h1v1H40zM24 44h1v1H24z"/>
    <path opacity="0.6275" d="M8 3h1v1H8zM19 3h1v1H19zM23 4h1v1H23zM32 5h1v1H32zM6 6h1v1H6zM32 6h1v1H32zM40 7h1v1H40zM42 8h1v1H42zM20 11h1v1H20zM45 12h1v1H45zM45 13h1v1H45zM3 15h1v1H3zM30 16h1v1H30zM44 18h1v1H44zM3 21h1v1H3zM43 21h1v1H43zM17 23h1v1H17zM35 23h2v1H35zM29 25h1v1H29zM10 26h1v1H10zM34 28h1v1H34zM42 28h1v1H42zM0 30h1v1H0zM42 30h1v1H42zM9 32h1v1H9zM33 33h1v1H33zM30 36h1v1H30zM30 37h1v1H30zM5 40h1v1H5zM20 42h1v1H20zM20 43h1v1H20z"/>
    <path opacity="0.6667" d="M19 2h1v1H19zM27 5h1v1H27zM5 6h1v1H5zM37 7h1v1H37zM39 7h1v1H39zM4 10h1v1H4zM26 11h1v1H26zM13 14h1v1H13zM28 17h1v1H28zM23 23h1v1H23zM17 24h1v1H17zM30 25h1v1H30zM20 26h1v1H20zM33 29h1v1H33zM41 33h1v1H41zM20 35h1v1H20zM25 36h1v1H25zM6 40h2v1H6zM24 43h1v1H24zM39 43h1v1H39zM29 44h1v1H29zM35 45h1v1H35z"/>
    <path opacity="0.7059" d="M14 2h1v1H14zM20 3h1v1H20zM38 7h1v1H38zM43 8h1v1H43zM25 11h1v1H25zM14 14h1v1H14zM45 14h1v1H45zM11 15h1v1H11zM18 15h1v1H18zM3 16h2v1H3zM23 16h1v1H23zM10 22h1v1H10zM43 23h1v1H43zM2 24h1v1H2zM43 24h1v1H43zM31 25h2v1H31zM1 26h1v1H1zM43 26h1v1H43zM21 27h1v1H21zM1 29h1v1H1zM42 29h1v1H42zM0 31h1v1H0zM12 32h1v1H12zM16 33h1v1H16zM32 33h1v1H32zM21 34h1v1H21zM41 35h1v1H41zM0 37h1v1H0zM3 38h1v1H3zM2 39h1v1H2zM14 41h1v1H14zM39 41h1v1H39zM39 42h1v1H39zM25 44h1v1H25zM34 45h1v1H34zM36 45h1v1H36z"/>
    <path opacity="0.7451" d="M7 2h1v1H7zM9 2h1v1H9zM24 4h1v1H24zM45 10h1v1H45zM5 11h1v1H5zM26 12h1v1H26zM32 18h1v1H32zM35 18h1v1H35zM2 20h1v1H2zM43 22h2v1H43zM33 25h1v1H33zM9 26h1v1H9zM1 28h1v1H1zM26 36h1v1H26zM29 36h1v1H29zM6 39h1v1H6zM8 40h2v1H8zM15 42h1v1H15zM28 45h1v1H28z"/>
    <path opacity="0.7843" d="M13 1h1v1H13zM18 2h1v1H18zM21 3h1v1H21zM24 3h1v1H24zM7 4h1v1H7zM44 9h1v1H44zM45 11h1v1H45zM19 13h1v1H19zM24 16h1v1H24zM31 17h1v1H31zM44 19h1v1H44zM14 22h1v1H14zM21 23h1v1H21zM22 25h1v1H22zM43 25h1v1H43zM22 26h1v1H22zM1 27h1v1H1zM22 27h1v1H22zM33 27h1v1H33zM8 30h1v1H8zM33 32h1v1H33zM13 33h1v1H13zM32 34h1v1H32zM41 34h1v1H41zM21 35h1v1H21zM32 36h1v1H32zM1 37h1v1H1zM40 40h1v1H40zM12 41h1v1H12zM21 43h1v1H21z"/>
    <path opacity="0.8235" d="M9 1h1v1H9zM27 4h1v1H27zM6 5h1v1H6zM28 5h1v1H28zM35 6h1v1H35zM4 11h1v1H4zM22 11h3v1H22zM4 12h1v1H4zM29 13h1v1H29zM15 14h1v1H15zM19 15h1v1H19zM24 15h1v1H24zM27 16h1v1H27zM3 17h1v1H3zM34 18h1v1H34zM11 19h1v1H11zM44 20h1v1H44zM44 21h1v1H44zM36 22h1v1H36zM18 24h1v1H18zM10 25h1v1H10zM25 26h2v1H25zM23 27h1v1H23zM0 32h1v1H0zM20 34h1v1H20zM27 36h2v1H27zM13 41h1v1H13zM19 42h1v1H19z"/>
    <path opacity="0.8627" d="M11 1h2v1H11zM22 3h1v1H22zM6 4h1v1H6zM25 4h1v1H25zM31 5h1v1H31zM33 6h1v1H33zM5 10h1v1H5zM21 11h1v1H21zM27 12h1v1H27zM17 14h1v1H17zM11 16h1v1H11zM29 17h1v1H29zM11 18h1v1H11zM33 18h1v1H33zM36 19h1v1H36zM3 20h1v1H3zM12 21h1v1H12zM13 22h1v1H13zM15 23h1v1H15zM22 23h1v1H22zM19 24h1v1H19zM35 24h1v1H35zM20 25h1v1H20zM25 25h1v1H25zM35 25h1v1H35zM34 27h1v1H34zM9 30h1v1H9zM10 32h2v1H10zM14 33h2v1H14zM22 35h1v1H22zM25 35h1v1H25zM31 36h1v1H31zM40 36h1v1H40zM1 38h2v1H1zM40 39h1v1H40zM16 42h1v1H16zM22 43h1v1H22zM28 44h1v1H28zM38 44h1v1H38zM33 45h1v1H33zM37 45h1v1H37z"/>
    <path opacity="0.9020" d="M10 1h1v1H10zM15 2h1v1H15zM23 3h1v1H23zM5 7h1v1H5zM20 12h1v1H20zM4 13h1v1H4zM20 13h1v1H20zM16 14h1v1H16zM18 14h1v1H18zM29 14h1v1H29zM20 15h1v1H20zM23 15h1v1H23zM25 16h2v1H25zM11 17h1v1H11zM30 17h1v1H30zM36 20h1v1H36zM36 21h1v1H36zM2 23h1v1H2zM16 23h1v1H16zM20 24h1v1H20zM34 25h1v1H34zM23 26h1v1H23zM9 29h1v1H9zM33 30h1v1H33zM23 35h1v1H23zM32 35h1v1H32zM0 36h1v1H0zM40 38h1v1H40zM3 39h1v1H3zM18 42h1v1H18zM23 43h1v1H23zM26 44h1v1H26z"/>
    <path opacity="0.9412" d="M16 2h2v1H16zM26 4h1v1H26zM29 5h1v1H29zM34 6h1v1H34zM5 9h1v1H5zM28 12h1v1H28zM4 14h1v1H4zM12 14h1v1H12zM4 15h1v1H4zM21 15h2v1H21zM29 15h1v1H29zM3 18h1v1H3zM2 21h1v1H2zM10 23h1v1H10zM10 24h1v1H10zM22 24h1v1H22zM24 24h1v1H24zM21 25h1v1H21zM23 25h1v1H23zM21 26h1v1H21zM27 26h1v1H27zM9 27h1v1H9zM9 28h1v1H9zM9 31h1v1H9zM33 31h1v1H33zM0 33h1v1H0zM17 34h1v1H17zM19 34h1v1H19zM0 35h1v1H0zM24 35h1v1H24zM40 37h1v1H40zM5 39h1v1H5zM17 42h1v1H17zM29 45h1v1H29zM32 45h1v1H32z"/>
    <path opacity="0.9804" d="M8 2h1v1H8zM7 3h1v1H7zM20 14h1v1H20zM23 24h1v1H23zM0 34h1v1H0zM4 39h1v1H4zM27 44h1v1H27z"/>
    <path opacity="1.0000" d="M30 5h1v1H30zM5 8h1v1H5zM19 14h1v1H19zM28 16h2v1H28zM3 19h1v1H3zM11 20h1v1H11zM11 21h1v1H11zM2 22h1v1H2zM21 24h1v1H21zM24 25h1v1H24zM24 26h1v1H24zM28 26h7v1H28zM18 34h1v1H18zM30 45h2v1H30z"/>
  </g>
</svg>
