<svg xmlns="http://www.w3.org/2000/svg" viewBox="0 0 49 53" role="img" aria-label="Card de carreira 3">
  <title>Card de carreira 3</title>
  <g fill="#00d4e8" fill-rule="nonzero" shape-rendering="geometricPrecision">
    <path opacity="0.0039" d="M31 0h1v1H31zM27 1h1v1H27zM39 1h1v1H39zM19 2h1v1H19zM40 2h1v1H40zM19 5h1v1H19zM1 6h1v1H1zM15 6h1v1H15zM31 6h1v1H31zM20 8h1v1H20zM39 9h1v1H39zM8 10h1v1H8zM25 10h1v1H25zM32 10h1v1H32zM6 12h1v1H6zM43 12h1v1H43zM43 13h1v1H43zM25 14h1v1H25zM33 14h1v1H33zM6 15h1v1H6zM23 15h1v1H23zM16 16h1v1H16zM23 16h1v1H23zM1 18h1v1H1zM10 22h1v1H10zM12 22h1v1H12zM29 22h2v1H29zM44 22h1v1H44zM37 23h1v1H37zM22 25h1v1H22zM16 26h2v1H16zM27 26h1v1H27zM23 27h1v1H23zM35 28h1v1H35zM38 29h1v1H38zM24 30h1v1H24zM27 30h1v1H27zM43 32h1v1H43zM30 33h1v1H30zM4 34h1v1H4zM9 34h1v1H9zM17 34h1v1H17zM36 34h1v1H36zM1 35h1v1H1zM4 35h1v1H4zM19 37h1v1H19zM39 37h1v1H39zM11 42h1v1H11zM21 42h3v1H21zM39 42h1v1H39zM15 43h1v1H15zM35 43h1v1H35zM43 44h1v1H43zM32 46h4v1H32zM13 47h1v1H13zM28 47h1v1H28zM4 48h1v1H4zM23 48h1v1H23zM5 49h1v1H5zM7 50h2v1H7zM11 50h3v1H11z"/>
    <path opacity="0.0392" d="M37 0h1v1H37zM20 2h1v1H20zM15 3h1v1H15zM28 3h1v1H28zM14 6h1v1H14zM0 7h1v1H0zM25 7h1v1H25zM39 8h1v1H39zM42 8h1v1H42zM30 9h1v1H30zM24 10h1v1H24zM35 10h1v1H35zM17 11h1v1H17zM0 12h1v1H0zM0 13h1v1H0zM9 13h1v1H9zM40 13h1v1H40zM14 14h1v1H14zM19 14h1v1H19zM26 14h1v1H26zM43 14h1v1H43zM43 15h1v1H43zM31 16h1v1H31zM9 17h1v1H9zM24 17h1v1H24zM27 17h1v1H27zM36 18h1v1H36zM41 18h1v1H41zM28 19h1v1H28zM16 22h1v1H16zM19 22h1v1H19zM23 22h1v1H23zM25 22h1v1H25zM27 22h2v1H27zM2 24h1v1H2zM23 24h1v1H23zM12 26h1v1H12zM14 26h2v1H14zM45 27h1v1H45zM8 28h1v1H8zM11 28h1v1H11zM33 28h1v1H33zM0 29h1v1H0zM3 29h1v1H3zM29 29h1v1H29zM22 30h2v1H22zM28 30h1v1H28zM46 32h1v1H46zM39 34h1v1H39zM39 35h1v1H39zM4 36h1v1H4zM39 36h1v1H39zM4 37h1v1H4zM35 37h1v1H35zM28 38h1v1H28zM38 38h1v1H38zM44 38h1v1H44zM2 39h1v1H2zM23 39h1v1H23zM27 41h1v1H27zM46 41h1v1H46zM20 42h1v1H20zM31 44h1v1H31zM40 45h1v1H40zM6 46h1v1H6zM18 46h1v1H18zM18 49h1v1H18zM9 50h2v1H9z"/>
    <path opacity="0.0784" d="M21 2h3v1H21zM33 2h4v1H33zM23 4h1v1H23zM41 4h1v1H41zM18 5h1v1H18zM2 6h1v1H2zM12 6h2v1H12zM39 6h1v1H39zM33 7h1v1H33zM39 7h1v1H39zM3 8h1v1H3zM21 8h1v1H21zM34 8h1v1H34zM29 9h1v1H29zM31 9h1v1H31zM9 10h2v1H9zM22 10h2v1H22zM0 11h1v1H0zM35 11h1v1H35zM12 12h1v1H12zM35 12h1v1H35zM6 13h1v1H6zM35 13h1v1H35zM27 14h2v1H27zM31 14h1v1H31zM13 15h1v1H13zM43 16h1v1H43zM43 17h1v1H43zM20 19h1v1H20zM32 19h1v1H32zM14 20h1v1H14zM34 20h1v1H34zM32 21h1v1H32zM26 22h1v1H26zM10 23h1v1H10zM21 25h1v1H21zM35 25h1v1H35zM28 26h1v1H28zM35 26h1v1H35zM8 27h1v1H8zM35 27h1v1H35zM0 28h1v1H0zM19 28h1v1H19zM28 29h1v1H28zM29 30h1v1H29zM43 30h1v1H43zM14 31h1v1H14zM16 31h1v1H16zM43 31h1v1H43zM33 32h1v1H33zM29 33h1v1H29zM36 33h1v1H36zM1 34h1v1H1zM18 34h1v1H18zM26 35h1v1H26zM23 36h1v1H23zM36 36h1v1H36zM18 37h1v1H18zM44 37h1v1H44zM12 38h1v1H12zM29 38h1v1H29zM43 41h1v1H43zM40 42h1v1H40zM3 43h1v1H3zM13 43h1v1H13zM44 43h1v1H44zM27 45h1v1H27zM4 47h1v1H4zM22 48h1v1H22z"/>
    <path opacity="0.1176" d="M32 0h1v1H32zM28 1h1v1H28zM11 4h1v1H11zM7 7h1v1H7zM26 7h1v1H26zM16 9h1v1H16zM42 9h1v1H42zM11 10h1v1H11zM0 14h1v1H0zM6 14h1v1H6zM29 14h1v1H29zM26 17h1v1H26zM16 18h1v1H16zM1 19h1v1H1zM25 20h1v1H25zM13 21h1v1H13zM15 23h1v1H15zM23 23h1v1H23zM42 23h1v1H42zM37 24h1v1H37zM8 26h1v1H8zM13 26h1v1H13zM29 26h1v1H29zM0 27h1v1H0zM11 29h1v1H11zM43 29h1v1H43zM3 30h1v1H3zM21 30h1v1H21zM30 30h1v1H30zM38 30h1v1H38zM9 33h1v1H9zM46 33h1v1H46zM19 34h1v1H19zM10 38h1v1H10zM30 38h1v1H30zM36 39h1v1H36zM31 40h1v1H31zM26 41h1v1H26zM41 42h1v1H41zM45 42h1v1H45zM14 43h1v1H14zM5 44h1v1H5zM39 45h1v1H39zM19 46h1v1H19zM7 47h1v1H7zM14 47h1v1H14zM27 47h1v1H27zM17 49h1v1H17z"/>
    <path opacity="0.1569" d="M32 2h1v1H32zM16 3h1v1H16zM7 5h1v1H7zM39 5h1v1H39zM1 9h1v1H1zM21 10h1v1H21zM7 11h1v1H7zM40 12h1v1H40zM33 13h1v1H33zM35 14h1v1H35zM24 15h1v1H24zM17 16h1v1H17zM13 18h1v1H13zM7 19h1v1H7zM29 19h1v1H29zM12 23h1v1H12zM10 24h1v1H10zM0 25h1v1H0zM2 25h1v1H2zM8 25h1v1H8zM12 25h1v1H12zM20 25h1v1H20zM0 26h1v1H0zM30 26h1v1H30zM24 27h1v1H24zM43 28h1v1H43zM45 28h1v1H45zM27 29h1v1H27zM11 30h1v1H11zM31 30h1v1H31zM11 31h1v1H11zM36 32h1v1H36zM27 33h2v1H27zM20 34h1v1H20zM44 36h1v1H44zM15 37h1v1H15zM17 37h1v1H17zM31 38h1v1H31zM24 39h1v1H24zM44 39h1v1H44zM19 40h1v1H19zM46 40h1v1H46zM15 41h1v1H15zM36 43h1v1H36zM20 46h3v1H20zM6 49h1v1H6zM16 49h1v1H16z"/>
    <path opacity="0.1961" d="M36 0h1v1H36zM17 3h1v1H17zM17 5h1v1H17zM3 6h1v1H3zM27 7h1v1H27zM22 8h1v1H22zM28 9h1v1H28zM42 10h1v1H42zM15 17h1v1H15zM25 17h1v1H25zM41 17h1v1H41zM9 18h1v1H9zM21 20h1v1H21zM22 21h1v1H22zM16 23h1v1H16zM44 23h1v1H44zM8 24h1v1H8zM12 24h1v1H12zM10 25h1v1H10zM33 30h1v1H33zM3 31h1v1H3zM38 31h1v1H38zM9 32h1v1H9zM1 33h1v1H1zM21 34h1v1H21zM26 34h1v1H26zM46 34h1v1H46zM16 37h1v1H16zM2 38h1v1H2zM32 38h1v1H32zM24 41h2v1H24zM37 45h2v1H37zM31 46h1v1H31zM21 48h1v1H21zM15 49h1v1H15z"/>
    <path opacity="0.2353" d="M33 0h1v1H33zM18 3h1v1H18zM27 3h1v1H27zM38 3h1v1H38zM22 4h1v1H22zM16 5h1v1H16zM41 5h1v1H41zM11 6h1v1H11zM28 7h2v1H28zM32 7h1v1H32zM26 9h2v1H26zM34 9h1v1H34zM16 11h1v1H16zM40 11h1v1H40zM42 11h1v1H42zM11 12h1v1H11zM30 14h1v1H30zM30 16h1v1H30zM43 18h1v1H43zM17 21h2v1H17zM31 21h1v1H31zM35 24h1v1H35zM18 25h2v1H18zM37 25h1v1H37zM33 26h1v1H33zM25 27h1v1H25zM20 28h1v1H20zM32 28h1v1H32zM15 29h1v1H15zM26 29h1v1H26zM15 31h1v1H15zM36 31h1v1H36zM3 32h1v1H3zM11 32h1v1H11zM32 32h1v1H32zM15 35h1v1H15zM44 35h1v1H44zM46 35h1v1H46zM22 36h1v1H22zM46 36h1v1H46zM46 37h1v1H46zM4 38h1v1H4zM46 38h1v1H46zM46 39h1v1H46zM30 40h1v1H30zM44 40h1v1H44zM13 41h1v1H13zM19 42h1v1H19zM42 42h1v1H42zM32 44h1v1H32zM36 45h1v1H36zM15 47h1v1H15zM5 48h1v1H5z"/>
    <path opacity="0.2745" d="M34 0h1v1H34zM40 3h1v1H40zM30 7h1v1H30zM40 10h1v1H40zM33 12h1v1H33zM13 16h1v1H13zM17 18h1v1H17zM14 19h1v1H14zM30 19h1v1H30zM36 19h1v1H36zM17 23h1v1H17zM0 24h1v1H0zM36 29h1v1H36zM45 29h1v1H45zM32 30h1v1H32zM36 30h1v1H36zM9 31h1v1H9zM1 32h1v1H1zM38 32h1v1H38zM38 33h1v1H38zM44 34h1v1H44zM25 39h1v1H25zM42 44h1v1H42zM26 47h1v1H26z"/>
    <path opacity="0.3137" d="M35 0h1v1H35zM29 1h1v1H29zM38 1h1v1H38zM19 3h1v1H19zM12 4h1v1H12zM21 4h1v1H21zM15 5h1v1H15zM31 7h1v1H31zM2 8h1v1H2zM17 9h1v1H17zM10 12h1v1H10zM42 12h1v1H42zM18 14h1v1H18zM25 15h1v1H25zM31 15h1v1H31zM24 16h1v1H24zM13 17h1v1H13zM31 19h1v1H31zM34 19h1v1H34zM1 20h1v1H1zM32 20h1v1H32zM19 21h1v1H19zM25 21h1v1H25zM30 21h1v1H30zM15 22h1v1H15zM18 23h1v1H18zM2 26h1v1H2zM10 26h1v1H10zM26 27h1v1H26zM33 27h1v1H33zM25 29h1v1H25zM20 30h1v1H20zM1 31h1v1H1zM27 31h1v1H27zM3 33h1v1H3zM44 33h1v1H44zM16 35h1v1H16zM10 37h1v1H10zM12 39h1v1H12zM26 39h2v1H26zM35 39h1v1H35zM3 42h1v1H3zM23 46h1v1H23zM16 47h1v1H16zM20 48h1v1H20z"/>
    <path opacity="0.3529" d="M37 2h1v1H37zM41 6h1v1H41zM6 7h1v1H6zM23 8h1v1H23zM25 9h1v1H25zM40 9h1v1H40zM0 15h1v1H0zM29 16h1v1H29zM41 16h1v1H41zM9 19h1v1H9zM26 20h1v1H26zM42 22h1v1H42zM44 24h1v1H44zM17 25h1v1H17zM31 26h1v1H31zM37 26h1v1H37zM10 27h1v1H10zM43 27h1v1H43zM1 30h1v1H1zM9 30h1v1H9zM14 30h1v1H14zM33 31h1v1H33zM21 36h1v1H21zM2 37h1v1H2zM38 37h1v1H38zM4 39h1v1H4zM29 40h1v1H29zM37 43h1v1H37zM17 47h1v1H17z"/>
    <path opacity="0.3922" d="M20 4h1v1H20zM1 7h1v1H1zM32 9h1v1H32zM0 10h1v1H0zM12 10h1v1H12zM33 11h1v1H33zM19 15h1v1H19zM8 23h1v1H8zM2 27h1v1H2zM27 27h1v1H27zM2 28h1v1H2zM21 28h1v1H21zM31 28h1v1H31zM36 28h1v1H36zM9 29h1v1H9zM45 30h1v1H45zM31 32h1v1H31zM22 34h1v1H22zM17 35h1v1H17zM20 36h1v1H20zM20 40h1v1H20zM28 40h1v1H28zM11 41h1v1H11zM38 43h2v1H38zM33 44h1v1H33zM41 44h1v1H41zM5 45h1v1H5zM19 48h1v1H19z"/>
    <path opacity="0.4314" d="M24 2h1v1H24zM26 3h1v1H26zM13 4h1v1H13zM19 4h1v1H19zM8 5h1v1H8zM41 7h1v1H41zM0 8h1v1H0zM24 8h1v1H24zM20 10h1v1H20zM8 11h1v1H8zM8 14h1v1H8zM15 14h1v1H15zM41 15h1v1H41zM28 16h1v1H28zM7 18h1v1H7zM1 21h1v1H1zM13 22h1v1H13zM22 24h1v1H22zM37 27h1v1H37zM30 28h1v1H30zM37 28h1v1H37zM45 31h1v1H45zM44 32h1v1H44zM25 35h1v1H25zM37 38h1v1H37zM45 41h1v1H45zM28 45h1v1H28zM4 46h1v1H4zM25 47h1v1H25zM14 49h1v1H14z"/>
    <path opacity="0.4706" d="M31 2h1v1H31zM14 4h1v1H14zM39 4h1v1H39zM25 8h1v1H25zM30 8h1v1H30zM18 9h1v1H18zM33 10h2v1H33zM15 11h1v1H15zM42 13h1v1H42zM41 14h1v1H41zM26 15h1v1H26zM35 15h1v1H35zM34 18h1v1H34zM43 19h1v1H43zM9 20h1v1H9zM27 20h1v1H27zM36 20h1v1H36zM19 23h1v1H19zM9 28h2v1H9zM22 28h1v1H22zM1 29h1v1H1zM24 29h1v1H24zM37 29h1v1H37zM30 32h1v1H30zM11 33h1v1H11zM38 34h1v1H38zM2 36h1v1H2zM19 36h1v1H19zM33 38h1v1H33zM28 39h1v1H28zM34 39h1v1H34zM4 40h1v1H4zM16 41h1v1H16zM23 41h1v1H23zM18 42h1v1H18zM35 45h1v1H35zM9 48h2v1H9z"/>
    <path opacity="0.5098" d="M30 1h1v1H30zM39 2h1v1H39zM15 4h1v1H15zM4 6h1v1H4zM5 7h1v1H5zM24 9h1v1H24zM9 12h1v1H9zM0 16h1v1H0zM15 16h1v1H15zM19 19h1v1H19zM29 21h1v1H29zM42 21h1v1H42zM1 22h1v1H1zM20 22h1v1H20zM0 23h1v1H0zM44 25h1v1H44zM29 28h1v1H29zM2 29h1v1H2zM16 29h1v1H16zM45 32h1v1H45zM37 34h1v1H37zM37 35h1v1H37zM10 36h1v1H10zM21 40h1v1H21zM27 40h1v1H27zM43 43h1v1H43zM34 44h1v1H34zM40 44h1v1H40zM6 47h1v1H6zM18 47h1v1H18zM24 47h1v1H24zM11 48h1v1H11zM18 48h1v1H18z"/>
    <path opacity="0.5490" d="M37 1h1v1H37zM20 3h1v1H20zM10 6h1v1H10zM33 8h1v1H33zM40 8h2v1H40zM8 15h1v1H8zM14 15h1v1H14zM27 16h1v1H27zM34 17h1v1H34zM28 20h1v1H28zM9 21h1v1H9zM16 21h1v1H16zM22 22h1v1H22zM1 23h1v1H1zM16 25h1v1H16zM44 26h1v1H44zM9 27h1v1H9zM23 28h1v1H23zM28 31h1v1H28zM3 34h1v1H3zM2 35h1v1H2zM36 37h1v1H36zM45 37h1v1H45zM45 38h1v1H45zM32 39h2v1H32zM12 40h1v1H12zM22 40h1v1H22zM3 41h1v1H3zM12 42h1v1H12zM30 46h1v1H30zM23 47h1v1H23zM8 48h1v1H8zM12 48h1v1H12z"/>
    <path opacity="0.5882" d="M35 1h1v1H35zM24 3h2v1H24zM18 4h1v1H18zM9 5h1v1H9zM14 5h1v1H14zM4 7h1v1H4zM26 8h1v1H26zM29 8h1v1H29zM31 8h1v1H31zM19 9h1v1H19zM41 13h1v1H41zM34 16h1v1H34zM20 20h1v1H20zM14 21h1v1H14zM9 22h1v1H9zM35 23h1v1H35zM1 24h1v1H1zM15 24h1v1H15zM32 26h1v1H32zM43 26h1v1H43zM19 30h1v1H19zM29 32h1v1H29zM10 35h1v1H10zM18 36h1v1H18zM23 40h1v1H23zM4 41h1v1H4zM44 42h1v1H44zM35 44h1v1H35zM5 46h1v1H5zM24 46h1v1H24zM13 48h1v1H13z"/>
    <path opacity="0.6275" d="M31 1h1v1H31zM34 1h1v1H34zM36 1h1v1H36zM25 2h1v1H25zM23 3h1v1H23zM10 5h1v1H10zM3 7h1v1H3zM20 9h1v1H20zM14 11h1v1H14zM34 11h1v1H34zM34 14h1v1H34zM42 14h1v1H42zM34 15h1v1H34zM18 17h1v1H18zM42 20h2v1H42zM36 21h1v1H36zM8 22h1v1H8zM9 23h1v1H9zM21 24h1v1H21zM9 26h1v1H9zM44 27h1v1H44zM1 28h1v1H1zM28 28h1v1H28zM37 30h1v1H37zM44 31h1v1H44zM37 33h1v1H37zM10 34h1v1H10zM18 35h1v1H18zM24 35h1v1H24zM15 36h1v1H15zM37 36h1v1H37zM29 39h1v1H29zM17 41h1v1H17zM44 41h1v1H44zM17 42h1v1H17zM40 43h1v1H40zM29 45h1v1H29zM22 47h1v1H22z"/>
    <path opacity="0.6667" d="M28 2h1v1H28zM30 2h1v1H30zM21 3h1v1H21zM16 4h1v1H16zM40 4h1v1H40zM1 8h1v1H1zM21 9h1v1H21zM13 10h1v1H13zM19 10h1v1H19zM13 11h1v1H13zM7 12h1v1H7zM8 13h1v1H8zM27 15h1v1H27zM0 17h1v1H0zM42 19h1v1H42zM36 22h1v1H36zM28 27h1v1H28zM17 29h1v1H17zM27 32h1v1H27zM45 33h1v1H45zM2 34h1v1H2zM23 34h1v1H23zM38 35h1v1H38zM38 36h1v1H38zM30 39h2v1H30zM45 39h1v1H45zM3 40h1v1H3zM11 40h1v1H11zM26 40h1v1H26zM45 40h1v1H45zM4 42h1v1H4zM4 43h1v1H4zM4 44h1v1H4zM5 47h1v1H5zM14 48h1v1H14zM7 49h1v1H7z"/>
    <path opacity="0.7059" d="M32 1h2v1H32zM26 2h2v1H26zM29 2h1v1H29zM22 3h1v1H22zM17 4h1v1H17zM11 5h1v1H11zM2 7h1v1H2zM40 7h1v1H40zM27 8h2v1H27zM0 9h1v1H0zM23 9h1v1H23zM41 9h1v1H41zM12 11h1v1H12zM34 12h1v1H34zM34 13h1v1H34zM16 15h1v1H16zM8 16h1v1H8zM26 16h1v1H26zM35 16h1v1H35zM7 17h1v1H7zM14 18h1v1H14zM42 18h1v1H42zM0 22h1v1H0zM14 23h1v1H14zM36 23h1v1H36zM9 24h1v1H9zM1 25h1v1H1zM9 25h1v1H9zM36 27h1v1H36zM44 28h1v1H44zM18 29h1v1H18zM37 31h1v1H37zM37 32h1v1H37zM10 33h1v1H10zM23 35h1v1H23zM45 36h1v1H45zM34 38h1v1H34zM11 39h1v1H11zM24 40h1v1H24zM18 41h1v1H18zM13 42h4v1H13zM4 45h1v1H4zM30 45h2v1H30zM34 45h1v1H34zM25 46h1v1H25zM29 46h1v1H29zM6 48h2v1H6zM17 48h1v1H17z"/>
    <path opacity="0.7451" d="M5 6h1v1H5zM22 9h1v1H22zM18 10h1v1H18zM9 11h1v1H9zM41 12h1v1H41zM17 14h1v1H17zM42 15h1v1H42zM18 16h1v1H18zM42 17h1v1H42zM0 18h1v1H0zM15 18h1v1H15zM19 18h1v1H19zM29 20h1v1H29zM21 21h1v1H21zM28 21h1v1H28zM36 24h1v1H36zM24 28h1v1H24zM10 29h1v1H10zM23 29h1v1H23zM2 30h1v1H2zM18 30h1v1H18zM29 31h1v1H29zM11 34h1v1H11zM25 34h1v1H25zM3 35h1v1H3zM17 36h1v1H17zM3 39h1v1H3zM25 40h1v1H25zM22 41h1v1H22zM43 42h1v1H43zM39 44h1v1H39zM32 45h1v1H32zM21 47h1v1H21zM13 49h1v1H13z"/>
    <path opacity="0.7843" d="M38 2h1v1H38zM39 3h1v1H39zM40 5h1v1H40zM6 6h2v1H6zM9 6h1v1H9zM33 9h1v1H33zM17 10h1v1H17zM11 11h1v1H11zM16 14h1v1H16zM7 15h1v1H7zM17 15h1v1H17zM7 16h1v1H7zM25 16h1v1H25zM42 16h1v1H42zM8 17h1v1H8zM0 21h1v1H0zM8 21h1v1H8zM43 21h1v1H43zM35 22h1v1H35zM14 24h1v1H14zM16 24h1v1H16zM15 25h1v1H15zM36 25h1v1H36zM43 25h1v1H43zM32 27h1v1H32zM27 28h1v1H27zM19 29h1v1H19zM44 29h1v1H44zM17 30h1v1H17zM44 30h1v1H44zM10 32h1v1H10zM2 33h1v1H2zM45 34h1v1H45zM45 35h1v1H45zM11 38h1v1H11zM36 44h1v1H36zM33 45h1v1H33zM26 46h3v1H26zM19 47h1v1H19zM15 48h2v1H15z"/>
    <path opacity="0.8235" d="M12 5h2v1H12zM8 6h1v1H8zM40 6h1v1H40zM32 8h1v1H32zM14 10h1v1H14zM16 10h1v1H16zM41 10h1v1H41zM10 11h1v1H10zM41 11h1v1H41zM7 13h1v1H7zM7 14h1v1H7zM30 15h1v1H30zM35 17h1v1H35zM18 18h1v1H18zM0 19h1v1H0zM0 20h1v1H0zM15 20h1v1H15zM26 21h1v1H26zM43 22h1v1H43zM13 23h1v1H13zM20 24h1v1H20zM43 24h1v1H43zM36 26h1v1H36zM1 27h1v1H1zM15 30h1v1H15zM10 31h1v1H10zM32 31h1v1H32zM28 32h1v1H28zM19 35h1v1H19zM22 35h1v1H22zM35 38h2v1H35zM12 41h1v1H12zM19 41h1v1H19zM41 43h1v1H41z"/>
    <path opacity="0.8627" d="M15 10h1v1H15zM28 15h1v1H28zM14 16h1v1H14zM19 16h1v1H19zM8 18h1v1H8zM35 18h1v1H35zM15 19h1v1H15zM35 19h1v1H35zM35 20h1v1H35zM27 21h1v1H27zM35 21h1v1H35zM20 23h1v1H20zM22 23h1v1H22zM43 23h1v1H43zM1 26h1v1H1zM29 27h1v1H29zM25 28h1v1H25zM20 29h1v1H20zM10 30h1v1H10zM16 30h1v1H16zM2 31h1v1H2zM2 32h1v1H2zM11 35h1v1H11zM3 36h1v1H3zM16 36h1v1H16zM11 37h1v1H11zM3 38h1v1H3zM42 43h1v1H42zM20 47h1v1H20z"/>
    <path opacity="0.9020" d="M8 12h1v1H8zM15 15h1v1H15zM18 15h1v1H18zM29 15h1v1H29zM19 17h1v1H19zM8 19h1v1H8zM8 20h1v1H8zM30 20h1v1H30zM17 24h1v1H17zM19 24h1v1H19zM13 25h2v1H13zM26 28h1v1H26zM21 29h2v1H21zM30 31h1v1H30zM24 34h1v1H24zM21 35h1v1H21zM11 36h1v1H11zM3 37h1v1H3zM37 37h1v1H37zM21 41h1v1H21zM12 49h1v1H12z"/>
    <path opacity="0.9412" d="M14 17h1v1H14zM16 19h2v1H16zM17 20h3v1H17zM31 20h1v1H31zM15 21h1v1H15zM20 21h1v1H20zM14 22h1v1H14zM13 24h1v1H13zM18 24h1v1H18zM30 27h2v1H30zM31 31h1v1H31zM20 35h1v1H20zM20 41h1v1H20zM37 44h2v1H37zM8 49h3v1H8z"/>
    <path opacity="0.9804" d="M11 49h1v1H11z"/>
    <path opacity="1.0000" d="M18 19h1v1H18zM16 20h1v1H16zM21 22h1v1H21zM21 23h1v1H21z"/>
  </g>
</svg>
