<?xml version="1.0" encoding="UTF-8"?>
<svg xmlns="http://www.w3.org/2000/svg" 
     viewBox="0 0 1332.000000 750.000000"
     width="1332.0pt" height="750.0pt">
  <title>Helmet/Logo</title>
  <g id="lines" transform="translate(0.000000,750.000000) scale(0.100000,-0.100000)" fill="#000000" stroke="none">
    <path id="p0" d="M6520 7145 c-218 -19 -396 -43 -485 -65 -44 -10 -133 -30 -199 -45
-65 -14 -130 -32 -145 -39 -14 -7 -53 -21 -86 -31 -63 -19 -293 -108 -323
-125 -9 -5 -44 -22 -77 -38 -75 -36 -189 -97 -235 -126 -213 -136 -296 -195
-448 -321 -157 -130 -363 -345 -498 -520 -146 -191 -311 -458 -371 -600 -14
-33 -38 -88 -54 -121 -16 -34 -29 -68 -29 -75 0 -8 -10 -34 -21 -59 -32 -69
-115 -343 -139 -460 -11 -58 -26 -118 -31 -135 -5 -16 -17 -100 -25 -185 -8
-85 -18 -168 -23 -185 l-7 -30 -122 -5 c-94 -4 -125 -8 -132 -20 -26 -40 3
-52 129 -54 61 0 114 -5 120 -11 5 -5 11 -89 14 -185 9 -329 39 -520 132 -845
81 -282 80 -274 63 -291 -12 -12 -26 -13 -74 -6 -87 14 -212 4 -224 -18 -6
-12 -5 -23 4 -35 11 -15 27 -18 110 -17 53 1 111 6 129 13 28 9 38 8 77 -13
42 -22 46 -27 59 -83 21 -94 38 -126 102 -195 33 -36 72 -87 86 -114 25 -49
84 -137 168 -251 25 -33 57 -78 71 -100 15 -22 37 -51 49 -65 13 -14 67 -74
121 -135 146 -162 285 -291 477 -442 56 -45 245 -173 254 -173 3 0 37 -21 77
-47 39 -26 139 -113 224 -197 l152 -150 284 -7 c228 -6 302 -11 377 -28 201
-43 347 -55 669 -56 327 0 506 15 660 57 62 17 123 21 355 28 154 4 290 11
302 16 12 5 84 70 160 144 76 75 163 152 193 172 30 19 80 52 110 71 161 105
315 216 399 290 121 105 265 245 296 287 13 18 50 60 82 95 32 35 81 93 108
130 28 37 62 82 76 99 15 17 35 47 46 66 10 19 44 74 75 121 30 47 65 103 76
125 20 38 78 99 135 141 27 21 27 21 88 2 73 -23 179 -25 219 -4 30 15 36 35
39 115 2 74 0 75 -151 75 l-133 0 2 40 c0 22 28 121 61 220 128 383 168 670
159 1147 -7 382 -18 465 -112 828 -23 86 -77 250 -110 329 -35 84 -31 103 22
114 46 9 72 32 56 48 -6 6 -39 14 -74 19 -55 8 -68 14 -91 42 -31 37 -35 63
-12 72 9 3 59 3 113 0 54 -4 119 -4 144 0 41 6 47 10 47 31 0 13 -4 26 -9 29
-5 4 -88 8 -183 9 -96 2 -179 6 -184 10 -5 3 -20 26 -32 51 -13 25 -27 48 -33
51 -5 4 -19 23 -30 43 -25 45 -113 171 -197 283 -121 161 -415 453 -586 584
-22 17 -62 48 -90 69 -178 137 -506 321 -704 393 -360 131 -354 129 -472 154
-52 11 -120 27 -151 35 -51 13 -168 28 -409 54 -158 17 -314 18 -460 5z m557
-100 c282 -24 415 -53 721 -160 41 -14 81 -25 89 -25 14 0 227 -97 383 -174
84 -42 250 -139 303 -178 230 -165 354 -267 482 -395 92 -92 260 -286 318
-368 31 -44 64 -91 75 -105 39 -53 112 -182 112 -198 0 -9 -7 -26 -15 -36 -19
-25 -6 -41 43 -57 41 -13 61 -34 62 -63 0 -10 17 -49 38 -85 68 -119 78 -160
30 -129 -33 22 -245 234 -258 258 -9 16 -8 22 5 26 8 3 15 14 15 24 0 17 -34
30 -84 30 -12 0 -44 23 -74 53 -267 261 -1205 1205 -1214 1221 -5 9 -27 28
-48 41 -35 22 -53 25 -197 32 -87 4 -178 7 -203 7 -25 0 -537 -1 -1139 -3
-949 -2 -1099 -4 -1124 -17 -16 -9 -68 -55 -115 -102 -48 -48 -353 -355 -678
-682 -667 -672 -909 -910 -923 -910 -14 0 7 69 35 109 13 20 24 40 24 44 0 29
127 260 214 390 119 177 176 253 266 351 36 40 74 83 86 96 11 14 74 75 139
135 64 61 124 117 133 125 8 8 28 24 42 35 15 11 61 45 101 75 131 98 221 156
354 228 255 137 419 207 595 253 47 12 94 28 106 36 27 17 213 69 300 84 292
48 680 61 1001 34z m643 -367 c52 1 128 5 167 8 40 4 83 4 96 0 13 -3 129
-111 258 -240 485 -484 999 -1006 999 -1014 0 -4 -39 -13 -86 -19 -113 -16
-158 -4 -162 45 -4 38 -14 41 -36 7 -21 -33 -20 -45 8 -80 l23 -29 168 -3 168
-3 64 -63 c188 -182 292 -287 316 -319 l28 -36 0 -263 c1 -259 0 -264 -21
-281 -12 -10 -31 -18 -41 -18 -10 0 -19 -7 -19 -15 0 -9 9 -15 25 -15 45 0 67
-90 30 -130 -18 -20 -18 -21 2 -39 17 -17 20 -32 20 -120 1 -110 -8 -127 -55
-114 -17 4 -22 1 -22 -13 -1 -11 -7 -30 -14 -43 -12 -21 -11 -32 3 -75 10 -27
24 -53 32 -56 56 -26 54 -21 52 -125 -1 -81 -5 -101 -21 -119 -12 -12 -22 -42
-25 -74 -3 -29 -13 -62 -22 -74 -22 -32 -19 -55 11 -74 37 -25 54 -66 58 -142
4 -77 0 -92 -22 -92 -21 0 -62 -40 -62 -61 0 -9 7 -33 15 -52 8 -20 15 -47 15
-61 0 -13 12 -38 26 -55 22 -26 26 -43 31 -120 4 -63 2 -95 -6 -105 -7 -8 -9
-29 -5 -54 4 -26 2 -42 -6 -47 -18 -11 -31 16 -26 54 6 38 -14 85 -41 95 -10
4 -88 7 -173 6 -85 -1 -162 -1 -171 -1 -9 1 -21 11 -26 24 -18 39 -154 227
-164 227 -6 0 -51 42 -102 94 -51 51 -113 105 -139 120 -27 16 -48 34 -48 40
0 19 -47 105 -77 140 -17 21 -38 33 -62 36 l-36 5 -12 128 c-10 121 -13 131
-42 167 -19 23 -31 50 -31 68 0 15 -7 37 -15 48 -21 27 -18 49 10 94 32 51 48
121 35 155 -6 15 -10 52 -10 84 0 50 -4 62 -33 97 -60 72 -87 119 -87 153 0
23 -9 40 -32 61 -30 27 -32 34 -30 85 2 41 -4 66 -22 102 -13 27 -27 71 -31
98 -7 56 -26 91 -53 99 -13 4 -22 24 -31 69 -12 63 -33 118 -51 140 -30 35
-63 90 -94 152 -46 91 -39 101 72 96 42 -1 89 2 105 8 23 9 27 16 27 51 0 56
-23 64 -171 55 -116 -6 -116 -6 -148 21 -17 14 -39 40 -48 58 -53 104 -220
285 -338 367 -99 70 -223 138 -288 159 -34 11 -71 24 -82 29 -67 32 -121 51
-172 61 -32 6 -78 16 -103 21 -137 29 -534 26 -660 -4 -36 -9 -99 -24 -140
-33 -41 -9 -79 -20 -85 -24 -5 -4 -48 -22 -95 -41 -47 -18 -108 -48 -137 -66
-29 -18 -56 -33 -61 -33 -5 0 -15 -7 -23 -16 -7 -8 -44 -36 -83 -61 -42 -27
-122 -98 -197 -174 -87 -89 -133 -129 -148 -129 -20 0 -22 -4 -17 -35 4 -24 0
-45 -16 -72 -40 -70 -44 -73 -123 -73 -43 0 -78 -5 -89 -13 -17 -13 -17 -14
-1 -30 10 -11 33 -17 58 -17 70 0 72 -8 32 -84 -20 -38 -57 -100 -84 -140 -26
-39 -56 -88 -65 -110 -10 -21 -31 -45 -46 -54 -45 -26 -77 -121 -50 -148 11
-11 -10 -64 -37 -95 -7 -9 -18 -45 -24 -80 -6 -35 -17 -78 -25 -95 -11 -22
-13 -46 -9 -76 9 -57 -7 -96 -42 -104 -15 -4 -43 -18 -60 -32 -30 -22 -41 -24
-161 -26 -131 -1 -162 -9 -162 -42 0 -8 -5 -14 -12 -14 -14 0 -48 -30 -48 -42
0 -16 29 -7 47 15 23 30 45 38 116 44 37 3 63 0 72 -7 16 -13 21 -105 7 -127
-4 -7 -31 -11 -67 -10 -36 0 -70 -5 -86 -14 -42 -23 -159 -112 -159 -121 0 -4
-14 -15 -31 -24 -27 -14 -62 -15 -240 -11 -166 3 -213 1 -227 -10 -16 -12 -16
-14 3 -28 11 -9 31 -13 45 -11 46 9 357 18 378 12 11 -4 30 -23 41 -42 21 -34
22 -35 83 -34 35 1 126 -2 203 -6 115 -5 144 -10 164 -25 16 -13 40 -19 77
-19 63 0 65 -4 64 -112 0 -40 1 -89 2 -108 l3 -35 -156 -3 -156 -2 -27 -29
c-17 -17 -40 -64 -57 -115 -41 -124 -91 -216 -154 -287 -30 -34 -55 -67 -55
-75 0 -7 -6 -17 -13 -21 -7 -4 -19 -42 -26 -83 -17 -94 -17 -95 -97 -175 l-66
-66 -163 3 c-103 2 -168 7 -175 14 -8 8 -11 267 -12 900 -1 489 0 945 2 1014
2 69 0 181 -4 250 -12 188 -19 175 200 391 102 101 202 201 222 223 123 129
1246 1248 1276 1271 31 23 46 27 113 29 43 2 85 6 94 10 10 4 64 5 120 2 57
-3 149 -5 204 -4 92 2 780 0 815 -2 8 -1 200 3 425 8 226 4 421 6 435 3 14 -3
68 -5 120 -3z m-870 -633 c108 -19 306 -70 323 -83 7 -5 34 -14 61 -21 93 -23
307 -136 381 -201 17 -15 40 -34 52 -42 29 -19 111 -96 142 -133 14 -17 27
-45 31 -65 3 -19 10 -35 15 -35 15 -1 55 -28 55 -38 0 -4 10 -21 22 -37 12
-16 19 -32 16 -35 -7 -7 -538 -9 -608 -2 -314 30 -705 36 -1209 17 -264 -10
-352 -17 -471 -41 -104 -20 -137 -21 -168 -5 -17 9 -49 16 -71 16 -68 0 -74 6
-50 50 12 21 32 43 44 48 15 7 136 11 318 12 286 0 357 4 357 20 0 14 -96 20
-341 20 -136 0 -254 3 -263 6 -32 12 -12 42 107 152 162 149 345 256 542 317
50 15 106 34 125 41 19 7 80 20 135 29 55 9 102 19 104 21 11 11 271 2 351
-11z m110 -710 c74 0 200 -6 280 -13 141 -12 146 -13 170 -41 14 -16 34 -32
45 -35 11 -3 100 -8 199 -11 l178 -6 86 -42 c67 -33 96 -55 139 -103 69 -78
98 -121 107 -159 4 -16 18 -46 32 -66 27 -40 36 -89 17 -96 -12 -4 -63 67 -63
88 0 17 -60 89 -75 89 -7 0 -19 8 -26 17 -30 36 -265 130 -374 149 -22 4 -54
13 -72 21 -21 8 -77 13 -160 13 -70 1 -175 5 -233 11 -134 12 -883 12 -1055
-1 -335 -25 -435 -38 -610 -80 -180 -43 -242 -75 -336 -173 -44 -44 -79 -86
-79 -91 -1 -6 -16 -42 -35 -81 l-34 -70 1 95 c2 116 30 186 108 270 28 30 58
65 66 77 15 20 151 108 199 128 11 4 121 12 245 16 389 14 467 24 390 51 -61
21 -11 30 209 37 121 4 224 11 228 15 5 5 78 5 163 1 85 -5 216 -9 290 -10z
m-1630 -110 c0 -17 -2 -18 -24 -9 -23 9 -20 24 4 24 11 0 20 -7 20 -15z m1176
-105 c8 -8 25 -7 57 1 37 10 53 10 87 -1 31 -10 43 -11 52 -2 8 8 52 12 124
12 95 0 113 -3 118 -16 6 -15 23 -16 164 -10 118 5 180 3 252 -8 52 -8 129
-18 170 -21 93 -7 125 -30 115 -85 -23 -137 -38 -165 -95 -180 -24 -6 -48 -23
-64 -44 -30 -40 -26 -72 8 -61 11 4 36 9 55 12 34 5 34 5 27 -28 -4 -19 -10
-56 -14 -84 l-7 -50 -200 -4 c-238 -5 -763 -7 -1032 -3 -172 3 -194 5 -202 21
-16 29 -11 83 12 134 37 83 16 92 -183 73 l-75 -8 -35 53 c-66 98 -112 172
-120 195 -12 32 6 43 87 55 63 9 115 14 427 39 65 5 121 12 124 15 10 9 138 5
148 -5z m-832 -96 c4 -10 6 -77 5 -151 -1 -118 -4 -135 -20 -143 -10 -6 -70
-10 -134 -10 -64 0 -125 -5 -136 -10 -25 -14 -28 -95 -3 -104 9 -3 166 -6 350
-6 321 0 334 -1 334 -19 0 -26 -20 -29 -205 -32 -590 -9 -615 -8 -615 21 0 11
12 20 33 26 30 9 32 13 35 59 2 27 -2 59 -8 71 -18 33 14 85 116 188 60 61
104 95 134 107 58 23 106 24 114 3z m2191 -13 c115 -43 184 -101 248 -209 55
-93 59 -119 20 -128 -21 -6 -31 -1 -52 23 -14 16 -34 44 -43 62 -20 37 -38 33
-38 -9 0 -30 20 -115 39 -163 14 -37 14 -94 0 -103 -7 -4 -9 -25 -5 -58 10
-97 23 -141 49 -179 22 -32 26 -49 26 -108 0 -63 -3 -72 -32 -104 -17 -19 -37
-35 -44 -35 -20 0 -26 -44 -15 -112 6 -35 14 -96 18 -136 6 -69 6 -73 -15 -79
-23 -6 -29 -38 -7 -46 48 -19 -12 -287 -65 -287 -17 0 -18 9 -13 183 3 100 11
216 17 257 6 41 11 164 11 272 -1 195 -13 295 -40 348 -7 14 -20 42 -30 63
-19 44 -35 50 -148 51 l-81 1 2 90 c2 59 9 110 23 149 11 32 23 101 26 153 6
79 10 96 27 108 21 15 78 13 122 -4z m-2475 -47 c0 -11 -41 -64 -50 -64 -19 0
-17 40 4 54 22 15 46 21 46 10z m374 -111 c13 -27 38 -63 55 -82 17 -19 28
-38 25 -42 -3 -5 -27 -9 -54 -9 -69 0 -80 15 -80 106 0 90 17 99 54 27z m4101
-87 c9 -34 19 -90 22 -126 2 -36 10 -81 18 -100 25 -67 55 -189 55 -227 0 -21
5 -56 10 -78 14 -59 31 -331 30 -480 0 -133 -23 -383 -41 -465 -6 -25 -17 -83
-24 -130 -30 -184 -96 -407 -116 -394 -5 3 -9 455 -9 1057 0 1028 1 1051 19
1028 10 -14 26 -52 36 -85z m-6251 59 c7 -19 7 -1971 0 -2012 -4 -18 -9 -33
-13 -33 -18 0 -83 237 -100 365 -5 33 -18 105 -29 160 -23 115 -45 395 -40
505 l3 75 35 11 c38 13 45 24 36 59 -4 17 -14 25 -34 27 -26 3 -27 5 -30 73
-2 39 2 99 8 135 7 36 18 106 25 155 19 126 43 252 56 294 36 122 64 201 70
201 4 0 9 -7 13 -15z m1596 -25 c0 -5 -4 -10 -10 -10 -5 0 -10 5 -10 10 0 6 5
10 10 10 6 0 10 -4 10 -10z m-20 -39 c0 -10 -11 -52 -24 -93 -13 -42 -27 -104
-31 -139 -4 -35 -12 -70 -17 -76 -12 -16 -44 -17 -53 -3 -12 19 58 257 90 306
19 29 35 31 35 5z m20 -186 c0 -8 -4 -15 -10 -15 -5 0 -10 7 -10 15 0 8 5 15
10 15 6 0 10 -7 10 -15z m-238 -54 c-2 -34 -10 -52 -34 -75 l-30 -31 7 60 c8
72 20 97 43 93 13 -3 16 -13 14 -47z m3167 3 c3 -16 1 -17 -13 -5 -19 16 -21
34 -3 29 6 -3 14 -13 16 -24z m-2391 -21 c99 -3 186 -10 193 -14 14 -8 17 -36
25 -189 5 -92 3 -108 -15 -141 -11 -20 -18 -39 -15 -42 17 -16 26 -196 29
-539 l3 -377 -36 -7 c-65 -12 -312 4 -379 24 -108 34 -162 83 -163 147 0 74
-21 170 -45 211 -23 39 -25 53 -29 225 -2 101 -5 260 -5 352 -1 154 -3 169
-19 174 -10 2 -24 14 -31 25 -26 41 4 48 213 48 159 0 192 -3 207 -16 13 -12
22 -13 38 -5 11 6 47 11 80 11 56 0 91 15 91 39 0 28 -29 30 -305 24 -155 -3
-293 -3 -308 1 -29 7 -35 24 -15 44 14 14 198 16 486 5z m791 -20 c23 -15 164
-18 923 -23 l86 0 7 -41 c6 -36 10 -40 33 -37 21 2 28 10 33 36 4 18 10 36 14
40 11 11 126 7 172 -6 38 -11 43 -17 62 -68 45 -118 63 -354 41 -509 -5 -33
-16 -188 -24 -343 -12 -221 -18 -289 -31 -308 -8 -13 -41 -36 -72 -50 l-56
-27 -190 13 c-129 9 -184 16 -173 22 14 8 15 13 5 24 -13 16 -5 105 17 166 15
42 21 178 9 197 -3 6 -15 11 -25 11 -14 0 -22 -11 -30 -42 -6 -24 -19 -74 -29
-113 -10 -38 -25 -105 -32 -148 -9 -55 -18 -81 -31 -88 -11 -6 -129 -6 -320 1
-167 6 -440 10 -608 9 l-305 -1 0 648 0 649 30 6 c17 4 129 5 250 2 172 -4
225 -9 244 -20z m-1606 -109 c-9 -23 -23 -16 -23 12 0 22 2 24 14 14 8 -6 12
-18 9 -26z m3312 6 c2 -3 5 -153 6 -331 1 -297 0 -327 -17 -359 l-19 -35 -7
82 c-3 45 -11 91 -17 102 -6 11 -11 79 -11 158 0 107 -3 144 -15 159 -20 26
-19 58 3 102 13 25 17 51 14 81 -3 28 0 46 8 51 13 8 47 2 55 -10z m-3088 2
c9 -6 13 -80 14 -292 1 -321 -4 -386 -35 -450 -18 -39 -26 -46 -60 -51 -80
-13 -146 22 -146 77 0 30 24 43 72 37 63 -9 68 2 68 141 0 112 -2 125 -23 154
-20 26 -25 49 -31 132 -4 73 -11 108 -26 132 -11 18 -20 40 -20 49 0 19 31 49
68 66 31 13 101 16 119 5z m-206 -162 c17 -9 19 -22 19 -104 0 -69 -4 -97 -14
-105 -18 -15 -157 -4 -168 13 -9 13 -8 108 1 151 5 26 12 31 61 41 73 16 78
16 101 4z m3541 -57 c22 -20 23 -52 2 -60 -25 -9 -134 48 -134 71 0 17 5 18
57 12 31 -4 65 -14 75 -23z m-3760 -40 c5 -81 -12 -116 -52 -106 -17 4 -20 14
-20 59 0 40 4 56 18 63 32 19 52 13 54 -16z m3726 -181 c48 -45 52 -54 17 -47
-14 3 -36 7 -49 10 -29 6 -43 40 -26 60 7 8 13 15 15 15 1 0 20 -17 43 -38z
m-38 -137 c0 -14 -4 -25 -10 -25 -5 0 -10 11 -10 25 0 14 5 25 10 25 6 0 10
-11 10 -25z m2 -103 c-2 -40 0 -42 40 -63 24 -11 51 -31 60 -43 19 -23 25 -96
8 -96 -19 0 -10 -28 15 -44 23 -15 25 -23 25 -84 0 -89 15 -112 74 -112 46 0
72 -17 95 -62 17 -34 9 -46 -43 -59 -103 -26 -198 -190 -155 -270 16 -30 2
-62 -25 -55 -11 3 -28 1 -36 -5 -12 -8 -10 -14 17 -37 89 -75 118 -87 143 -57
10 12 19 8 57 -28 44 -41 45 -43 40 -89 -10 -84 -10 -84 -159 -99 -73 -7 -158
-13 -188 -13 l-55 -1 -4 85 c-6 132 -5 152 6 204 13 56 -4 142 -31 161 -12 10
-14 27 -9 105 6 85 9 96 34 123 40 42 48 90 19 128 -21 29 -21 33 -9 122 6 51
11 119 10 152 -1 36 5 76 15 100 9 22 20 50 25 63 15 37 34 20 31 -26z m-176
-96 c7 -30 2 -56 -11 -59 -5 -1 -11 17 -13 41 -3 45 13 58 24 18z m-3042 -44
c-7 -44 -26 -55 -42 -24 -11 20 -6 40 16 65 22 25 34 7 26 -41z m2936 21 c0
-24 -3 -33 -9 -25 -7 12 -4 62 5 62 2 0 4 -17 4 -37z m-3208 -26 c9 -7 19 -33
23 -59 6 -41 5 -46 -15 -51 -25 -7 -40 23 -40 84 0 42 5 46 32 26z m398 -66
c0 -11 5 -23 10 -26 13 -8 13 -65 -1 -65 -15 0 -39 64 -39 105 0 32 2 35 15
21 8 -8 15 -24 15 -35z m-193 -11 c28 -106 58 -165 111 -217 44 -44 57 -52 80
-47 20 4 44 -4 89 -29 34 -19 87 -45 120 -57 68 -26 157 -28 738 -16 193 4
406 3 475 -2 104 -8 113 -9 53 -11 -57 -1 -73 -4 -73 -16 0 -8 -10 -17 -22
-19 -26 -5 -486 -19 -683 -20 -71 -1 -202 -5 -290 -10 -212 -11 -312 4 -420
64 -127 70 -229 231 -250 394 -5 37 -5 37 27 34 30 -3 34 -7 45 -48z m3096
-23 c-10 -74 -66 -205 -122 -281 -64 -87 -160 -139 -241 -131 -19 1 -77 3
-128 4 -54 1 -91 5 -88 10 4 5 37 9 75 8 49 0 73 4 84 15 9 8 39 18 67 21 29
4 68 16 87 27 62 36 131 101 138 128 6 25 35 95 55 133 5 9 12 34 16 55 14 83
67 93 57 11z m-126 -19 c-13 -40 -37 -52 -37 -18 0 27 31 73 41 63 4 -4 2 -25
-4 -45z m-2835 -33 c9 -20 9 -20 -6 -1 -9 11 -16 27 -15 35 0 14 1 14 6 1 3
-8 10 -24 15 -35z m-288 -23 c3 -5 8 -27 12 -50 6 -39 5 -41 -21 -48 -34 -8
-45 7 -45 64 0 38 2 42 24 42 14 0 27 -4 30 -8z m3093 -18 c3 -9 1 -19 -6 -23
-6 -4 -9 -15 -5 -24 3 -9 1 -17 -4 -17 -18 0 -24 20 -12 35 7 8 10 22 6 30 -3
8 -1 15 5 15 5 0 12 -7 16 -16z m-3244 -56 c3 -35 3 -84 0 -109 -5 -41 -1 -55
28 -105 52 -89 52 -91 53 -217 1 -106 -1 -118 -18 -123 -26 -8 -15 -51 29
-117 l35 -52 -22 -18 c-16 -14 -33 -17 -68 -14 -92 9 -125 59 -102 156 19 83
23 118 13 144 -8 20 -5 28 15 46 13 11 31 21 38 21 26 0 29 21 10 83 -33 109
-168 227 -261 227 -60 0 -81 22 -48 50 9 7 13 21 10 31 -4 10 -1 27 5 39 10
19 20 20 144 20 l133 0 6 -62z m3192 -53 c0 -21 -101 -108 -118 -102 -7 2 -13
12 -15 23 -2 14 -1 16 6 6 7 -10 19 -2 48 35 22 26 44 51 49 55 16 12 30 3 30
-17z m250 4 c7 -10 -13 -110 -42 -209 -22 -76 -104 -156 -194 -191 l-64 -24
-415 2 c-328 2 -421 0 -445 -11 l-30 -13 35 -6 c19 -3 186 -10 370 -16 320 -9
458 -5 557 17 40 9 103 51 151 102 23 25 24 25 39 5 10 -14 13 -32 9 -58 -8
-49 -36 -117 -48 -117 -6 0 -23 -10 -38 -22 -16 -13 -50 -38 -77 -57 -72 -52
-103 -83 -103 -103 0 -23 -13 -25 -205 -37 -182 -11 -208 -20 -251 -84 -24
-36 -28 -50 -25 -101 3 -76 39 -149 84 -173 25 -14 66 -19 200 -23 152 -4 170
-7 183 -24 17 -25 18 -57 1 -80 -11 -15 -36 -17 -225 -19 -176 -2 -214 -5
-223 -17 -14 -22 -3 -92 17 -107 22 -16 430 -18 486 -3 41 12 76 50 85 92 16
82 56 14 61 -104 3 -67 8 -91 19 -95 22 -9 33 16 33 78 0 55 -24 155 -41 174
-5 5 -9 17 -9 27 0 10 -11 25 -25 34 -28 18 -63 120 -47 136 16 16 48 0 73
-37 13 -19 27 -35 31 -35 10 0 55 -78 74 -130 9 -25 19 -85 23 -134 9 -137 45
-122 46 19 0 62 -4 74 -72 224 -38 83 -34 102 16 81 74 -30 141 -189 141 -332
0 -120 37 -121 52 -1 7 58 5 78 -14 133 -30 89 -53 140 -83 179 -23 32 -25 51
-5 51 18 0 79 -61 113 -113 62 -95 82 -206 52 -294 -11 -33 20 -30 42 3 15 24
16 37 5 131 -12 106 -18 124 -80 221 -31 49 -34 72 -11 72 5 0 35 -25 66 -56
64 -65 109 -156 119 -239 6 -48 4 -60 -14 -84 -12 -16 -18 -31 -15 -35 10 -9
51 -7 57 3 4 5 24 12 46 16 22 4 42 11 46 16 3 5 18 9 33 9 16 0 34 7 41 15 7
8 18 15 25 15 15 0 102 46 120 63 7 6 23 19 36 27 51 33 112 96 166 173 32 44
66 89 76 100 10 10 25 33 32 51 16 38 40 60 55 51 5 -3 10 -26 10 -50 0 -52 8
-59 69 -56 53 2 151 -18 151 -31 0 -9 -171 -187 -520 -539 -118 -119 -258
-262 -310 -318 -52 -55 -99 -100 -105 -100 -5 0 -55 89 -109 199 -97 193 -100
198 -134 203 -41 7 -88 -1 -100 -17 -22 -28 -229 -455 -234 -481 -3 -18 3 -20
52 -20 52 0 56 2 71 32 32 64 29 63 185 63 l144 0 20 -40 c22 -43 25 -60 10
-60 -11 0 -164 -145 -405 -387 l-173 -173 -1290 0 c-1257 0 -1290 0 -1313 19
-13 11 -136 130 -274 266 -137 136 -263 258 -280 272 l-29 25 19 37 20 36 139
3 c152 3 155 2 186 -59 22 -43 31 -47 88 -41 52 5 54 22 12 102 -45 85 -160
322 -160 330 0 3 -16 29 -35 56 -19 27 -35 60 -35 73 0 36 -48 111 -78 122
-30 11 -82 -5 -82 -26 0 -7 18 -35 40 -61 22 -27 40 -52 40 -55 0 -4 -10 -13
-22 -22 -14 -8 -63 -93 -117 -201 -52 -102 -98 -186 -103 -186 -5 0 -55 47
-111 104 -56 57 -146 148 -200 202 -54 55 -106 107 -115 117 -9 9 -52 52 -95
95 -43 42 -84 87 -93 100 -18 27 -10 46 14 32 96 -53 238 -98 421 -131 70 -13
81 -8 81 35 0 59 16 85 67 108 43 19 54 20 162 10 103 -9 195 -9 355 0 61 4
72 24 17 33 -72 12 -72 20 -15 205 17 53 66 116 82 106 9 -5 12 -69 12 -216 0
-197 1 -210 19 -220 25 -13 380 -13 448 0 68 12 134 59 161 112 12 24 27 79
32 123 19 146 -7 264 -73 328 -55 54 -84 60 -307 68 -194 6 -210 8 -293 37
-151 53 -282 149 -331 242 -25 47 -26 55 -16 107 5 31 10 82 10 114 0 43 4 58
16 63 23 9 28 3 58 -58 32 -64 86 -132 139 -174 38 -31 220 -98 236 -87 6 3
12 1 16 -5 8 -12 518 -5 655 10 149 16 436 29 665 30 116 1 228 4 250 9 39 7
40 7 10 12 -72 13 -1342 -8 -1455 -24 -8 -1 -46 1 -85 5 -199 21 -328 102
-396 245 -29 63 -37 117 -19 128 17 10 47 -4 53 -24 8 -30 123 -114 190 -138
57 -21 79 -23 257 -23 107 1 254 5 325 10 266 20 626 33 823 31 112 -2 225 0
252 4 53 7 69 25 23 25 -34 0 -48 9 -49 33 -2 15 10 17 112 17 102 0 114 -2
124 -19 8 -16 6 -21 -11 -26 -11 -4 -18 -12 -16 -18 8 -25 747 -49 841 -27 64
14 93 30 155 86 46 41 64 67 106 145 11 21 21 24 30 8z m-3266 -95 c-15 -18
-39 -18 -39 0 0 8 10 32 23 53 l22 38 3 -38 c2 -21 -2 -45 -9 -53z m-93 1 c3
-20 4 -39 0 -42 -10 -10 -34 19 -41 50 -6 23 -4 27 13 27 16 0 23 -8 28 -35z
m-223 -66 c65 -24 117 -79 117 -123 0 -14 -3 -26 -7 -26 -4 0 -28 21 -54 46
-26 26 -83 67 -126 91 l-78 44 45 -6 c25 -3 71 -15 103 -26z m2907 -19 c28
-17 -1 -24 -93 -21 -101 2 -130 8 -122 22 8 12 196 12 215 -1z m-357 -7 c-7
-2 -19 -2 -25 0 -7 3 -2 5 12 5 14 0 19 -2 13 -5z m-2643 -30 c45 -16 80 -39
80 -53 0 -9 -63 4 -106 21 -16 6 -51 14 -78 18 -48 6 -49 7 -32 24 20 20 59
17 136 -10z m-12 -79 c28 -9 52 -21 52 -26 0 -4 7 -8 15 -8 8 0 15 -7 15 -15
0 -19 0 -19 -100 6 -84 21 -192 23 -245 3 -33 -12 35 39 70 53 38 15 124 9
193 -13z m377 -231 c26 -34 171 -151 213 -171 17 -9 32 -22 32 -29 0 -30 -36
-25 -116 16 -88 45 -148 104 -164 162 -16 53 3 65 35 22z m3283 -137 c8 -64
-14 -90 -85 -107 -25 -5 -39 -2 -57 12 -13 10 -29 19 -34 19 -18 0 -23 32 -9
54 9 13 37 27 78 37 87 23 103 21 107 -15z m-4068 17 c-1 -11 -26 -43 -34 -43
-10 0 -7 25 6 38 13 13 28 16 28 5z m1138 -155 l-3 -53 -35 3 c-71 7 -85 30
-49 76 15 19 30 26 55 26 l35 0 -3 -52z m-1364 32 c29 -11 33 -30 12 -63 -22
-34 -37 -125 -34 -209 2 -42 0 -79 -4 -83 -12 -12 -157 148 -196 216 -11 19
-23 50 -26 70 -9 52 9 63 118 70 50 3 94 6 98 7 4 1 18 -2 32 -8z m244 -17 c5
-10 12 -35 15 -56 19 -121 180 -326 320 -407 110 -64 77 -80 -78 -39 -271 72
-355 131 -394 277 -9 34 -9 52 3 91 21 72 77 151 107 151 10 0 22 -8 27 -17z
m-128 -1 c0 -4 -4 -12 -8 -17 -5 -6 -19 -39 -32 -74 -51 -146 18 -298 165
-361 27 -12 82 -38 120 -56 39 -19 80 -34 93 -34 24 0 82 -26 82 -36 0 -17
-212 38 -290 75 -92 43 -199 134 -200 171 0 9 -5 21 -11 27 -27 27 -17 213 12
213 5 0 9 7 9 15 0 18 41 85 53 85 4 0 7 -4 7 -8z m1069 -9 c3 -2 -1 -9 -7
-15 -14 -14 -67 6 -57 22 5 9 52 4 64 -7z m-521 -60 c-1 -5 -22 -47 -45 -96
-27 -54 -43 -101 -43 -125 0 -61 -17 -71 -22 -12 -8 80 14 156 58 202 34 34
61 50 52 31z m212 1 c0 -3 -17 -25 -37 -49 -51 -57 -95 -172 -101 -257 -5 -80
-25 -92 -42 -27 -9 34 -8 56 6 113 9 39 26 87 36 106 30 52 138 142 138 114z
m130 0 c0 -3 -23 -31 -50 -61 -28 -31 -57 -67 -64 -82 -24 -47 -55 -145 -58
-186 -3 -32 -8 -41 -26 -43 -32 -5 -37 20 -24 101 20 115 63 189 146 248 35
26 76 38 76 23z m-250 -23 c0 -6 -8 -16 -17 -23 -10 -7 -33 -44 -51 -81 -25
-53 -34 -88 -39 -149 -5 -71 -8 -79 -20 -63 -18 26 -16 97 6 179 14 51 29 78
57 107 36 37 64 50 64 30z m1070 -16 c44 -26 59 -67 59 -165 1 -101 -12 -146
-49 -165 -37 -19 -299 -22 -318 -3 -8 8 -12 61 -12 175 0 144 2 163 18 173 10
6 66 9 142 8 105 -3 131 -6 160 -23z m-1270 12 c0 -2 -8 -21 -18 -43 -10 -21
-23 -50 -30 -64 -10 -24 -11 -24 -11 10 -1 36 31 100 49 100 5 0 10 -1 10 -3z
m520 -7 c0 -5 -21 -37 -46 -70 -49 -65 -78 -135 -89 -217 -7 -50 -8 -53 -36
-53 -27 0 -29 3 -29 38 0 20 5 55 11 77 17 62 87 177 126 208 37 28 63 35 63
17z m120 -9 c0 -5 -18 -31 -40 -57 -48 -58 -79 -136 -88 -219 l-7 -60 -38 -3
c-47 -4 -54 11 -37 85 22 101 82 209 133 242 33 21 77 28 77 12z m95 -11 c4
-6 -7 -34 -23 -63 -30 -52 -79 -190 -84 -237 -3 -21 -9 -25 -42 -28 l-39 -3 6
63 c7 71 24 118 73 199 39 65 91 98 109 69z m-839 -66 c-4 -9 -9 -15 -11 -12
-3 3 -3 13 1 22 4 9 9 15 11 12 3 -3 3 -13 -1 -22z m4265 -27 c57 -52 104
-143 113 -220 8 -63 -7 -127 -29 -127 -14 0 -17 13 -29 106 -9 66 -56 169
-108 235 -33 43 -34 49 -10 49 9 0 38 -19 63 -43z m153 -21 c41 -54 58 -104
61 -178 3 -57 1 -67 -15 -71 -24 -6 -30 0 -30 30 0 25 -29 105 -57 158 -9 17
-24 45 -34 63 -10 19 -15 40 -12 48 8 20 53 -6 87 -50z m186 3 c0 -11 -6 -19
-14 -19 -10 0 -14 10 -14 30 1 24 4 28 15 19 7 -6 13 -20 13 -30z m-83 -16
c32 -55 38 -111 18 -150 l-15 -28 0 31 c0 18 -7 45 -15 60 -8 16 -15 36 -15
44 0 9 -7 25 -15 37 -15 21 -11 53 6 53 4 0 21 -21 36 -47z m229 -10 c-10 -10
-19 5 -10 18 6 11 8 11 12 0 2 -7 1 -15 -2 -18z m-4590 -328 c18 -14 18 -14
-6 -14 -14 0 -34 6 -44 14 -19 14 -19 15 5 15 14 0 34 -7 45 -15z m4683 -177
c-76 -98 -406 -431 -451 -454 -18 -9 -40 -26 -50 -38 -16 -20 -17 -20 -18 -2
0 12 51 68 128 143 70 68 132 128 137 134 99 104 309 308 312 305 3 -3 -23
-42 -58 -88z m-4835 -195 c92 -92 182 -186 199 -207 29 -37 30 -38 6 -26 -36
19 -123 95 -208 180 -95 96 -221 240 -221 252 0 19 57 -32 224 -199z m637 -10
c16 -38 34 -76 39 -85 6 -10 10 -20 10 -23 0 -3 -38 -5 -85 -5 -77 0 -85 2
-85 19 0 25 68 161 80 161 6 0 24 -30 41 -67z m3406 -3 c50 -104 50 -103 -36
-113 -106 -12 -110 -4 -59 101 22 46 45 81 52 80 6 -2 25 -33 43 -68z m218
-340 c-3 -5 -12 -10 -20 -10 -8 0 -17 5 -20 10 -4 6 5 10 20 10 15 0 24 -4 20
-10z"/>
    <path id="p1" d="M8310 5859 l-33 -42 34 -28 c40 -34 65 -33 92 3 l19 26 -32 41 c-19
23 -36 41 -40 41 -4 0 -22 -19 -40 -41z"/>
    <path id="p2" d="M8778 5494 c-27 -14 -48 -42 -48 -63 0 -21 31 -11 65 21 54 49 43 75
-17 42z"/>
    <path id="p3" d="M8705 5210 c-4 -11 -28 -34 -55 -52 -27 -17 -53 -41 -58 -53 -9 -20
-8 -21 14 -17 13 2 33 14 43 26 52 57 81 95 81 105 0 19 -18 12 -25 -9z"/>
    <path id="p4" d="M8457 5172 c-19 -21 -22 -38 -7 -47 18 -11 50 15 50 40 0 30 -20 33
-43 7z"/>
    <path id="p5" d="M4260 5158 c-11 -12 -20 -30 -20 -39 0 -10 -16 -32 -36 -51 -54 -49
-126 -126 -183 -193 -5 -5 -28 -28 -52 -49 -37 -34 -52 -40 -99 -44 -61 -5
-90 -19 -68 -33 21 -14 92 -10 129 5 19 8 101 82 183 165 86 86 160 152 175
156 57 14 82 73 42 95 -30 15 -48 12 -71 -12z"/>
    <path id="p6" d="M4610 4665 c-18 -10 -62 -14 -164 -15 -135 0 -140 -1 -175 -27 -20
-15 -37 -31 -39 -35 -2 -4 -59 -59 -128 -122 l-124 -116 -82 0 c-85 0 -116 -9
-104 -29 5 -7 44 -11 106 -11 l98 0 44 40 c23 22 50 42 58 46 13 5 60 55 198
207 24 26 260 22 312 -5 44 -23 63 -23 84 1 23 25 13 59 -21 72 -31 11 -33 11
-63 -6z"/>
    <path id="p7" d="M9416 4432 c-31 -19 -35 -32 -13 -46 18 -11 69 21 65 42 -4 22 -19
23 -52 4z"/>
    <path id="p8" d="M4403 4409 c-69 -7 -133 -35 -133 -59 0 -14 -142 -150 -170 -164 -24
-12 -97 -9 -204 10 -29 5 -49 1 -82 -15 -71 -36 -65 -43 32 -37 121 8 142 8
195 0 61 -8 76 1 194 114 54 51 109 99 124 106 20 11 67 14 185 13 126 -2 160
1 164 11 3 8 -1 17 -7 22 -16 9 -204 9 -298 -1z"/>
    <path id="p9" d="M9258 4369 c-27 -15 -22 -34 14 -50 21 -9 45 -35 68 -74 40 -66 67
-79 62 -30 -2 17 -10 39 -18 50 -8 11 -26 36 -39 55 -46 66 -53 69 -87 49z"/>
    <path id="p10" d="M8908 4333 c-27 -7 -22 -22 10 -29 15 -3 32 -7 37 -9 6 -1 28 0 50 4
l40 7 -52 17 c-53 18 -56 18 -85 10z"/>
    <path id="p11" d="M9050 4291 c0 -5 9 -13 20 -16 11 -3 20 -13 20 -21 0 -8 3 -14 8 -14
11 0 115 -102 134 -132 10 -15 27 -32 38 -38 25 -14 106 -23 225 -25 50 -2 99
-4 110 -6 14 -3 21 2 23 18 3 20 -1 21 -60 22 -35 0 -81 1 -103 2 -22 0 -69 0
-104 0 l-64 -1 -66 67 c-127 131 -181 173 -181 144z"/>
    <path id="p12" d="M8900 4153 c-123 -12 -140 -15 -140 -29 0 -19 32 -24 135 -21 121 5
168 -16 250 -106 59 -66 82 -78 115 -57 8 5 12 11 10 13 -3 2 -25 18 -50 35
-25 17 -73 58 -108 90 -59 56 -120 86 -164 80 -7 0 -29 -3 -48 -5z"/>
    <path id="p13" d="M4299 4036 c-19 -19 -47 -39 -62 -45 -16 -6 -123 -11 -247 -12 -127
-1 -223 -6 -226 -11 -17 -27 22 -32 247 -31 209 1 232 3 251 20 26 23 81 103
76 109 -3 2 -20 -11 -39 -30z"/>
    <path id="p14" d="M8700 3998 c-46 -15 -47 -16 -24 -33 15 -12 44 -13 154 -8 125 5 173
0 236 -24 20 -7 18 10 -5 38 -14 18 -31 25 -63 26 -204 10 -267 10 -298 1z"/>
    <path id="p15" d="M9567 3974 c-11 -12 3 -24 29 -24 15 0 24 6 24 15 0 15 -40 21 -53 9z"/>
    <path id="p16" d="M9381 3959 c-16 -6 -21 -13 -14 -20 12 -12 155 9 147 22 -7 12 -103
10 -133 -2z"/>
    <path id="p17" d="M9332 3869 c-39 -12 -35 -23 14 -39 30 -10 39 -10 52 3 13 13 13 19
2 31 -14 18 -21 18 -68 5z"/>
    <path id="p18" d="M9400 3698 c-25 -5 -96 -7 -159 -4 -134 5 -138 4 -239 -106 -57 -61
-69 -88 -41 -88 5 0 42 33 82 74 55 56 82 76 109 81 20 4 42 4 48 0 6 -4 73
-11 148 -16 75 -6 162 -12 192 -15 66 -6 81 3 83 47 l2 34 -90 2 c-49 0 -110
-3 -135 -9z"/>
    <path id="p19" d="M3877 3661 c-48 -3 -88 -10 -90 -16 -3 -12 131 -23 311 -24 77 -1
142 -6 155 -12 12 -7 41 -32 63 -58 l41 -46 168 -3 c110 -2 171 0 178 7 24 24
-13 31 -159 32 -166 1 -162 0 -250 80 l-54 49 -138 -2 c-75 -1 -176 -4 -225
-7z"/>
    <path id="p20" d="M9430 3579 c-30 -4 -89 -8 -130 -8 -86 1 -115 -8 -149 -45 -32 -34
-23 -40 24 -16 36 18 58 20 236 19 224 -1 245 3 203 45 -17 18 -89 20 -184 5z"/>
    <path id="p21" d="M3827 3563 c-40 -3 -57 -8 -54 -16 2 -8 60 -14 193 -19 104 -5 199
-10 211 -13 12 -3 57 -41 101 -85 78 -80 78 -80 131 -80 43 0 52 3 49 16 -2
11 -21 21 -51 29 -40 10 -63 27 -128 91 l-79 79 -158 1 c-86 0 -183 -1 -215
-3z"/>
    <path id="p22" d="M3815 3439 c-4 -6 -5 -13 -2 -16 3 -3 68 -5 144 -5 l138 0 75 -77
c72 -74 106 -101 129 -101 23 0 -8 43 -84 113 -44 40 -90 79 -102 85 -28 16
-289 16 -298 1z"/>
    <path id="p23" d="M8997 3397 c-30 -27 -50 -74 -37 -82 20 -13 51 8 70 45 24 47 24 46
5 54 -8 3 -25 -5 -38 -17z"/>
    <path id="p24" d="M3801 3341 c-8 -5 -11 -16 -8 -25 5 -13 22 -16 82 -16 76 0 155 -26
155 -50 0 -6 11 -20 25 -32 14 -12 25 -30 25 -40 0 -55 50 -77 85 -38 16 18
17 23 5 45 -7 14 -21 25 -30 25 -10 0 -46 26 -80 58 -34 31 -67 60 -74 64 -20
11 -170 19 -185 9z"/>
    <path id="p25" d="M9228 3294 c-16 -8 -37 -32 -48 -54 -11 -22 -26 -40 -34 -40 -12 0
-96 -91 -96 -105 0 -17 60 29 83 64 15 22 44 49 65 60 42 22 92 65 92 81 0 14
-30 12 -62 -6z"/>
    <path id="p26" d="M9586 3219 c-28 -41 -16 -59 40 -59 30 0 30 3 0 46 l-24 35 -16 -22z"/>
    <path id="p27" d="M9404 3193 c-11 -2 -30 -21 -42 -42 -12 -20 -30 -45 -42 -56 -18 -16
-28 -55 -15 -55 24 0 86 44 91 64 7 29 31 53 59 58 11 2 20 10 20 18 0 15 -32
21 -71 13z"/>
    <path id="p28" d="M3795 3169 c-11 -17 1 -22 57 -24 29 -1 60 -3 68 -4 8 0 51 -35 95
-76 73 -68 105 -89 105 -67 0 10 -44 56 -119 125 l-64 57 -68 0 c-37 0 -71 -5
-74 -11z"/>
    <path id="p29" d="M4150 2952 c0 -14 39 -46 47 -39 3 4 -2 16 -12 27 -19 21 -35 26 -35
12z"/>
    <path id="p30" d="M7272 4662 c-43 -21 -39 -48 7 -45 39 1 66 24 58 47 -8 20 -23 19
-65 -2z"/>
    <path id="p31" d="M5682 4329 c-12 -32 -8 -907 4 -919 8 -7 83 -14 135 -11 22 1 29 21
20 62 -6 33 -9 34 -61 39 l-55 5 -3 90 c-2 50 1 106 7 125 12 42 14 174 6 326
l-6 112 37 21 c29 17 34 24 24 36 -6 7 -21 15 -33 17 -17 2 -23 13 -30 48 -5
25 -15 51 -22 59 -12 12 -15 11 -23 -10z"/>
    <path id="p32" d="M5870 4131 c0 -12 29 -23 41 -15 5 3 7 10 4 15 -8 12 -45 12 -45 0z"/>
    <path id="p33" d="M5673 3294 c-9 -25 16 -34 103 -34 60 0 83 4 87 14 10 26 -17 36
-100 36 -67 0 -85 -3 -90 -16z"/>
    <path id="p34" d="M4600 3291 c0 -17 40 -23 96 -16 79 10 66 25 -21 25 -41 0 -75 -4
-75 -9z"/>
    <path id="p35" d="M7370 2523 c-14 -3 -46 -10 -71 -17 -32 -8 -80 -9 -166 -2 -141 10
-169 2 -187 -54 -15 -47 -36 -44 -64 10 -26 52 -38 58 -108 59 -63 1 -100 -23
-90 -57 4 -12 15 -22 25 -22 10 0 23 -6 29 -12 9 -12 133 -248 174 -333 67
-137 95 -188 108 -195 48 -24 160 -16 160 13 0 6 7 18 15 27 16 18 60 100 169
318 38 75 79 158 92 183 13 26 24 54 24 62 0 25 -41 32 -110 20z"/>
    <path id="p36" d="M6265 2514 c-82 -18 -108 -29 -140 -65 -19 -21 -37 -51 -40 -66 -4
-16 -9 -44 -13 -63 -11 -56 -7 -241 6 -288 15 -48 61 -105 106 -130 27 -15 60
-17 251 -14 158 2 221 6 227 15 11 18 10 95 -2 102 -6 4 -99 9 -208 12 -165 4
-200 8 -213 22 -21 21 -32 88 -16 98 7 5 104 10 217 13 l205 5 3 44 c2 24 0
47 -5 52 -4 4 -99 9 -211 11 -112 1 -208 5 -214 9 -7 4 -8 21 -4 43 5 27 16
42 39 56 29 18 51 20 213 20 127 0 184 4 192 12 7 7 12 30 12 53 0 23 -5 46
-12 53 -9 9 -64 12 -192 11 -100 -1 -190 -3 -201 -5z"/>
    <path id="p37" d="M5648 1702 c-28 -2 -38 -8 -39 -20 -4 -146 3 -488 11 -497 7 -9 61
-12 188 -11 174 1 178 1 223 28 98 58 124 114 117 257 -6 127 -30 170 -118
217 -28 15 -65 20 -190 24 -85 3 -172 4 -192 2z m314 -123 c51 -14 68 -49 68
-139 0 -86 -18 -126 -65 -146 -42 -17 -184 -19 -220 -2 l-25 11 0 137 c0 75 3
140 7 143 10 11 194 8 235 -4z"/>
    <path id="p38" d="M7420 1701 l-25 -7 0 -254 0 -255 26 -9 c14 -5 38 -6 52 -2 l25 6 4
252 c2 139 1 256 -2 259 -9 11 -54 17 -80 10z"/>
    <path id="p39" d="M6345 1693 c-45 -12 -94 -63 -110 -116 -31 -106 -13 -304 32 -346 50
-47 64 -50 234 -57 91 -4 178 -4 193 0 25 6 27 10 24 54 l-3 47 -166 5 c-189
6 -209 13 -209 77 l0 33 180 0 180 0 6 26 c4 15 3 39 -2 53 -9 25 -13 26 -73
23 -35 -2 -76 2 -92 9 -23 9 -33 9 -42 0 -6 -6 -43 -11 -84 -11 l-73 0 0 35
c0 52 21 59 204 65 l160 5 8 33 c5 20 5 40 -2 52 -10 19 -21 20 -178 19 -92
-1 -176 -4 -187 -6z"/>
    <path id="p40" d="M6796 1692 c-3 -5 -8 -120 -11 -257 -4 -195 -3 -250 7 -257 16 -10
89 -10 105 0 7 4 13 38 15 82 l3 75 87 3 86 3 52 -78 c50 -75 54 -78 99 -84
86 -11 101 7 53 63 -16 18 -38 50 -51 72 l-22 39 35 32 c43 39 56 71 56 136 0
61 -18 105 -59 144 l-32 30 -209 3 c-114 2 -211 -1 -214 -6z m369 -116 c22
-16 24 -65 5 -101 -16 -30 -50 -38 -150 -31 -41 2 -83 5 -92 5 -15 1 -18 11
-18 64 0 35 3 67 7 70 13 14 228 8 248 -7z"/>
    <path id="p41" d="M7560 1676 c0 -13 9 -35 20 -49 11 -14 20 -28 20 -31 0 -3 25 -58 55
-121 30 -64 55 -119 55 -123 1 -4 22 -43 49 -87 42 -71 52 -81 82 -85 19 -3
47 -3 63 0 31 6 39 17 128 195 125 249 150 303 144 314 -4 6 -26 11 -50 11
-50 0 -71 -19 -109 -95 -13 -27 -43 -88 -66 -135 -64 -129 -75 -150 -82 -150
-4 0 -48 83 -99 184 -50 101 -98 187 -106 190 -9 3 -36 6 -60 6 -40 0 -44 -2
-44 -24z"/>
    <path id="p42" d="M6975 999 c-27 -32 -32 -84 -8 -84 15 0 73 80 73 100 0 26 -37 16
-65 -16z"/>
    <path id="p43" d="M7093 974 c-9 -23 13 -40 32 -24 8 7 15 19 15 26 0 19 -39 18 -47 -2z"/>
    <path id="p44" d="M3496 5517 c-25 -18 -17 -50 17 -61 23 -8 31 -6 50 12 17 18 19 26
11 40 -14 22 -54 27 -78 9z"/>
    <path id="p45" d="M8850 1045 c0 -18 38 -28 115 -29 55 -1 60 1 63 22 3 21 1 22 -87 22
-74 0 -91 -3 -91 -15z"/>
    <path id="p46" d="M9145 1050 c-4 -7 -3 -16 3 -22 14 -14 57 -6 57 12 0 18 -50 26 -60
10z"/>
  </g>
</svg>