<?xml version="1.0" encoding="UTF-8"?>
<svg xmlns="http://www.w3.org/2000/svg"
     viewBox="0 0 1000.000000 1000.000000"
     width="1000.000000pt" height="1000.000000pt">
  <defs>
    <linearGradient id="neon" x1="0%" y1="0%" x2="100%" y2="100%">
      <stop offset="0%"   stop-color="#00e5ff"/>
      <stop offset="50%"  stop-color="#a855f7"/>
      <stop offset="100%" stop-color="#ff00e5"/>
    </linearGradient>
    <filter id="glow" x="-20%" y="-20%" width="140%" height="140%">
      <feGaussianBlur stdDeviation="6" result="blur"/>
      <feMerge>
        <feMergeNode in="blur"/>
        <feMergeNode in="blur"/>
        <feMergeNode in="SourceGraphic"/>
      </feMerge>
    </filter>
  </defs>

  <!-- Linhas do capacete com gradiente neon -->
  <g id="helmet" transform="translate(0.000000,1000.000000) scale(0.100000,-0.100000)" fill="url(#neon)" stroke="none" filter="url(#glow)">
    <path id="p0" d="M9360 9910 c0 -5 -13 -10 -30 -10 -16 0 -30 -4 -30 -10 0 -5 -12 -10
-26 -10 -16 0 -37 -12 -54 -30 -15 -16 -35 -30 -44 -30 -9 0 -16 -7 -16 -16 0
-8 -18 -33 -40 -54 -22 -21 -40 -46 -40 -54 0 -9 -4 -16 -10 -16 -5 0 -10 -9
-10 -20 0 -11 -4 -20 -10 -20 -5 0 -10 -13 -10 -30 0 -16 -4 -30 -10 -30 -6 0
-10 -40 -10 -100 0 -60 4 -100 10 -100 6 0 10 -18 10 -40 0 -22 5 -40 10 -40
6 0 10 -9 10 -20 0 -11 5 -20 10 -20 6 0 10 -9 10 -20 0 -11 5 -20 10 -20 6 0
10 -7 10 -15 0 -20 125 -145 145 -145 8 0 15 -4 15 -10 0 -5 14 -10 30 -10 17
0 30 -4 30 -10 0 -5 9 -10 20 -10 20 0 20 -7 20 -1600 0 -1600 0 -1600 -40
-1600 -22 0 -40 -4 -40 -10 0 -6 -39 -10 -96 -10 -98 0 -124 9 -124 44 0 9 -4
16 -10 16 -5 0 -10 14 -10 30 0 17 -4 30 -10 30 -5 0 -10 9 -10 20 0 11 -4 20
-10 20 -5 0 -10 9 -10 20 0 11 -4 20 -10 20 -5 0 -10 14 -10 30 0 17 -4 30
-10 30 -5 0 -10 9 -10 20 0 11 -4 20 -10 20 -5 0 -10 9 -10 20 0 11 -4 20 -10
20 -5 0 -10 9 -10 20 0 11 -4 20 -10 20 -5 0 -10 9 -10 20 0 11 -4 20 -10 20
-5 0 -10 9 -10 20 0 11 -4 20 -10 20 -5 0 -10 9 -10 20 0 11 -4 20 -10 20 -5
0 -10 9 -10 20 0 11 -4 20 -10 20 -5 0 -10 9 -10 20 0 11 -4 20 -10 20 -5 0
-10 9 -10 20 0 11 -4 20 -10 20 -5 0 -10 8 -10 18 0 10 -9 24 -20 32 -11 8
-20 21 -20 30 0 9 -9 22 -20 30 -11 8 -20 21 -20 30 0 9 -9 22 -20 30 -11 8
-20 21 -20 30 0 9 -9 22 -20 30 -11 8 -20 21 -20 30 0 9 -9 22 -20 30 -11 8
-20 21 -20 28 0 8 -13 27 -30 42 -16 15 -30 33 -30 40 0 7 -13 25 -30 40 -16
15 -30 33 -30 40 0 7 -13 25 -30 40 -16 15 -30 35 -30 44 0 9 -8 16 -20 16
-11 0 -20 7 -20 15 0 17 -364 385 -381 385 -5 0 -32 23 -59 50 -27 28 -56 50
-64 50 -9 0 -16 9 -16 20 0 12 -7 20 -16 20 -9 0 -29 14 -44 30 -15 17 -33 30
-40 30 -7 0 -25 14 -40 30 -15 17 -34 30 -42 30 -7 0 -20 9 -28 20 -8 11 -21
20 -30 20 -9 0 -22 9 -30 20 -8 11 -21 20 -28 20 -8 0 -27 14 -42 30 -15 17
-35 30 -44 30 -9 0 -16 5 -16 10 0 6 -8 10 -18 10 -10 0 -24 9 -32 20 -8 11
-22 20 -32 20 -10 0 -18 5 -18 10 0 6 -8 10 -18 10 -10 0 -24 9 -32 20 -8 11
-22 20 -32 20 -10 0 -18 5 -18 10 0 6 -9 10 -20 10 -11 0 -20 5 -20 10 0 6 -9
10 -20 10 -11 0 -20 5 -20 10 0 6 -9 10 -20 10 -11 0 -20 5 -20 10 0 6 -9 10
-20 10 -11 0 -20 5 -20 10 0 6 -9 10 -20 10 -11 0 -20 5 -20 10 0 6 -9 10 -20
10 -11 0 -20 5 -20 10 0 6 -9 10 -20 10 -11 0 -20 5 -20 10 0 6 -9 10 -20 10
-11 0 -20 5 -20 10 0 6 -13 10 -28 10 -16 0 -34 8 -42 20 -8 12 -26 20 -42 20
-15 0 -28 5 -28 10 0 6 -9 10 -20 10 -11 0 -20 5 -20 10 0 6 -9 10 -20 10 -11
0 -20 5 -20 10 0 6 -13 10 -30 10 -16 0 -30 5 -30 10 0 6 -13 10 -30 10 -16 0
-30 5 -30 10 0 6 -13 10 -30 10 -16 0 -30 5 -30 10 0 6 -9 10 -20 10 -11 0
-20 5 -20 10 0 6 -13 10 -30 10 -16 0 -30 5 -30 10 0 6 -18 10 -40 10 -22 0
-40 5 -40 10 0 6 -13 10 -30 10 -16 0 -30 5 -30 10 0 6 -18 10 -40 10 -22 0
-40 5 -40 10 0 6 -13 10 -30 10 -16 0 -30 5 -30 10 0 6 -18 10 -40 10 -22 0
-40 5 -40 10 0 6 -22 10 -50 10 -27 0 -50 5 -50 10 0 6 -22 10 -50 10 -27 0
-50 5 -50 10 0 6 -27 10 -60 10 -33 0 -60 4 -60 10 0 6 -30 10 -70 10 -40 0
-70 4 -70 10 0 6 -37 10 -90 10 -53 0 -90 4 -90 10 0 6 -63 10 -170 10 -107 0
-170 4 -170 10 0 6 -40 10 -100 10 -60 0 -100 -4 -100 -10 0 -6 -63 -10 -170
-10 -107 0 -170 -4 -170 -10 0 -6 -37 -10 -90 -10 -53 0 -90 -4 -90 -10 0 -6
-27 -10 -60 -10 -33 0 -60 -4 -60 -10 0 -6 -27 -10 -60 -10 -33 0 -60 -4 -60
-10 0 -5 -22 -10 -50 -10 -27 0 -50 -4 -50 -10 0 -5 -22 -10 -50 -10 -27 0
-50 -4 -50 -10 0 -5 -13 -10 -30 -10 -16 0 -30 -4 -30 -10 0 -5 -22 -10 -50
-10 -27 0 -50 -4 -50 -10 0 -5 -13 -10 -30 -10 -16 0 -30 -4 -30 -10 0 -5 -13
-10 -30 -10 -16 0 -30 -4 -30 -10 0 -5 -13 -10 -30 -10 -16 0 -30 -4 -30 -10
0 -5 -18 -10 -40 -10 -22 0 -40 -4 -40 -10 0 -5 -9 -10 -20 -10 -11 0 -20 -4
-20 -10 0 -5 -13 -10 -30 -10 -16 0 -30 -4 -30 -10 0 -5 -9 -10 -20 -10 -11 0
-20 -4 -20 -10 0 -5 -13 -10 -30 -10 -16 0 -30 -4 -30 -10 0 -5 -13 -10 -30
-10 -16 0 -30 -4 -30 -10 0 -5 -9 -10 -20 -10 -11 0 -20 -4 -20 -10 0 -5 -13
-10 -30 -10 -16 0 -30 -4 -30 -10 0 -5 -9 -10 -20 -10 -11 0 -20 -4 -20 -10 0
-5 -9 -10 -20 -10 -11 0 -20 -4 -20 -10 0 -5 -9 -10 -20 -10 -11 0 -20 -4 -20
-10 0 -5 -9 -10 -20 -10 -11 0 -20 -4 -20 -10 0 -5 -9 -10 -20 -10 -11 0 -20
-4 -20 -10 0 -5 -9 -10 -20 -10 -11 0 -20 -4 -20 -10 0 -5 -9 -10 -20 -10 -11
0 -20 -4 -20 -10 0 -5 -9 -10 -20 -10 -11 0 -20 -4 -20 -10 0 -5 -8 -10 -18
-10 -10 0 -24 -9 -32 -20 -8 -11 -22 -20 -32 -20 -10 0 -18 -4 -18 -10 0 -5
-9 -10 -20 -10 -11 0 -20 -4 -20 -10 0 -5 -8 -10 -18 -10 -10 0 -24 -9 -32
-20 -8 -11 -22 -20 -32 -20 -10 0 -18 -4 -18 -10 0 -5 -8 -10 -18 -10 -10 0
-24 -9 -32 -20 -8 -11 -21 -20 -30 -20 -9 0 -22 -9 -30 -20 -8 -11 -21 -20
-30 -20 -9 0 -22 -9 -30 -20 -8 -11 -21 -20 -28 -20 -8 0 -27 -13 -42 -30 -15
-16 -33 -30 -40 -30 -6 0 -29 -18 -50 -40 -21 -22 -44 -40 -50 -40 -7 0 -25
-13 -40 -30 -15 -16 -33 -30 -39 -30 -7 0 -52 -40 -101 -90 -49 -49 -94 -90
-100 -90 -14 0 -200 -187 -200 -200 0 -6 -27 -38 -60 -70 -33 -32 -60 -64 -60
-70 0 -6 -22 -33 -50 -60 -27 -27 -50 -54 -50 -60 0 -7 -13 -25 -30 -40 -16
-15 -30 -33 -30 -40 0 -7 -13 -25 -30 -40 -16 -15 -30 -34 -30 -42 0 -7 -9
-20 -20 -28 -11 -8 -20 -21 -20 -30 0 -9 -9 -22 -20 -30 -11 -8 -20 -21 -20
-30 0 -9 -9 -22 -20 -30 -11 -8 -20 -22 -20 -32 0 -10 -4 -18 -10 -18 -5 0
-10 -9 -10 -20 0 -11 -4 -20 -10 -20 -5 0 -10 -8 -10 -18 0 -10 -9 -24 -20
-32 -11 -8 -20 -22 -20 -32 0 -10 -4 -18 -10 -18 -5 0 -10 -9 -10 -20 0 -11
-4 -20 -10 -20 -5 0 -10 -9 -10 -20 0 -11 -4 -20 -10 -20 -5 0 -10 -9 -10 -20
0 -11 -4 -20 -10 -20 -5 0 -10 -9 -10 -20 0 -11 -4 -20 -10 -20 -5 0 -10 -9
-10 -20 0 -11 -4 -20 -10 -20 -5 0 -10 -9 -10 -20 0 -11 -4 -20 -10 -20 -5 0
-10 -9 -10 -20 0 -11 -4 -20 -10 -20 -5 0 -10 -9 -10 -20 0 -11 -4 -20 -10
-20 -5 0 -10 -13 -10 -30 0 -16 -4 -30 -10 -30 -5 0 -10 -9 -10 -20 0 -11 -4
-20 -10 -20 -5 0 -10 -13 -10 -30 0 -16 -4 -30 -10 -30 -5 0 -10 -7 -10 -16 0
-40 -19 -44 -244 -44 -137 0 -216 -4 -216 -10 0 -6 -27 -10 -60 -10 -33 0 -60
-4 -60 -10 0 -5 -13 -10 -30 -10 -16 0 -30 -4 -30 -10 0 -5 -9 -10 -20 -10
-11 0 -20 -4 -20 -10 0 -5 -7 -10 -15 -10 -19 0 -165 -144 -165 -163 0 -7 -9
-19 -20 -27 -12 -8 -20 -26 -20 -42 0 -15 -4 -28 -10 -28 -5 0 -10 -9 -10 -20
0 -11 -4 -20 -10 -20 -7 0 -10 -280 -10 -820 0 -540 3 -820 10 -820 6 0 10
-13 10 -30 0 -16 5 -30 10 -30 6 0 10 -13 10 -28 0 -16 8 -34 20 -42 11 -8 20
-21 20 -30 0 -9 9 -22 20 -30 11 -8 20 -22 20 -32 0 -10 7 -18 16 -18 8 0 33
-18 54 -40 21 -22 46 -40 54 -40 9 0 16 -4 16 -10 0 -5 9 -10 20 -10 11 0 20
-4 20 -10 0 -5 9 -10 20 -10 11 0 20 -4 20 -10 0 -5 23 -10 50 -10 28 0 50 -4
50 -10 0 -6 82 -10 226 -10 235 0 254 -3 254 -44 0 -9 5 -16 10 -16 6 0 10
-13 10 -30 0 -16 5 -30 10 -30 6 0 10 -18 10 -40 0 -22 5 -40 10 -40 6 0 10
-9 10 -20 0 -11 5 -20 10 -20 6 0 10 -13 10 -30 0 -16 5 -30 10 -30 6 0 10 -9
10 -20 0 -11 5 -20 10 -20 6 0 10 -13 10 -30 0 -16 5 -30 10 -30 6 0 10 -9 10
-20 0 -11 5 -20 10 -20 6 0 10 -9 10 -20 0 -11 5 -20 10 -20 6 0 10 -13 10
-30 0 -16 5 -30 10 -30 6 0 10 -9 10 -20 0 -11 5 -20 10 -20 6 0 10 -9 10 -20
0 -11 5 -20 10 -20 6 0 10 -9 10 -20 0 -11 5 -20 10 -20 6 0 10 -9 10 -20 0
-11 5 -20 10 -20 6 0 10 -9 10 -20 0 -11 5 -20 10 -20 6 0 10 -9 10 -20 0 -11
5 -20 10 -20 6 0 10 -9 10 -20 0 -11 5 -20 10 -20 6 0 10 -9 10 -20 0 -11 5
-20 10 -20 6 0 10 -9 10 -20 0 -11 5 -20 10 -20 6 0 10 -8 10 -18 0 -10 9 -24
20 -32 11 -8 20 -22 20 -32 0 -10 5 -18 10 -18 6 0 10 -9 10 -20 0 -11 5 -20
10 -20 6 0 10 -8 10 -18 0 -10 9 -24 20 -32 11 -8 20 -21 20 -30 0 -9 9 -22
20 -30 11 -8 20 -21 20 -30 0 -9 9 -22 20 -30 11 -8 20 -21 20 -30 0 -9 9 -22
20 -30 11 -8 20 -21 20 -30 0 -9 9 -22 20 -30 11 -8 20 -21 20 -28 0 -8 14
-27 30 -42 17 -15 30 -33 30 -40 0 -7 14 -25 30 -40 17 -15 30 -33 30 -40 0
-6 23 -33 50 -60 28 -27 50 -54 50 -60 0 -6 54 -64 120 -130 66 -66 120 -126
120 -135 0 -8 7 -15 15 -15 9 0 47 -32 85 -70 38 -39 74 -70 80 -70 6 0 33
-22 60 -50 27 -27 54 -50 60 -50 6 0 27 -16 46 -35 31 -31 33 -37 20 -50 -8
-8 -19 -15 -25 -15 -16 0 -141 -127 -141 -143 0 -7 -9 -19 -20 -27 -11 -8 -20
-22 -20 -32 0 -10 -4 -18 -10 -18 -5 0 -10 -9 -10 -20 0 -11 -4 -20 -10 -20
-5 0 -10 -18 -10 -40 0 -22 -4 -40 -10 -40 -5 0 -10 -22 -10 -50 0 -27 -4 -50
-10 -50 -5 0 -10 -18 -10 -40 0 -22 5 -40 10 -40 6 0 10 -22 10 -50 0 -27 5
-50 10 -50 6 0 10 -18 10 -40 0 -22 5 -40 10 -40 6 0 10 -9 10 -20 0 -11 5
-20 10 -20 6 0 10 -8 10 -18 0 -10 9 -24 20 -32 11 -8 20 -20 20 -27 0 -19
126 -143 145 -143 8 0 15 -4 15 -10 0 -5 9 -10 20 -10 11 0 20 -4 20 -10 0 -5
9 -10 20 -10 11 0 20 -4 20 -10 0 -5 14 -10 30 -10 17 0 30 -4 30 -10 0 -6 27
-10 60 -10 33 0 60 -4 60 -10 0 -7 797 -10 2370 -10 1573 0 2370 3 2370 10 0
6 18 10 40 10 22 0 40 5 40 10 0 6 14 10 30 10 17 0 30 5 30 10 0 6 8 10 18
10 10 0 24 9 32 20 8 11 20 20 27 20 19 0 163 146 163 165 0 8 5 15 10 15 6 0
10 9 10 20 0 11 5 20 10 20 6 0 10 9 10 20 0 11 5 20 10 20 6 0 10 14 10 30 0
17 5 30 10 30 6 0 10 18 10 40 0 22 5 40 10 40 6 0 10 33 10 80 0 47 -4 80
-10 80 -5 0 -10 18 -10 40 0 22 -4 40 -10 40 -5 0 -10 17 -10 38 0 26 -6 42
-20 52 -11 8 -20 22 -20 32 0 10 -4 18 -10 18 -5 0 -10 9 -10 20 0 11 -4 20
-10 20 -5 0 -10 7 -10 15 0 20 -45 65 -65 65 -8 0 -15 9 -15 20 0 11 -7 20
-15 20 -18 0 -65 44 -65 60 0 15 25 40 40 40 6 0 29 18 50 40 21 22 43 40 50
40 6 0 46 36 90 80 44 44 84 80 90 80 14 0 180 167 180 180 0 6 32 42 70 80
39 38 70 74 70 80 0 6 18 29 40 50 22 21 40 44 40 50 0 6 18 29 40 50 22 21
40 45 40 52 0 7 9 20 20 28 11 8 20 21 20 30 0 9 9 22 20 30 11 8 20 21 20 28
0 8 14 27 30 42 17 15 30 35 30 44 0 9 5 16 10 16 6 0 10 8 10 18 0 10 9 24
20 32 11 8 20 22 20 32 0 10 5 18 10 18 6 0 10 8 10 18 0 10 9 24 20 32 11 8
20 22 20 32 0 10 5 18 10 18 6 0 10 8 10 18 0 10 9 24 20 32 11 8 20 22 20 32
0 10 5 18 10 18 6 0 10 9 10 20 0 11 5 20 10 20 6 0 10 9 10 20 0 11 5 20 10
20 6 0 10 9 10 20 0 11 5 20 10 20 6 0 10 9 10 20 0 11 5 20 10 20 6 0 10 9
10 20 0 11 5 20 10 20 6 0 10 9 10 20 0 11 5 20 10 20 6 0 10 14 10 30 0 17 5
30 10 30 6 0 10 9 10 20 0 11 5 20 10 20 6 0 10 9 10 20 0 11 5 20 10 20 6 0
10 9 10 20 0 11 5 20 10 20 6 0 10 14 10 30 0 17 5 30 10 30 6 0 10 9 10 20 0
11 5 20 10 20 6 0 10 9 10 20 0 11 5 20 10 20 6 0 10 14 10 30 0 17 5 30 10
30 6 0 10 14 10 30 0 17 5 30 10 30 6 0 10 14 10 30 0 17 5 30 10 30 6 0 10
14 10 30 0 17 5 30 10 30 6 0 10 12 10 26 0 52 8 54 274 54 157 0 246 4 246
10 0 6 14 10 30 10 17 0 30 5 30 10 0 6 9 10 20 10 11 0 20 5 20 10 0 6 9 10
20 10 11 0 20 5 20 10 0 6 7 10 15 10 20 0 165 145 165 165 0 8 5 15 10 15 6
0 10 9 10 20 0 11 5 20 10 20 6 0 10 9 10 20 0 11 5 20 10 20 6 0 10 14 10 30
0 17 5 30 10 30 7 0 10 277 10 810 0 533 -3 810 -10 810 -5 0 -10 14 -10 30 0
17 -4 30 -10 30 -5 0 -10 9 -10 20 0 11 -4 20 -10 20 -5 0 -10 8 -10 18 0 10
-9 24 -20 32 -11 8 -20 20 -20 27 0 23 -108 123 -133 123 -12 0 -29 9 -37 20
-8 12 -26 20 -42 20 -15 0 -28 5 -28 10 0 6 -7 10 -16 10 -44 0 -44 1 -44 524
0 324 -3 496 -10 496 -6 0 -10 33 -10 80 0 47 4 80 10 80 14 0 12 37 -2 44
-10 5 -10 7 0 12 14 7 16 44 2 44 -5 0 -10 14 -10 30 0 17 5 30 10 30 7 0 10
157 10 450 0 293 -3 450 -10 450 -6 0 -10 60 -10 160 0 100 4 160 10 160 6 0
10 14 10 30 0 17 -4 30 -10 30 -5 0 -10 9 -10 20 0 11 5 20 10 20 6 0 10 99
10 276 0 288 2 304 44 304 9 0 16 5 16 10 0 6 9 10 20 10 11 0 20 5 20 10 0 6
7 10 15 10 19 0 145 124 145 143 0 7 9 19 20 27 12 8 20 26 20 42 0 15 5 28
10 28 6 0 10 14 10 30 0 17 5 30 10 30 6 0 10 40 10 100 0 60 -4 100 -10 100
-5 0 -10 14 -10 30 0 17 -4 30 -10 30 -5 0 -10 9 -10 20 0 11 -4 20 -10 20 -5
0 -10 9 -10 20 0 11 -4 20 -10 20 -5 0 -10 7 -10 15 0 19 -104 125 -123 125
-7 0 -19 9 -27 20 -8 12 -26 20 -42 20 -15 0 -28 5 -28 10 0 6 -13 10 -30 10
-16 0 -30 5 -30 10 0 6 -43 10 -110 10 -67 0 -110 -4 -110 -10z m200 -220 c0
-5 9 -10 20 -10 11 0 20 -4 20 -10 0 -5 9 -10 20 -10 12 0 20 -7 20 -16 0 -9
14 -29 30 -44 18 -17 30 -38 30 -54 0 -14 5 -26 10 -26 6 0 10 -27 10 -60 0
-33 -4 -60 -10 -60 -5 0 -10 -13 -10 -30 0 -16 -4 -30 -10 -30 -5 0 -10 -7
-10 -15 0 -20 -45 -65 -65 -65 -8 0 -15 -4 -15 -10 0 -5 -9 -10 -20 -10 -11 0
-20 -4 -20 -10 0 -6 -33 -10 -78 -10 -66 0 -80 3 -92 20 -8 11 -20 20 -27 20
-25 0 -103 88 -103 115 0 14 -4 25 -10 25 -6 0 -10 27 -10 60 0 33 4 60 10 60
6 0 10 9 10 20 0 11 5 20 10 20 6 0 10 7 10 15 0 9 20 36 45 60 24 25 51 45
60 45 8 0 15 5 15 10 0 6 33 10 80 10 47 0 80 -4 80 -10z m-4220 -1420 c0 -6
43 -10 110 -10 67 0 110 -4 110 -10 0 -6 33 -10 80 -10 47 0 80 -4 80 -10 0
-6 27 -10 60 -10 33 0 60 -4 60 -10 0 -5 18 -10 40 -10 22 0 40 -4 40 -10 0
-5 23 -10 50 -10 28 0 50 -4 50 -10 0 -5 14 -10 30 -10 17 0 30 -4 30 -10 0
-5 23 -10 50 -10 28 0 50 -4 50 -10 0 -5 14 -10 30 -10 17 0 30 -4 30 -10 0
-5 18 -10 40 -10 22 0 40 -4 40 -10 0 -5 14 -10 30 -10 17 0 30 -4 30 -10 0
-5 14 -10 30 -10 17 0 30 -4 30 -10 0 -5 14 -10 30 -10 17 0 30 -4 30 -10 0
-5 14 -10 30 -10 17 0 30 -4 30 -10 0 -5 9 -10 20 -10 11 0 20 -4 20 -10 0 -5
13 -10 28 -10 16 0 34 -8 42 -20 8 -12 26 -20 42 -20 15 0 28 -4 28 -10 0 -5
9 -10 20 -10 11 0 20 -4 20 -10 0 -5 14 -10 30 -10 17 0 30 -4 30 -10 0 -5 9
-10 20 -10 11 0 20 -4 20 -10 0 -5 9 -10 20 -10 11 0 20 -4 20 -10 0 -5 9 -10
20 -10 11 0 20 -4 20 -10 0 -5 9 -10 20 -10 11 0 20 -4 20 -10 0 -5 8 -10 18
-10 10 0 24 -9 32 -20 8 -11 26 -20 40 -20 14 0 32 -9 40 -20 8 -11 22 -20 32
-20 10 0 18 -4 18 -10 0 -5 8 -10 18 -10 10 0 24 -9 32 -20 8 -11 22 -20 32
-20 10 0 18 -4 18 -10 0 -5 8 -10 18 -10 10 0 24 -9 32 -20 8 -11 21 -20 30
-20 9 0 22 -9 30 -20 8 -11 21 -20 28 -20 8 0 27 -13 42 -30 15 -16 34 -30 42
-30 7 0 20 -9 28 -20 8 -11 21 -20 28 -20 7 0 31 -18 52 -40 21 -22 44 -40 50
-40 6 0 33 -22 60 -50 27 -27 54 -50 60 -50 6 0 46 -36 90 -80 44 -44 86 -80
95 -80 8 0 15 -9 15 -20 0 -13 7 -20 20 -20 11 0 20 -7 20 -15 0 -9 50 -65
110 -125 61 -60 110 -114 110 -120 0 -7 18 -29 40 -50 22 -21 40 -44 40 -50 0
-7 14 -25 30 -40 16 -15 30 -34 30 -42 0 -7 9 -20 20 -28 11 -8 20 -21 20 -28
0 -8 14 -27 30 -42 17 -15 30 -35 30 -44 0 -9 5 -16 10 -16 6 0 10 -7 10 -16
0 -9 14 -29 30 -44 17 -15 30 -35 30 -44 0 -9 5 -16 10 -16 6 0 10 -9 10 -20
0 -11 5 -20 10 -20 6 0 10 -9 10 -20 0 -11 5 -20 10 -20 6 0 10 -8 10 -18 0
-10 9 -24 20 -32 11 -8 20 -22 20 -32 0 -10 5 -18 10 -18 6 0 10 -13 10 -28 0
-16 8 -34 20 -42 11 -8 20 -22 20 -32 0 -10 5 -18 10 -18 6 0 10 -9 10 -20 0
-11 5 -20 10 -20 6 0 10 -13 10 -30 0 -16 5 -30 10 -30 6 0 10 -9 10 -20 0
-11 5 -20 10 -20 6 0 10 -13 10 -30 0 -16 5 -30 10 -30 6 0 10 -9 10 -20 0
-11 5 -20 10 -20 6 0 10 -13 10 -30 0 -16 5 -30 10 -30 6 0 10 -9 10 -20 0
-11 5 -20 10 -20 6 0 10 -18 10 -40 0 -22 5 -40 10 -40 6 0 10 -9 10 -20 0
-11 5 -20 10 -20 6 0 10 -22 10 -50 0 -27 5 -50 10 -50 6 0 10 -13 10 -30 0
-16 5 -30 10 -30 6 0 10 -18 10 -40 0 -22 5 -40 10 -40 6 0 10 -18 10 -40 0
-22 5 -40 10 -40 6 0 10 -30 10 -70 0 -40 4 -70 10 -70 6 0 10 -30 10 -70 0
-40 4 -70 10 -70 6 0 10 -40 10 -100 0 -60 4 -100 10 -100 6 0 10 -80 10 -220
0 -140 -4 -220 -10 -220 -6 0 -10 -43 -10 -110 0 -67 -4 -110 -10 -110 -6 0
-10 -27 -10 -60 0 -33 -4 -60 -10 -60 -6 0 -10 -30 -10 -70 0 -40 -4 -70 -10
-70 -5 0 -10 -13 -10 -30 0 -16 -4 -30 -10 -30 -5 0 -10 -22 -10 -50 0 -27 -4
-50 -10 -50 -5 0 -10 -13 -10 -30 0 -16 -4 -30 -10 -30 -5 0 -10 -22 -10 -50
0 -27 -4 -50 -10 -50 -5 0 -10 -13 -10 -30 0 -16 -4 -30 -10 -30 -5 0 -10 -18
-10 -40 0 -22 -4 -40 -10 -40 -5 0 -10 -9 -10 -20 0 -11 -4 -20 -10 -20 -5 0
-10 -18 -10 -40 0 -22 -4 -40 -10 -40 -5 0 -10 -9 -10 -20 0 -11 -4 -20 -10
-20 -5 0 -10 -13 -10 -30 0 -16 -4 -30 -10 -30 -5 0 -10 -9 -10 -20 0 -11 -4
-20 -10 -20 -5 0 -10 -13 -10 -30 0 -16 -4 -30 -10 -30 -5 0 -10 -9 -10 -20 0
-11 -4 -20 -10 -20 -5 0 -10 -13 -10 -30 0 -16 -4 -30 -10 -30 -5 0 -10 -9
-10 -20 0 -11 -4 -20 -10 -20 -5 0 -10 -9 -10 -20 0 -11 -4 -20 -10 -20 -5 0
-10 -13 -10 -28 0 -16 -8 -34 -20 -42 -11 -8 -20 -26 -20 -40 0 -14 -9 -32
-20 -40 -11 -8 -20 -22 -20 -32 0 -10 -4 -18 -10 -18 -5 0 -10 -13 -10 -30 0
-16 -4 -30 -10 -30 -5 0 -10 -8 -10 -18 0 -10 -9 -24 -20 -32 -11 -8 -20 -22
-20 -32 0 -10 -4 -18 -10 -18 -5 0 -10 -8 -10 -18 0 -10 -9 -24 -20 -32 -11
-8 -20 -22 -20 -32 0 -10 -4 -18 -10 -18 -5 0 -10 -8 -10 -18 0 -10 -9 -24
-20 -32 -11 -8 -20 -22 -20 -32 0 -10 -4 -18 -10 -18 -5 0 -10 -8 -10 -18 0
-10 -9 -24 -20 -32 -11 -8 -20 -21 -20 -28 0 -8 -14 -27 -30 -42 -16 -15 -30
-34 -30 -42 0 -7 -9 -20 -20 -28 -11 -8 -20 -21 -20 -28 0 -8 -13 -27 -30 -42
-16 -15 -30 -33 -30 -40 0 -6 -18 -29 -40 -50 -22 -21 -40 -43 -40 -50 0 -6
-40 -51 -90 -100 -49 -49 -90 -96 -90 -105 0 -8 -9 -15 -20 -15 -11 0 -20 -7
-20 -15 0 -18 -64 -85 -80 -85 -6 0 -46 -36 -90 -80 -44 -44 -84 -80 -90 -80
-7 0 -29 -18 -50 -40 -21 -22 -45 -40 -52 -40 -7 0 -20 -9 -28 -20 -8 -11 -21
-20 -28 -20 -8 0 -27 -13 -42 -30 -15 -16 -35 -30 -44 -30 -9 0 -16 -4 -16
-10 0 -5 -9 -10 -20 -10 -11 0 -20 -4 -20 -10 0 -6 -130 -10 -370 -10 -240 0
-370 -4 -370 -10 0 -5 -13 -10 -30 -10 -16 0 -30 5 -30 10 0 6 -22 10 -50 10
-27 0 -50 -4 -50 -10 0 -7 -220 -10 -640 -10 -420 0 -640 3 -640 10 0 6 -113
10 -320 10 -207 0 -320 -4 -320 -10 0 -5 -18 -10 -40 -10 -22 0 -40 5 -40 10
0 6 -47 10 -120 10 -73 0 -120 -4 -120 -10 0 -7 -247 -10 -720 -10 -473 0
-720 3 -720 10 0 6 -8 10 -18 10 -10 0 -24 9 -32 20 -8 11 -21 20 -30 20 -9 0
-22 9 -30 20 -8 11 -21 20 -30 20 -9 0 -22 9 -30 20 -8 11 -21 20 -28 20 -8 0
-27 14 -42 30 -15 17 -33 30 -39 30 -7 0 -47 36 -91 80 -44 44 -84 80 -90 80
-14 0 -240 227 -240 240 0 6 -27 38 -60 70 -33 32 -60 64 -60 70 0 7 -13 25
-30 40 -16 15 -30 33 -30 40 0 7 -14 25 -30 40 -17 15 -30 33 -30 40 0 7 -13
25 -30 40 -16 15 -30 33 -30 40 0 7 -14 25 -30 40 -17 15 -30 35 -30 44 0 9
-4 16 -10 16 -5 0 -10 8 -10 18 0 10 -9 24 -20 32 -11 8 -20 21 -20 30 0 9 -9
22 -20 30 -11 8 -20 22 -20 32 0 10 -4 18 -10 18 -5 0 -10 9 -10 20 0 11 -4
20 -10 20 -5 0 -10 8 -10 18 0 10 -9 24 -20 32 -11 8 -20 22 -20 32 0 10 -4
18 -10 18 -5 0 -10 9 -10 20 0 11 -4 20 -10 20 -5 0 -10 9 -10 20 0 11 -4 20
-10 20 -5 0 -10 9 -10 20 0 11 -4 20 -10 20 -5 0 -10 9 -10 20 0 11 -4 20 -10
20 -5 0 -10 9 -10 20 0 11 -4 20 -10 20 -5 0 -10 9 -10 20 0 11 -4 20 -10 20
-5 0 -10 9 -10 20 0 11 -4 20 -10 20 -5 0 -10 9 -10 20 0 11 -4 20 -10 20 -5
0 -10 14 -10 30 0 17 -4 30 -10 30 -5 0 -10 9 -10 20 0 11 -4 20 -10 20 -5 0
-10 14 -10 30 0 17 -4 30 -10 30 -5 0 -10 9 -10 20 0 11 -4 20 -10 20 -5 0
-10 9 -10 20 0 11 -4 20 -10 20 -5 0 -10 14 -10 30 0 17 -4 30 -10 30 -5 0
-10 14 -10 30 0 17 -4 30 -10 30 -5 0 -10 14 -10 30 0 17 -4 30 -10 30 -5 0
-10 14 -10 30 0 17 -4 30 -10 30 -5 0 -10 18 -10 40 0 22 -4 40 -10 40 -5 0
-10 14 -10 30 0 17 -4 30 -10 30 -5 0 -10 18 -10 40 0 22 -4 40 -10 40 -5 0
-10 18 -10 40 0 22 -4 40 -10 40 -5 0 -10 18 -10 40 0 22 -4 40 -10 40 -5 0
-10 18 -10 40 0 22 -4 40 -10 40 -6 0 -10 27 -10 60 0 33 -4 60 -10 60 -6 0
-10 30 -10 70 0 40 -4 70 -10 70 -6 0 -10 57 -10 150 0 93 -4 150 -10 150 -6
0 -10 63 -10 170 0 107 4 170 10 170 6 0 10 50 10 130 0 80 4 130 10 130 6 0
10 27 10 60 0 33 4 60 10 60 6 0 10 23 10 50 0 28 5 50 10 50 6 0 10 18 10 40
0 22 5 40 10 40 6 0 10 23 10 50 0 28 5 50 10 50 6 0 10 14 10 30 0 17 5 30
10 30 6 0 10 18 10 40 0 22 5 40 10 40 6 0 10 14 10 30 0 17 5 30 10 30 6 0
10 18 10 40 0 22 5 40 10 40 6 0 10 9 10 20 0 11 5 20 10 20 6 0 10 14 10 30
0 17 5 30 10 30 6 0 10 9 10 20 0 11 5 20 10 20 6 0 10 14 10 30 0 17 5 30 10
30 6 0 10 9 10 20 0 11 5 20 10 20 6 0 10 9 10 20 0 11 5 20 10 20 6 0 10 9
10 20 0 11 5 20 10 20 6 0 10 9 10 20 0 11 5 20 10 20 6 0 10 9 10 20 0 11 5
20 10 20 6 0 10 9 10 20 0 11 5 20 10 20 6 0 10 9 10 20 0 11 5 20 10 20 6 0
10 9 10 20 0 11 5 20 10 20 6 0 10 9 10 20 0 11 5 20 10 20 6 0 10 8 10 18 0
10 9 24 20 32 11 8 20 22 20 32 0 10 5 18 10 18 6 0 10 8 10 18 0 10 9 24 20
32 11 8 20 21 20 30 0 9 9 22 20 30 11 8 20 21 20 30 0 9 9 22 20 30 11 8 20
21 20 28 0 7 18 31 40 52 22 21 40 44 40 50 0 6 18 29 40 50 22 21 40 44 40
50 0 7 14 25 30 40 17 15 30 33 30 39 0 7 50 61 110 121 61 60 110 116 110
125 0 8 7 15 16 15 8 0 42 27 74 60 32 33 66 60 74 60 9 0 16 9 16 20 0 12 7
20 16 20 8 0 33 18 54 40 21 22 44 40 50 40 6 0 29 18 50 40 21 22 44 40 50
40 7 0 25 14 40 30 15 17 34 30 42 30 7 0 20 9 28 20 8 11 21 20 30 20 9 0 22
9 30 20 8 11 21 20 30 20 9 0 22 9 30 20 8 11 21 20 30 20 9 0 22 9 30 20 8
11 22 20 32 20 10 0 18 5 18 10 0 6 8 10 18 10 10 0 24 9 32 20 8 11 22 20 32
20 10 0 18 5 18 10 0 6 9 10 20 10 11 0 20 5 20 10 0 6 9 10 20 10 11 0 20 5
20 10 0 6 9 10 20 10 11 0 20 5 20 10 0 6 8 10 18 10 10 0 24 9 32 20 8 11 22
20 32 20 10 0 18 5 18 10 0 6 9 10 20 10 11 0 20 5 20 10 0 6 14 10 30 10 17
0 30 5 30 10 0 6 9 10 20 10 11 0 20 5 20 10 0 6 9 10 20 10 11 0 20 5 20 10
0 6 14 10 30 10 17 0 30 5 30 10 0 6 9 10 20 10 11 0 20 5 20 10 0 6 14 10 30
10 17 0 30 5 30 10 0 6 9 10 20 10 11 0 20 5 20 10 0 6 14 10 30 10 17 0 30 5
30 10 0 6 9 10 20 10 11 0 20 5 20 10 0 6 18 10 40 10 22 0 40 5 40 10 0 6 14
10 30 10 17 0 30 5 30 10 0 6 18 10 40 10 22 0 40 5 40 10 0 6 14 10 30 10 17
0 30 5 30 10 0 6 18 10 40 10 22 0 40 5 40 10 0 6 18 10 40 10 22 0 40 5 40
10 0 6 27 10 60 10 33 0 60 4 60 10 0 6 18 10 40 10 22 0 40 5 40 10 0 6 23
10 50 10 28 0 50 5 50 10 0 6 30 10 70 10 40 0 70 4 70 10 0 6 47 10 120 10
73 0 120 4 120 10 0 6 117 10 330 10 213 0 330 -4 330 -10z m-4760 -2680 c0
-5 9 -10 20 -10 11 0 20 5 20 10 0 6 23 10 50 10 28 0 50 -4 50 -10 0 -6 27
-10 60 -10 60 0 60 0 60 -30 0 -16 -4 -30 -10 -30 -6 0 -10 -27 -10 -60 0 -33
-4 -60 -10 -60 -5 0 -10 -13 -10 -30 0 -16 -4 -30 -10 -30 -6 0 -10 -30 -10
-70 0 -40 -4 -70 -10 -70 -6 0 -10 -27 -10 -60 0 -33 -4 -60 -10 -60 -6 0 -10
-40 -10 -100 0 -60 -4 -100 -10 -100 -6 0 -10 -100 -10 -280 0 -180 4 -280 10
-280 6 0 10 -40 10 -100 0 -60 4 -100 10 -100 6 0 10 -30 10 -70 0 -40 4 -70
10 -70 6 0 10 -27 10 -60 0 -33 4 -60 10 -60 6 0 10 -18 10 -40 0 -22 5 -40
10 -40 6 0 10 -22 10 -50 0 -27 5 -50 10 -50 6 0 10 -13 10 -30 0 -30 0 -30
-200 -30 -127 0 -200 4 -200 10 0 6 -9 10 -20 10 -11 0 -20 5 -20 10 0 6 -8
10 -18 10 -10 0 -24 9 -32 20 -8 11 -20 20 -28 20 -18 0 -42 25 -42 44 0 9 -4
16 -10 16 -5 0 -10 9 -10 20 0 11 -4 20 -10 20 -5 0 -10 9 -10 20 0 11 -4 20
-10 20 -7 0 -10 260 -10 760 0 500 3 760 10 760 6 0 10 9 10 20 0 11 5 20 10
20 6 0 10 9 10 20 0 11 5 20 10 20 6 0 10 7 10 15 0 19 44 65 62 65 8 0 20 9
28 20 8 12 26 20 42 20 15 0 28 5 28 10 0 6 23 10 50 10 28 0 50 5 50 10 0 6
9 10 20 10 11 0 20 -4 20 -10z m8800 0 c0 -5 14 -10 30 -10 17 0 30 5 30 10 0
6 18 10 40 10 22 0 40 -4 40 -10 0 -5 14 -10 30 -10 17 0 30 -4 30 -10 0 -5
11 -10 25 -10 28 0 135 -99 135 -125 0 -8 5 -15 10 -15 6 0 10 -9 10 -20 0
-11 5 -20 10 -20 7 0 10 -263 10 -770 0 -507 -3 -770 -10 -770 -5 0 -10 -9
-10 -20 0 -11 -4 -20 -10 -20 -5 0 -10 -8 -10 -18 0 -10 -9 -24 -20 -32 -11
-8 -20 -22 -20 -32 0 -11 -7 -18 -18 -18 -10 0 -24 -9 -32 -20 -8 -11 -22 -20
-32 -20 -10 0 -18 -4 -18 -10 0 -5 -9 -10 -20 -10 -11 0 -20 -4 -20 -10 0 -6
-73 -10 -200 -10 -200 0 -200 0 -200 30 0 17 5 30 10 30 6 0 10 18 10 40 0 22
5 40 10 40 6 0 10 18 10 40 0 22 5 40 10 40 6 0 10 27 10 60 0 33 4 60 10 60
6 0 10 27 10 60 0 33 4 60 10 60 6 0 10 50 10 130 0 80 4 130 10 130 6 0 10
87 10 240 0 153 -4 240 -10 240 -6 0 -10 47 -10 120 0 73 -4 120 -10 120 -6 0
-10 27 -10 60 0 33 -4 60 -10 60 -6 0 -10 30 -10 70 0 40 -4 70 -10 70 -5 0
-10 18 -10 40 0 22 -4 40 -10 40 -5 0 -10 23 -10 50 0 28 -4 50 -10 50 -5 0
-10 13 -10 29 0 16 -5 31 -12 33 -9 3 -8 9 2 21 17 19 230 26 230 7z m-2660
-4560 c0 -6 120 -10 340 -10 220 0 340 -4 340 -10 0 -5 9 -10 20 -10 11 0 20
-4 20 -10 0 -5 9 -10 20 -10 11 0 20 -4 20 -10 0 -5 7 -10 16 -10 18 0 44 -24
44 -40 0 -7 14 -25 30 -40 17 -15 30 -35 30 -44 0 -9 5 -16 10 -16 6 0 10 -9
10 -20 0 -11 5 -20 10 -20 6 0 10 -43 10 -110 0 -67 -4 -110 -10 -110 -5 0
-10 -13 -10 -30 0 -16 -4 -30 -10 -30 -5 0 -10 -7 -10 -15 0 -20 -105 -125
-125 -125 -8 0 -15 -4 -15 -10 0 -5 -9 -10 -20 -10 -11 0 -20 -4 -20 -10 0 -5
-13 -10 -30 -10 -16 0 -30 -4 -30 -10 0 -7 -797 -10 -2370 -10 -1573 0 -2370
3 -2370 10 0 6 -9 10 -20 10 -11 0 -20 5 -20 10 0 6 -11 10 -25 10 -28 0 -155
118 -155 145 0 8 -4 15 -10 15 -5 0 -10 9 -10 20 0 11 -4 20 -10 20 -5 0 -10
23 -10 50 0 28 -4 50 -10 50 -5 0 -10 9 -10 20 0 11 5 20 10 20 6 0 10 23 10
50 0 28 5 50 10 50 6 0 10 9 10 20 0 11 5 20 10 20 6 0 10 8 10 18 0 10 9 24
20 32 11 8 20 20 20 28 0 17 45 62 62 62 8 0 20 9 28 20 8 12 26 20 42 20 15
0 28 5 28 10 0 6 18 10 40 10 22 0 40 5 40 10 0 7 680 10 2020 10 1340 0 2020
-3 2020 -10z"/>
    <path id="p1" d="M3420 7170 c0 -6 -43 -10 -110 -10 -67 0 -110 -4 -110 -10 0 -6 -27
-10 -60 -10 -33 0 -60 -4 -60 -10 0 -5 -18 -10 -40 -10 -22 0 -40 -4 -40 -10
0 -5 -18 -10 -40 -10 -22 0 -40 -4 -40 -10 0 -5 -13 -10 -30 -10 -16 0 -30 -4
-30 -10 0 -5 -13 -10 -30 -10 -16 0 -30 -4 -30 -10 0 -5 -9 -10 -20 -10 -11 0
-20 -4 -20 -10 0 -5 -13 -10 -30 -10 -16 0 -30 -4 -30 -10 0 -5 -9 -10 -20
-10 -11 0 -20 -4 -20 -10 0 -5 -9 -10 -20 -10 -11 0 -20 -4 -20 -10 0 -5 -9
-10 -20 -10 -11 0 -20 -4 -20 -10 0 -5 -8 -10 -18 -10 -10 0 -24 -9 -32 -20
-8 -11 -22 -20 -32 -20 -10 0 -18 -4 -18 -10 0 -5 -8 -10 -18 -10 -10 0 -24
-9 -32 -20 -8 -11 -21 -20 -28 -20 -8 0 -27 -13 -42 -30 -15 -16 -33 -30 -40
-30 -6 0 -29 -18 -50 -40 -21 -22 -43 -40 -49 -40 -15 0 -221 -207 -221 -221
0 -6 -13 -24 -30 -39 -16 -15 -30 -33 -30 -40 0 -7 -13 -25 -30 -40 -16 -15
-30 -34 -30 -42 0 -7 -9 -20 -20 -28 -11 -8 -20 -21 -20 -30 0 -9 -9 -22 -20
-30 -11 -8 -20 -22 -20 -32 0 -10 -4 -18 -10 -18 -5 0 -10 -8 -10 -18 0 -10
-9 -24 -20 -32 -11 -8 -20 -22 -20 -32 0 -10 -4 -18 -10 -18 -5 0 -10 -9 -10
-20 0 -11 -4 -20 -10 -20 -5 0 -10 -9 -10 -20 0 -11 -4 -20 -10 -20 -5 0 -10
-9 -10 -20 0 -11 -4 -20 -10 -20 -5 0 -10 -9 -10 -20 0 -11 -4 -20 -10 -20 -5
0 -10 -9 -10 -20 0 -11 -4 -20 -10 -20 -5 0 -10 -9 -10 -20 0 -11 -4 -20 -10
-20 -5 0 -10 -13 -10 -30 0 -16 -4 -30 -10 -30 -5 0 -10 -9 -10 -20 0 -11 -4
-20 -10 -20 -5 0 -10 -9 -10 -20 0 -11 -4 -20 -10 -20 -5 0 -10 -13 -10 -30 0
-16 -4 -30 -10 -30 -5 0 -10 -9 -10 -20 0 -11 -4 -20 -10 -20 -5 0 -10 -18
-10 -40 0 -22 -4 -40 -10 -40 -5 0 -10 -13 -10 -30 0 -16 -4 -30 -10 -30 -5 0
-10 -13 -10 -30 0 -16 -4 -30 -10 -30 -5 0 -10 -13 -10 -30 0 -16 -4 -30 -10
-30 -6 0 -10 -27 -10 -60 0 -33 -4 -60 -10 -60 -5 0 -10 -13 -10 -30 0 -16 -4
-30 -10 -30 -6 0 -10 -37 -10 -90 0 -53 -4 -90 -10 -90 -6 0 -10 -37 -10 -90
0 -53 -4 -90 -10 -90 -6 0 -10 -117 -10 -330 0 -213 4 -330 10 -330 6 0 10
-27 10 -60 0 -33 4 -60 10 -60 6 0 10 -30 10 -70 0 -40 4 -70 10 -70 6 0 10
-18 10 -40 0 -22 5 -40 10 -40 6 0 10 -18 10 -40 0 -22 5 -40 10 -40 6 0 10
-9 10 -20 0 -11 5 -20 10 -20 6 0 10 -13 10 -30 0 -16 5 -30 10 -30 6 0 10
-13 10 -30 0 -16 5 -30 10 -30 6 0 10 -9 10 -20 0 -11 5 -20 10 -20 6 0 10 -9
10 -20 0 -11 5 -20 10 -20 6 0 10 -9 10 -20 0 -11 5 -20 10 -20 6 0 10 -9 10
-20 0 -11 5 -20 10 -20 6 0 10 -9 10 -20 0 -11 5 -20 10 -20 6 0 10 -8 10 -18
0 -10 9 -24 20 -32 11 -8 20 -21 20 -30 0 -9 9 -22 20 -30 11 -8 20 -21 20
-30 0 -9 9 -22 20 -30 11 -8 20 -21 20 -28 0 -7 18 -31 40 -52 22 -21 40 -43
40 -49 0 -15 226 -241 241 -241 6 0 28 -18 49 -40 21 -22 44 -40 50 -40 7 0
25 -13 40 -30 15 -16 34 -30 42 -30 7 0 20 -9 28 -20 8 -11 22 -20 32 -20 10
0 18 -4 18 -10 0 -5 9 -10 20 -10 11 0 20 -4 20 -10 0 -5 9 -10 20 -10 11 0
20 -4 20 -10 0 -5 9 -10 20 -10 11 0 20 -4 20 -10 0 -5 9 -10 20 -10 11 0 20
-4 20 -10 0 -5 9 -10 20 -10 11 0 20 -4 20 -10 0 -5 9 -10 20 -10 11 0 20 -4
20 -10 0 -5 14 -10 30 -10 17 0 30 -4 30 -10 0 -5 14 -10 30 -10 17 0 30 -4
30 -10 0 -5 14 -10 30 -10 17 0 30 -4 30 -10 0 -5 18 -10 40 -10 22 0 40 -4
40 -10 0 -5 18 -10 40 -10 22 0 40 -4 40 -10 0 -5 23 -10 50 -10 28 0 50 -4
50 -10 0 -6 43 -10 110 -10 67 0 110 -4 110 -10 0 -7 610 -10 1810 -10 1200 0
1810 3 1810 10 0 6 40 10 100 10 60 0 100 4 100 10 0 6 23 10 50 10 28 0 50 5
50 10 0 6 18 10 40 10 22 0 40 5 40 10 0 6 18 10 40 10 22 0 40 5 40 10 0 6
14 10 30 10 17 0 30 5 30 10 0 6 14 10 30 10 17 0 30 5 30 10 0 6 13 10 28 10
16 0 34 8 42 20 8 12 26 20 42 20 15 0 28 5 28 10 0 6 9 10 20 10 11 0 20 5
20 10 0 6 9 10 20 10 11 0 20 5 20 10 0 6 8 10 18 10 10 0 24 9 32 20 8 11 22
20 32 20 10 0 18 5 18 10 0 6 9 10 20 10 11 0 20 5 20 10 0 6 7 10 16 10 9 0
29 14 44 30 15 17 33 30 40 30 7 0 25 14 40 30 15 17 33 30 40 30 6 0 33 23
60 50 27 28 56 50 64 50 9 0 16 9 16 20 0 13 7 20 20 20 11 0 20 7 20 15 0 9
32 47 70 85 39 38 70 75 70 82 0 8 9 20 20 28 11 8 20 21 20 28 0 8 14 27 30
42 17 15 30 34 30 42 0 7 9 20 20 28 11 8 20 22 20 32 0 10 5 18 10 18 6 0 10
13 10 28 0 16 8 34 20 42 11 8 20 22 20 32 0 10 5 18 10 18 6 0 10 9 10 20 0
11 5 20 10 20 6 0 10 14 10 30 0 17 5 30 10 30 6 0 10 9 10 20 0 11 5 20 10
20 6 0 10 14 10 30 0 17 5 30 10 30 6 0 10 14 10 30 0 17 5 30 10 30 6 0 10
18 10 40 0 22 5 40 10 40 6 0 10 14 10 30 0 17 5 30 10 30 6 0 10 27 10 60 0
33 4 60 10 60 6 0 10 27 10 60 0 33 4 60 10 60 6 0 10 123 10 350 0 227 -4
350 -10 350 -6 0 -10 30 -10 70 0 40 -4 70 -10 70 -6 0 -10 40 -10 100 0 60
-4 100 -10 100 -5 0 -10 14 -10 30 0 17 -4 30 -10 30 -5 0 -10 23 -10 50 0 28
-4 50 -10 50 -5 0 -10 18 -10 40 0 22 -4 40 -10 40 -5 0 -10 18 -10 40 0 22
-4 40 -10 40 -5 0 -10 9 -10 20 0 11 -4 20 -10 20 -5 0 -10 18 -10 40 0 22 -4
40 -10 40 -5 0 -10 14 -10 30 0 17 -4 30 -10 30 -5 0 -10 9 -10 20 0 11 -4 20
-10 20 -5 0 -10 9 -10 20 0 11 -4 20 -10 20 -5 0 -10 14 -10 30 0 17 -4 30
-10 30 -5 0 -10 9 -10 20 0 11 -4 20 -10 20 -5 0 -10 14 -10 30 0 17 -4 30
-10 30 -5 0 -10 9 -10 20 0 11 -4 20 -10 20 -5 0 -10 9 -10 20 0 11 -4 20 -10
20 -5 0 -10 9 -10 20 0 11 -4 20 -10 20 -5 0 -10 8 -10 18 0 10 -9 24 -20 32
-11 8 -20 22 -20 32 0 10 -4 18 -10 18 -5 0 -10 9 -10 20 0 11 -4 20 -10 20
-5 0 -10 8 -10 18 0 10 -9 24 -20 32 -11 8 -20 21 -20 30 0 9 -9 22 -20 30
-11 8 -20 21 -20 30 0 9 -9 22 -20 30 -11 8 -20 21 -20 28 0 7 -18 31 -40 52
-22 21 -40 44 -40 50 0 6 -27 38 -60 70 -33 32 -60 66 -60 74 0 9 -7 16 -15
16 -9 0 -51 36 -95 80 -44 44 -84 80 -91 80 -6 0 -24 14 -39 30 -15 17 -34 30
-42 30 -7 0 -20 9 -28 20 -8 11 -21 20 -30 20 -9 0 -22 9 -30 20 -8 11 -22 20
-32 20 -10 0 -18 5 -18 10 0 6 -9 10 -20 10 -11 0 -20 5 -20 10 0 6 -9 10 -20
10 -11 0 -20 5 -20 10 0 6 -9 10 -20 10 -11 0 -20 5 -20 10 0 6 -9 10 -20 10
-11 0 -20 5 -20 10 0 6 -9 10 -20 10 -11 0 -20 5 -20 10 0 6 -13 10 -30 10
-16 0 -30 5 -30 10 0 6 -9 10 -20 10 -11 0 -20 5 -20 10 0 6 -13 10 -30 10
-16 0 -30 5 -30 10 0 6 -13 10 -30 10 -16 0 -30 5 -30 10 0 6 -18 10 -40 10
-22 0 -40 5 -40 10 0 6 -22 10 -50 10 -27 0 -50 5 -50 10 0 6 -22 10 -50 10
-27 0 -50 5 -50 10 0 7 -203 10 -590 10 -387 0 -590 3 -590 10 0 7 -370 10
-1090 10 -720 0 -1090 -3 -1090 -10z m3180 -220 c0 -6 43 -10 110 -10 67 0
110 -4 110 -10 0 -5 18 -10 40 -10 22 0 40 -4 40 -10 0 -5 18 -10 40 -10 22 0
40 -4 40 -10 0 -5 14 -10 30 -10 17 0 30 -4 30 -10 0 -5 14 -10 30 -10 17 0
30 -4 30 -10 0 -5 9 -10 20 -10 11 0 20 -4 20 -10 0 -5 14 -10 30 -10 17 0 30
-4 30 -10 0 -5 9 -10 20 -10 11 0 20 -4 20 -10 0 -5 9 -10 20 -10 11 0 20 -4
20 -10 0 -5 9 -10 20 -10 11 0 20 -4 20 -10 0 -5 8 -10 18 -10 10 0 24 -9 32
-20 8 -11 21 -20 30 -20 9 0 22 -9 30 -20 8 -11 22 -20 32 -20 10 0 18 -4 18
-10 0 -5 9 -10 20 -10 13 0 20 -7 20 -20 0 -12 7 -20 16 -20 9 0 29 -13 44
-30 15 -16 33 -30 39 -30 15 0 221 -206 221 -221 0 -6 14 -24 30 -39 17 -15
30 -34 30 -42 0 -7 9 -20 20 -28 11 -8 20 -21 20 -30 0 -9 9 -22 20 -30 11 -8
20 -21 20 -28 0 -8 13 -27 30 -42 17 -15 30 -35 30 -44 0 -9 5 -16 10 -16 6 0
10 -9 10 -20 0 -11 5 -20 10 -20 6 0 10 -8 10 -18 0 -10 9 -24 20 -32 12 -8
20 -26 20 -42 0 -15 5 -28 10 -28 6 0 10 -9 10 -20 0 -11 5 -20 10 -20 6 0 10
-9 10 -20 0 -11 5 -20 10 -20 6 0 10 -9 10 -20 0 -11 5 -20 10 -20 6 0 10 -9
10 -20 0 -11 5 -20 10 -20 6 0 10 -13 10 -30 0 -16 5 -30 10 -30 6 0 10 -9 10
-20 0 -11 5 -20 10 -20 6 0 10 -13 10 -30 0 -16 5 -30 10 -30 6 0 10 -13 10
-30 0 -16 5 -30 10 -30 6 0 10 -13 10 -30 0 -16 5 -30 10 -30 6 0 10 -13 10
-30 0 -16 5 -30 10 -30 6 0 10 -13 10 -30 0 -16 5 -30 10 -30 6 0 10 -22 10
-50 0 -27 5 -50 10 -50 6 0 10 -22 10 -50 0 -27 5 -50 10 -50 6 0 10 -33 10
-80 0 -47 4 -80 10 -80 6 0 10 -43 10 -110 0 -67 4 -110 10 -110 6 0 10 -93
10 -260 0 -167 -4 -260 -10 -260 -6 0 -10 -40 -10 -100 0 -60 -4 -100 -10
-100 -5 0 -10 -22 -10 -50 0 -27 -4 -50 -10 -50 -5 0 -10 -18 -10 -40 0 -22
-4 -40 -10 -40 -5 0 -10 -13 -10 -30 0 -16 -4 -30 -10 -30 -5 0 -10 -13 -10
-30 0 -16 -4 -30 -10 -30 -5 0 -10 -13 -10 -30 0 -16 -4 -30 -10 -30 -5 0 -10
-9 -10 -20 0 -11 -4 -20 -10 -20 -5 0 -10 -9 -10 -20 0 -11 -4 -20 -10 -20 -5
0 -10 -9 -10 -20 0 -11 -4 -20 -10 -20 -5 0 -10 -9 -10 -20 0 -11 -4 -20 -10
-20 -5 0 -10 -8 -10 -18 0 -10 -9 -24 -20 -32 -11 -8 -20 -21 -20 -30 0 -9 -9
-22 -20 -30 -11 -8 -20 -21 -20 -30 0 -9 -9 -22 -20 -30 -11 -8 -20 -20 -20
-28 0 -7 -27 -40 -60 -72 -33 -32 -60 -64 -60 -70 0 -14 -106 -120 -121 -120
-6 0 -24 -13 -39 -30 -15 -16 -33 -30 -40 -30 -6 0 -29 -18 -50 -40 -21 -22
-46 -40 -54 -40 -9 0 -16 -4 -16 -10 0 -5 -8 -10 -18 -10 -10 0 -24 -9 -32
-20 -8 -11 -22 -20 -32 -20 -10 0 -18 -4 -18 -10 0 -5 -8 -10 -18 -10 -10 0
-24 -9 -32 -20 -8 -11 -26 -20 -40 -20 -14 0 -32 -9 -40 -20 -8 -12 -26 -20
-42 -20 -15 0 -28 -4 -28 -10 0 -5 -13 -10 -30 -10 -16 0 -30 -4 -30 -10 0 -5
-13 -10 -30 -10 -16 0 -30 -4 -30 -10 0 -5 -9 -10 -20 -10 -11 0 -20 -4 -20
-10 0 -5 -18 -10 -40 -10 -22 0 -40 -4 -40 -10 0 -6 -27 -10 -60 -10 -33 0
-60 -4 -60 -10 0 -6 -33 -10 -80 -10 -47 0 -80 -4 -80 -10 0 -7 -623 -10
-1850 -10 -1227 0 -1850 3 -1850 10 0 6 -33 10 -80 10 -47 0 -80 4 -80 10 0 6
-22 10 -50 10 -27 0 -50 5 -50 10 0 6 -18 10 -40 10 -22 0 -40 5 -40 10 0 6
-9 10 -20 10 -11 0 -20 5 -20 10 0 6 -18 10 -40 10 -22 0 -40 5 -40 10 0 6 -9
10 -20 10 -11 0 -20 5 -20 10 0 6 -9 10 -20 10 -11 0 -20 5 -20 10 0 6 -13 10
-30 10 -16 0 -30 5 -30 10 0 6 -8 10 -18 10 -10 0 -24 9 -32 20 -8 11 -22 20
-32 20 -10 0 -18 5 -18 10 0 6 -9 10 -20 10 -11 0 -20 5 -20 10 0 6 -8 10 -18
10 -10 0 -24 9 -32 20 -8 11 -21 20 -30 20 -9 0 -22 9 -30 20 -8 11 -21 20
-28 20 -7 0 -31 18 -52 40 -21 22 -43 40 -49 40 -17 0 -141 128 -141 145 0 8
-9 15 -20 15 -12 0 -20 7 -20 16 0 8 -18 33 -40 54 -22 21 -40 45 -40 52 0 7
-9 20 -20 28 -11 8 -20 21 -20 30 0 9 -9 22 -20 30 -11 8 -20 21 -20 30 0 9
-9 22 -20 30 -11 8 -20 22 -20 32 0 10 -4 18 -10 18 -5 0 -10 9 -10 20 0 11
-4 20 -10 20 -5 0 -10 9 -10 20 0 11 -4 20 -10 20 -5 0 -10 9 -10 20 0 11 -4
20 -10 20 -5 0 -10 9 -10 20 0 11 -4 20 -10 20 -5 0 -10 14 -10 30 0 17 -4 30
-10 30 -5 0 -10 14 -10 30 0 17 -4 30 -10 30 -5 0 -10 14 -10 30 0 17 -4 30
-10 30 -5 0 -10 18 -10 40 0 22 -4 40 -10 40 -5 0 -10 23 -10 50 0 28 -4 50
-10 50 -6 0 -10 43 -10 109 0 78 -4 111 -12 114 -10 4 -9 8 2 17 11 9 12 13 3
17 -16 6 -19 463 -3 463 6 0 10 47 10 120 0 73 4 120 10 120 6 0 10 30 10 70
0 40 4 70 10 70 6 0 10 23 10 50 0 28 5 50 10 50 6 0 10 18 10 40 0 22 5 40
10 40 6 0 10 18 10 40 0 22 5 40 10 40 6 0 10 14 10 30 0 17 5 30 10 30 6 0
10 14 10 30 0 17 5 30 10 30 6 0 10 14 10 30 0 17 5 30 10 30 6 0 10 9 10 20
0 11 5 20 10 20 6 0 10 14 10 30 0 17 5 30 10 30 6 0 10 9 10 20 0 11 5 20 10
20 6 0 10 14 10 30 0 17 5 30 10 30 6 0 10 8 10 18 0 10 9 24 20 32 11 8 20
26 20 40 0 14 9 32 20 40 11 8 20 26 20 40 0 14 9 32 20 40 11 8 20 22 20 32
0 10 5 18 10 18 6 0 10 9 10 20 0 11 5 20 10 20 6 0 10 8 10 18 0 10 9 24 20
32 11 8 20 21 20 30 0 9 9 22 20 30 11 8 20 21 20 28 0 8 14 27 30 42 17 15
30 33 30 40 0 6 18 29 40 50 22 21 40 43 40 49 0 15 126 141 140 141 6 0 33
23 60 50 27 28 54 50 60 50 7 0 25 14 40 30 15 17 34 30 42 30 7 0 20 9 28 20
8 11 21 20 30 20 9 0 22 9 30 20 8 11 22 20 32 20 10 0 18 5 18 10 0 6 9 10
20 10 11 0 20 5 20 10 0 6 9 10 20 10 11 0 20 5 20 10 0 6 9 10 20 10 11 0 20
5 20 10 0 6 14 10 30 10 17 0 30 5 30 10 0 6 14 10 30 10 17 0 30 5 30 10 0 6
14 10 30 10 17 0 30 5 30 10 0 6 14 10 30 10 17 0 30 5 30 10 0 6 18 10 40 10
22 0 40 5 40 10 0 6 23 10 50 10 28 0 50 5 50 10 0 7 297 10 870 10 573 0 870
3 870 10 0 7 280 10 820 10 540 0 820 -3 820 -10z"/>
  </g>
</svg>