<?xml version="1.0" standalone="no"?>
<!DOCTYPE svg PUBLIC "-//W3C//DTD SVG 20010904//EN"
 "http://www.w3.org/TR/2001/REC-SVG-20010904/DTD/svg10.dtd">
<svg version="1.0" xmlns="http://www.w3.org/2000/svg"
 width="1365.000000pt" height="768.000000pt" viewBox="0 0 1365.000000 768.000000"
 preserveAspectRatio="xMidYMid meet">
<metadata>
Created by potrace 1.16, written by Peter Selinger 2001-2019
</metadata>
<g transform="translate(0.000000,768.000000) scale(0.100000,-0.100000)"
fill="#000000" stroke="none">
<path d="M6640 7323 c-284 -26 -420 -47 -603 -93 -238 -60 -458 -138 -662
-235 -66 -32 -125 -58 -132 -58 -7 0 -10 -4 -7 -9 3 -4 1 -8 -5 -8 -6 0 -51
-25 -101 -55 -49 -30 -90 -51 -90 -47 0 4 -4 2 -8 -4 -4 -6 -38 -32 -77 -57
-38 -25 -107 -73 -152 -107 -48 -35 -88 -58 -94 -54 -7 4 -9 3 -6 -3 4 -6 -10
-25 -31 -42 -20 -17 -45 -39 -54 -47 -9 -9 -22 -13 -28 -9 -6 3 -9 2 -8 -3 4
-12 -332 -348 -344 -344 -5 1 -7 -2 -3 -8 4 -6 -16 -36 -43 -68 -98 -114 -231
-304 -322 -460 -20 -34 -40 -59 -45 -55 -4 5 -5 3 -2 -3 4 -7 -13 -50 -37 -95
-183 -346 -316 -799 -356 -1214 -18 -185 -1 -165 -138 -165 -64 0 -123 -4
-130 -9 -8 -5 -12 -22 -10 -42 l3 -34 126 -3 126 -3 6 -187 c13 -364 77 -722
194 -1079 25 -76 28 -93 16 -97 -9 -4 -13 -17 -11 -38 2 -27 8 -34 30 -36 22
-3 29 -11 42 -50 8 -26 18 -67 21 -91 6 -33 19 -57 59 -100 28 -31 67 -83 86
-114 45 -74 219 -338 262 -398 157 -219 437 -507 696 -715 104 -83 383 -274
451 -309 18 -9 83 -66 145 -126 l111 -109 146 0 c123 0 159 -4 240 -25 358
-95 624 -130 994 -129 375 1 676 44 1015 144 19 5 103 10 186 10 l151 0 42 40
c23 22 47 37 53 34 6 -4 8 -3 5 3 -11 17 112 128 207 188 48 30 89 55 91 55 5
0 247 171 255 180 3 3 25 21 50 40 147 112 387 344 530 510 35 41 69 74 75 72
5 -2 7 -1 3 3 -9 9 131 191 144 187 5 -1 7 2 3 7 -7 13 53 97 67 93 5 -1 7 2
3 7 -3 6 14 41 38 78 24 37 62 100 84 138 23 39 67 98 98 133 l57 62 128 0
c109 0 129 2 134 16 14 36 -11 44 -136 44 -91 0 -119 3 -115 12 4 12 57 16
265 18 67 0 79 9 69 53 -6 22 -8 22 -156 19 l-150 -3 13 43 c7 24 27 84 44
133 216 634 256 1338 111 1980 -29 130 -85 310 -145 468 l-52 137 49 0 c39 0
50 4 60 21 14 26 -1 39 -46 39 -84 1 -98 9 -127 71 l-27 59 158 0 c123 0 161
3 170 14 9 11 8 18 -4 30 -14 13 -44 16 -191 16 l-174 0 -19 39 c-11 21 -17
42 -13 46 4 5 2 5 -4 2 -10 -6 -31 25 -32 47 0 5 -4 12 -10 15 -5 3 -39 51
-75 106 -267 404 -679 793 -1113 1051 -458 272 -942 425 -1494 474 -105 9
-446 11 -530 3z m556 -113 c212 -21 501 -78 694 -138 212 -66 495 -186 483
-205 -3 -6 -1 -7 5 -3 17 11 302 -143 302 -163 0 -4 6 -8 13 -8 15 0 147 -88
218 -145 30 -24 65 -51 79 -60 105 -69 407 -372 546 -548 72 -91 264 -375 264
-391 0 -5 -5 -9 -11 -9 -6 0 -9 -12 -7 -27 2 -22 9 -29 33 -33 24 -4 36 -16
59 -59 16 -30 30 -63 31 -75 1 -12 3 -27 4 -33 0 -7 7 -13 14 -13 12 0 57 -91
57 -114 0 -5 -46 38 -102 95 -57 56 -102 107 -101 111 2 4 -1 8 -6 8 -5 0 -26
15 -46 34 -31 30 -35 37 -24 54 18 29 4 52 -31 53 -16 1 -35 2 -40 3 -10 1
-489 472 -490 482 0 2 -16 19 -37 37 -20 17 -51 47 -68 66 -16 19 -48 51 -70
72 -98 92 -554 549 -549 549 3 0 -14 16 -38 37 -23 20 -42 42 -42 50 1 8 -1
12 -4 8 -7 -6 -83 66 -78 74 2 3 -612 4 -1365 1 l-1369 -5 -308 -308 c-170
-169 -311 -305 -315 -302 -4 3 -5 2 -2 -2 9 -11 -147 -163 -159 -156 -6 3 -8
2 -3 -2 10 -11 -784 -806 -797 -798 -5 3 -6 2 -3 -4 3 -5 -30 -45 -75 -89 -97
-96 -96 -89 18 136 122 242 248 430 430 645 479 567 1156 970 1869 1113 138
28 334 58 430 65 100 9 492 6 591 -3z m-1521 -473 l1 -82 -266 -267 -265 -268
-140 0 -140 0 350 350 350 350 55 0 55 0 0 -83z m145 -31 c0 -83 -4 -117 -13
-125 -8 -6 -18 -7 -22 -3 -5 4 -5 2 -2 -4 6 -11 -416 -438 -425 -429 -8 8 -10
-13 -15 -163 -3 -125 -7 -146 -24 -163 -23 -23 -24 -38 -3 -67 18 -27 65 -29
89 -5 18 17 14 71 -5 83 -16 10 -8 266 8 262 6 -1 11 2 10 7 -5 14 374 401
386 394 6 -3 8 -2 3 2 -4 5 9 26 29 46 l37 38 -2 120 -2 121 56 0 55 0 0 -119
0 -118 -35 -34 c-19 -19 -52 -52 -73 -73 -20 -22 -54 -57 -74 -78 -36 -37 -38
-42 -38 -106 -1 -43 -6 -74 -15 -86 -31 -41 -7 -86 45 -86 41 0 65 37 49 74
-7 14 -16 26 -21 26 -4 0 -8 26 -8 58 0 48 4 62 23 80 13 12 27 19 31 15 4 -5
6 -3 4 4 -4 15 131 155 142 148 5 -3 12 0 16 6 4 8 3 9 -4 5 -7 -4 -12 -2 -12
3 0 6 5 11 10 11 6 0 10 52 10 135 l0 135 125 0 125 0 0 -98 0 -97 -80 -85
-80 -85 0 -159 c0 -140 2 -157 16 -152 9 3 20 6 25 6 5 0 9 62 9 141 l0 141
46 52 c26 28 52 49 58 48 6 -2 8 -1 4 3 -3 4 7 21 23 37 28 30 29 33 29 139
l0 109 50 0 50 0 0 -108 0 -107 -85 -85 -85 -85 0 -107 c0 -107 5 -123 34
-112 13 5 16 24 16 103 l0 96 85 85 85 85 0 117 0 118 55 0 55 0 0 -112 0
-112 -85 -87 -86 -87 3 -89 c3 -80 5 -88 23 -88 18 0 21 8 25 82 l5 83 69 69
c38 39 74 67 79 64 6 -3 7 -1 3 5 -3 6 -2 13 4 17 6 4 10 57 10 131 l0 124
270 0 270 0 0 -162 c1 -144 3 -166 19 -185 11 -13 23 -23 27 -23 18 0 44 -35
44 -60 0 -34 17 -50 55 -50 38 0 55 16 55 51 0 29 -31 59 -59 59 -8 0 -32 17
-53 37 l-38 37 0 148 0 148 60 0 60 0 0 -115 0 -116 98 -95 c53 -52 95 -101
94 -107 -2 -7 0 -9 3 -5 4 4 17 1 29 -7 17 -13 82 -15 394 -15 326 0 376 -2
397 -16 54 -35 116 18 82 70 -24 36 -54 42 -81 17 -22 -21 -30 -21 -392 -21
l-369 1 -102 99 -103 100 0 105 0 105 60 0 60 0 0 -83 c0 -79 1 -85 30 -112
17 -16 30 -35 30 -42 0 -8 4 -12 9 -9 10 6 26 -23 22 -39 -2 -5 1 -7 5 -2 4 4
15 0 25 -9 15 -13 49 -15 228 -14 204 1 212 0 241 -22 29 -21 33 -21 58 -7 33
18 41 62 16 90 -20 23 -51 25 -74 4 -13 -11 -56 -15 -219 -15 l-204 -2 -58 58
-59 58 0 73 0 73 313 0 312 0 123 -123 c67 -68 119 -127 115 -132 -4 -4 -3 -5
3 -2 14 8 167 -146 157 -158 -4 -4 -3 -5 3 -2 6 3 39 -23 74 -58 l64 -65 -538
0 -538 0 -75 -72 c-73 -72 -74 -73 -54 -89 20 -17 23 -15 83 47 l61 64 556 0
556 0 347 -345 347 -345 -132 -1 c-73 -1 -136 -1 -140 0 -5 1 -7 -11 -5 -26
l3 -28 165 -3 165 -2 213 -213 212 -212 0 -274 c-1 -327 4 -313 -116 -319 -82
-5 -117 11 -107 48 6 22 -29 60 -57 60 -25 0 -60 -34 -60 -59 0 -21 44 -61 66
-61 8 0 24 -10 37 -22 19 -20 31 -23 95 -21 47 1 81 7 97 17 13 9 26 12 29 8
10 -16 17 -82 11 -101 -6 -20 -13 -21 -144 -21 l-137 0 -54 55 c-30 31 -55 61
-56 68 -3 30 -5 37 -20 51 -34 34 -94 4 -94 -46 0 -25 35 -58 61 -58 13 0 45
-23 77 -55 31 -31 66 -58 77 -61 12 -3 78 -4 148 -2 70 2 127 -1 127 -5 0 -5
5 -5 10 -2 6 4 10 -33 10 -104 l0 -111 -40 -25 c-22 -14 -40 -32 -40 -40 0
-13 -33 -15 -231 -15 l-230 0 -58 55 c-85 81 -100 85 -311 85 l-180 0 0 -25 0
-25 181 0 c113 0 188 -4 202 -11 12 -6 48 -37 80 -68 l58 -56 244 -3 c230 -3
244 -4 250 -22 3 -10 22 -35 41 -54 l34 -34 0 -102 c0 -93 -2 -104 -25 -134
-15 -19 -25 -46 -25 -65 0 -71 0 -71 -201 -71 -137 0 -186 -3 -207 -14 -15 -8
-81 -69 -147 -135 -112 -113 -118 -122 -103 -138 16 -16 25 -9 147 110 l130
127 185 0 185 0 31 -44 c28 -41 30 -51 30 -133 0 -88 0 -89 -30 -106 -16 -10
-34 -26 -39 -35 -13 -24 19 -120 47 -143 22 -17 22 -22 20 -201 l-3 -183 -152
-3 -153 -3 0 -34 0 -35 156 0 c120 0 155 -3 152 -12 -3 -9 -46 -14 -149 -18
l-144 -5 0 -25 0 -25 122 -5 c94 -4 121 -8 115 -17 -5 -7 -223 -228 -485 -492
-262 -263 -477 -483 -477 -488 0 -10 29 -85 35 -91 2 -2 139 133 306 300 264
264 305 300 200 173 -13 -16 -28 -29 -33 -28 -4 2 -7 -1 -5 -6 4 -18 -119
-154 -285 -316 l-169 -164 21 -41 20 -40 -73 0 c-52 0 -80 -5 -97 -17 -24 -16
-24 -16 -11 0 12 16 8 17 -51 17 -59 0 -67 -3 -103 -34 -21 -19 -41 -34 -44
-33 -3 1 -7 -2 -9 -8 -7 -21 -35 -44 -46 -38 -6 3 -8 3 -4 -2 11 -11 -12 -36
-26 -28 -6 3 -7 2 -3 -2 10 -11 -113 -136 -126 -128 -6 3 -7 1 -3 -5 6 -11
-10 -27 -29 -27 -5 0 -10 -7 -10 -15 -1 -8 -7 -14 -15 -12 -8 2 -11 0 -7 -4 4
-4 -32 -48 -80 -96 l-88 -88 -1325 0 -1325 0 -260 260 -259 260 -69 0 c-47 0
-66 -3 -61 -11 5 -8 1 -8 -14 0 -11 6 -50 11 -86 11 -36 0 -66 2 -66 5 0 3 7
22 15 42 l16 37 -166 159 c-91 88 -163 162 -160 165 3 3 -4 11 -14 19 -17 11
-184 207 -229 268 -9 11 119 -114 283 -278 164 -164 299 -296 301 -295 14 14
41 99 33 103 -5 4 -6 11 -3 17 4 6 3 8 -3 5 -13 -8 -546 527 -536 538 4 4 4 6
-2 3 -5 -3 -28 12 -50 33 l-40 40 95 -45 c102 -48 230 -87 349 -106 55 -9 79
-18 95 -36 12 -12 37 -29 56 -37 l36 -14 -1 27 c0 18 -10 36 -27 50 -37 28
-39 86 -5 117 51 47 56 48 350 44 l277 -3 0 26 c0 20 -5 26 -22 27 -32 1 -59
6 -66 13 -10 11 28 148 58 208 24 47 30 71 30 123 0 65 0 65 -28 65 -21 0 -29
5 -29 18 0 21 26 54 39 46 4 -3 7 -2 6 3 -4 15 23 54 45 62 18 7 9 14 -63 50
-109 53 -207 126 -245 181 -26 37 -30 54 -34 122 -3 85 6 188 18 188 4 0 20
-28 35 -62 38 -82 132 -175 218 -217 152 -72 248 -79 748 -56 254 12 616 19
1190 21 521 3 847 8 885 15 85 15 137 40 195 95 l50 47 0 -54 c0 -78 -23 -114
-123 -189 -48 -36 -99 -77 -114 -92 l-28 -28 50 0 c37 0 58 7 87 26 24 17 57
29 88 32 l50 5 0 -46 c0 -51 -12 -67 -70 -97 -33 -17 -38 -25 -42 -59 -4 -47
1 -69 11 -52 5 8 65 11 202 9 l194 -3 -80 -32 c-70 -27 -179 -53 -328 -78
l-38 -6 54 -60 c96 -106 147 -229 147 -356 l0 -63 -34 0 -33 0 -7 78 c-4 42
-16 106 -28 142 l-22 65 -8 -35 c-4 -19 -5 -85 -2 -147 6 -106 5 -112 -15
-122 -50 -27 -21 -33 132 -29 130 4 170 9 277 37 132 34 283 88 363 128 26 13
53 21 60 17 7 -4 9 -4 5 1 -10 11 111 87 125 79 7 -4 9 -3 4 1 -4 5 28 45 71
89 59 60 88 100 114 156 41 87 63 191 55 261 -6 45 -4 49 16 50 12 0 40 1 62
3 22 1 72 3 111 4 68 2 72 3 78 28 13 49 -3 54 -160 54 l-144 0 -21 42 c-38
77 -128 184 -250 301 -67 63 -122 114 -123 113 -9 -6 -87 77 -100 107 -26 63
-73 114 -120 132 l-44 17 -7 101 c-4 56 -13 120 -21 141 -7 22 -10 44 -7 49 3
6 2 7 -4 4 -11 -7 -25 17 -47 87 -23 71 -19 145 7 129 5 -3 7 -1 4 4 -4 6 1
25 9 43 14 27 15 51 10 139 -8 113 -25 159 -80 210 -25 24 -34 45 -56 128 -6
25 -18 44 -29 48 -14 4 -20 19 -24 58 -8 79 -76 298 -102 327 -12 14 -28 48
-34 75 -17 71 -51 141 -103 210 -24 33 -61 98 -82 145 -21 47 -42 90 -47 96
-6 7 36 11 134 13 78 1 144 4 146 6 2 2 1 11 -2 20 -5 13 -30 15 -157 15
l-150 0 -39 63 c-22 34 -41 66 -43 71 -3 10 -15 24 -126 152 -69 80 -146 146
-249 216 -29 20 -49 39 -45 43 4 4 3 5 -3 4 -5 -2 -66 25 -135 59 -136 66
-297 119 -455 148 -155 29 -502 26 -645 -5 -310 -67 -549 -185 -771 -380 -31
-27 -60 -47 -65 -43 -5 4 -6 3 -2 -2 3 -4 -26 -46 -65 -92 -51 -59 -79 -84
-95 -84 -26 0 -39 -24 -24 -43 8 -10 1 -28 -28 -71 -22 -32 -40 -63 -40 -67 0
-5 -33 -9 -72 -9 -81 0 -102 -8 -96 -36 3 -16 14 -20 65 -22 l61 -3 -20 -47
c-12 -26 -25 -49 -29 -50 -5 -2 -7 -8 -4 -12 3 -5 -3 -18 -13 -28 -31 -31
-102 -139 -123 -187 -11 -25 -28 -50 -38 -57 -10 -7 -30 -31 -45 -52 -21 -31
-26 -51 -26 -98 0 -39 -7 -72 -20 -97 -31 -62 -60 -179 -67 -271 -6 -83 -20
-115 -48 -106 -5 1 -18 -5 -27 -14 -23 -21 -55 -37 -89 -44 -15 -3 -37 -14
-50 -25 -23 -19 -24 -23 -27 -206 -3 -198 3 -239 39 -250 11 -4 17 -11 14 -16
-3 -5 1 -6 9 -3 8 3 32 -4 55 -15 22 -12 47 -21 55 -21 8 0 26 -5 40 -11 24
-11 25 -15 28 -123 2 -66 -1 -114 -7 -118 -5 -4 -74 -8 -152 -8 l-141 0 -29
-29 c-27 -27 -88 -179 -95 -241 -2 -14 -9 -24 -16 -22 -8 1 -11 -2 -7 -7 3 -6
-23 -45 -57 -88 -76 -94 -120 -175 -144 -263 -16 -57 -28 -77 -103 -160 -47
-52 -89 -94 -94 -92 -5 1 -6 -2 -3 -7 4 -5 -7 -32 -23 -60 -64 -108 -86 -232
-56 -323 9 -29 24 -62 32 -73 9 -11 -35 32 -98 95 -131 133 -159 178 -159 256
l0 54 70 0 c65 0 70 1 76 24 13 54 5 61 -79 64 l-77 3 0 1207 0 1207 507 507
508 508 175 0 175 0 229 229 c127 127 235 227 240 224 6 -3 8 -3 4 2 -5 5 15
32 43 62 l50 53 -3 90 -3 90 48 0 47 0 0 -114z m1296 -555 c181 -34 365 -97
496 -171 92 -53 109 -65 100 -75 -4 -5 -2 -5 5 -1 16 9 143 -95 229 -187 39
-42 97 -113 128 -159 l57 -83 -56 -3 c-47 -3 -55 -6 -55 -22 0 -21 19 -25 95
-21 38 2 42 0 60 -36 24 -47 30 -62 18 -48 -12 15 -99 52 -174 75 -37 11 -69
27 -73 35 -4 11 -22 15 -69 15 -34 0 -114 7 -177 15 -525 67 -1451 54 -1885
-27 -60 -11 -163 -22 -228 -25 l-119 -5 48 71 47 71 197 0 c108 0 199 3 202 6
3 3 4 14 1 24 -5 18 -17 20 -182 22 l-176 3 115 115 c131 132 211 191 360 266
171 85 351 139 546 164 111 14 365 4 490 -19z m204 -711 c414 -24 641 -63 787
-135 132 -65 237 -196 289 -361 33 -103 30 -111 -10 -27 -19 40 -54 93 -78
119 -85 92 -257 169 -466 208 -191 36 -442 50 -917 50 -642 1 -1026 -32 -1294
-109 -134 -38 -208 -76 -266 -134 -22 -22 -44 -37 -49 -34 -5 3 -6 1 -3 -4 4
-6 -2 -18 -13 -28 -27 -25 -80 -108 -96 -153 -13 -35 -13 -34 -7 33 18 213
170 389 403 467 92 31 101 32 315 38 l220 5 0 25 c0 28 -15 25 200 39 188 12
792 12 985 1z m-1860 -80 c-20 -13 -33 -13 -25 0 3 6 14 10 23 10 15 0 15 -2
2 -10z m1805 -150 c308 -14 522 -38 557 -64 15 -11 16 -18 3 -78 -16 -76 -53
-139 -100 -168 -18 -11 -87 -47 -153 -79 -79 -39 -143 -79 -189 -119 l-70 -60
-284 8 c-156 5 -387 10 -512 11 -130 1 -230 6 -234 12 -20 33 -20 83 0 143 11
35 17 67 13 71 -12 12 -145 15 -209 5 l-57 -9 -54 76 c-96 137 -117 196 -73
206 44 9 399 37 579 44 272 12 526 12 783 1z m-1450 -132 c4 -40 5 -109 3
-153 l-3 -80 -147 -5 c-88 -3 -152 -9 -158 -16 -6 -6 -10 -35 -8 -65 l3 -54
349 -3 c344 -2 377 -5 360 -34 -3 -4 -187 -8 -410 -8 -346 0 -404 2 -404 14 0
8 12 21 28 28 26 13 27 17 32 101 3 58 10 91 18 96 8 5 13 12 12 16 -4 12 61
93 99 123 69 55 171 108 213 112 3 0 9 -33 13 -72z m2336 -13 c69 -42 144
-123 173 -185 17 -38 21 -69 24 -195 2 -82 1 -147 -3 -143 -4 4 -13 44 -21 90
-34 198 -93 328 -187 414 -33 29 -57 54 -53 54 5 0 35 -16 67 -35z m-143 -5
c32 -19 50 -35 46 -42 -4 -6 -3 -9 2 -5 13 8 57 -32 91 -83 36 -54 65 -129 87
-229 15 -65 15 -76 2 -96 -12 -18 -13 -35 -5 -89 14 -105 25 -143 48 -172 18
-22 21 -40 21 -110 l0 -83 -40 -28 c-22 -15 -43 -39 -47 -52 -3 -13 -1 -66 6
-117 15 -129 14 -184 -5 -205 -15 -16 -15 -20 0 -41 19 -27 20 -95 2 -163 -15
-56 -60 -150 -77 -161 -13 -8 -9 97 18 456 32 444 -6 713 -108 766 -19 9 -67
18 -122 21 -51 2 -93 5 -94 6 -6 7 104 457 112 457 6 0 34 -14 63 -30z m-2535
-32 c-5 -7 -19 -30 -32 -50 -25 -41 -39 -52 -20 -15 15 26 51 77 56 77 2 0 0
-6 -4 -12z m432 -70 c16 -24 28 -48 28 -55 0 -7 4 -10 8 -7 4 2 10 -5 14 -16
3 -11 11 -20 16 -20 5 0 9 -4 9 -8 0 -5 -25 -10 -55 -11 l-55 -2 0 80 c0 45 2
81 4 81 2 0 16 -19 31 -42z m-2207 -1620 l-3 -540 -38 136 c-84 302 -137 661
-137 941 0 104 1 111 22 120 12 6 25 22 29 37 6 23 3 29 -20 39 l-27 12 8 91
c10 111 44 348 64 436 8 36 33 133 57 215 l42 150 3 -548 c1 -302 1 -792 0
-1089z m6442 1367 c76 -315 95 -476 94 -825 0 -231 -4 -300 -23 -430 -28 -193
-71 -400 -116 -550 l-34 -115 0 1095 0 1095 20 -55 c11 -30 37 -127 59 -215z
m-2361 55 l-23 -133 -65 7 c-36 3 -119 6 -185 6 -105 0 -117 2 -106 15 7 9 15
14 17 11 2 -2 16 7 30 20 13 12 87 55 162 94 76 39 148 81 161 95 13 14 25 23
27 21 2 -2 -6 -63 -18 -136z m-2476 95 c-3 -9 -8 -14 -10 -11 -3 3 -2 9 2 15
9 16 15 13 8 -4z m-41 -165 c-21 -102 -31 -136 -44 -138 -14 -3 -15 3 -2 65
18 92 60 220 70 211 1 -2 -9 -64 -24 -138z m84 44 c-8 -38 -19 -100 -24 -139
-8 -62 -9 -65 -11 -24 -1 48 10 123 30 197 18 66 21 43 5 -34z m-281 -245
c-16 -19 -32 -34 -33 -33 -7 5 19 151 36 198 l17 50 5 -90 c5 -88 4 -90 -25
-125z m3366 51 c19 -104 19 -841 1 -955 -28 -173 -84 -297 -168 -374 -69 -64
-103 -71 -322 -71 -264 0 -422 10 -422 27 0 17 35 17 263 -1 209 -17 280 -10
375 37 101 49 162 135 215 302 42 133 52 224 38 351 -36 328 -35 290 -15 679
7 128 13 128 35 5z m117 -15 c0 -27 -4 -61 -8 -75 -5 -16 -8 11 -8 75 0 64 3
91 8 75 4 -14 8 -47 8 -75z m-2449 48 c6 -21 11 -96 11 -168 0 -114 -3 -133
-20 -155 -26 -34 -26 -99 0 -133 19 -24 20 -40 20 -446 l0 -420 -117 5 c-234
11 -345 38 -424 104 -35 28 -36 30 -42 122 -7 103 -17 140 -59 211 l-28 48 0
335 0 336 -30 30 c-57 57 -53 58 190 58 l220 0 0 -510 0 -510 90 0 90 0 0 39
c0 47 -11 57 -72 66 l-48 7 0 334 0 334 35 17 c40 19 48 38 43 109 -3 49 -3
49 -40 52 -21 2 -38 6 -38 10 0 4 -3 17 -6 30 -7 23 -6 23 72 21 82 -2 105 9
91 45 -6 14 -39 16 -327 16 -312 0 -320 0 -320 20 0 21 -5 21 522 28 l177 2
10 -37z m1201 16 c245 -6 446 -12 446 -12 2 -2 -42 -268 -57 -352 -5 -25 27
-32 39 -8 5 10 26 94 47 187 l39 168 104 -4 c96 -4 106 -7 123 -29 67 -85 83
-318 55 -784 -29 -485 -25 -445 -54 -472 -29 -27 -71 -48 -122 -60 -31 -8
-376 10 -386 20 -6 5 31 237 60 382 13 66 20 124 15 129 -18 20 -35 -7 -58
-95 -36 -141 -112 -393 -121 -404 -5 -6 -59 -7 -152 -3 -78 4 -360 8 -625 9
l-483 1 -2 675 -3 676 345 -7 c190 -3 545 -11 790 -17z m-2018 -134 c5 -16 12
-133 15 -260 6 -253 -5 -400 -37 -472 -19 -42 -20 -43 -67 -42 -68 1 -93 11
-116 41 -17 22 -18 30 -7 42 7 9 17 13 23 9 5 -3 7 -1 3 5 -3 5 -2 12 3 14 23
8 44 127 48 283 6 191 -6 292 -38 318 l-22 17 37 34 c38 37 60 45 115 42 29
-1 36 -6 43 -31z m3330 -93 c-20 -5 -22 0 -15 43 l6 39 12 -39 c9 -33 8 -41
-3 -43z m-3525 -179 c9 -190 -19 -360 -60 -364 -18 -2 -37 1 -80 12 l-38 10 1
218 c1 246 -8 218 85 254 61 24 69 25 78 11 4 -7 10 -71 14 -141z m3568 93
c44 -19 62 -49 70 -116 4 -30 8 -70 11 -89 3 -23 -4 -50 -23 -87 -23 -47 -28
-51 -39 -36 -11 15 -14 13 -27 -18 -8 -19 -18 -61 -21 -92 -9 -75 9 -111 72
-141 30 -15 47 -29 46 -40 -1 -9 2 -14 7 -11 5 3 9 2 9 -3 0 -4 3 -17 6 -29 5
-19 1 -20 -53 -22 -33 0 -72 -6 -87 -12 -15 -5 -36 -10 -48 -10 -19 0 -19 4
-13 78 4 42 15 106 26 141 23 76 24 159 4 346 -8 77 -15 143 -15 148 0 12 38
8 75 -7z m-3809 -58 c-3 -13 -6 -96 -6 -184 l0 -161 -25 5 c-30 5 -28 -9 -25
182 1 130 4 156 18 167 28 20 45 16 38 -9z m3696 -356 c-8 -39 -10 -21 -9 103
l0 150 10 -103 c6 -66 6 -119 -1 -150z m163 -69 c5 -28 4 -32 -9 -27 -11 4
-16 19 -16 48 1 45 13 35 25 -21z m-365 -183 c-41 -185 -108 -304 -198 -353
-27 -15 -52 -27 -55 -27 -3 0 18 22 46 49 96 91 155 219 192 416 26 140 29
148 33 74 2 -40 -5 -101 -18 -159z m-2964 -70 c45 -134 137 -250 234 -298 25
-12 76 -29 114 -39 62 -15 99 -15 462 -3 373 12 849 10 1125 -7 97 -5 106 -7
102 -24 -5 -18 -23 -19 -352 -19 -190 -1 -452 -5 -581 -10 -129 -5 -377 -12
-550 -16 -303 -6 -317 -5 -380 15 -77 26 -153 68 -144 82 3 5 1 8 -4 7 -15 -5
-73 52 -66 64 4 6 3 8 -4 5 -20 -13 -93 131 -121 238 -15 58 -14 75 7 75 14 0
23 -15 36 -58 38 -128 98 -220 155 -240 40 -14 46 -4 17 27 -29 32 -61 81 -51
81 3 0 0 7 -9 15 -18 18 -54 113 -60 158 -2 17 -6 37 -7 42 -2 6 5 31 16 57
l20 48 8 -62 c4 -34 19 -96 33 -138z m90 2 c4 -24 4 -45 1 -48 -7 -7 -57 150
-56 174 1 28 48 -79 55 -126z m-402 80 c2 -10 10 -42 16 -72 7 -30 23 -93 37
-140 18 -63 22 -97 18 -132 -6 -44 -19 -67 -31 -55 -8 7 -61 297 -68 364 -5
52 -3 61 9 57 8 -3 16 -13 19 -22z m3707 -90 c4 -4 11 -34 14 -67 l7 -60 -50
-33 c-63 -41 -147 -132 -163 -177 -7 -20 -18 -34 -24 -32 -19 7 -17 60 5 99
23 42 24 94 1 117 -9 11 -12 29 -7 65 3 28 6 61 6 73 0 20 6 22 58 26 68 5
143 0 153 -11z m-3821 -207 c0 -107 2 -115 32 -174 29 -56 30 -63 16 -77 -14
-15 -17 -13 -28 20 -17 51 -79 127 -136 164 -53 36 -100 51 -162 54 l-41 1 16
41 c33 91 24 85 142 88 58 2 118 1 134 -1 l27 -3 0 -113z m89 -125 l0 -25 -14
25 c-9 15 -14 51 -13 90 l0 65 14 -65 c7 -36 13 -76 13 -90z m3411 3 c-40
-146 -100 -222 -209 -265 -56 -22 -60 -22 -771 -24 -666 -1 -966 -8 -1546 -35
-303 -13 -400 -1 -535 67 -111 56 -221 225 -193 297 4 10 20 -2 59 -42 67 -70
141 -115 225 -138 85 -22 349 -23 860 -4 391 15 988 20 1510 11 226 -4 315 -2
346 7 57 18 141 79 190 140 23 28 46 48 50 45 4 -4 4 -2 1 5 -4 6 1 25 10 42
l18 31 3 -30 c2 -16 -6 -65 -18 -107z m443 120 c-2 -7 4 -10 11 -7 10 4 22 -8
35 -34 l21 -40 -45 -22 c-69 -34 -131 -109 -156 -191 -14 -47 -19 -81 -14
-105 l6 -36 -32 19 c-17 10 -44 30 -60 45 -26 23 -29 33 -29 86 0 76 9 124 23
115 6 -3 7 -1 3 6 -17 26 69 121 149 164 34 19 91 19 88 0z m-4188 -124 c25
-6 42 -15 39 -20 -3 -5 1 -6 8 -4 17 7 101 -63 92 -76 -3 -5 -22 5 -43 21 -45
36 -128 70 -174 70 -24 0 -28 3 -17 10 20 13 42 12 95 -1z m4259 -81 c-27 -18
-60 -50 -73 -70 -13 -21 -26 -36 -29 -33 -14 14 111 135 141 135 5 0 -13 -15
-39 -32z m-4240 -12 c28 -13 65 -38 81 -57 48 -53 53 -67 10 -30 -60 52 -119
74 -213 79 -82 4 -83 5 -65 24 16 17 26 19 77 13 32 -3 81 -17 110 -29z m4366
-6 c13 -8 12 -10 -3 -10 -48 0 -136 -70 -170 -135 -20 -37 -22 -16 -3 28 16
39 71 95 111 113 36 16 46 17 65 4z m-4222 -35 c-3 -3 -9 2 -12 12 -6 14 -5
15 5 6 7 -7 10 -15 7 -18z m-183 -34 c60 -21 129 -70 146 -104 10 -19 7 -18
-17 5 -56 52 -119 73 -224 73 -52 0 -108 -4 -123 -8 -26 -7 -27 -6 -17 12 22
42 146 53 235 22z m3864 -66 c0 -5 -8 6 -19 25 -11 19 -19 40 -19 45 0 6 8 -6
19 -25 11 -19 19 -39 19 -45z m626 65 c3 -6 -4 -10 -16 -10 -66 0 -151 -51
-191 -114 -17 -28 -19 -28 -13 -6 22 78 98 140 172 140 23 0 45 -4 48 -10z
m-4170 -199 c-19 -39 -19 -49 5 -95 10 -22 17 -43 14 -48 -3 -5 -2 -8 3 -6 4
1 28 -18 53 -41 46 -43 166 -121 188 -121 7 0 12 -4 12 -10 0 -15 -27 -12
-105 10 -103 29 -207 84 -250 131 -36 40 -37 44 -31 93 4 28 9 86 13 129 5 73
7 79 32 88 14 5 37 16 51 23 l25 15 3 -69 c2 -48 -2 -79 -13 -99z m3842 117
c-3 -8 -6 -5 -6 6 -1 11 2 17 5 13 3 -3 4 -12 1 -19z m400 14 c7 -4 -11 -8
-42 -9 -68 -2 -137 -32 -183 -81 -21 -22 -30 -28 -23 -14 20 38 76 88 112 99
41 13 119 16 136 5z m-4534 -31 c59 -25 62 -34 5 -13 -63 23 -180 20 -247 -6
-30 -12 -59 -18 -64 -15 -6 3 -7 1 -4 -4 4 -6 0 -16 -8 -23 -18 -15 -19 -7 -4
22 11 20 57 44 114 59 47 13 155 2 208 -20z m3947 -78 c0 -2 -5 -1 -12 3 -7 4
-8 3 -4 -5 4 -6 11 -9 16 -6 10 6 113 -59 105 -66 -5 -6 27 -10 77 -11 54 0
108 -52 108 -105 0 -45 -29 -104 -59 -119 -11 -6 -18 -13 -16 -16 3 -3 -1 -8
-9 -11 -8 -3 -17 1 -20 9 -4 11 -34 14 -153 14 l-148 0 1 133 c1 72 5 157 9
188 l8 57 48 -31 c27 -16 49 -32 49 -34z m237 35 c-3 -7 -5 -2 -5 12 0 14 2
19 5 13 2 -7 2 -19 0 -25z m408 -3 l30 -14 -27 4 c-16 3 -39 7 -52 10 -30 6
-120 -11 -158 -29 -15 -8 -25 -10 -22 -4 25 41 169 61 229 33z m-4695 -14
c-84 -8 -177 -45 -223 -89 -18 -17 -26 -21 -22 -10 10 24 70 68 124 89 31 12
70 18 121 17 l75 -1 -75 -6z m4716 -60 c16 -9 14 -10 -11 -4 -16 5 -63 8 -104
7 -46 0 -67 3 -55 8 26 11 146 3 170 -11z m-4713 2 c-7 -2 -19 -2 -25 0 -7 3
-2 5 12 5 14 0 19 -2 13 -5z m4517 -7 c0 -2 -7 -7 -16 -10 -8 -3 -12 -2 -9 4
6 10 25 14 25 6z m-4646 -36 c-48 -27 -75 -53 -117 -110 l-17 -25 14 30 c19
40 71 92 115 115 57 30 61 23 5 -10z m764 -122 c37 -23 69 -46 70 -51 2 -4 9
-4 15 -1 7 4 5 -1 -5 -11 -15 -17 -19 -16 -75 16 -32 18 -71 42 -86 53 -39 29
-97 106 -97 129 0 16 12 9 55 -35 31 -31 86 -76 123 -100z m4127 142 c3 -6 -1
-7 -9 -4 -18 7 -21 14 -7 14 6 0 13 -4 16 -10z m-30 -55 c54 -26 69 -37 100
-75 12 -15 3 -10 -24 13 -43 35 -133 77 -169 77 -9 0 -24 4 -31 9 -31 20 75
-2 124 -24z m-4760 13 c-16 -6 -42 -20 -57 -30 -16 -11 -28 -14 -28 -8 0 12
77 50 100 49 8 0 2 -5 -15 -11z m-138 -97 c-26 -28 -47 -56 -47 -62 0 -7 -3
-10 -6 -7 -3 4 0 16 6 28 16 31 82 102 88 95 3 -2 -16 -27 -41 -54z m-199 -29
c-24 -26 -46 -46 -50 -44 -5 1 -7 -1 -6 -5 1 -5 -15 -42 -35 -83 -65 -130 -60
-226 15 -322 73 -92 209 -159 421 -208 53 -12 97 -26 97 -31 0 -13 -20 -11
-118 11 -171 38 -292 85 -378 148 -45 33 -107 119 -100 139 3 7 0 13 -6 13 -7
0 -9 27 -6 84 4 72 10 96 41 158 43 87 160 232 165 205 2 -11 -14 -38 -40 -65z
m327 53 c-70 -50 -86 -64 -112 -102 -15 -23 -30 -40 -31 -38 -10 10 66 101
106 126 47 30 73 40 37 14z m4781 -21 c72 -49 135 -135 133 -184 0 -8 -5 -1
-11 15 -17 49 -83 130 -134 164 -26 17 -43 31 -37 31 6 0 28 -12 49 -26z
m-4747 -32 c-51 -33 -97 -87 -133 -158 -14 -27 -26 -44 -26 -38 0 18 30 86 46
101 8 8 14 19 14 24 0 11 118 99 133 99 6 0 -9 -13 -34 -28z m4640 12 c13 -12
-10 -11 -44 2 l-40 15 40 -7 c22 -3 42 -8 44 -10z m49 -18 c71 -37 142 -147
141 -216 l-1 -35 -8 30 c-20 78 -70 151 -130 191 -22 15 -40 31 -40 35 0 12 7
11 38 -5z m-4656 -52 c-56 -47 -101 -114 -124 -183 -18 -55 -19 -55 -14 -14 8
77 64 161 145 215 41 28 38 21 -7 -18z m4583 7 c88 -39 156 -142 154 -233 l-1
-53 -9 43 c-12 62 -48 128 -94 175 -22 22 -39 43 -38 46 1 4 -6 7 -15 8 -9 1
-42 11 -72 23 l-55 21 45 -6 c24 -3 62 -14 85 -24z m-4920 -65 c18 -83 71
-195 128 -267 54 -67 176 -169 241 -200 25 -13 45 -28 43 -34 -4 -12 -41 -9
-122 11 -162 40 -280 91 -344 150 -41 36 -76 98 -66 114 3 6 1 10 -6 10 -19 0
-5 110 21 161 29 57 81 132 87 126 2 -3 11 -35 18 -71z m396 18 c-69 -63 -112
-142 -136 -244 l-15 -65 6 64 c10 115 67 218 151 271 26 17 49 30 51 30 2 0
-24 -25 -57 -56z m90 -14 c-28 -22 -51 -44 -51 -48 0 -4 -11 -19 -25 -34 -14
-15 -25 -30 -25 -33 0 -3 -7 -19 -16 -37 -9 -17 -24 -70 -34 -117 l-18 -86 -1
61 c-2 119 57 235 151 299 71 47 82 44 19 -5z m4380 1 c30 -15 53 -34 51 -40
-1 -7 2 -10 7 -7 14 9 62 -61 77 -112 8 -25 13 -73 13 -106 l-1 -61 -14 68
c-7 38 -26 90 -40 118 -29 53 -119 142 -148 147 -10 2 -27 7 -39 12 -20 8 -19
9 9 9 18 1 56 -12 85 -28z m-4325 -53 c-89 -90 -136 -203 -136 -330 0 -26 -4
-37 -11 -32 -18 11 -5 161 20 225 25 67 79 132 140 171 25 15 46 28 47 28 1 0
-26 -28 -60 -62z m99 -8 c-21 -21 -43 -36 -49 -33 -6 3 -8 3 -4 -1 4 -5 -9
-36 -28 -71 -36 -66 -64 -170 -64 -243 0 -31 -4 -42 -12 -39 -21 7 -16 162 6
222 26 70 82 143 135 176 25 16 47 29 50 29 3 0 -12 -18 -34 -40z m4099 33 c3
-4 12 -8 19 -9 102 -17 187 -144 187 -277 0 -89 -16 -104 -22 -20 -9 118 -92
249 -188 296 -19 9 -28 17 -19 17 9 0 19 -3 23 -7z m-3989 -43 c-15 -16 -33
-27 -38 -23 -6 3 -7 1 -4 -4 4 -6 -2 -22 -13 -36 -37 -47 -79 -150 -92 -224
-10 -59 -15 -73 -30 -73 -43 0 -8 181 53 273 35 54 93 102 109 92 6 -4 10 -3
9 2 -3 17 2 23 18 23 13 0 11 -6 -12 -30z m81 -41 c-66 -74 -126 -211 -126
-291 0 -24 -4 -28 -26 -28 -26 0 -27 1 -21 53 10 97 93 259 128 249 6 -1 8 2
5 7 -7 11 52 61 72 61 8 0 -7 -23 -32 -51z m3874 30 c113 -68 180 -196 164
-314 l-7 -50 -12 70 c-21 119 -82 216 -179 287 -47 34 -21 40 34 7z m-3752
-26 c-13 -16 -34 -44 -46 -63 -29 -50 -72 -182 -72 -224 0 -35 -1 -36 -41 -36
l-41 0 7 43 c16 92 95 255 117 240 6 -3 8 -1 5 5 -9 14 49 62 76 62 20 0 20
-1 -5 -27z m3661 -7 c99 -52 181 -187 181 -299 0 -56 -11 -87 -30 -87 -4 0 -7
21 -9 46 -6 125 -105 285 -216 351 -18 11 -18 12 10 9 17 -1 45 -11 64 -20z
m-3579 -58 c-32 -64 -55 -136 -75 -230 -5 -24 -10 -28 -40 -28 -41 0 -42 7
-20 93 29 112 108 237 149 237 22 0 22 -2 -14 -72z m-893 40 c-3 -8 -6 -5 -6
6 -1 11 2 17 5 13 3 -3 4 -12 1 -19z m4423 -56 c58 -51 105 -130 125 -210 17
-65 17 -127 0 -127 -5 0 -15 -4 -22 -8 -8 -5 -14 4 -18 30 -21 130 -72 238
-152 317 -83 84 -28 82 67 -2z m-110 -30 c64 -65 111 -149 130 -232 18 -85 12
-111 -31 -126 l-36 -12 -5 71 c-6 84 -34 169 -80 240 -18 29 -32 55 -30 60 1
5 -1 6 -6 3 -5 -3 -19 5 -31 18 -17 18 -19 25 -9 29 29 12 42 5 98 -51z m-142
3 c73 -62 137 -198 148 -314 6 -64 5 -69 -15 -75 -63 -18 -58 -24 -64 71 -6
96 -32 185 -74 248 -14 22 -26 45 -26 52 0 7 -3 11 -5 8 -8 -8 -32 16 -26 26
9 16 32 10 62 -16z m-93 -47 c70 -82 114 -204 115 -319 0 -49 -9 -59 -55 -59
-21 0 -23 5 -30 77 -11 123 -48 219 -121 321 -16 22 -16 22 19 22 29 0 42 -7
72 -42z m-1056 -1712 c-14 -14 -300 -39 -499 -43 -226 -5 -507 11 -635 37 -22
4 223 8 549 9 324 0 587 -1 585 -3z"/>
<path d="M8495 6059 c-4 -5 0 -18 8 -27 14 -16 14 -20 -3 -42 -11 -14 -20 -30
-20 -36 0 -17 34 -44 68 -54 25 -7 36 -4 57 12 34 27 32 48 -15 107 -40 50
-79 67 -95 40z"/>
<path d="M8671 5846 c-11 -13 -11 -19 -1 -31 29 -35 54 -8 27 29 -12 16 -14
16 -26 2z"/>
<path d="M4757 5683 c-4 -3 -7 -14 -7 -24 0 -17 11 -18 110 -18 l110 0 0 24
c0 23 -4 25 -45 25 -25 0 -45 -5 -45 -10 0 -7 -6 -7 -19 0 -22 11 -94 14 -104
3z"/>
<path d="M4980 5665 c0 -16 6 -25 15 -25 9 0 15 9 15 25 0 16 -6 25 -15 25 -9
0 -15 -9 -15 -25z"/>
<path d="M8990 5642 c-43 -21 -50 -29 -50 -64 0 -26 3 -28 38 -28 45 0 59 8
78 45 13 25 13 30 -2 47 -20 21 -19 21 -64 0z"/>
<path d="M4690 5600 c0 -17 7 -20 45 -20 38 0 45 3 45 20 0 17 -7 20 -45 20
-38 0 -45 -3 -45 -20z"/>
<path d="M4790 5600 c0 -19 7 -20 110 -20 103 0 110 1 110 20 0 19 -7 20 -110
20 -103 0 -110 -1 -110 -20z"/>
<path d="M9168 5588 c3 -16 11 -32 18 -35 21 -8 45 17 42 41 -2 16 -11 21 -34
22 -28 1 -30 -1 -26 -28z"/>
<path d="M4757 5553 c-4 -3 -7 -15 -7 -25 0 -17 11 -18 130 -18 l130 0 0 25 0
25 -123 0 c-68 0 -127 -3 -130 -7z"/>
<path d="M8950 5480 c0 -5 5 -10 10 -10 6 0 10 5 10 10 0 6 -4 10 -10 10 -5 0
-10 -4 -10 -10z"/>
<path d="M4957 5463 c-19 -5 -47 -52 -47 -81 0 -10 11 -25 25 -32 57 -30 132
29 104 82 -19 37 -36 43 -82 31z"/>
<path d="M8783 5463 c-16 -6 -17 -39 -3 -48 6 -4 8 -11 5 -16 -4 -5 5 -4 19 2
54 25 34 85 -21 62z"/>
<path d="M5100 5385 c-18 -22 -1 -50 31 -50 20 0 24 5 24 30 0 23 -5 31 -21
33 -11 2 -27 -4 -34 -13z"/>
<path d="M8914 5349 c-3 -6 4 -21 16 -33 13 -11 20 -16 16 -9 -3 6 -1 13 6 15
16 6 2 38 -16 38 -8 0 -18 -5 -22 -11z"/>
<path d="M8654 5295 c-31 -47 13 -78 50 -36 14 15 15 24 6 40 -14 28 -36 26
-56 -4z"/>
<path d="M4367 5292 c-10 -10 -17 -28 -17 -39 0 -22 -286 -321 -327 -342 -12
-6 -47 -11 -77 -11 -53 0 -56 -1 -56 -25 0 -24 2 -25 68 -25 87 0 97 7 291
203 80 80 149 144 153 141 19 -12 58 26 58 56 0 54 -58 80 -93 42z"/>
<path d="M8821 5274 c-23 -29 -24 -34 -15 -58 4 -10 18 -16 41 -16 46 0 73 16
73 43 -1 58 -63 77 -99 31z"/>
<path d="M4548 5163 c-11 -21 -1 -38 25 -41 25 -3 28 0 25 20 -3 23 -41 39
-50 21z"/>
<path d="M4620 5145 c0 -25 1 -25 85 -25 84 0 85 0 85 25 0 25 -1 25 -85 25
-84 0 -85 0 -85 -25z"/>
<path d="M4802 5145 c2 -19 8 -25 25 -25 18 0 23 6 23 25 0 20 -5 25 -25 25
-20 0 -24 -4 -23 -25z"/>
<path d="M4728 5093 c-107 -4 -108 -4 -108 -28 l0 -25 115 0 115 0 0 30 c0 17
-3 29 -7 28 -5 -1 -56 -4 -115 -5z"/>
<path d="M4544 5068 c2 -17 10 -23 27 -23 17 0 25 6 27 23 3 19 -1 22 -27 22
-26 0 -30 -3 -27 -22z"/>
<path d="M8840 5055 c0 -25 1 -25 84 -25 82 0 84 0 84 25 0 25 -2 25 -84 25
-83 0 -84 0 -84 -25z"/>
<path d="M4550 4995 c0 -20 5 -25 25 -25 20 0 25 5 25 25 0 20 -5 25 -25 25
-20 0 -25 -5 -25 -25z"/>
<path d="M4620 4995 c0 -18 5 -25 20 -25 15 0 20 7 20 25 0 18 -5 25 -20 25
-15 0 -20 -7 -20 -25z"/>
<path d="M4677 5013 c-4 -3 -7 -15 -7 -25 0 -16 9 -18 90 -18 89 0 90 0 90 25
0 25 -1 25 -83 25 -46 0 -87 -3 -90 -7z"/>
<path d="M8920 4975 l0 -25 175 0 175 0 0 25 0 25 -175 0 -175 0 0 -25z"/>
<path d="M9298 4995 c-8 -9 3 -45 13 -45 5 0 9 7 9 15 0 8 0 18 1 22 1 10 -16
15 -23 8z"/>
<path d="M9357 4994 c-13 -13 -7 -44 8 -44 8 0 15 7 15 15 0 8 0 18 1 22 1 10
-16 15 -24 7z"/>
<path d="M9410 4975 l0 -25 105 0 105 0 0 25 0 25 -105 0 -105 0 0 -25z"/>
<path d="M8920 4895 c0 -24 2 -25 65 -25 63 0 65 1 65 25 0 24 -2 25 -65 25
-63 0 -65 -1 -65 -25z"/>
<path d="M9060 4895 c0 -23 3 -25 50 -25 47 0 50 2 50 25 0 23 -3 25 -50 25
-47 0 -50 -2 -50 -25z"/>
<path d="M8920 4813 l0 -28 171 3 c169 3 170 3 167 25 -3 22 -6 22 -170 25
l-168 2 0 -27z"/>
<path d="M9270 4815 c0 -24 2 -25 71 -25 67 0 70 1 67 23 -3 20 -9 22 -70 25
-67 3 -68 3 -68 -23z"/>
<path d="M9420 4815 c0 -24 3 -25 60 -25 57 0 60 1 60 25 0 24 -3 25 -60 25
-57 0 -60 -1 -60 -25z"/>
<path d="M4733 4785 c-15 -11 -54 -15 -149 -16 -70 -1 -143 -5 -163 -10 -26
-6 -68 -42 -180 -153 l-146 -146 -101 0 c-55 0 -103 -3 -106 -6 -3 -3 -4 -14
-1 -25 5 -17 15 -19 112 -19 58 0 113 5 121 10 8 5 78 72 156 150 l141 140
147 0 c118 0 152 -3 171 -16 17 -11 33 -14 52 -8 16 4 31 7 34 6 3 0 5 22 5
50 -1 51 -1 51 -36 54 -21 3 -44 -2 -57 -11z"/>
<path d="M8920 4725 c0 -26 1 -26 73 -23 66 3 72 5 75 26 3 21 0 22 -72 22
-75 0 -76 0 -76 -25z"/>
<path d="M9080 4725 c0 -22 4 -25 40 -25 36 0 40 3 40 25 0 23 -4 25 -40 25
-36 0 -40 -2 -40 -25z"/>
<path d="M9180 4725 c0 -24 2 -25 65 -25 63 0 65 1 65 25 0 24 -2 25 -65 25
-63 0 -65 -1 -65 -25z"/>
<path d="M8920 4650 c0 -20 5 -30 15 -30 21 0 30 27 15 45 -19 23 -30 18 -30
-15z"/>
<path d="M8840 4570 c0 -25 4 -31 18 -28 11 2 17 12 17 28 0 16 -6 26 -17 28
-14 3 -18 -3 -18 -28z"/>
<path d="M4455 4516 c-16 -7 -79 -61 -139 -119 l-110 -105 -154 -1 c-85 -1
-159 -4 -163 -7 -9 -5 0 -36 13 -45 7 -5 245 -4 317 0 7 1 66 53 131 116 l118
115 200 0 c110 0 207 3 216 6 9 3 16 17 16 30 l0 24 -207 0 c-149 -1 -217 -5
-238 -14z"/>
<path d="M8804 4425 c-10 -25 2 -40 32 -41 16 -1 121 -2 233 -3 l203 -1 119
-117 c72 -72 130 -120 147 -124 15 -4 96 -7 180 -8 l153 -1 -3 26 -3 26 -165
5 -165 5 -42 41 c-23 22 -39 45 -36 51 3 6 3 8 -2 4 -4 -4 -43 25 -85 66 -58
56 -85 74 -114 79 -20 3 -129 6 -242 6 -169 0 -206 -2 -210 -14z"/>
<path d="M4587 4300 c-20 -4 -48 -17 -60 -29 -13 -11 -28 -18 -33 -14 -5 5 -6
4 -1 -1 4 -6 -29 -47 -75 -93 l-83 -83 -222 0 -223 0 0 -25 0 -25 234 0 233 0
109 110 110 110 55 0 c57 0 79 12 79 42 0 15 -8 18 -42 17 -24 -1 -60 -5 -81
-9z"/>
<path d="M8844 4234 c3 -9 6 -20 6 -25 0 -5 84 -9 198 -9 227 0 205 7 323
-107 l77 -73 211 0 211 0 0 25 0 25 -201 0 -200 0 -57 53 c-31 29 -68 64 -82
76 -50 46 -77 51 -291 51 -179 0 -200 -2 -195 -16z"/>
<path d="M4548 3950 c-14 -10 -28 -17 -31 -14 -4 5 -555 6 -602 1 -19 -2 -37
-33 -28 -50 3 -4 148 -7 323 -7 281 1 322 -1 344 -16 31 -20 71 -12 87 17 20
38 -15 88 -62 89 -4 0 -18 -9 -31 -20z"/>
<path d="M9314 3761 c-42 -31 -274 -263 -300 -300 -15 -20 -15 -25 -1 -38 13
-13 33 3 180 151 l165 166 256 0 256 0 0 25 0 25 -258 0 -259 0 -39 -29z"/>
<path d="M3890 3735 l0 -25 224 0 224 0 71 -65 71 -65 210 0 210 0 0 25 0 25
-200 0 -201 0 -52 48 c-29 26 -54 50 -57 53 -20 24 -63 29 -274 29 l-226 0 0
-25z"/>
<path d="M3908 3653 c-22 -6 -24 -39 -2 -47 9 -3 100 -6 202 -6 l187 -1 85
-84 c67 -66 92 -85 122 -90 43 -8 58 -1 58 25 0 14 -10 21 -37 26 -29 5 -58
26 -125 90 l-87 84 -143 1 c-79 0 -165 2 -193 4 -27 1 -58 0 -67 -2z"/>
<path d="M9415 3645 c-17 -9 -61 -49 -98 -90 -42 -45 -76 -75 -88 -75 -38 0
-59 -19 -59 -53 0 -41 8 -51 43 -55 34 -4 67 22 67 52 0 25 102 130 115 119 4
-5 5 -3 2 4 -4 6 7 23 24 37 l31 26 209 0 209 0 0 25 0 25 -212 0 c-168 0
-219 -4 -243 -15z"/>
<path d="M3890 3515 l0 -25 153 0 152 0 65 -62 c36 -34 95 -90 131 -125 46
-45 70 -62 82 -57 9 3 17 12 17 19 0 7 -61 72 -136 144 l-137 131 -163 0 -164
0 0 -25z"/>
<path d="M3890 3400 l0 -30 91 0 90 0 55 -51 c36 -34 54 -60 54 -75 0 -31 35
-66 62 -62 12 2 30 15 41 29 16 23 17 30 7 50 -16 29 -29 39 -55 39 -11 0 -45
26 -77 57 -62 61 -90 71 -215 72 -52 1 -53 1 -53 -29z"/>
<path d="M9642 3264 c-13 -9 -55 -49 -94 -89 -39 -40 -76 -71 -83 -69 -23 9
-59 -32 -60 -68 -1 -19 3 -35 9 -36 6 -1 22 -4 36 -7 33 -8 64 16 65 49 1 20
24 50 81 107 l79 79 97 0 c98 0 98 0 98 25 l0 25 -103 0 c-77 0 -108 -4 -125
-16z"/>
<path d="M3890 3235 c0 -24 2 -25 70 -25 53 0 71 -4 78 -16 5 -9 13 -16 18
-16 5 0 8 -5 6 -11 -2 -7 0 -9 4 -5 10 11 35 -12 27 -25 -3 -5 -2 -7 4 -4 5 3
49 -34 98 -83 48 -50 91 -90 95 -90 4 0 13 7 20 16 12 13 -1 30 -91 121 -153
154 -166 163 -256 163 -71 0 -73 -1 -73 -25z"/>
<path d="M6460 2579 c-96 -7 -112 -12 -158 -46 -80 -60 -108 -215 -78 -443 4
-27 33 -74 65 -104 17 -16 28 -32 26 -36 -3 -4 1 -7 8 -7 6 1 37 -4 67 -11 37
-8 121 -12 250 -10 l195 3 3 64 c2 45 -1 67 -10 72 -7 5 -99 9 -204 9 -178 0
-193 1 -218 21 -20 16 -26 29 -26 60 l0 39 214 0 c122 0 217 4 221 9 12 20 8
113 -6 122 -8 5 -110 9 -228 9 -191 0 -213 2 -207 16 3 9 9 27 12 40 11 43 37
49 249 54 l200 5 3 59 c2 32 -1 63 -6 68 -11 11 -256 15 -372 7z"/>
<path d="M5456 2564 c-3 -9 -6 -152 -6 -319 0 -298 0 -305 21 -315 30 -17 451
-8 502 10 57 21 123 83 144 138 14 37 18 75 18 177 0 194 -32 259 -153 305
-47 18 -76 20 -286 20 -204 0 -235 -2 -240 -16z m453 -137 c52 -18 71 -63 71
-170 0 -168 -24 -187 -235 -187 l-135 0 0 185 0 185 133 -1 c75 0 147 -5 166
-12z"/>
<path d="M6876 2571 c-4 -6 53 -131 125 -278 73 -147 132 -273 132 -280 0 -7
4 -10 8 -8 3 3 12 -9 19 -26 7 -16 25 -36 41 -44 37 -20 119 -19 147 1 23 16
322 600 322 629 0 12 -15 15 -81 15 l-80 0 -69 -142 c-37 -79 -90 -189 -118
-246 l-49 -103 -74 152 c-41 83 -94 193 -119 243 l-45 91 -77 3 c-43 2 -79 -2
-82 -7z"/>
<path d="M7772 2563 c-52 -25 -74 -65 -80 -144 -9 -125 28 -194 116 -219 20
-5 103 -10 184 -10 120 0 149 -3 162 -16 18 -18 21 -56 6 -85 -10 -18 -23 -19
-228 -19 -156 0 -221 -3 -230 -12 -17 -17 -15 -113 2 -128 11 -8 81 -11 263
-8 274 3 290 7 328 71 20 33 31 145 21 201 -9 47 -57 102 -104 117 -20 7 -109
15 -197 18 l-160 6 -3 41 c-2 26 2 45 11 52 9 8 83 12 218 14 l204 3 3 68 3
67 -243 0 c-203 0 -248 -3 -276 -17z"/>
<path d="M5007 1924 c-13 -13 -8 -22 43 -83 48 -58 53 -61 95 -61 54 0 55 5
12 85 l-32 60 -55 3 c-31 2 -59 0 -63 -4z"/>
<path d="M5080 1741 c-8 -6 -18 -7 -24 -4 -5 3 -6 1 -2 -5 3 -6 2 -13 -3 -16
-5 -3 -28 -46 -51 -96 -24 -49 -46 -90 -50 -90 -4 0 -7 -6 -7 -12 0 -7 -30
-77 -67 -155 -36 -78 -66 -146 -66 -151 0 -14 26 -22 73 -22 54 0 62 6 87 63
l21 47 147 0 148 0 27 -55 27 -55 60 0 c44 0 62 4 66 15 3 8 -50 128 -119 267
-134 273 -138 278 -215 278 -20 0 -44 -4 -52 -9z m109 -233 l40 -88 -91 0
c-68 0 -89 3 -85 13 33 82 82 176 88 170 4 -4 26 -47 48 -95z"/>
<path d="M5758 1740 c-16 -10 -18 -34 -18 -269 0 -216 2 -261 15 -271 11 -9
63 -11 197 -9 177 4 185 5 241 32 48 24 62 37 85 80 24 47 27 62 27 162 0 123
-10 161 -59 213 -54 58 -81 65 -286 69 -121 2 -191 0 -202 -7z m375 -141 c48
-37 60 -155 23 -227 -21 -41 -61 -52 -182 -52 l-104 0 0 150 0 150 119 0 c104
0 121 -2 144 -21z"/>
<path d="M6495 1735 c-57 -20 -102 -75 -116 -144 -17 -81 -7 -235 18 -292 40
-91 105 -111 339 -107 l149 3 3 56 3 56 -168 7 c-192 9 -213 16 -213 70 l0 35
177 0 c97 1 181 5 186 10 4 4 7 28 5 52 l-3 44 -187 3 c-203 3 -201 2 -177 56
7 14 19 28 28 32 9 4 92 9 184 12 l168 4 -3 57 -3 56 -175 2 c-130 2 -185 -1
-215 -12z"/>
<path d="M6963 1739 c-20 -20 -18 -522 1 -538 8 -7 37 -11 68 -9 l53 3 3 88 3
87 87 0 87 0 40 -62 c72 -113 79 -118 145 -118 40 0 59 4 63 14 3 7 -21 52
-53 98 l-59 84 30 18 c45 27 63 70 63 156 1 88 -19 132 -74 165 -32 18 -55 20
-240 23 -155 3 -208 0 -217 -9z m367 -121 c19 -2 26 -11 33 -38 10 -45 -6 -95
-29 -86 -8 3 -12 2 -9 -4 4 -6 -37 -10 -114 -10 l-121 0 0 76 0 76 108 -5 c59
-3 118 -7 132 -9z"/>
<path d="M7575 1738 c-3 -7 -4 -132 -3 -278 l3 -265 60 0 60 0 0 275 0 275
-58 3 c-40 2 -59 -1 -62 -10z"/>
<path d="M7744 1736 c-3 -7 51 -127 119 -267 133 -273 138 -279 213 -279 26 0
43 8 64 29 16 16 32 26 36 22 4 -3 4 -1 1 5 -4 6 23 71 59 145 115 233 154
320 154 340 0 16 -7 19 -54 19 -32 0 -60 -5 -68 -13 -7 -8 -53 -97 -103 -200
-49 -102 -93 -187 -98 -187 -4 0 -11 10 -16 23 -25 64 -174 362 -184 369 -21
14 -117 9 -123 -6z"/>
<path d="M8550 1723 c-32 -30 -250 -477 -250 -514 0 -18 5 -20 63 -17 l62 3
25 52 25 53 148 0 147 0 10 -26 c6 -15 20 -40 31 -55 18 -26 26 -29 80 -29 85
0 88 -15 -78 331 -100 206 -119 229 -189 229 -34 0 -51 -6 -74 -27z m154 -280
c7 -23 6 -23 -78 -23 -50 0 -86 4 -86 10 0 5 18 49 41 97 l41 88 37 -75 c21
-41 42 -85 45 -97z"/>
<path d="M7334 1079 c-9 -15 12 -33 30 -26 9 4 16 13 16 22 0 17 -35 21 -46 4z"/>
<path d="M7127 1042 c-42 -43 -32 -92 19 -92 25 0 74 52 74 79 0 46 -54 54
-93 13z"/>
<path d="M7292 1023 c-22 -8 -35 -43 -21 -59 17 -21 47 -17 60 7 9 18 8 25 -7
39 -11 10 -25 16 -32 13z"/>
<path d="M7044 895 c-4 -9 -2 -21 4 -27 15 -15 44 -1 40 19 -4 23 -36 29 -44
8z"/>
<path d="M6042 5598 c3 -21 9 -23 85 -26 72 -2 83 -1 92 17 14 26 -2 31 -101
31 -77 0 -79 -1 -76 -22z"/>
<path d="M5816 3381 c-10 -16 5 -41 28 -47 12 -3 55 -4 96 -2 74 3 75 4 78 31
l3 27 -100 0 c-55 0 -102 -4 -105 -9z"/>
<path d="M4712 3368 c3 -21 8 -23 76 -26 60 -2 73 0 79 14 9 24 -10 31 -88 33
-68 2 -70 1 -67 -21z"/>
<path d="M3613 5669 c-59 -17 -56 -94 3 -94 19 0 32 7 40 22 6 13 14 20 17 16
4 -3 7 10 7 30 0 41 -7 43 -67 26z"/>
<path d="M3333 2634 c-14 -6 -17 -52 -5 -72 6 -9 36 -12 113 -10 l104 3 0 40
0 40 -100 2 c-55 1 -106 -1 -112 -3z"/>
<path d="M9149 1114 c-7 -9 -23 -20 -36 -25 -25 -9 -32 -50 -10 -66 6 -6 37
-11 67 -12 45 -2 59 2 74 17 17 19 17 22 -4 61 -17 34 -26 41 -49 41 -16 0
-35 -7 -42 -16z"/>
<path d="M9370 1090 c-12 -23 -6 -56 13 -63 24 -9 57 12 57 36 0 46 -50 65
-70 27z"/>
<path d="M9050 877 c0 -18 21 -37 41 -37 24 0 33 18 19 35 -15 19 -60 20 -60
2z"/>
</g>
</svg>
